<svg width="951" height="498" viewBox="0 0 951 498" fill="none" xmlns="http://www.w3.org/2000/svg">
<path d="M471.534 321.859C464.902 335.566 485.422 385.536 490.102 384.647C497.176 370.94 517.07 368.729 510.439 355.021C501.155 335.124 478.386 349.936 488.997 332.249C499.607 315.447 511.544 310.141 524.365 317.216C535.86 323.406 535.86 323.848 524.365 337.113C509.776 353.916 512.87 389.29 525.691 393.712C532.276 395.983 498.391 396.229 500.049 390.436C501.707 384.644 458.602 400.377 465.234 392.086C471.865 383.795 472.197 324.069 457.607 307.267C446.113 294.002 446.113 290.243 457.607 284.053C470.428 276.978 482.365 282.284 492.976 299.087C503.586 316.773 480.818 301.961 471.534 321.859Z" fill="#F7F7F7"/>
<path d="M252.589 426H203.052V364.521H42.9419V326.042L200.398 116.395H252.589V323.388H298.145V364.521H252.589V426ZM203.052 323.388V179.643L95.5748 323.388H203.052ZM490.491 430.423C474.568 430.423 459.825 428.064 446.261 423.346C432.698 418.628 420.608 411.847 409.993 403.001C399.378 393.86 390.385 382.95 383.013 370.271C375.642 357.297 370.04 342.554 366.206 326.042C362.373 309.235 360.456 290.953 360.456 271.197C360.456 251.442 362.373 233.308 366.206 216.795C370.04 200.283 375.642 185.54 383.013 172.566C390.385 159.592 399.378 148.682 409.993 139.836C420.608 130.696 432.698 123.766 446.261 119.049C459.825 114.331 474.568 111.972 490.491 111.972C507.003 111.972 522.041 114.331 535.605 119.049C549.168 123.766 561.258 130.696 571.873 139.836C582.488 148.682 591.481 159.592 598.852 172.566C606.224 185.54 611.826 200.283 615.66 216.795C619.493 233.308 621.409 251.442 621.409 271.197C621.409 290.953 619.493 309.235 615.66 326.042C611.826 342.554 606.224 357.297 598.852 370.271C591.481 382.95 582.488 393.86 571.873 403.001C561.258 411.847 549.168 418.628 535.605 423.346C522.041 428.064 507.003 430.423 490.491 430.423ZM490.491 387.963C500.221 387.963 509.067 386.341 517.028 383.098C525.284 379.854 532.508 374.989 538.701 368.502C545.188 361.72 550.495 353.611 554.623 344.176C558.751 334.74 561.847 323.978 563.911 311.888C566.27 299.504 567.45 285.941 567.45 271.197C567.45 256.454 566.27 243.038 563.911 230.949C561.847 218.565 558.751 207.655 554.623 198.219C550.495 188.783 545.188 180.822 538.701 174.335C532.508 167.848 525.284 162.983 517.028 159.74C509.067 156.496 500.221 154.874 490.491 154.874C481.055 154.874 472.357 156.496 464.395 159.74C456.434 162.983 449.21 167.848 442.723 174.335C436.531 180.822 431.223 188.783 426.8 198.219C422.672 207.655 419.429 218.565 417.07 230.949C415.006 243.038 413.974 256.454 413.974 271.197C413.974 285.941 415.006 299.504 417.07 311.888C419.429 323.978 422.672 334.74 426.8 344.176C431.223 353.611 436.531 361.72 442.723 368.502C449.21 374.989 456.434 379.854 464.395 383.098C472.357 386.341 481.055 387.963 490.491 387.963ZM893.948 426H844.411V364.521H684.301V326.042L841.758 116.395H893.948V323.388H939.504V364.521H893.948V426ZM844.411 323.388V179.643L736.934 323.388H844.411Z" fill="#F28E56"/>
<path d="M30.0044 293.003C41.8978 316.313 55.1383 311.63 58.5995 304.515C60.1817 301.735 58.5995 297.657 53.7538 292.282C45.9413 283.571 42.9746 279.771 42.9746 278.474C42.9746 275.971 48.0181 273.932 53.9516 274.025C59.4895 274.118 64.7308 276.064 64.7308 278.103C64.7308 278.659 62.3574 280.049 59.3906 281.254C53.556 283.663 52.0726 285.98 53.9516 289.409C58.3028 297.379 63.7418 296.452 71.3565 286.351C78.9712 276.249 77.6537 299.135 76.4247 307.564C74.5536 320.397 64.7308 346.625 53.9516 344.959C49.1702 344.219 47.1228 353.793 42.7087 350.184C38.2946 346.574 42.7087 317.126 29.4638 301.405C8.10979 275.927 0.000728655 264.814 0.000728489 261.019C0.000728169 253.701 13.7862 247.738 30.0044 248.009C45.1414 248.28 59.4676 253.972 59.4676 259.935C59.4676 261.561 52.9803 265.627 44.8712 269.151C28.9233 276.198 24.8686 282.974 30.0044 293.003Z" fill="#F7F7F7"/>
</svg>
