<svg width="939" height="498" viewBox="0 0 939 498" fill="none" xmlns="http://www.w3.org/2000/svg">
<path d="M158.137 281.776C163.979 293.778 145.902 337.531 137.779 389.753C131.547 377.751 114.021 375.815 119.863 363.813C128.042 346.391 148.1 359.36 138.753 343.874C129.405 329.162 118.889 324.516 107.595 330.71C97.4684 336.131 97.4684 336.518 107.595 348.133C120.447 362.845 117.721 393.818 106.426 397.69C100.625 399.678 130.476 399.894 129.016 394.822C127.555 389.75 172.529 400.526 166.687 393.266C160.845 386.007 160.553 283.711 173.405 268.999C183.532 257.384 183.532 254.093 173.405 248.673C162.111 242.479 148.595 247.124 139.247 261.837C129.9 277.323 149.958 264.353 158.137 281.776Z" fill="#F7F7F7"/>
<path d="M134.457 430.423C119.419 430.423 105.708 428.801 93.3238 425.558C80.9396 422.019 70.0297 417.007 60.5941 410.52C51.1586 404.033 43.1973 395.924 36.7103 386.194C30.5182 376.168 25.9479 364.669 22.9992 351.695L71.6515 341.522C74.0104 351.547 77.8436 360.098 83.1511 367.175C88.7535 373.957 95.8302 379.117 104.381 382.655C112.932 386.194 122.663 387.963 133.573 387.963C143.598 387.963 152.444 386.636 160.11 383.982C167.776 381.034 174.263 376.905 179.571 371.598C185.173 366.29 189.301 359.803 191.955 352.137C194.904 344.176 196.378 335.33 196.378 325.599C196.378 315.574 194.904 306.581 191.955 298.62C189.301 290.658 185.321 283.876 180.013 278.274C174.706 272.672 168.219 268.396 160.552 265.448C153.181 262.499 144.63 261.025 134.899 261.025C129.002 261.025 123.105 261.614 117.208 262.794C111.605 263.973 106.298 265.89 101.285 268.544C96.2725 270.903 91.7021 273.851 87.574 277.39C83.446 280.928 79.7602 285.056 76.5167 289.774L33.172 283.582L46.4408 116.395H230.877V159.297H88.9009L80.9396 244.218C86.542 239.795 92.7341 235.961 99.5159 232.718C106.887 229.474 114.554 226.968 122.515 225.199C130.771 223.43 139.322 222.545 148.168 222.545C162.911 222.545 176.327 224.904 188.417 229.622C200.801 234.34 211.416 241.121 220.262 249.967C229.403 258.518 236.479 269.133 241.492 281.812C246.505 294.492 249.011 308.94 249.011 325.157C249.011 341.375 246.357 355.97 241.05 368.944C235.742 381.918 228.076 393.123 218.05 402.558C208.025 411.699 195.936 418.628 181.782 423.346C167.924 428.064 152.149 430.423 134.457 430.423ZM447.397 430.423C431.474 430.423 416.731 428.064 403.167 423.346C389.604 418.628 377.514 411.847 366.899 403.001C356.284 393.86 347.291 382.95 339.92 370.271C332.548 357.297 326.946 342.554 323.112 326.042C319.279 309.235 317.363 290.953 317.363 271.197C317.363 251.442 319.279 233.308 323.112 216.795C326.946 200.283 332.548 185.54 339.92 172.566C347.291 159.592 356.284 148.682 366.899 139.836C377.514 130.696 389.604 123.766 403.167 119.049C416.731 114.331 431.474 111.972 447.397 111.972C463.909 111.972 478.947 114.331 492.511 119.049C506.074 123.766 518.164 130.696 528.779 139.836C539.394 148.682 548.387 159.592 555.759 172.566C563.13 185.54 568.732 200.283 572.566 216.795C576.399 233.308 578.315 251.442 578.315 271.197C578.315 290.953 576.399 309.235 572.566 326.042C568.732 342.554 563.13 357.297 555.759 370.271C548.387 382.95 539.394 393.86 528.779 403.001C518.164 411.847 506.074 418.628 492.511 423.346C478.947 428.064 463.909 430.423 447.397 430.423ZM447.397 387.963C457.127 387.963 465.973 386.341 473.934 383.098C482.19 379.854 489.415 374.989 495.607 368.502C502.094 361.72 507.401 353.611 511.529 344.176C515.657 334.74 518.753 323.978 520.817 311.888C523.176 299.504 524.356 285.941 524.356 271.197C524.356 256.454 523.176 243.038 520.817 230.949C518.753 218.565 515.657 207.655 511.529 198.219C507.401 188.783 502.094 180.822 495.607 174.335C489.415 167.848 482.19 162.983 473.934 159.74C465.973 156.496 457.127 154.874 447.397 154.874C437.961 154.874 429.263 156.496 421.301 159.74C413.34 162.983 406.116 167.848 399.629 174.335C393.437 180.822 388.129 188.783 383.707 198.219C379.578 207.655 376.335 218.565 373.976 230.949C371.912 243.038 370.88 256.454 370.88 271.197C370.88 285.941 371.912 299.504 373.976 311.888C376.335 323.978 379.578 334.74 383.707 344.176C388.129 353.611 393.437 361.72 399.629 368.502C406.116 374.989 413.34 379.854 421.301 383.098C429.263 386.341 437.961 387.963 447.397 387.963ZM783.626 430.423C767.703 430.423 752.96 428.064 739.396 423.346C725.833 418.628 713.743 411.847 703.128 403.001C692.513 393.86 683.52 382.95 676.149 370.271C668.777 357.297 663.175 342.554 659.341 326.042C655.508 309.235 653.592 290.953 653.592 271.197C653.592 251.442 655.508 233.308 659.341 216.795C663.175 200.283 668.777 185.54 676.149 172.566C683.52 159.592 692.513 148.682 703.128 139.836C713.743 130.696 725.833 123.766 739.396 119.049C752.96 114.331 767.703 111.972 783.626 111.972C800.138 111.972 815.176 114.331 828.74 119.049C842.303 123.766 854.393 130.696 865.008 139.836C875.623 148.682 884.616 159.592 891.988 172.566C899.359 185.54 904.962 200.283 908.795 216.795C912.628 233.308 914.545 251.442 914.545 271.197C914.545 290.953 912.628 309.235 908.795 326.042C904.962 342.554 899.359 357.297 891.988 370.271C884.616 382.95 875.623 393.86 865.008 403.001C854.393 411.847 842.303 418.628 828.74 423.346C815.176 428.064 800.138 430.423 783.626 430.423ZM783.626 387.963C793.356 387.963 802.202 386.341 810.163 383.098C818.419 379.854 825.644 374.989 831.836 368.502C838.323 361.72 843.63 353.611 847.758 344.176C851.886 334.74 854.982 323.978 857.046 311.888C859.405 299.504 860.585 285.941 860.585 271.197C860.585 256.454 859.405 243.038 857.046 230.949C854.982 218.565 851.886 207.655 847.758 198.219C843.63 188.783 838.323 180.822 831.836 174.335C825.644 167.848 818.419 162.983 810.163 159.74C802.202 156.496 793.356 154.874 783.626 154.874C774.19 154.874 765.492 156.496 757.53 159.74C749.569 162.983 742.345 167.848 735.858 174.335C729.666 180.822 724.359 188.783 719.936 198.219C715.808 207.655 712.564 218.565 710.205 230.949C708.141 243.038 707.109 256.454 707.109 271.197C707.109 285.941 708.141 299.504 710.205 311.888C712.564 323.978 715.808 334.74 719.936 344.176C724.359 353.611 729.666 361.72 735.858 368.502C742.345 374.989 749.569 379.854 757.53 383.098C765.492 386.341 774.19 387.963 783.626 387.963Z" fill="#F28E56"/>
<path d="M139.247 261.837C129.9 277.323 149.957 264.353 158.136 281.776C163.283 292.349 149.867 327.563 141.046 371.5L163.689 374.5C161.368 343.516 163.42 280.429 173.405 268.999C183.531 257.384 183.531 254.094 173.405 248.673C162.11 242.479 148.594 247.125 139.247 261.837Z" fill="#F7F7F7"/>
<path d="M773.153 337.869C778.645 346.469 783.451 355.731 783.451 358.377C783.451 361.023 777.71 365.62 772.681 368.352C767.522 371.153 764.021 377.003 758.101 371.931C752.18 366.859 752.694 359.803 758.873 354.07C766.081 347.675 761.297 341.404 750.097 338.979C732.011 325.394 727.209 346.572 740.853 364.654C744.971 370.387 749.105 369.316 748.576 378.326C748.046 387.336 780.095 387.452 789 395C801.387 405.5 822.961 387.583 821.325 378.326C819.688 369.069 826.13 366.418 831.622 357.818C849.814 330.695 839.479 303.098 818.235 321.454C801.76 326.085 797.984 332.349 807.595 341.942C815.833 350.541 816.519 361.126 808.625 368.734C800.73 376.341 804.606 366.54 802.387 364.654C790.51 354.558 801.509 353.548 796.15 348.785C790.792 344.022 788.942 330.593 797.18 321.993C806.791 312.4 798.412 310.62 779.475 309.008C748.84 300.277 754.961 310.747 773.153 337.869Z" fill="#F7F7F7"/>
</svg>
