<svg width="39" height="39" viewBox="0 0 39 39" fill="none" xmlns="http://www.w3.org/2000/svg">
<path d="M26.9977 12.5798C30.5036 15.6517 23.8433 19.8826 20.6873 19.8826C17.5312 19.8826 17.1877 25.6003 18.1328 29.4021C19.0779 33.2038 24.4104 32.4651 25.765 32.4155C27.1195 32.366 28.4848 32.9176 29.0394 30.6127C29.5379 28.5415 29.0394 25.4266 27.3751 25.4266C25.7108 25.4266 21.6353 22.877 23.6771 21.4482C31.2582 16.1432 28.2224 12.5798 35.4775 19.7579C38.9169 24.2741 35.5566 25.4266 32.7994 25.4266C30.0422 25.4266 31.3307 26.2236 31.1514 27.1553C30.5967 30.0364 32.0386 31.5684 32.2607 32.9176C32.6689 35.3964 38.4714 30.4458 38.9171 32.9176C39.3629 35.3894 37.8653 33.6329 37.8653 35.7493C37.8653 38.9215 27.5522 35.8507 21.0363 36.8071C16.8913 37.4155 14.6782 39.4159 10.5181 38.9225C5.95716 38.3816 0 33.633 0 33.633C0.845223 29.0958 11.8481 38.183 12.6222 33.633C13.0435 31.1564 15.7776 28.3443 14.7258 23.0557C14.3857 21.3455 16.829 19.8826 11.6007 19.8826C6.37244 19.8826 0.00042605 17.7671 6.52245 9.47712C22.0886 -6.56052 12.6395 -0.0010643 26.9977 12.5798Z" fill="black"/>
</svg>
