<svg width="56" height="39" viewBox="0 0 56 39" fill="none" xmlns="http://www.w3.org/2000/svg">
<path d="M28.4169 1.10439C33.2173 2.00929 40.1299 4.89404 44.6075 8.11059C60.5415 19.4745 59.6554 25.973 41.807 26.5626C24.5248 27.146 37.165 29.1455 37.7538 35.6291C38.3427 42.1126 30.5516 34.8133 25.3895 37.3966C20.6796 39.7536 13.0253 38.5741 14.1321 32.1507C15.2389 25.7272 22.3037 38.9287 21.3431 30.8393C20.4299 23.0977 18.4947 21.3772 13.3367 23.5682C8.3969 25.8004 1.44945 23.7 0.580164 19.9209C-0.247991 15.9236 3.82885 10.4784 12.1274 4.81225C19.3886 -0.145605 20.3436 -0.417492 28.4169 1.10439Z" fill="black"/>
</svg>
