<svg width="61" height="45" viewBox="0 0 61 45" fill="none" xmlns="http://www.w3.org/2000/svg">
<path d="M22.6791 17.4894C25.781 22.2089 28.4952 27.2915 28.4952 28.7436C28.4952 30.1958 25.2526 32.7184 22.4122 34.2174C19.4986 35.755 17.5214 38.9651 14.1771 36.1818C10.8329 33.3985 11.1237 29.5261 14.6134 26.3798C18.6846 22.8705 15.9823 19.4293 9.65685 18.0982C-0.558447 10.6434 -3.27104 22.2654 4.43525 32.1884C6.76167 35.3347 9.09657 34.7468 8.79729 39.6912C8.49802 44.6356 26.6852 37.7689 30.8016 42.3865C35.116 47.2261 50.8113 44.7711 49.887 39.6912C48.9627 34.6113 52.6012 33.1564 55.7031 28.437C65.9781 13.5525 60.1409 -1.59245 48.1422 8.48104C38.8365 11.0223 36.7039 14.4601 42.1322 19.7241C46.7851 24.4436 47.1728 30.2522 42.7139 34.4271C38.2549 38.602 40.4442 33.2233 39.1911 32.1884C32.4828 26.6481 38.6949 26.0934 35.6683 23.4796C32.6417 20.8657 31.5971 13.4961 36.25 8.77658C41.6783 3.51255 36.9457 2.5353 26.2498 1.65078C8.94688 -3.14036 12.4041 2.6049 22.6791 17.4894Z" fill="black"/>
</svg>
