<svg width="42" height="41" viewBox="0 0 42 41" fill="none" xmlns="http://www.w3.org/2000/svg">
<path d="M21.643 0.9051L21.9298 0.902059C21.928 0.729228 21.9988 0.564571 22.1248 0.448189L22.1254 0.447684C22.2491 0.33293 22.4205 0.275468 22.5953 0.288764C32.3408 1.17746 40.0556 8.89589 40.9417 18.6414C40.9568 18.8131 40.8989 18.9827 40.7821 19.1093L40.782 19.1094C40.667 19.2342 40.5053 19.3052 40.336 19.3052H40.3359H40.3359H40.3359H40.3358H40.3358H40.3357H40.3357H40.3357H40.3356H40.3356H40.3355H40.3355H40.3354H40.3354H40.3354H40.3353H40.3353H40.3352H40.3352H40.3352H40.3351H40.3351H40.335H40.335H40.335H40.3349H40.3349H40.3348H40.3348H40.3348H40.3347H40.3347H40.3346H40.3346H40.3346H40.3345H40.3345H40.3344H40.3344H40.3344H40.3343H40.3343H40.3342H40.3342H40.3342H40.3341H40.3341H40.3341H40.334H40.334H40.3339H40.3339H40.3339H40.3338H40.3338H40.3337H40.3337H40.3337H40.3336H40.3336H40.3336H40.3335H40.3335H40.3334H40.3334H40.3334H40.3333H40.3333H40.3332H40.3332H40.3332H40.3331H40.3331H40.3331H40.333H40.333H40.3329H40.3329H40.3329H40.3328H40.3328H40.3328H40.3327H40.3327H40.3326H40.3326H40.3326H40.3325H40.3325H40.3325H40.3324H40.3324H40.3324H40.3323H40.3323H40.3322H40.3322H40.3322H40.3321H40.3321H40.3321H40.332H40.332H40.3319H40.3319H40.3319H40.3318H40.3318H40.3318H40.3317H40.3317H40.3316H40.3316H40.3316H40.3315H40.3315H40.3315H40.3314H40.3314H40.3314H40.3313H40.3313H40.3312H40.3312H40.3312H40.3311H40.3311H40.3311H40.331H40.331H40.331H40.3309H40.3309H40.3308H40.3308H40.3308H40.3307H40.3307H40.3307H40.3306H40.3306H40.3305H40.3305H40.3305H40.3304H40.3304H40.3304H40.3303H40.3303H40.3303H40.3302H40.3302H40.3301H40.3301H40.3301H40.33H40.33H40.33H40.3299H40.3299H40.3298H40.3298H40.3298H40.3297H40.3297H40.3297H40.3296H40.3296H40.3296H40.3295H40.3295H40.3294H40.3294H40.3294H40.3293H40.3293H40.3293H40.3292H40.3292H40.3291H40.3291H40.3291H40.329H40.329H40.3289H40.3289H40.3289H40.3288H40.3288H40.3288H40.3287H40.3287H40.3286H40.3286H40.3286H40.3285H40.3285H40.3285H40.3284H40.3284H40.3283H40.3283H40.3283H40.3282H40.3282H40.3281H40.3281H40.3281H40.328H40.328H40.328H40.3279H40.3279H40.3278H40.3278H40.3278H40.3277C31.9379 19.2134 27.4266 17.822 24.9636 14.9201C23.7307 13.4673 22.9892 11.6116 22.548 9.28731C22.1062 6.96043 21.9687 4.18342 21.9298 0.901699L21.643 0.9051ZM21.643 0.9051C21.6403 0.6518 21.7441 0.40924 21.9302 0.237389L21.643 0.9051ZM22.5943 40.7107L22.5918 40.711C22.5775 40.7124 22.5599 40.7131 22.5388 40.7131C22.3878 40.7131 22.2396 40.6556 22.1257 40.551C21.9997 40.4347 21.929 40.2702 21.9307 40.0976C21.9696 36.8159 22.1071 34.0389 22.5487 31.712C22.9899 29.3877 23.7312 27.5319 24.9641 26.0792C27.4263 23.178 31.9357 21.7866 40.3216 21.6942C40.5108 21.703 40.672 21.7713 40.7826 21.8906C40.8995 22.0165 40.9569 22.1859 40.9416 22.3584C40.0562 32.1052 32.3406 39.8229 22.5943 40.7107ZM0.680793 19.1112L0.680169 19.1105C0.563366 18.9846 0.505903 18.8154 0.521114 18.6429C1.40287 8.92355 9.09382 1.20659 18.8091 0.293017C18.9809 0.27723 19.1522 0.334464 19.2803 0.451383C19.4063 0.568005 19.4775 0.733453 19.4757 0.905639C19.4363 4.18495 19.2987 6.96004 18.858 9.28552C18.4178 11.6086 17.6784 13.4635 16.4492 14.9159C13.9939 17.817 9.49772 19.2098 1.1359 19.3061H1.13588H1.13586H1.13584H1.13581H1.13579H1.13577H1.13575H1.13573H1.13571H1.13569H1.13567H1.13565H1.13563H1.1356H1.13558H1.13556H1.13554H1.13552H1.1355H1.13548H1.13546H1.13544H1.13542H1.1354H1.13537H1.13535H1.13533H1.13531H1.13529H1.13527H1.13525H1.13523H1.13521H1.13519H1.13516H1.13514H1.13512H1.1351H1.13508H1.13506H1.13504H1.13502H1.135H1.13498H1.13495H1.13493H1.13491H1.13489H1.13487H1.13485H1.13483H1.13481H1.13479H1.13477H1.13474H1.13472H1.1347H1.13468H1.13466H1.13464H1.13462H1.1346H1.13458H1.13456H1.13454H1.13451H1.13449H1.13447H1.13445H1.13443H1.13441H1.13439H1.13437H1.13435H1.13433H1.1343H1.13428H1.13426H1.13424H1.13422H1.1342H1.13418H1.13416H1.13414H1.13412H1.13409H1.13407H1.13405H1.13403H1.13401H1.13399H1.13397H1.13395H1.13393H1.13391H1.13388H1.13386H1.13384H1.13382H1.1338H1.13378H1.13376H1.13374H1.13372H1.1337H1.13368H1.13365H1.13363H1.13361H1.13359H1.13357H1.13355H1.13353H1.13351H1.13349H1.13347H1.13344H1.13342H1.1334H1.13338H1.13336H1.13334H1.13332H1.1333H1.13328H1.13326H1.13323H1.13321H1.13319H1.13317H1.13315H1.13313H1.13311H1.13309H1.13307H1.13305H1.13302H1.133H1.13298H1.13296H1.13294H1.13292H1.1329H1.13288H1.13286H1.13284H1.13282H1.13279H1.13277H1.13275H1.13273H1.13271H1.13269H1.13267H1.13265H1.13263H1.13261H1.13258H1.13256H1.13254H1.13252H1.1325H1.13248H1.13246H1.13244H1.13242H1.1324H1.13237H1.13235H1.13233H1.13231H1.13229H1.13227H1.13225H1.13223H1.13221H1.13219H1.13216H1.13214H1.13212H1.1321H1.13208H1.13206H1.13204H1.13202H1.132H1.13198H1.13196H1.13193H1.13191H1.13189H1.13187H1.13185H1.13183H1.13181H1.13179H1.13177H1.13175H1.13172H1.1317H1.13168H1.13166H1.13164H1.13162H1.1316H1.13158H1.13156H1.13154H1.13151H1.13149H1.13147H1.13145H1.13143H1.13141H1.13139H1.13137H1.13135H1.13133H1.1313H1.13128H1.13126H1.13124H1.13122H1.1312H1.13118H1.13116H1.13114H1.13112H1.13109H1.13107H1.13105H1.13103H1.13101H1.13099H1.13097H1.13095H1.13093H1.13091H1.13089H1.13086H1.13084H1.13082H1.1308H1.13078H1.13076H1.13074H1.13072H1.1307H1.13068H1.13065H1.13063H1.13061H1.13059H1.13057H1.13055H1.13053H1.13051H1.13049H1.13047H1.13044H1.13042H1.1304H1.13038H1.13036H1.13034H1.13032H1.1303H1.13028H1.13026H1.13023H1.13021H1.13019H1.13017H1.13015H1.13013H1.13011H1.13009H1.13007H1.13005H1.13003H1.13H1.12998H1.12996H1.12994H1.12992H1.1299H1.12988H1.12986H1.12984H1.12982H1.12979H1.12977H1.12975H1.12973H1.12971H1.12969H1.12967H1.12965H1.12963H1.12961H1.12958H1.12956H1.12954H1.12952H1.1295H1.12948H1.12946H1.12944H1.12942H1.1294H1.12937H1.12935H1.12933H1.12931H1.12929H1.12927H1.12925H1.12923H1.12921H1.12919H1.12917H1.12914H1.12912H1.1291H1.12908H1.12906H1.12904H1.12902H1.129H1.12898H1.12896H1.12893H1.12891H1.12889H1.12887H1.12885H1.12883H1.12881H1.12879H1.12877H1.12875H1.12872H1.1287H1.12868H1.12866H1.12864H1.12862H1.1286H1.12858H1.12856H1.12854H1.12851H1.12849H1.12847H1.12845H1.12843H1.12841H1.12839H1.12837H1.12835H1.12833H1.12831H1.12828H1.12826H1.12824H1.12822H1.1282H1.12818H1.12816H1.12814H1.12812H1.1281H1.12807H1.12805H1.12803H1.12801H1.12799H1.12797H1.12795H1.12793H1.12791H1.12789H1.12786H1.12784H1.12782H1.1278H1.12778H1.12776H1.12774H1.12772H1.1277H1.12768H1.12765H1.12763H1.12761H1.12759H1.12757H1.12755H1.12753H1.12751H1.12749H1.12747H1.12745H1.12742H1.1274H1.12738H1.12736H1.12734H1.12732H1.1273H1.12728H1.12726H1.12724H1.12721H1.12719H1.12717H1.12715H1.12713H1.12711H1.12709H1.12707H1.12705H1.12703H1.127H1.12698H1.12696H1.12694H1.12692H1.1269H1.12688H1.12686H1.12684H1.12682H1.12679C0.957546 19.3061 0.795247 19.2353 0.680793 19.1112ZM1.10455 21.6914L1.1189 21.693L1.13334 21.6932C9.49669 21.7894 13.9933 23.1821 16.4486 26.0833C17.6778 27.5357 18.4171 29.3905 18.8573 31.7134C19.2979 34.0388 19.4354 36.8137 19.4748 40.0928C19.4766 40.2652 19.4053 40.4308 19.279 40.5475C19.1654 40.6517 19.0182 40.7086 18.8666 40.7086C18.8445 40.7086 18.8257 40.7079 18.8102 40.7064L18.8094 40.7063C9.09396 39.7929 1.40198 32.0758 0.520218 22.3563C0.505068 22.1846 0.562933 22.0148 0.679779 21.8882L0.680285 21.8877C0.815803 21.7401 0.950205 21.6741 1.10455 21.6914Z" fill="#211F1D" stroke="#211F1D" stroke-width="0.573774"/>
</svg>
