<svg width="1393" height="844" viewBox="0 0 1393 844" fill="none" xmlns="http://www.w3.org/2000/svg">
<g style="mix-blend-mode:overlay" opacity="0.4">
<path d="M1202.95 -326.452C1112.15 -403.636 1019.66 -443.309 896.144 -456.631C644.798 -483.711 216.064 -299.375 -26.0283 -57.6441C-176.843 90.1083 -231.855 233.632 -185.088 351.414C-115.276 527.233 111.917 566.615 186.294 414.402C212.612 360.542 211.511 347.323 166.901 271.538C139.957 224.575 102.168 150.299 82.724 106.552C51.0794 32.0795 52.9457 15.8853 92.7395 -56.2711C116.302 -101.399 172.451 -163.709 221.69 -196.407C331.355 -275.417 541.568 -346.707 662.624 -350.017C927.49 -356.793 1104.11 -53.0185 1032.38 288.695C965.746 601.433 554.108 1016.87 390.052 938.008C326.201 907.788 283.711 806.004 303.04 729.318C331.822 608.534 431.867 552.307 801.231 443.061C935.129 404.186 979.624 359.539 1002.94 240.66C1030.2 95.1457 898.533 -173.769 766.763 -244.45C645.671 -309.136 522.319 -217.585 570.441 -96.3891C594.842 -34.9376 685.681 26.6854 779.151 42.7003C909.23 67.3361 912.655 143.868 789.936 252.685C722.644 313.047 676.16 337.014 454.549 416.161C226.327 499.553 191.919 517.37 133.271 578.606C-17.7987 736.163 -50.2685 873.777 25.6434 1064.96C100.2 1252.73 208.96 1333.37 414.588 1355C535.6 1367.25 705.728 1309.92 785.14 1227.85C851.543 1160.03 877.227 1088.9 913.56 872.217C955.702 612.705 995.197 565.913 1112.9 622.063C1214.93 670.073 1368.13 805.183 1381.18 858.931C1398.97 924.629 1337.35 988.842 1172.81 1081.14L1036.54 1155.82L1418.02 1024.86L1801.33 893.27L1703.79 867.012C1592.61 837.736 1428.86 733.507 1315.86 621.309C1241.21 548.218 1176.94 422.93 1189.36 375.855C1199.49 333.463 1263.35 280.127 1311.15 275.135C1371.23 269.748 1410 320.365 1419.94 423.771C1430.1 532.932 1468.19 581.843 1526.5 561.53C1586.62 540.584 1598.41 476.241 1569.48 325.04C1524.59 107.507 1354.79 -194.757 1202.95 -326.452Z" fill="#F28E56"/>
</g>
</svg>
