<svg width="1325" height="844" viewBox="0 0 1325 844" fill="none" xmlns="http://www.w3.org/2000/svg">
<g clip-path="url(#clip0_420_4633)">
<g style="mix-blend-mode:overlay" opacity="0.4">
<path d="M1202.95 -326.453C1112.15 -403.637 1019.66 -443.31 896.144 -456.631C644.798 -483.712 216.064 -299.376 -26.0285 -57.6451C-176.843 90.1073 -231.856 233.631 -185.088 351.413C-115.276 527.232 111.917 566.614 186.294 414.401C212.612 360.541 211.511 347.322 166.901 271.537C139.957 224.574 102.168 150.298 82.7238 106.551C51.0792 32.0785 52.9454 15.8843 92.7392 -56.2721C116.302 -101.4 172.45 -163.71 221.689 -196.408C331.355 -275.418 541.567 -346.708 662.624 -350.018C927.49 -356.794 1104.11 -53.0194 1032.38 288.694C965.745 601.432 554.107 1016.87 390.052 938.007C326.2 907.787 283.711 806.003 303.04 729.317C331.822 608.533 431.867 552.306 801.231 443.06C935.129 404.186 979.624 359.538 1002.94 240.659C1030.2 95.1448 898.532 -173.77 766.763 -244.451C645.671 -309.137 522.319 -217.586 570.441 -96.39C594.842 -34.9386 685.681 26.6844 779.151 42.6993C909.23 67.3351 912.655 143.867 789.936 252.684C722.644 313.046 676.16 337.013 454.549 416.16C226.327 499.552 191.919 517.369 133.271 578.605C-17.799 736.162 -50.2688 873.776 25.6432 1064.96C100.2 1252.73 208.96 1333.37 414.588 1355C535.6 1367.25 705.728 1309.92 785.14 1227.85C851.543 1160.03 877.227 1088.9 913.56 872.217C955.702 612.704 995.197 565.912 1112.9 622.062C1214.93 670.072 1368.13 805.182 1381.18 858.93C1398.97 924.628 1337.35 988.841 1172.81 1081.14L1036.54 1155.82L1418.02 1024.86L1801.33 893.269L1703.79 867.011C1592.61 837.735 1428.86 733.506 1315.86 621.308C1241.21 548.217 1176.94 422.929 1189.36 375.854C1199.49 333.462 1263.35 280.126 1311.15 275.134C1371.23 269.747 1410 320.364 1419.94 423.77C1430.1 532.931 1468.19 581.842 1526.5 561.529C1586.62 540.583 1598.41 476.241 1569.48 325.039C1524.59 107.506 1354.79 -194.758 1202.95 -326.453Z" fill="#F28E56"/>
</g>
</g>
<defs>
<clipPath id="clip0_420_4633">
<rect width="1393" height="844" fill="white"/>
</clipPath>
</defs>
</svg>
