<svg width="44" height="37" viewBox="0 0 44 37" fill="none" xmlns="http://www.w3.org/2000/svg">
<path fill-rule="evenodd" clip-rule="evenodd" d="M6.56794 2.28023C3.87689 3.03372 1.939 6.94881 2.00147 11.5056C2.09233 18.1543 6.50192 28.919 10.7823 32.9423C12.9154 34.947 13.3129 35.0482 18.8356 34.9884C26.2798 34.909 30.5354 33.0583 33.9135 28.4319C35.2076 26.6599 36.9354 24.8064 37.7538 24.3123C41.849 21.8395 43.3297 14.6679 40.645 10.3086C38.223 6.37455 33.2016 4.81555 29.2803 6.78012C27.0826 7.88154 24.2901 11.9098 24.2901 13.9784C24.2901 15.2541 23.7769 15.6232 21.5018 15.983C19.5532 16.2916 18.2017 17.0732 17.012 18.5781L15.3098 20.7317L12.7011 17.8731C9.851 14.7495 9.26821 12.2071 11.4027 12.2071C14.6844 12.2071 16.2787 6.73232 13.8198 3.90671C12.4086 2.28515 9.15535 1.55555 6.56794 2.28023Z" stroke="#8B8B8B" stroke-width="3"/>
</svg>
