<svg width="42" height="41" viewBox="0 0 42 41" fill="none" xmlns="http://www.w3.org/2000/svg">
<path d="M13.8993 20.5C13.8993 16.7262 16.9578 13.6661 20.7318 13.6661C24.5057 13.6661 27.5659 16.7262 27.5659 20.5C27.5659 24.2738 24.5057 27.3339 20.7318 27.3339C16.9578 27.3339 13.8993 24.2738 13.8993 20.5ZM10.2049 20.5C10.2049 26.3138 14.9177 31.0265 20.7318 31.0265C26.5458 31.0265 31.2587 26.3138 31.2587 20.5C31.2587 14.6862 26.5458 9.9735 20.7318 9.9735C14.9177 9.9735 10.2049 14.6862 10.2049 20.5ZM29.2153 9.55612C29.2152 10.0427 29.3592 10.5183 29.6294 10.923C29.8996 11.3276 30.2836 11.6431 30.7331 11.8295C31.1825 12.0158 31.6772 12.0648 32.1544 11.97C32.6317 11.8753 33.0701 11.6412 33.4143 11.2973C33.7585 10.9534 33.993 10.5151 34.0881 10.038C34.1832 9.56083 34.1347 9.06619 33.9487 8.61661C33.7626 8.16703 33.4475 7.7827 33.043 7.51223C32.6386 7.24176 32.163 7.09729 31.6764 7.0971H31.6754C31.0233 7.0974 30.3978 7.35654 29.9366 7.81761C29.4753 8.27867 29.2159 8.90395 29.2153 9.55612ZM12.4494 37.1865C10.4507 37.0955 9.36432 36.7626 8.64236 36.4813C7.68522 36.1087 7.0023 35.6649 6.28428 34.9479C5.56626 34.2309 5.1218 33.5487 4.75081 32.5916C4.46938 31.87 4.13645 30.7833 4.04559 28.7846C3.9462 26.6238 3.92635 25.9746 3.92635 20.5002C3.92635 15.0257 3.94784 14.3784 4.04559 12.2157C4.13661 10.217 4.472 9.1325 4.75081 8.40877C5.12344 7.45167 5.56724 6.76877 6.28428 6.05078C7.00131 5.33279 7.68358 4.88835 8.64236 4.51738C9.36399 4.23596 10.4507 3.90304 12.4494 3.81218C14.6104 3.7128 15.2595 3.69295 20.7318 3.69295C26.204 3.69295 26.8538 3.71444 29.0166 3.81218C31.0153 3.9032 32.0999 4.23858 32.8237 4.51738C33.7808 4.88835 34.4637 5.33377 35.1817 6.05078C35.8998 6.76779 36.3426 7.45167 36.7152 8.40877C36.9966 9.13037 37.3296 10.217 37.4204 12.2157C37.5198 14.3784 37.5397 15.0257 37.5397 20.5002C37.5397 25.9746 37.5198 26.622 37.4204 28.7846C37.3294 30.7833 36.9948 31.8696 36.7152 32.5916C36.3426 33.5487 35.8988 34.2316 35.1817 34.9479C34.4647 35.6643 33.7808 36.1087 32.8237 36.4813C32.102 36.7627 31.0153 37.0957 29.0166 37.1865C26.8556 37.2859 26.2065 37.3057 20.7318 37.3057C15.2571 37.3057 14.6097 37.2859 12.4494 37.1865ZM12.2797 0.124148C10.0973 0.223532 8.60595 0.569572 7.30358 1.07633C5.95479 1.59966 4.81297 2.30174 3.67198 3.44088C2.53099 4.58003 1.83068 5.7236 1.30733 7.07234C0.800552 8.37548 0.454498 9.86591 0.35511 12.0483C0.254082 14.2341 0.230957 14.9329 0.230957 20.5C0.230957 26.0671 0.254082 26.7659 0.35511 28.9517C0.454498 31.1343 0.800552 32.6245 1.30733 33.9277C1.83068 35.2756 2.53115 36.4205 3.67198 37.5591C4.81281 38.6978 5.95479 39.3989 7.30358 39.9237C8.60841 40.4304 10.0973 40.7765 12.2797 40.8759C14.4667 40.9752 15.1644 41 20.7318 41C26.2991 41 26.998 40.9769 29.1839 40.8759C31.3665 40.7765 32.8568 40.4304 34.16 39.9237C35.5079 39.3989 36.6506 38.6983 37.7916 37.5591C38.9326 36.42 39.6314 35.2756 40.1562 33.9277C40.663 32.6245 41.0107 31.1341 41.1084 28.9517C41.2078 26.7643 41.231 26.0671 41.231 20.5C41.231 14.9329 41.2078 14.2341 41.1084 12.0483C41.0091 9.86575 40.663 8.37466 40.1562 7.07234C39.6314 5.72442 38.9308 4.58183 37.7916 3.44088C36.6524 2.29994 35.508 1.59966 34.1616 1.07633C32.8568 0.569572 31.3663 0.221892 29.1855 0.124148C26.9996 0.024764 26.3008 0 20.7334 0C15.1661 0 14.4667 0.023124 12.2797 0.124148Z" fill="#211F1D"/>
</svg>
