<svg width="180" height="180" viewBox="0 0 180 180" fill="none" xmlns="http://www.w3.org/2000/svg">
<path d="M55.4661 23.2321C55.4661 16.1179 50.8854 7.2251 45.1097 3.27275C33.9567 -4.63196 13.2439 2.48225 4.48083 17.1059C-2.09149 27.7773 -1.494 34.8915 6.67161 47.539C20.0154 68.4865 22.2061 74.6126 21.0112 88.6435C20.2145 98.9196 18.2229 105.046 10.4557 119.472C2.48922 134.688 0.89589 139.234 0.89589 148.324C0.89589 162.75 5.67575 171.248 16.2313 176.188C36.7449 185.279 53.4744 177.571 53.4744 158.798C53.4744 146.743 50.0887 134.688 39.5332 108.801C32.1642 90.8173 30.9693 85.6793 30.1726 69.277C29.5751 57.2223 29.9735 48.3295 31.5668 44.5748C33.7576 39.2391 34.1558 39.0415 35.5499 42.5986C36.3466 44.7724 38.9357 54.4557 41.3257 64.1389C48.4955 95.3625 60.8435 115.915 76.378 122.831C87.1327 127.772 92.7092 127.574 104.659 121.646C121.787 113.148 132.541 93.7816 140.707 57.0247C145.686 34.2987 150.466 36.8677 150.864 62.3603C151.063 77.9721 148.674 87.4578 138.118 113.741C122.982 151.881 121.986 170.26 135.131 176.979C146.284 182.71 162.814 179.548 172.174 169.864C177.552 164.331 180 162.75 180 148.522C180 134.293 177.353 132.317 170.78 121.448C160.822 105.441 158.432 96.9435 159.428 81.134C160.026 68.8818 161.021 66.5103 169.585 53.8628C181.734 36.4724 182.929 26.394 174.166 15.1298C166.598 5.24892 157.835 0.110809 148.076 0.110809C138.715 0.110809 132.342 3.86554 128.16 11.9679C123.778 20.4654 124.575 27.7773 131.147 37.6582C134.533 42.7963 137.122 49.12 137.122 52.6771C137.122 65.127 115.414 98.7221 108.841 96.5483C103.066 94.5721 104.659 72.8341 111.231 65.3246C116.409 59.3961 116.409 50.3057 111.231 47.539C105.456 44.3772 100.078 46.7485 95.2983 54.258C90.5184 62.1627 90.3193 68.8818 94.5017 77.7746C97.4891 83.9007 97.4891 84.8888 94.3025 91.015L90.7176 97.7339L86.9336 92.9911C82.7512 87.8531 82.9503 82.9126 87.3319 72.2413C92.1117 60.5818 79.1662 42.401 69.6065 47.3415C63.0342 50.8986 62.4367 56.8271 68.4115 65.127C73.9881 73.427 76.5772 84.0983 74.5856 91.8054C72.594 99.5125 68.4116 98.1291 59.2502 86.4697C42.3215 65.3246 39.5332 51.8866 49.4913 37.4606C52.6779 32.7177 55.4661 26.1964 55.4661 23.2321Z" fill="#F7F7F7"/>
</svg>
