<svg width="440" height="446" viewBox="0 0 440 446" fill="none" xmlns="http://www.w3.org/2000/svg">
<path d="M135.584 58.2741C135.584 40.7197 124.387 18.7767 110.268 9.02423C83.0052 -10.4807 32.374 7.07367 10.9531 43.1577C-5.11253 69.4893 -3.65199 87.0437 16.3084 118.251C48.9266 169.939 54.2817 185.056 51.3607 219.677C49.4133 245.033 44.545 260.15 25.5583 295.746C6.08475 333.293 2.18995 344.508 2.18995 366.939C2.18995 402.535 13.8741 423.503 39.6765 435.694C89.8208 458.124 130.715 439.107 130.715 392.783C130.715 363.038 122.439 333.293 96.6367 269.415C78.6237 225.041 75.7027 212.363 73.7553 171.89C72.2948 142.145 73.2685 120.202 77.1632 110.937C82.5185 97.7714 83.492 97.2838 86.8999 106.061C88.8472 111.425 95.1762 135.318 101.018 159.212C118.544 236.256 148.728 286.969 186.702 304.036C212.991 316.226 226.622 315.739 255.833 301.11C297.701 280.142 323.99 232.355 343.951 141.657C356.122 85.5809 367.806 91.9199 368.779 154.823C369.266 193.345 363.424 216.751 337.622 281.605C300.622 375.716 298.188 421.065 330.319 437.644C357.582 451.785 397.99 443.983 420.871 420.09C434.016 406.437 440 402.535 440 367.427C440 332.318 433.529 327.442 417.463 300.622C393.121 261.125 387.279 240.157 389.713 201.147C391.174 170.915 393.608 165.063 414.542 133.855C444.239 90.9446 447.16 66.076 425.739 38.2816C407.239 13.9005 385.819 1.22214 361.964 1.22214C339.082 1.22214 323.503 10.487 313.28 30.4795C302.569 51.4472 304.517 69.4895 320.582 93.8706C328.859 106.549 335.187 122.153 335.187 130.93C335.187 161.65 282.122 244.546 266.056 239.182C251.938 234.306 255.833 180.667 271.899 162.138C284.556 147.509 284.556 125.078 271.899 118.251C257.78 110.45 244.635 116.301 232.951 134.831C221.267 154.336 220.78 170.915 231.004 192.858C238.307 207.974 238.307 210.412 230.517 225.529L221.754 242.108L212.504 230.405C202.281 217.727 202.767 205.536 213.478 179.204C225.162 150.435 193.517 105.573 170.149 117.764C154.084 126.541 152.623 141.17 167.228 161.65C180.86 182.13 187.189 208.462 182.32 227.479C177.452 246.496 167.228 243.083 144.834 214.313C103.452 162.137 96.6368 128.979 120.979 93.3828C128.768 81.6799 135.584 65.5884 135.584 58.2741Z" fill="white"/>
</svg>
