<svg width="1086" height="70" viewBox="0 0 1086 70" fill="none" xmlns="http://www.w3.org/2000/svg">
<path fill-rule="evenodd" clip-rule="evenodd" d="M356.143 6.87158C344.734 15.1016 339.216 15.1023 327.808 6.87351C336.403 13.2509 341.974 23.4749 341.974 35.0001C341.974 46.5215 336.407 56.7427 327.816 63.1204C339.214 54.9004 344.733 54.9003 356.132 63.1202C347.541 56.7424 341.974 46.5213 341.974 35.0001C341.974 23.4738 347.546 13.2488 356.143 6.87158Z" fill="black"/>
<path fill-rule="evenodd" clip-rule="evenodd" d="M144.346 6.8728C132.939 15.1016 127.42 15.1018 116.013 6.87347C124.608 13.2508 130.179 23.4749 130.179 35C130.179 46.5215 124.612 56.7426 116.021 63.1204C127.419 54.9008 132.938 54.9003 144.335 63.119C135.745 56.7411 130.179 46.5206 130.179 35.0001C130.179 23.4745 135.75 13.2501 144.346 6.8728Z" fill="black"/>
<path fill-rule="evenodd" clip-rule="evenodd" d="M593.224 6.90084C581.69 15.0982 576.095 15.0924 564.554 6.88342C573.208 13.2233 578.833 23.3587 578.901 34.7934C578.967 23.3692 584.583 13.2419 593.224 6.90084ZM578.901 35.2067C578.833 46.6378 573.211 56.7704 564.562 63.1107C576.095 54.9098 581.69 54.9035 593.214 63.0919C584.579 56.7504 578.967 46.6265 578.901 35.2067Z" fill="black"/>
<path fill-rule="evenodd" clip-rule="evenodd" d="M831.966 6.88208C820.415 15.0983 814.82 15.0988 803.27 6.88349C811.945 13.2393 817.578 23.4098 817.617 34.8797C817.656 23.4089 823.289 13.2378 831.966 6.88208ZM817.617 35.1205C817.578 46.5869 811.949 56.7545 803.278 63.1108C814.819 54.9038 820.414 54.9036 831.955 63.1101C823.284 56.7539 817.656 46.5865 817.617 35.1205Z" fill="black"/>
<path fill-rule="evenodd" clip-rule="evenodd" d="M1029.39 6.89054C1017.85 15.0984 1012.25 15.096 1000.71 6.88354C1009.37 13.2314 1015 23.3842 1015.05 34.8363C1015.11 23.3883 1020.73 13.2388 1029.39 6.89054ZM1015.05 35.164C1015 46.6126 1009.37 56.7626 1000.71 63.1108C1012.25 54.9065 1017.85 54.9036 1029.38 63.102C1020.73 56.7533 1015.11 46.6073 1015.05 35.164Z" fill="black"/>
<rect x="579.795" y="0.897436" width="236.923" height="68.2051" rx="34.1026" stroke="black" stroke-width="1.79487"/>
<rect x="131.077" y="0.897436" width="210" height="68.2051" rx="34.1026" stroke="black" stroke-width="1.79487"/>
<rect x="342.872" y="0.897436" width="235.128" height="68.2051" rx="34.1026" stroke="black" stroke-width="1.79487"/>
<rect x="818.513" y="0.897436" width="195.641" height="68.2051" rx="34.1026" stroke="black" stroke-width="1.79487"/>
<rect x="1015.95" y="0.897436" width="68.2051" height="68.2051" rx="34.1026" stroke="black" stroke-width="1.79487"/>
<rect x="1.84617" y="0.897436" width="127.436" height="68.2051" rx="34.1026" stroke="black" stroke-width="1.79487"/>
</svg>
