<svg width="120" height="80" viewBox="0 0 120 80" fill="none" xmlns="http://www.w3.org/2000/svg">
<path d="M57.2425 62.2626C52.6661 69.7142 58.8737 70.4636 51.522 74.2998C44.1702 78.136 69.1908 81.7666 77.8368 77.4695C82.9254 74.9404 96.1427 65.7017 86.4177 65.7017C76.6926 65.7017 71.8301 60.543 77.8368 56.8171C80.125 55.3841 87.8478 54.2377 94.9986 54.2377C112.733 54.2377 122.172 47.0726 119.311 35.6085C116.165 23.2846 97.8589 6.66172 83.2713 2.64929C54.9543 -5.08897 14.338 5.51532 3.75484 23.5713C-4.82608 37.6148 2.89675 42.7736 37.7925 47.0727C45.2293 47.9325 53.2381 50.5119 56.0984 52.5181C60.3889 55.6707 60.6749 56.8171 57.2425 62.2626Z" fill="#211F1D"/>
</svg>
