<svg width="413" height="249" viewBox="0 0 413 249" fill="none" xmlns="http://www.w3.org/2000/svg">
<path d="M64.0621 76.8321C62.9798 76.4574 61.8795 76.1068 60.7663 75.782M60.7663 75.782C55.2561 74.1751 49.4116 73.2 43.6978 73.0526C38.4723 72.9178 33.4879 72.5099 28.8612 75.4822C19.7713 81.3221 10.5585 87.3879 5.74944 96.8086C3.94733 100.339 3.55143 105.473 3.55143 109.346C3.55143 113.895 3.1255 119.232 5.58782 123.294C7.08893 125.77 7.64646 128.848 9.69301 131.093C11.7662 133.366 13.5724 135.689 15.7699 137.841C19.3138 141.313 24.1825 143.903 28.6025 146.21C35.0797 149.591 39.8042 150.511 47.1889 149.75C52.7681 149.174 58.289 147.649 63.6095 145.82C66.1145 144.959 68.4797 142.921 70.3327 141.201C72.2719 139.402 73.7222 136.645 75.8278 135.142C80.3837 131.89 82.1771 124.199 84.7173 119.485C90.0969 109.5 87.0164 95.5624 78.6076 88.1699C76.8982 86.6672 75.0311 85.3913 73.3716 83.8508C72.1484 82.7162 70.3533 80.2625 68.9751 79.5317C67.3188 78.6531 66.8831 76.6641 64.9347 76.2622C63.4816 75.9625 62.1782 75.8333 60.7663 75.782ZM60.7663 75.782C60.1474 75.7598 59.5079 75.7523 58.8255 75.7523M211.266 100.048C208.476 97.9015 206.906 95.5483 203.961 93.8092C201.252 92.2094 198.179 92.489 195.104 92.489C188.659 92.489 183.343 96.2634 178.974 100.318C174.59 104.386 170.302 110.963 169.406 116.785C168.501 122.667 172.665 128.256 178.36 130.823C182.28 132.589 186.043 132.442 190.288 132.442C194.029 132.442 197.058 131.062 200.663 130.823C206.328 130.447 212.538 123.407 215.048 119.215C217.319 115.42 218.383 109.206 215.92 105.207C213.91 101.941 208.939 98.2022 208.939 94.1089M281.085 94.1089C280.988 93.8967 280.888 93.688 280.786 93.4828M280.786 93.4828C278.022 87.9592 273.395 85.2142 267.057 83.5808C263.072 82.5538 258.478 82.7711 254.386 82.7711C251.101 82.7711 248.304 83.6552 245.141 83.8508C238.021 84.2914 229.522 91.4218 225.811 96.6884C221.087 103.394 219.411 110.852 219.411 118.825C219.411 127.294 225.431 128.803 232.923 130.942C247.217 135.024 263.418 132.504 275.978 124.884C283.385 120.39 286.322 114.886 286.322 106.947C286.322 101.366 284.312 97.3558 280.786 93.4828ZM280.786 93.4828C279.991 92.6102 279.12 91.7447 278.176 90.8696M336.941 111.926C334.484 108.031 333.475 105.142 328.666 103.708C324.654 102.511 320.768 102.208 316.577 102.208C309.233 102.208 300.776 103.912 295.34 108.957C292.88 111.24 290.341 113.016 288.326 115.736C286.088 118.756 284.964 121.587 283.542 124.884C282.532 127.227 284.343 131.408 285.482 133.522C286.814 135.995 290.81 137.345 293.304 138.501C299.166 141.222 306.514 142.701 313.054 142.701C317.985 142.701 330.887 143.463 333.45 138.112C334.032 136.897 335.378 136.299 335.907 135.022C336.643 133.248 337.695 131.678 338.105 129.773C338.76 126.734 338.687 123.8 338.687 120.685C338.687 117.892 335.532 109.382 332.868 108.147M362.542 59.5552C358.105 54.2846 346.224 53.2752 339.721 55.3558C333.641 57.3016 324.31 61.8405 321.555 67.6839C315.71 80.0804 317.716 97.3422 333.58 101.548C347.206 105.161 363.439 102.72 372.724 92.1893C374.532 90.1394 374.76 85.7202 374.76 83.191C374.76 80.1176 373.91 76.7234 372.724 73.8628C369.758 66.7062 365.724 61.0519 357.888 57.9353M317.741 211.269C314.165 208.755 310.709 204.561 305.975 207.49C303.608 208.954 302.614 211.329 302.614 213.939C302.614 218.093 306.136 219.325 310.177 220.177C313.014 220.776 317.047 220.929 319.486 219.247C320.646 218.448 322.754 216.826 321.491 215.318C318.352 211.574 311.873 206.628 307.268 210.189M344.505 54.1563C348.716 49.1975 357.627 45.8429 364.288 45.5176C367.845 45.3439 370.928 44.6172 374.502 45.3976C377.816 46.1211 380.663 47.1549 383.811 48.2171C390.796 50.574 398.165 56.262 401.816 62.2845C406.441 69.9149 406.734 77.7298 404.564 86.0104C403.262 90.9752 401.111 97.7214 398.034 102.088C396.988 103.571 394.992 106.896 393.379 107.727C391.361 108.767 389.068 110.329 387.27 111.626C380.521 116.497 370.627 115.705 362.542 115.705M359.051 102.748V131.483C359.051 138.368 356.546 145.129 356.142 151.879C355.704 159.197 351.225 165.707 347.544 171.856C346.656 173.339 345.519 174.699 344.635 176.175L344.603 176.228C343.877 177.441 342.362 179.971 341.305 180.734C339.391 182.116 338.602 184.853 336.36 185.893M324.723 142.161C326.418 146.289 327.368 150.978 327.6 155.388C327.916 161.413 328.819 167.971 327.923 173.955C327.128 179.265 326.515 184.672 325.923 189.887L325.887 190.212C325.562 193.068 324.777 197.141 323.268 199.661C321.707 202.268 319.336 205.208 318.323 208.029M370.106 163.217C364.929 166.856 360.728 171.111 355.301 174.315C349.94 177.481 344.939 181.712 340.433 185.893C337.418 188.691 333.624 192.36 329.668 193.992C328.401 194.515 326.475 195.942 325.434 196.812C324.941 197.223 322.499 198.851 322.977 198.851M391.634 168.077C385.1 178.02 376.381 186.01 367.487 194.262C359.773 201.421 352.248 210.323 343.212 216.128C339.844 218.292 337.127 221.132 333.45 223.027C329.919 224.847 326.393 226.187 322.719 227.736C320.366 228.729 316.54 230.166 313.959 230.166H307.268M289.231 173.476C288.254 173.593 287.298 173.727 286.379 173.899M286.379 173.899C282.02 174.717 278.506 176.383 277.594 181.034C277.019 183.973 277.069 186.825 279.954 188.833C285.306 192.557 290.984 192.756 296.213 189.013C300.98 185.601 295.683 179.463 292.722 176.715C290.822 174.952 288.62 174.076 286.379 173.899ZM286.379 173.899C282.249 173.574 277.991 175.626 275.267 178.875M133.3 170.236C128.128 170.484 125.963 173.176 125.736 177.795C125.711 178.31 125.752 178.795 125.851 179.253M125.851 179.253C126.419 181.884 128.912 183.576 131.845 184.483C137.604 186.265 146.063 184.205 149.591 179.294C152.791 174.84 145.151 171.134 141.381 170.746C138.773 170.477 136.196 169.865 133.527 170.296C129.078 171.014 126.569 175.479 125.851 179.253ZM125.851 179.253C125.806 179.489 125.767 179.724 125.736 179.954M171.119 114.086C164.72 114.086 159.374 116.131 154.957 120.685C151.936 123.799 153.198 132.388 155.733 135.412C159.548 139.964 166.715 142.406 172.865 141.591C176.553 141.102 185.714 136.671 187.41 133.522M183.338 183.193C180.311 186.194 175.116 190.622 179.297 194.502C181.205 196.271 184.73 197.136 187.281 197.651C193.397 198.885 198.706 197.728 202.215 192.612C204.874 188.735 199.903 184.371 196.72 182.894C189.915 179.736 183.552 182.069 180.429 188.593M278.758 185.894C276.503 189.409 275.425 193.065 273.521 196.691C271.607 200.339 268.546 203.261 265.602 206.23C262.26 209.601 258.736 212.571 255.259 215.798C253.79 217.161 250.937 217.449 250.248 219.368M294.468 190.213C287.217 199.269 284.623 211.153 273.522 217.448C268.359 220.375 263.855 224.259 258.394 226.926C255.012 228.578 250.323 228.86 247.339 230.705M303.195 211.809C297.555 218.508 289.485 221.679 281.667 225.306M317.159 219.907C314.331 221.896 312.201 224.642 309.595 226.926C306.904 229.284 303.241 230.943 299.995 232.565C294.962 235.08 287.36 238.418 281.538 238.804C275.015 239.237 269.665 241.136 263.049 240.454C258.614 239.996 250.014 237.289 247.921 233.405M295.631 141.081C297.802 146.382 303.021 149.614 303.745 155.658C304.385 161.008 305.991 166.636 307.397 171.856C309.616 180.093 308.72 190.066 303.777 197.351C300.908 201.58 300.534 206.72 296.504 210.459C293.015 213.697 289.865 217.826 285.029 219.487C280.372 221.088 276.65 224.539 271.485 225.276C267.983 225.776 265.338 225.307 261.885 225.307M283.413 224.766C279.241 224.012 275.406 224.766 271.194 224.766M224.648 129.203C226.737 131.761 229.783 133.38 231.63 136.102C233.785 139.278 235.098 143.245 236.576 146.75C238.526 151.375 240.452 155.873 241.974 160.638C243.848 166.509 243.848 173.849 243.848 179.95V179.954M248.503 135.682C251.686 137.854 256.138 139.68 258.394 142.821C260.332 145.519 261.802 148.524 263.63 151.219C266.406 155.31 269.449 163.286 269.449 168.196C269.449 170.454 270.241 171.931 269.578 174.255C268.921 176.56 267.322 178.431 266.087 180.494C264.216 183.619 260.043 185.533 258.394 188.593M5.29691 122.724C3.95235 129.933 2.62716 136.511 4.58579 143.78C6.47438 150.791 10.8501 155.354 17.5154 158.358C22.0419 160.399 31.7194 161.553 36.2633 158.898C38.8079 157.411 41.1036 156.082 43.4393 154.309C45.7853 152.528 47.0337 149.636 49.5162 148.1M34.3886 160.518C36.2695 164.154 37.9772 167.718 39.9159 171.315C42.0315 175.242 44.4731 177.434 47.7707 180.494C51.4176 183.878 53.9933 187.634 58.2434 190.482C62.0617 193.041 65.1645 196.533 68.6846 199.391C71.7533 201.883 74.7748 204.821 78.1551 206.949C81.6421 209.145 85.0555 212.407 88.9512 213.968C93.9152 215.957 98.0694 219.032 102.786 221.287C104.409 222.063 109.815 226.092 110.609 223.147M78.0261 132.443C78.0261 140.284 81.8275 145.009 85.0078 151.999C87.8721 158.294 92.2546 164.361 97.3556 169.276C102.327 174.066 106.413 178.431 112.483 182.114C114.455 183.311 116.604 184.036 118.754 184.934C120.045 185.473 124.018 186.458 123.991 186.433M103.627 130.823C104.529 135.948 108.189 138.331 110.318 142.941C112.583 147.845 115.264 153.131 115.264 158.628C115.264 160.343 116.172 162.297 116.459 164.027C116.754 165.803 116.611 168.105 117.138 169.816C118.523 174.314 119.413 178.869 120.952 183.314C124.7 194.134 130.404 203.183 139.119 211.269C144.99 216.717 150.734 222.288 156.702 227.586C160.695 231.13 165.871 234.487 170.44 237.364C171.569 238.075 178.393 243.935 175.774 239.884M130.391 125.963C131.928 132.778 134.222 138.764 136.5 145.341C137.905 149.396 138.925 153.572 140.573 157.548C141.617 160.068 141.335 162.987 142.48 165.377C143.165 166.806 142.953 170.666 144.355 171.316M146.682 144.321C148.453 148.593 151.895 152.06 153.341 156.468C154.63 160.399 156.329 164.157 157.737 168.077C161.154 177.589 163.205 187.677 167.499 196.871C171.034 204.442 176.229 212.656 182.142 218.827C184.951 221.76 187.842 224.245 190.902 226.926C192.597 228.412 194.445 229.675 196.106 231.215C196.791 231.851 197.883 233.41 197.883 231.785M162.974 140.541C161.591 147.043 161.746 153.893 164.751 159.978C166.944 164.416 168.791 169.155 172.574 172.666C175.761 175.623 178.833 180.181 183.338 181.574M178.101 138.382C176.023 148.988 181.416 155.345 188.283 163.187C190.853 166.122 195.446 168.518 199.047 170.236C201.453 171.384 205.645 174.015 208.357 174.015M191.483 130.823C194.167 135.618 197.867 139.809 200.793 144.44C202.125 146.55 202.987 149.909 203.572 152.299C205.248 159.139 205.493 166.324 206.869 173.235C208.827 183.068 208.938 213.169 208.938 203.17M179.847 96.269C183.227 90.7801 180.306 86.0481 175.903 81.811C171.25 77.3335 164.42 75.704 158.028 74.6725C151.782 73.6646 146.641 72.1378 140.282 74.4326C134.55 76.5006 128.101 82.852 125.736 88.0502C123.531 92.8969 119.986 97.2612 121.793 102.748C123.202 107.028 129.723 111.886 133.882 113.816C139.149 116.259 143.541 117.853 149.559 117.295C153.797 116.902 158.403 116.399 162.392 115.165M121.082 97.8884C114.675 95.6237 108.767 97.2401 102.592 99.5083C100.219 100.38 97.5551 102.018 95.4809 103.407C92.9922 105.075 91.7852 107.128 89.6628 108.957C86.2999 111.854 85.5899 116.557 85.5899 120.565C85.5899 125.734 88.7518 128.998 93.2832 131.483C98.4596 134.321 103.919 135.266 109.897 135.142C112.94 135.079 115.816 134.167 118.754 133.642C122.016 133.06 124.419 131.148 127.482 130.043C132.348 128.287 135.697 126.44 139.409 122.994C141.53 121.026 144.586 117.222 145.519 114.626M53.0072 67.6537C49.3552 63.312 49.8637 56.3425 52.4253 51.4566C55.6517 45.3022 60.9912 42.6628 67.1004 39.4586C73.3244 36.1941 80.4178 35.287 87.335 34.2995C93.2832 33.4504 100.807 36.8628 106.083 39.0387C111.458 41.2555 115.654 44.5971 120.371 47.6772C124.736 50.5282 126.894 54.1458 129.227 58.4754C131.462 62.623 133.604 66.6398 135.175 71.0132C135.564 72.0955 136.278 73.5349 136.209 74.6725C136.149 75.6809 134.884 76.7571 136.209 77.3722M56.4983 45.5173C51.2987 41.8278 43.1078 39.5016 36.5866 41.738C28.1771 44.6219 18.5706 49.4726 12.9901 56.3154C10.0741 59.8911 7.23147 63.5474 4.71511 67.3837C2.54846 70.6863 2.06067 75.098 1.35341 78.8714C0.297075 84.5076 1.44449 89.3523 7.04243 91.9494M133.882 65.4942C132.75 59.3404 137.977 53.8113 143.224 50.6469C150.1 46.499 157.717 42.8813 165.882 41.6183C172.533 40.5898 179.498 41.6755 185.051 45.2177C187.293 46.6479 188.169 48.9211 190.029 50.6469C191.606 52.1104 190.51 52.7783 192.647 51.4566M244.43 68.1934C246.273 61.7997 245.68 58.6026 241.65 53.6162C239.485 50.9366 236.457 48.6449 233.375 46.8973C226.629 43.0718 220.863 42.0863 213.011 42.2781C207.201 42.42 200.217 46.2243 195.815 49.5668C190.931 53.2747 190.184 60.0732 190.32 65.6139C190.695 80.9193 213.41 85.5764 226.264 83.191C238.357 80.9465 246.758 75.5114 246.758 63.3346M180.429 89.2502C186.086 85.1484 192.687 81.1516 200.211 81.1516C202.311 81.1516 204.514 81.9835 206.611 82.2611C208.793 82.5503 211.126 83.3127 213.27 83.881C215.649 84.5117 219.768 86.8216 221.48 88.4103C222.756 89.5937 224.537 90.1575 225.811 91.4097C227.471 93.0407 226.018 95.1892 228.721 95.1892M212.429 121.644C214.248 123.233 216.493 124.71 218.83 123.264M247.921 67.6537V71.4327M250.83 81.6913C245.322 77.6976 246.557 70.2483 247.889 64.684C248.427 62.4344 248.934 60.4152 249.666 58.2053C250.628 55.305 253.023 52.7768 254.192 49.9566C256.516 44.3492 262.81 39.958 267.93 36.6689C270.375 35.0981 274.848 33.8261 277.724 33.2195C282.305 32.2534 286.209 31.4798 290.944 31.4798C297.342 31.4798 304.858 32.5337 310.759 34.8392C314.531 36.3129 319.735 39.681 321.814 43.0577C323.672 46.0748 326.491 48.1288 328.085 51.4561C329.415 54.2348 328.796 58.0439 328.796 61.1746M286.322 101.128C290.027 101.128 294.767 101.561 298.25 100.318C300.828 99.3976 304.277 97.9357 306.977 97.3784C310.414 96.6698 315.639 92.6117 317.159 89.7898M179.265 42.8178C179.265 30.9276 181.81 20.2656 192.647 13.003C205.492 4.39454 221.432 -0.208248 237.416 1.275C243.357 1.82632 248.798 5.85501 251.994 10.3035C254.836 14.2592 258.639 17.6846 260.722 22.0314C262.264 25.2522 263.049 27.9215 263.049 31.4798C263.049 32.8112 262.469 39.5834 261.885 38.4986M256.649 14.7428C256.649 12.1741 256.357 11.8486 258.394 10.6335C260.193 9.56018 261.352 8.53156 263.501 7.84401C267.374 6.60476 271.223 6.1043 275.3 6.1043C278.638 6.1043 282.64 8.39828 285.708 9.64372C288.736 10.8732 292.02 12.5906 294.468 14.7428C296.099 16.1771 298.094 17.0283 299.704 18.5222C301.865 20.5271 302.61 23.3751 304.068 25.8109C304.763 26.9712 304.941 29.3326 304.941 30.6701C304.941 32.0584 303.723 34.1795 305.522 34.1795M182.174 27.7004C180.08 17.7418 169.117 14.3274 159.483 13.0029C150.189 11.7253 136.228 10.0901 128.322 16.0924C123.196 19.9845 118.241 23.0511 114.973 28.5103L114.947 28.5524C112.67 32.3554 110.027 36.7707 110.027 41.1981M397.452 131.363C387.498 127.624 378.38 124.576 368.813 130.823C362.696 134.817 360.797 140.526 360.797 147.02C360.797 151.498 364.245 158.135 369.072 159.858C375.38 162.109 381.27 163.99 387.852 165.347C392.99 166.406 402.662 167.226 407.052 164.057C412.261 160.298 411.998 155.933 411.998 150.139C411.998 145.589 410.467 139.947 406.471 137.062C404.724 135.802 402.435 134.996 400.814 133.643C398.941 132.078 398.916 130.016 396.289 129.203M338.105 104.907C337.882 105.969 336.681 113.965 336.941 114.086M331.705 140.001C330.92 141.758 328.214 145.099 328.214 147.02M377.67 114.626V122.994C377.67 123.923 376.506 128.053 376.506 125.963M364.288 156.738C360.687 161.331 357.326 165.775 352.392 169.276C350.623 170.532 349.389 171.943 347.867 173.355C347.117 174.051 344.988 175.095 345.087 175.095M314.25 91.9494C314.678 93.1654 316.064 100.619 317.159 101.128M95.4809 132.982C95.5714 136.507 97.0711 138.845 98.5192 141.981C100.016 145.221 100.991 148.45 103.045 151.459C105.18 154.588 107.151 157.912 109.445 160.938C110.706 162.599 112.109 164.985 113.518 166.457C114.034 166.995 115.845 170.07 115.845 169.696M253.739 193.452C261.101 194.618 258.243 186.343 254.321 184.004C251.428 182.278 251.087 178.117 247.048 177.285C244.131 176.683 240.83 177.502 238.159 178.455C236.43 179.072 231.263 181.94 231.048 183.734C230.7 186.641 230.826 187.735 231.662 190.453C232.048 191.706 236.964 193.992 238.321 193.992C240.913 193.992 243.468 195.072 246.176 195.072C248.996 195.072 251.48 194.532 254.321 194.532M234.539 191.833C234.539 202.432 233.466 211.723 228.139 221.257C224.265 228.191 219.237 234.323 215.92 241.504M183.919 195.612C183.919 206.531 191.023 216.07 193.81 226.417C194.834 230.214 196.451 233.912 197.593 237.724C198.488 240.716 198.671 246.903 203.12 246.903M199.047 196.151C200.571 203.399 204.034 209.127 207.516 215.588C209.067 218.466 211.835 220.815 213.464 223.687C215.833 227.863 215.73 233.29 218.248 237.185M147.846 179.955C151.368 189.963 158.34 197.251 166.142 204.49C170.805 208.818 177.925 211.563 181.592 216.668M262.467 239.811C259.417 241.87 256.915 243.492 253.481 244.94C251.076 245.955 248.806 245.75 246.176 245.75C241.565 245.75 237.412 245.684 235.121 241.431M51.2617 148.027C55.8392 153.868 61.3273 158.902 66.5189 164.105C69.4656 167.058 73.2502 170.001 75.6988 173.283C78.1632 176.587 81.9998 179.089 84.1352 182.612C88.9014 190.474 96.1486 197.249 100.717 205.258C103.604 210.318 106.509 214.951 110.9 219.025C115.706 223.485 121.315 226.368 126.577 230.363C132.288 234.7 139.489 238.324 146.682 240.231C155.559 242.585 163.681 244.671 172.929 244.671C177.258 244.671 181.376 245.211 185.665 245.211C187.146 245.211 197.04 246.736 195.556 244.671M253.158 194.459C247.861 201.144 244.43 211.311 244.43 219.595C244.43 226.378 242.97 232.64 239.484 238.462C237.179 242.312 232.189 247.37 226.975 247.37C224.108 247.37 220.624 248.864 217.666 247.25C215.096 245.847 215.92 241.62 215.92 239.271M201.374 246.291C204.609 246.876 207.706 247.37 210.975 247.37C213.042 247.37 214.297 245.424 215.92 244.671M200.211 243.051C199.109 243.649 196.125 244.695 195.556 245.75M251.994 218.215C250.39 219.123 247.045 222.535 245.012 222.535M247.339 233.332C246.032 232.45 244.776 231.64 243.266 231.173M247.921 230.093C246.136 230.054 244.436 229.553 242.685 229.553M135.046 185.281C141.248 192.878 147.79 200.525 152.501 209.037C156.118 215.574 160.122 221.871 164.977 227.663C166.621 229.623 168.361 231.853 170.246 233.602C171.541 234.804 173.682 235.904 174.61 237.412C175.521 238.892 177.853 241.481 179.588 241.941C180.751 242.25 183.919 245.249 183.919 243.591" stroke="#F87239" stroke-linecap="round"/>
</svg>
