<svg width="110" height="77" viewBox="0 0 110 77" fill="none" xmlns="http://www.w3.org/2000/svg">
<path d="M54.7705 2.54826C45.3083 4.33193 31.6826 10.0182 22.8566 16.3584C-8.55152 38.7582 -6.80492 51.5677 28.3767 52.7299C62.4426 53.8798 37.5269 57.8212 36.3662 70.6012C35.2055 83.3812 50.5629 68.9933 60.738 74.0853C70.0219 78.7313 85.1098 76.4064 82.928 63.7449C80.7463 51.0834 66.8206 77.1052 68.714 61.1599C70.514 45.9002 74.3287 42.5089 84.4958 46.8277C94.2329 51.2275 107.927 47.0873 109.641 39.6382C111.273 31.759 103.237 21.0258 86.8795 9.85702C72.5666 0.0843663 70.6842 -0.451566 54.7705 2.54826Z" fill="#F28E56"/>
</svg>
