<svg width="111" height="150" viewBox="0 0 111 150" fill="none" xmlns="http://www.w3.org/2000/svg">
<path d="M29.6134 53.6636C20.9035 71.6666 47.8537 137.297 54.001 136.129C63.2915 118.126 89.421 115.223 80.7111 97.2194C68.5173 71.0859 38.6134 90.5407 52.5492 67.3109C66.485 45.2426 82.1628 38.2737 99.0019 47.5656C114.099 55.696 114.099 56.2768 99.0019 73.6991C79.8402 95.7674 83.9046 142.227 100.744 148.035C109.392 151.017 64.8882 151.341 67.0657 143.733C69.2431 136.125 12.629 156.789 21.3389 145.9C30.0488 135.011 30.4843 56.5672 11.3226 34.4989C-3.77448 17.0765 -3.77448 12.1402 11.3226 4.00977C28.1617 -5.28215 43.8395 1.68677 57.7753 23.7551C71.7111 46.9848 41.8072 27.53 29.6134 53.6636Z" fill="#211F1D"/>
</svg>
