<svg width="215" height="262" viewBox="0 0 215 262" fill="none" xmlns="http://www.w3.org/2000/svg">
<path d="M2.6299 71.1321C2.59696 71.065 2.5646 70.997 2.53282 70.9287M2.53282 70.9287C-0.446611 64.5227 1.65371 53.9836 4.22589 47.4084C5.5895 43.9224 5.84124 40.6456 8.22469 37.6128C10.4655 34.7614 12.4976 31.6194 14.8849 28.754C19.2021 23.5721 26.573 19.2323 32.1583 15.6108C35.6551 13.3435 38.8204 10.1066 42.6766 8.36581C46.3259 6.7185 50.4888 5.72356 54.3963 4.72299C62.2531 2.71113 70.5769 -0.416078 78.8356 1.71272C84.642 3.20937 90.3895 5.29581 96.1544 6.81718C100.191 7.88235 103.969 7.91954 107.941 8.7136C116.104 10.3454 124.252 10.8378 131.551 15.778C139.017 20.8306 144.155 27.4534 148.847 35.0318C151.797 39.7958 155.955 46.8998 151.983 52.2123C148.845 56.4083 138.618 56.0535 133.972 54.8559C125.746 52.7356 116.639 55.3924 108.654 53.012C105.073 51.944 100.98 51.8167 97.2848 50.9029C94.0306 50.0978 89.0638 47.5466 85.7848 47.8451C76.9618 48.6479 68.4303 51.9087 59.8103 51.7371C56.3939 51.6692 51.7128 50.5982 48.5196 52.4157C44.378 54.7724 40.7904 58.2157 36.3751 60.0266C29.7771 62.7331 21.6426 63.9001 14.605 64.5406C11.2658 64.8445 9.16169 65.73 6.67269 68.0572C5.84974 68.8266 3.97086 70.5238 2.53282 70.9287ZM2.53282 70.9287C1.8885 71.11 1.33269 71.032 1 70.4947M95.9122 98.7328C96.6179 93.8311 102.584 91.3591 105.557 87.9918C108.703 84.427 113.472 80.3048 117.979 78.5995C123.97 76.3328 129.838 73.952 135.969 72.0304C138.289 71.3033 141.184 70.7129 143.606 70.4924C145.913 70.2828 149.293 69.3286 151.524 69.9617C156.725 71.4373 162.968 68.6663 167.976 71.499C169.006 72.082 170.227 72.1383 171.292 72.7358C172.444 73.3829 173.558 74.4116 174.577 75.261C176.771 77.089 179.313 78.299 181.544 80.0222C183.698 81.686 186.138 83.0241 188.349 84.6297C191.206 86.7046 193.679 88.8971 196.427 91.1863C200.646 94.7018 201.705 100.317 205.468 104.147C207.167 105.876 210.131 108.027 211.06 110.256C212.489 113.679 214.073 117.179 213.997 120.99C213.912 125.252 213.769 129.175 211.694 132.96C209.717 136.563 207.546 138.685 204.308 141.198C199.363 145.037 191.692 146.233 185.526 145.774C181.68 145.487 178.01 146.19 174.148 145.566C171.053 145.066 168.78 144.281 166.132 142.713C164.769 141.905 163.14 141.609 161.788 140.832C159.692 139.626 157.617 138.317 155.401 137.345L155.335 137.316C151.569 135.664 147.215 133.754 144.005 131.154C141.028 128.741 138.567 127.285 134.854 126.465C133.075 126.072 130.811 125.69 129.365 124.519C127.614 123.1 126.05 121.398 124.22 120.077C120.751 117.574 116.584 115.955 112.844 113.884C109.101 111.81 106.772 108.173 103.371 105.662C101.984 104.638 98.7669 103.848 98.0449 102.248C97.2301 100.443 96.4288 99.371 94.7496 98.4595M98.1015 101.948C99.4881 104.727 101.379 107.211 103.077 109.841C104.072 111.382 105.444 113.541 107.193 114.314C109.092 115.153 110.5 117.389 112.419 118.475C114.771 119.805 116.219 122.326 118.576 123.605C121.316 125.092 123.451 127.735 125.991 129.59C128.351 131.312 130.561 133.127 132.958 134.815C134.966 136.23 138.143 137.025 140.449 137.927C142.846 138.864 145.046 140.019 147.05 141.689C148.541 142.93 150.054 143.843 151.532 145.074C152.972 146.274 155.278 146.084 156.987 146.664C158.642 147.227 160.461 146.99 162.019 147.534C163.976 148.218 166.207 147.094 168.065 147.742C170.936 148.745 175.736 148.372 178.74 148.099C183.07 147.705 187.052 147.821 190.831 145.481M4.96305 70.5918C2.73481 72.6845 4.50134 72.2459 6.31622 72.9555C7.94003 73.591 9.59773 73.714 11.2682 74.1069C14.3609 74.834 16.0631 78.3359 19.1886 79.1604C21.4797 79.7652 24.0876 81.7497 26.6319 81.5179C29.0937 81.2939 31.6324 82.6961 34.1396 82.7314C35.4322 82.7497 37.0057 83.462 38.227 83.877C39.3149 84.2465 40.4477 83.6996 41.4666 84.0458C42.9619 84.5536 45.9129 85.0742 47.4276 84.9364C49.6212 84.7368 51.6693 83.5819 53.8408 84.5423C55.9121 85.4581 57.8926 85.8991 60.1344 84.9181M151.556 51.5601C151.213 53.463 151.786 56.1567 150.022 57.39C149.199 57.9645 148.414 58.6288 147.504 59.1365C145.382 60.3209 144.662 62.5588 142.631 63.9428C140.874 65.1388 138.767 65.909 136.797 66.539C134.875 67.1535 132.631 68.4567 130.519 68.6488C125.399 69.1151 120.73 72.5747 115.576 73.0436C113.713 73.2132 110.65 73.3736 109.283 74.7548C108.679 75.365 107.126 75.9574 106.403 76.45C105.987 76.7334 103.865 77.7439 103.845 77.5257M34.8912 74.3173C38.6267 76.5467 44.097 74.2381 48.1279 73.8712C49.537 73.7431 50.9259 74.1752 52.2985 73.8499C53.51 73.563 54.4758 72.7171 55.5573 72.1414C56.7828 71.4889 58.6888 71.7948 60.0494 71.2478C62.1933 70.386 63.7399 68.3662 66.1027 68.0627C68.8429 67.7106 72.4593 66.0289 75.2387 66.5565C79.32 67.3309 83.5831 65.5988 87.7421 66.388C89.2991 66.6838 91.141 66.4074 92.6444 66.9955C93.9414 67.5029 95.0822 67.7013 96.4906 67.5732C98.8197 67.3608 101.119 66.9784 103.339 67.7929C105.829 68.7063 108.79 68.9641 111.438 69.2474M56.9862 71.1682C56.7898 73.0898 57.256 74.9605 57.5076 76.8953C57.6737 78.1748 58.7886 79.2334 58.971 80.4713C59.3278 82.8941 59.4186 85.3905 59.6406 87.8292C59.9388 91.1056 59.2171 94.3641 59.3906 97.5888C59.4927 99.4848 59.8576 101.294 59.6041 103.175C59.3014 105.422 59.8603 107.582 59.7225 109.803C59.6061 111.686 58.8518 113.517 58.756 115.392C58.6873 116.731 58.8678 118.057 58.6974 119.381C58.3771 121.87 57.6865 124.714 57.9152 127.229C58.1197 129.472 57.959 131.877 58.1725 134.224C58.2754 135.355 58.0918 140.179 58.7377 140.432M15.4075 193.692C9.77347 189.998 11.9879 183.27 12.7304 177.708C13.3889 172.775 16.0551 168.085 16.8087 163.237C17.4715 158.973 21.1667 155.062 23.8249 151.871C25.2228 150.193 27.0231 148.708 28.7231 147.336C29.5375 146.68 30.0907 145.954 31.0449 145.524C31.8573 145.157 32.7391 145.203 33.5303 144.812C37.2602 142.974 41.3416 143.035 45.201 141.748C47.3996 141.015 49.8262 141.936 52.0338 141.801L52.1052 141.796C53.8788 141.687 57.1225 141.487 58.7055 142.163C60.6911 143.01 62.7783 143.444 64.7728 144.224C66.8306 145.029 68.539 146.251 70.4512 147.332C74.5034 149.624 76.5624 152.661 79.3107 156.221C80.5956 157.885 82.5777 163.007 81.6561 165.091C80.8549 166.903 80.4454 168.631 79.0914 170.256C77.5992 172.047 75.4793 173.017 73.9957 174.703C71.4496 177.596 67.6613 180.237 64.4386 182.232C62.9577 183.15 61.639 184.419 60.3821 185.595C59.0032 186.883 56.9501 187.442 55.4436 188.531C53.6129 189.854 51.2834 190.277 49.3367 191.363C46.8969 192.724 44.47 193.615 41.8525 194.341C38.1225 195.376 34.4375 197.159 30.5599 197.624C28.6488 197.853 27.0642 197.286 25.2242 197.351C23.6056 197.408 22.0297 196.124 20.4052 196.272C16.7074 196.608 14.6851 191.776 13.8337 188.904M32.5779 198.957C35.8279 210.115 32.524 222.979 39.8246 232.735C41.0645 234.392 41.7426 237.355 43.7398 238.238C44.7716 238.695 45.7402 239.828 46.6054 240.549C47.8096 241.552 48.5712 241.476 49.9364 241.952C51.0742 242.35 52.7383 242.294 53.9933 242.532C55.0364 242.73 55.8003 242.747 56.8706 242.649C59.674 242.394 62.3106 240.636 65.1777 240.376M71.5676 177.2C73.0994 181.216 75.5034 183.507 78.7626 186.324C81.2916 188.511 83.3994 191.197 85.7844 193.546C88.1132 195.84 89.8852 198.336 91.2936 201.285C92.5074 203.827 94.4763 206.065 95.6688 208.601C97.2759 212.019 98.6694 216.676 97.4141 220.371C96.9005 221.883 95.949 223.975 95.083 225.325C94.5209 226.202 93.7189 226.986 93.052 227.786C92.3968 228.573 92.04 229.903 91.2054 230.42M101.484 68.2564C102.622 72.1616 101.774 76.6309 102.994 80.448C103.415 81.7652 103.326 83.2341 103.747 84.5528C104.287 86.2403 104.931 86.9969 104.496 88.847M108.398 115.047C107.888 120.26 110.62 124.806 111.265 129.877C111.695 133.257 112.708 136.95 114.538 139.906C115.656 141.711 116.314 144.555 116.583 146.632C116.744 147.868 117.451 151.971 118.629 152.431M129.025 133.276C128.743 136.024 128.279 137.163 126.946 139.619C126.062 141.248 124.91 142.675 124.153 144.362C123.453 145.924 122.433 147.145 121.522 148.564C120.7 149.846 120.347 151.557 119.415 152.739C117.734 154.872 116.244 156.963 114.491 159.067C111.978 162.084 108.97 164.841 106.574 167.944C104.222 170.989 101.624 173.931 99.2377 176.958C97.605 179.029 96.3489 181.26 94.6894 183.252C92.9387 185.353 91.4329 187.547 89.8561 189.656C89.3045 190.393 89.1054 192.081 88.9501 192.9C88.7354 194.031 88.3507 194.884 88.4656 196.147M169.557 149.314L168.291 147.912M169.933 149.279C164.123 149.808 162.494 157.702 160.888 162.432C159.751 165.778 158.2 170.417 158.529 174.027C158.812 177.144 156.797 180.305 156.734 183.485C156.7 185.209 155.533 186.958 155.691 188.701C155.852 190.465 154.549 192.673 154.014 194.355C153.377 196.358 153.006 198.545 152.304 200.58C151.483 202.963 150.49 205.405 149.846 207.843C148.828 211.702 146.429 215.264 145.925 219.18C145.691 221.006 144.069 223.121 143.044 224.564C141.658 226.513 140.099 228.075 138.577 229.902C134.811 234.423 129.44 234.683 124.417 236.881M92.5396 232.574C88.5821 232.221 79.1481 231.401 77.6539 236.669C77.0255 238.885 74.7787 239.597 72.7632 240.36C69.4757 241.604 67.565 239.877 64.3586 239.713C63.1719 239.652 63.7534 240.648 63.274 241.223C62.9584 241.602 61.7535 241.363 61.2978 241.509C59.9628 241.935 59.0762 243.34 58.2463 244.337C57.3135 245.456 56.1326 245.749 54.9382 246.429C54.1952 246.852 51.528 247.268 50.7768 246.787C50.0901 246.346 49.7086 245.427 49.1523 246.766C48.6694 247.928 48.6015 248.713 49.9923 248.586M85.9386 235.072C83.104 238.215 76.6027 241.588 72.1631 241.173C70.2055 240.99 70.2668 241.284 69.1799 242.667C68.2444 243.857 66.8217 244.395 65.3147 243.967C63.4049 243.425 60.7299 246.683 62.1382 248.429C63.2709 249.834 64.9188 250.841 66.3892 251.836C67.7288 252.743 67.4785 253.056 66.4447 254.297M84.0233 234.867C85.0485 234.806 92.7333 233.882 91.5785 236.835C90.865 238.658 88.7999 240.216 87.9059 242.101C87.4925 242.973 85.6839 245.717 87.8379 245.521C89.5188 245.368 91.5773 244.785 93.1339 245.587C96.449 247.296 91.1887 252.212 91.5424 254.963C91.8572 257.415 97.8352 257.849 99.5196 259.253M95.0368 235.003C95.0333 234.999 92.6215 231.977 92.9461 231.947C93.835 231.866 94.7802 232.9 95.958 232.622C96.7514 232.433 98.3143 230.418 99.0724 231.643C99.4881 232.314 99.1485 235.341 99.73 235.629C100.915 236.218 104.335 233.949 105.613 233.576C107.689 232.971 109.539 233.109 111.61 233.705C114.109 234.424 115.902 234.621 118.5 234.385C121.292 234.131 121.16 238.768 124.873 237.956C125.925 237.727 126.436 236.459 127.617 236.611C128.731 236.754 129.421 238.275 130.692 238.207C132.615 238.103 134.115 237.584 135.773 236.606C137.757 235.435 140.209 235.006 142.391 234.297C146.412 232.99 147.78 236.223 151.028 237.494M96.3365 236.781C99.3499 240.22 100.329 237.261 104.146 236.913C106.842 236.668 108.457 238.514 110.1 240.27C111.43 241.693 111.734 242.585 113.967 242.932C116.29 243.293 117.39 242.272 118.898 240.608C119.828 239.581 121.957 237.124 122.658 239.317C123.419 241.698 121.295 243.053 121.374 245.124C121.433 246.678 128.33 246.572 129.617 248.168M96.3706 237.157C95.6785 237.937 91.6716 242.157 93.9922 243.444C95.8924 244.498 99.6675 243.122 101.538 242.757C102.357 242.597 106.629 240.611 106.119 242.382C105.45 244.709 104.279 247.005 103.847 249.375C103.235 252.736 109.19 250.346 111.247 250.789C115.057 251.609 110.419 257.439 109.336 258.739M88.5386 238.629C86.9738 241.057 83.9134 240.689 81.7761 242.827C80.7144 243.889 79.9167 245.301 80.7637 246.755C80.9908 247.145 82.3894 248.768 81.8129 249.02C80.3724 249.651 78.6341 249.023 77.2145 249.902C75.2868 251.096 76.3399 255.728 76.6035 257.313C76.6967 257.875 78.0243 260.068 77.9719 260.076C76.9804 260.229 76.8915 260.547 76.159 261M115.422 233.906C112.9 235.231 110.805 236.07 108.11 236.932C105.826 237.662 105.311 239.973 107.383 241.445C109.219 242.75 111.538 242.534 108.57 244.308C106.188 245.733 103.931 247.663 101.438 248.836C99.9275 249.546 99.7529 249.869 98.9885 251.335C98.5786 252.121 97.5344 252.851 96.6575 253.043C95.5931 253.276 94.9002 252.466 93.9779 252.549C91.5319 252.772 94.7938 256.924 95.3412 257.525M95.3412 257.525C95.3477 257.532 95.354 257.539 95.3598 257.545C95.8986 258.121 95.6975 257.7 95.3412 257.525ZM95.3412 257.525C95.0586 257.386 94.6777 257.401 94.4918 258.193M78.0378 235.791C75.1824 237.892 75.5492 239.926 78.8398 239.511C79.8402 239.386 80.695 238.904 81.7318 238.869C83.3536 238.814 84.0027 241.633 84.366 242.802C85.5954 246.762 87.4354 251.646 92.0431 247.962C94.5625 245.949 95.5523 246.346 98.1997 247.992C101.759 250.205 104.538 247.957 107.872 246.817C109.294 246.331 110.976 246.872 112.371 247.166C113.465 247.397 114.868 247.654 115.986 247.512C116.839 247.403 117.916 246.004 118.649 246.216C119.104 246.346 119.015 248.377 119.049 248.75M68.5638 240.067C70.2718 241.256 72.0959 242.513 73.4821 244.088C74.01 244.688 74.406 245.406 75.2833 245.125C75.9455 244.914 76.2301 244.085 76.7103 243.9C77.6419 243.539 76.9525 247.275 76.9331 247.736C76.7859 251.252 79.3961 249.949 81.6837 250.844C83.8447 251.69 85.5096 251.803 87.8216 251.592M82.8789 80.5719L83.8715 87.3098M90.9849 77.9372L90.9853 82.1103M92.1844 103.624C92.1763 106.699 93.3925 108.954 94.0667 111.799M84.6603 108.482C84.8023 111.996 85.0415 115.223 85.9611 118.607M86.9886 134.067C87.6163 136.998 88.3973 139.744 89.2812 142.584M98.1388 131.535L97.9342 137.623M106.587 132.663L107.203 139.435M99.8507 150.347C99.9823 153.619 100.068 156.9 100.365 160.163M92.1522 119.94L92.495 127.875M87.2925 91.5508C86.7631 93.9833 86.8881 96.3279 86.8143 98.8023M95.4052 159.856C95.1277 161.558 95.1222 163.107 95.0978 164.816M62.3343 192.456C62.8389 194.903 64.1102 196.808 65.208 199.023M66.5065 188.283C68.3282 190.98 69.9826 192.57 72.3902 194.576M75.9809 188.179C77.5351 190.69 79.0394 192.182 81.0777 194.164M75.5038 207.949C77.3073 211.507 78.77 214.661 79.1306 218.621M82.7209 208.051C84.156 212.497 85.1043 216.173 85.0135 220.741M90.7932 213.386C90.8134 216.379 91.5366 219.776 90.6915 222.69C90.2129 224.341 89.6768 225.98 89.0502 227.581M149.103 145.485C147.444 149.325 146.198 153.321 144.863 157.251M152.388 160.74C151.128 163.7 150.07 166.729 149.037 169.77M152.082 178.218C149.872 183.463 147.646 188.031 144.285 192.584M144.56 203.94C142.711 206.582 140.775 209.117 138.815 211.671M139.084 168.779C137.653 173.861 137.651 179.449 135.562 184.274M138.299 189.336C136.031 192.366 134.076 195.541 131.938 198.64M134.607 207.122C132.081 210.122 129.586 213.181 126.673 215.811M129.82 221.215C126.785 224.274 123.814 227.058 119.902 228.946M124.175 209.21C121.171 212.501 118.068 215.705 115.215 219.13M120.243 224.363C117.442 227.139 114.678 228.669 111.317 230.486M105.5 204.081C103.255 210.13 99.2374 218.081 102.047 224.501M110.358 215.778C109.06 219.198 108.343 223.083 106.767 226.348M159.228 152.53C157.618 155.524 156.928 158.713 155.911 161.936M56.0103 231.347C59.1655 235.07 62.401 237.396 67.2296 237.913M71.5381 226.899C72.1778 229.289 72.8859 231.595 73.6937 233.911M49.3025 190.986C44.8815 188.776 39.7916 185.217 37.2182 180.937C35.4907 178.064 34.2959 174.979 32.7804 172.005M64.1117 182.81C65.6031 178.187 65.7631 175.237 63.5974 170.907C62.2403 168.193 58.3297 167.213 57.5087 164.443M126.971 123.22C128.822 121.067 131.152 119.247 132.852 116.973C134.413 114.886 135.765 112.696 137.197 110.529M155.122 136.591C157.892 136.271 162.157 134.592 163.934 132.459C165.871 130.134 165.922 126.549 167.673 124.447M69.5025 50.3027C72.8769 45.0982 71.7108 39.9903 71.8269 34.158M102.988 51.4281C103.501 42.7454 102.024 34.2391 98.0596 26.4595M125.288 54.7091C124.429 51.7596 124.333 48.9305 122.988 46.1091C120.925 41.7799 118.377 37.6706 116.872 33.093" stroke="#F87239" stroke-linecap="round"/>
</svg>
