<svg width="125" height="353" viewBox="0 0 125 353" fill="none" xmlns="http://www.w3.org/2000/svg">
<path d="M4.95078 68.8472C18.2088 67.2953 31.3582 66.1288 44.5045 64.6061C47.2952 64.2828 51.2304 63.335 53.8957 63.6316C56.776 63.9522 62.4391 63.4077 65.1375 62.4997C79.1651 57.7795 95.3793 57.6716 109.654 55.6017C113.167 55.0923 123.353 52.5054 123.948 48.1052C124.3 45.4999 122.748 43.2433 123.081 40.5377C123.378 38.1177 122.01 33.8847 120.986 31.7094C118.528 26.4897 114.149 23.1733 108.678 21.2072C105.628 20.1108 102.854 18.193 99.5889 17.378C96.4564 16.5962 91.8139 15.9293 89.0738 14.558C83.6557 11.8464 77.697 8.95948 71.7671 7.6034C69.0212 6.97548 65.999 5.94613 63.4576 4.79568C60.9922 3.67955 59.5527 1.46109 56.6968 1.07158C51.9694 0.426739 44.3634 4.25261 41.6001 7.96514C39.8829 10.2722 37.4303 12.403 35.5951 14.8686C33.9816 17.0367 31.8205 21.518 29.4683 22.8414C24.9063 25.4083 18.191 28.4783 14.7071 32.4535C13.1917 34.1829 10.9211 35.2114 9.34691 37.3265L4.56739 43.7478C1.12516 48.3727 -2.25701 68.068 6.89367 68.5655M50.8894 64.1785C48.9253 71.9389 51.6744 78.1055 54.5136 85.1826C57.1364 91.7205 59.5422 97.983 61.8752 104.593C63.9182 110.381 63.2709 119.591 62.4068 125.548C61.2485 133.534 63.3471 142.279 63.5376 150.29C63.9383 167.102 65.5687 183.72 67.4659 200.251C67.8124 203.271 67.3725 206.502 67.8266 209.663C68.2427 212.559 69.3203 216.366 68.9738 219.182C68.3439 224.305 71.1567 231.306 71.8986 236.469C72.1829 238.447 74.437 252.737 71.3965 251.762C69.7719 251.242 65.5343 244.761 63.9938 246.831C61.0815 250.743 66.7182 253.665 69.428 255.7C72.0383 257.661 74.3605 258.842 73.1697 262.187C72.6123 263.752 66.6018 267.293 68.954 269.274C70.8576 270.876 73.4743 270.375 72.7772 273.451C72.3085 275.519 69.9709 279.614 71.8861 281.052C73.7906 282.483 76.647 281.059 74.435 284.031C72.0816 287.193 70.276 289.464 69.8373 293.442C69.6194 295.421 76.1137 287.912 74.8001 296.347C73.339 305.732 72.6085 316.961 76.0768 325.94C76.2918 326.495 77.0985 331.277 77.8631 329.362C78.0421 328.912 80.4714 322.149 81.1868 324.119C82.5114 327.769 80.1796 332.136 80.5947 335.912C81.0029 339.624 81.8376 343.757 83.3947 347.156C84.3438 349.225 85.9355 355.217 87.4626 349.774C88.2816 346.858 89.3194 343.207 91.1279 340.775C92.0717 339.507 92.3617 338.893 93.7413 340.176C95.8201 342.108 94.0311 337.008 93.9427 335.441C93.8219 333.302 93.5188 333.071 94.9723 333.024C96.9155 332.96 96.0686 329.491 96.0299 328.304C95.9787 326.732 95.0314 323.049 96.5911 321.857C97.5745 321.105 99.5653 324.142 100.204 324.572C101.965 325.756 101.911 321.082 101.501 320.372C100.601 318.805 98.9279 317.934 98.1252 316.239C96.8462 313.539 100.854 310.709 99.7015 307.652C98.552 304.604 95.7753 302.385 96.7735 298.779C97.7094 295.397 100.764 291.852 98.8715 288.459C97.9413 286.789 93.2185 287.383 91.3865 285.06C89.6249 282.826 91.6082 278.258 92.4685 276.103C93.8365 272.677 94.6031 271.264 93.9674 267.362C93.3201 263.389 92.7894 261.7 95.1728 258.498C97.4985 255.373 95.7864 253.514 94.329 250.9C92.9133 248.36 92.074 247.968 90.02 246.792C87.0882 245.115 88.0451 252.861 87.5214 246.657C87.3105 244.157 89.6717 242.165 88.9452 239.504C88.272 237.038 87.8432 234.462 87.1222 231.992C85.3789 226.02 83.4404 218.564 85.2972 212.388C86.3102 209.017 83.6833 206.03 83.8026 202.753C83.9429 198.89 82.1321 195.345 81.5807 191.508C81.0911 188.1 81.1446 184.721 81.08 181.313C81.0291 178.615 81.5624 175.351 80.6512 172.769C79.5846 169.748 80.4461 165.963 79.9352 162.8C79.2151 158.343 79.5558 154.141 79.0525 149.756C78.0909 141.378 75.6052 133.266 75.446 124.847C75.3744 121.071 73.8479 117.307 73.9567 113.523C74.0425 110.532 72.9588 107.104 73.1415 104.399C73.6242 97.252 69.0346 90.3862 68.0603 83.6058C67.4336 79.2445 66.2416 75.4181 66.8468 70.9414C67.1642 68.593 67.0821 66.6575 66.2975 64.4348M29.9876 47.6081L29.3559 62.7133M37.9747 54.4262C37.5863 57.8818 37.1025 61.3557 37.5976 64.8028" stroke="#F87239" stroke-linecap="round"/>
</svg>
