<svg width="105" height="104" viewBox="0 0 105 104" fill="none" xmlns="http://www.w3.org/2000/svg">
<path d="M72.7207 33.4776C82.0514 41.6323 64.3252 52.8637 55.9256 52.8637C47.5259 52.8637 46.6115 68.0421 49.1269 78.1344C51.6423 88.2266 65.8346 86.2655 69.4397 86.134C73.0448 86.0024 76.6783 87.4668 78.1546 81.3481C79.4811 75.85 78.1546 67.581 73.725 67.581C69.2954 67.581 58.4488 60.8127 63.883 57.0198C84.0596 42.937 75.9799 33.4776 95.2891 52.5327C104.443 64.5217 95.4997 67.581 88.1616 67.581C80.8235 67.581 84.2528 69.6967 83.7754 72.17C82.2991 79.8184 86.1366 83.8851 86.7279 87.4668C87.8143 94.047 103.257 80.9051 104.444 87.4668C105.63 94.0284 101.644 89.3656 101.644 94.984C101.644 103.405 74.1964 95.2529 56.8545 97.7918C45.8227 99.4069 39.9328 104.717 28.8608 103.408C16.7219 101.972 0.867188 89.3658 0.867188 89.3658C3.11672 77.3213 32.4006 101.444 34.4607 89.3658C35.582 82.7913 42.8588 75.3265 40.0594 61.2873C39.1541 56.7473 45.657 52.8637 31.7421 52.8637C17.8272 52.8637 0.868321 47.248 18.2264 25.2412C59.6551 -17.3326 34.5067 0.0802307 72.7207 33.4776Z" fill="#F28E56"/>
</svg>
