<svg width="28" height="50" viewBox="0 0 28 50" fill="none" xmlns="http://www.w3.org/2000/svg">
<path d="M3.15074 22.4374C3.09907 22.2569 3.04698 22.0773 2.99473 21.8985M2.99473 21.8985C1.97773 18.4173 0.903181 15.2289 1.73987 11.6742L2.46976 8.57323C2.69305 7.62451 3.29939 6.92801 3.55572 6.05409C3.80099 5.21794 4.49599 4.75732 5.04641 4.14301C5.57397 3.55415 6.62831 3.30008 7.04758 2.73948C8.00423 1.46033 10.6513 1.5539 11.9758 1.17748C13.7047 0.686148 15.3714 1.32293 16.9422 1.78061C18.7893 2.31881 19.9385 3.38108 21.6119 4.22595C22.863 4.85759 24.1563 6.57965 24.8371 7.80489C25.5091 9.01437 25.8403 10.3722 26.1952 11.6936C26.8831 14.2556 27.648 16.9478 25.7973 19.2026C25.0212 20.1481 23.7742 20.381 22.6766 20.7076C22.1082 20.8768 21.2304 21.0536 20.7309 21.2937C20.2233 21.5377 19.2548 21.3491 18.8642 21.66C17.957 22.382 15.6569 21.9701 14.5516 22.1778C13.0416 22.4615 11.4303 22.2701 9.86458 22.715C8.04462 23.2322 4.62334 23.3125 2.99473 21.8985ZM2.99473 21.8985C2.77653 21.709 2.59051 21.4928 2.44483 21.2471M8.38655 23.2346C9.83566 25.7648 10.0419 29.9815 9.57288 32.8571C9.15978 35.3895 10.1869 37.9936 9.97979 40.496C9.83571 42.2379 10.0819 44.3676 10.4622 46.0686C10.7078 47.1671 10.8458 47.9396 11.9951 48.2257C12.7207 48.4065 12.9775 48.3738 12.9775 48.1667M12.9775 48.1667C12.9774 47.9782 12.764 47.6444 12.4978 47.1958C12.035 46.4151 11.9567 44.5455 12.8519 46.1567C13.1483 46.6903 12.9592 47.3066 13.0644 47.8724C13.0839 47.9773 13.1016 48.0636 13.1181 48.134M12.9775 48.1667C12.5931 48.2343 12.3882 48.0518 11.8714 47.1803C11.1245 45.921 11.218 44.7197 11.5497 43.3105C11.6694 42.8019 13.2091 41.4699 13.9232 41.6052C15.3221 41.8701 15.0447 42.9727 16.0429 43.6548C16.9542 44.2775 18.4897 44.7705 19.5672 44.3918C21.0957 43.8547 21.6645 45.3727 21.3529 46.6962C21.2556 47.1099 20.4836 49.2589 19.7893 48.3356C19.1727 47.5159 18.9037 47.7362 18.151 48.3524L18.1398 48.3615C17.2586 49.0831 16.6542 46.7889 16.3135 47.1599C16.1307 47.3592 15.9459 47.6131 15.7508 47.8597M12.9775 48.1667C13.0217 48.159 13.0683 48.1481 13.1181 48.134M13.1181 48.134C13.2729 48.7966 13.3225 48.0491 13.8544 48.1817C14.2267 48.2743 14.5303 48.8738 14.9874 48.6049C15.2665 48.4405 15.5161 48.1558 15.7508 47.8597M13.1181 48.134C13.366 48.0654 13.6915 47.931 14.1875 47.8138C14.688 47.6953 15.2156 47.7371 15.7508 47.8597M15.7508 47.8597C16.8478 48.1108 17.9774 48.7016 18.9737 48.9496C19.9268 49.1871 20.4962 48.5409 21.2521 47.9392C22.033 47.3179 21.7171 46.1967 21.9116 45.3703C22.1124 44.5173 21.7788 43.0508 21.6818 42.1571C21.5649 41.08 21.7125 39.9375 21.7323 38.8588C21.7777 36.3874 21.4997 33.9632 21.2949 31.4658C21.147 29.6629 21.0008 27.7431 21.0328 26.0044C21.0462 25.2762 20.0679 21.8278 20.5789 21.7069" stroke="#F87239" stroke-linecap="round"/>
</svg>
