<svg width="105" height="104" viewBox="0 0 105 104" fill="none" xmlns="http://www.w3.org/2000/svg">
<path d="M72.7207 33.8643C82.0514 42.019 64.3252 53.2504 55.9256 53.2504C47.5259 53.2504 46.6115 68.4289 49.1269 78.5211C51.6423 88.6133 65.8346 86.6523 69.4397 86.5207C73.0448 86.3892 76.6783 87.8535 78.1546 81.7348C79.4811 76.2367 78.1546 67.9677 73.725 67.9677C69.2954 67.9677 58.4488 61.1994 63.883 57.4065C84.0596 43.3237 75.9799 33.8643 95.2891 52.9194C104.443 64.9084 95.4997 67.9677 88.1616 67.9677C80.8235 67.9677 84.2528 70.0835 83.7754 72.5568C82.2991 80.2051 86.1366 84.2718 86.7279 87.8535C87.8143 94.4337 103.257 81.2919 104.444 87.8535C105.63 94.4151 101.644 89.7523 101.644 95.3707C101.644 103.792 74.1964 95.6396 56.8545 98.1786C45.8227 99.7937 39.9328 105.104 28.8608 103.794C16.7219 102.358 0.867188 89.7525 0.867188 89.7525C3.11672 77.708 32.4006 101.831 34.4607 89.7525C35.582 83.1781 42.8588 75.7132 40.0594 61.674C39.1541 57.134 45.657 53.2504 31.7421 53.2504C17.8272 53.2504 0.868321 47.6347 18.2264 25.6279C59.6551 -16.9459 34.5067 0.466949 72.7207 33.8643Z" fill="#211F1D"/>
</svg>
