<svg width="120" height="80" viewBox="0 0 120 80" fill="none" xmlns="http://www.w3.org/2000/svg">
<path d="M57.2425 62.5692C52.6661 70.0209 58.8737 70.7702 51.522 74.6064C44.1702 78.4427 69.1908 82.0732 77.8368 77.7761C82.9254 75.2471 96.1427 66.0084 86.4177 66.0084C76.6926 66.0084 71.8301 60.8496 77.8368 57.1238C80.125 55.6908 87.8478 54.5443 94.9986 54.5443C112.733 54.5443 122.172 47.3792 119.311 35.9151C116.165 23.5912 97.8589 6.96836 83.2713 2.95593C54.9543 -4.78233 14.338 5.82196 3.75484 23.8779C-4.82608 37.9214 2.89675 43.0803 37.7925 47.3793C45.2293 48.2391 53.2381 50.8185 56.0984 52.8247C60.3889 55.9774 60.6749 57.1238 57.2425 62.5692Z" fill="#F7F7F7"/>
</svg>
