<svg width="110" height="82" viewBox="0 0 110 82" fill="none" xmlns="http://www.w3.org/2000/svg">
<path d="M41.0161 31.9479C46.5454 40.4902 51.3835 49.6897 51.3835 52.3181C51.3835 54.9465 45.6034 59.5124 40.5402 62.2256C35.3467 65.0087 31.8221 70.8189 25.8608 65.7812C19.8996 60.7434 20.418 53.7344 26.6384 48.0396C33.8956 41.6876 29.0787 35.4591 17.8032 33.0498C-0.406106 19.5566 -5.24143 40.5924 8.49541 58.5531C12.6424 64.2479 16.8045 63.1838 16.271 72.1332C15.7375 81.0826 48.157 68.6538 55.4949 77.0117C63.1854 85.7714 91.1632 81.3278 89.5155 72.1332C87.8678 62.9385 94.3536 60.3053 99.8829 51.763C118.199 24.822 107.794 -2.59032 86.4052 15.6427C69.8173 20.2424 66.0159 26.4648 75.6922 35.9928C83.9862 44.535 84.6774 55.0486 76.729 62.6052C68.7807 70.1618 72.6833 60.4263 70.4495 58.5531C58.4916 48.5251 69.565 47.5211 64.17 42.7901C58.7749 38.059 56.9128 24.7199 65.2068 16.1777C74.883 6.64974 66.447 4.88093 47.381 3.27995C16.5376 -5.39204 22.7003 5.0069 41.0161 31.9479Z" fill="#F28E56"/>
</svg>
