<svg width="116" height="123" viewBox="0 0 116 123" fill="none" xmlns="http://www.w3.org/2000/svg">
<path d="M22.214 71.043C23.6383 69.3501 25.379 66.1345 27.3852 64.9914C27.8993 64.6986 28.4721 64.5014 28.9731 64.1851C29.7391 63.7015 30.7338 63.2884 31.3424 62.6801C32.7906 61.2327 34.7436 60.4344 36.1017 58.7863C36.5549 58.2364 37.2185 57.7589 37.7567 57.2658C38.4398 56.6399 38.8513 55.6038 39.4892 54.8975C41.0759 53.1403 42.1351 50.928 43.8021 49.2619C45.6928 47.3723 46.5222 44.3866 48.1414 42.3161C49.1283 41.0541 49.7672 39.5203 50.8558 38.3398C51.9498 37.1533 53.0925 36.0124 54.1865 34.826C55.8751 32.9949 58.0163 31.4552 59.9841 29.9254C61.5781 28.6863 63.3396 27.3754 65.144 26.4736C67.8677 25.1126 71.1804 26.2817 73.1503 23.5258C75.5498 20.1688 74.2869 16.672 74.1202 12.9727C74.0581 11.588 75.0511 9.18292 75.8384 8.08144C76.5014 7.15382 77.2635 4.9233 76.3227 4.06383C75.1112 2.95668 73.2125 4.17207 71.8632 4.03197C69.3992 3.77684 71.2025 2.5554 70.5897 1.32943C70.2153 0.578729 66.8166 1.3689 66.0993 1.44137C65.0739 1.54503 64.0943 1.14044 63.0676 1.28695C61.8521 1.46032 60.5462 1.49924 59.312 1.40409L59.3034 1.40354C57.5875 1.27121 54.9257 1.06617 53.3156 1.87066C51.3737 2.84111 50.078 4.30519 47.7861 4.58243C45.9475 4.80514 44.419 3.357 42.6332 3.39466C41.3905 3.42088 40.2552 3.07329 38.9801 3.25525C37.668 3.44247 36.338 3.73629 35.0646 4.10747C28.736 5.95188 22.7749 10.3577 19.1887 15.9065C17.0091 19.2789 15.9857 22.0361 15.2953 25.9814C14.7119 29.3147 14.6147 32.2438 12.733 35.1985C11.8897 36.5228 10.9114 37.5613 9.82347 38.6816C8.86998 39.6634 8.0826 40.7917 7.15565 41.7999C6.58768 42.4175 5.764 42.7665 5.23857 43.3872C3.85629 45.0197 3.39904 47.1873 2.36935 49.0076C1.52117 50.5071 1.11804 51.9693 0.949427 53.6727C0.233905 60.9011 5.948 64.0408 10.8398 67.7116C12.5589 69.0016 13.8505 73.6212 16.6026 72.8712C17.5601 72.6102 18.8769 72.1456 19.7681 71.7003C20.5481 71.3105 20.8346 70.3454 21.6595 69.9332M39.2461 32.0182C35.8126 32.5365 33.5041 34.6844 31.2082 37.2163C30.1586 38.3738 26.528 45.4585 26.7555 45.4261M40.0785 32.2955C38.8501 34.3998 37.4802 36.386 36.7055 38.7072L35.4503 42.468M36.6578 29.6132C38.7727 29.9548 41.5664 31.096 43.6915 30.2465C46.823 28.9947 49.2327 25.9755 51.3447 23.4812C53.1859 21.3066 54.676 19.1775 54.9748 16.2989C55.0761 15.3241 54.8284 12.1195 54.0507 14.449M47.387 27.0257C48.9288 24.4429 52.3409 23.7058 55.1161 23.0605C56.7544 22.6797 58.3375 21.8963 59.967 21.6639M73.0075 20.4636C72.8032 22.6368 73.4086 24.6141 73.0355 26.794C72.8067 28.1318 72.1691 29.6076 71.688 30.8834C71.2025 32.1711 70.1124 33.3869 69.2615 34.459C69.089 34.6764 68.3759 35.4069 68.1461 35.4916C67.887 35.5869 67.6254 36.5899 67.7297 36.2776M69.0286 24.995C68.5531 28.2742 68.2119 31.8022 66.6511 34.8389C65.5764 36.9301 64.6707 39.3291 62.0869 39.3287M63.7565 27.8606C62.54 31.5054 62.7914 35.3709 61.5788 39.0045C61.0935 40.4583 59.8854 41.6777 59.2907 43.0888C59.0991 43.5434 57.4885 45.0702 57.3687 44.2291M57.4657 31.9288C57.0688 34.7355 58.1311 37.5674 58.0996 40.3963C58.0808 42.0769 56.1886 46.8407 56.7207 45.2464M51.174 38.7715C52.0634 40.0831 54.4422 46.9602 56.9976 46.2638M47.4727 44.3201C48.1971 46.3608 50.1816 46.5462 52.209 46.7564C53.7173 46.9127 55.0602 46.2343 56.5352 46.7263M44.2336 49.406C46.5417 52.4171 52.1854 49.7992 54.5924 47.9281M40.1624 54.2145C41.3051 55.7052 42.5129 55.2395 44.062 54.5903C45.3504 54.0503 46.8151 53.8342 48.1472 53.3322C49.8634 52.6856 52.0569 50.9065 52.6498 49.1301M37.2012 58.468C38.9236 58.7461 40.6778 58.9457 42.4008 58.4895C44.2245 58.0067 45.0245 56.5658 46.2659 55.3252C47.3462 54.2454 48.8545 53.2101 50.0589 52.2739M28.9678 63.7383C34.3051 64.7449 37.9526 60.7219 42.0103 57.9142M22.7697 68.4535C29.1339 71.5869 33.4591 63.3245 37.2931 60.0401M47.4684 55.4181C50.2925 59.2186 54.066 62.3204 56.7434 66.2199C59.1041 69.6582 62.1544 72.4724 64.755 75.6752C69.2382 81.1965 75.2919 86.0443 77.7268 92.9517C78.2188 94.347 78.8968 95.7489 79.3027 97.1601C79.7521 98.7225 79.7136 98.2713 79.1329 97.052C78.7734 96.2968 78.4462 95.2765 77.4176 95.4693C76.0197 95.7314 74.4277 95.5484 73.0811 96.0442C71.4411 96.6477 69.9104 98.2506 69.3183 99.8762C68.6308 101.766 70.2102 100.102 70.8188 99.5888C71.3092 99.1756 73.4337 97.9481 73.9533 98.9215C74.9572 100.802 73.5997 104.116 73.2005 106.002C73.061 106.659 71.7237 110.06 73.1165 110.204C73.6118 110.256 73.9986 109.671 74.3294 109.393C75.0091 108.82 75.8544 108.514 76.6934 108.263C81.8971 106.706 80.3006 115.14 80.7023 117.959C80.9405 119.63 81.6449 117.689 81.9716 117.183C83.1341 115.385 84.9913 117.265 86.1332 118.263C86.4453 118.536 89.8337 122.401 90.0261 122.199C90.7552 121.435 88.6647 119.38 89.308 118.705C89.6944 118.301 90.7114 118.865 91.1425 119.009C91.8889 119.258 92.2799 116.986 92.4641 116.435C93.2057 114.213 95.3064 118.08 95.9524 116.143C96.2113 115.367 97.7371 116.309 98.311 116.467C98.9525 116.644 99.988 115.716 99.1848 115.234C98.1089 114.588 96.5595 114.362 95.3831 113.949C92.2541 112.851 89.4054 110.69 86.6607 108.881M82.0421 95.0077C80.9463 96.9965 80.3165 96.6129 78.5373 96.8439M78.5373 96.8439C78.3777 96.865 78.2085 96.8908 78.0284 96.9233C76.0216 97.2907 74.8666 99.5494 73.7216 101.002C72.6234 102.395 71.0467 103.735 70.9707 105.652C70.9082 107.226 71.3705 110.467 73.3426 110.862C73.9437 110.983 81.3793 104.319 80.7218 107.225C80.1835 109.607 79.6785 112.028 79.3884 114.455C79.1788 116.208 78.7567 117.575 80.8361 118.021C82.5462 118.388 84.2295 117.087 84.9523 115.642C85.1943 115.16 86.3498 110.665 86.9377 110.823C87.9906 111.107 88.787 113.397 89.5258 114.153C90.6701 115.325 90.7184 113.54 91.2735 112.818C92.8202 110.806 96.8699 115.772 98.0557 112.614C98.4875 111.462 98.5922 111.628 99.7306 112.007C101.083 112.459 101.581 111.188 101.972 110.117C102.865 107.67 105.836 111.382 107.136 108.449C107.843 106.851 107.705 104.644 107.102 103.058C106.74 102.106 106.469 100.63 106.058 99.4044M78.5373 96.8439C78.9237 96.9411 79.2999 97.0666 79.5134 97.2474C80.9397 98.455 81.4978 100.7 82.9541 101.718C83.2299 101.911 83.8586 101.936 84.1254 101.698C84.2321 101.602 84.6776 101.025 84.8243 101.246C85.4731 102.219 86.013 103.348 87.0533 104.01C90.9976 106.522 89.6436 98.6167 92.0287 99.2638C93.3224 99.6146 95.2992 100.734 96.6526 100.19C97.9849 99.6538 97.1482 98.9705 96.3449 98.3911C95.4158 97.7209 94.3583 96.9342 95.3133 95.8889C96.0775 95.0525 99.5922 96.8535 100.445 97.1381C101.229 97.3997 104.712 99.3979 106.058 99.4044M78.5373 96.8439C77.9066 96.6859 77.2494 96.6047 77.2322 96.4864M106.058 99.4044C105.853 98.7919 105.614 98.2428 105.311 97.8533C104.933 97.3672 106.936 98.8762 106.477 99.2871C106.385 99.3691 106.241 99.4051 106.058 99.4044ZM58.941 44.137C61.1182 45.9956 63.298 48.1745 65.0014 50.4579C66.7957 52.8631 69.2021 54.659 71.2057 56.861C73.1887 59.0404 75.5929 61.2523 77.8931 63.1C80.5912 65.2672 82.288 68.0844 84.662 70.5306C88.8064 74.8014 92.0188 79.7363 95.0094 84.8418C96.0082 86.547 96.5123 88.3386 97.3864 90.0883C97.8343 90.9849 98.7312 92.482 98.9162 93.4077C99.318 95.421 98.8726 93.3379 99.3271 93.3049C100.125 93.2468 100.704 92.8645 101.537 92.9456C102.634 93.0526 103.783 93.6265 104.825 93.974C106.729 94.6091 109.179 94.6658 110.938 95.7219C111.294 95.9353 112.013 96.8439 112.17 97.5478M112.17 97.5478C112.246 97.8866 112.191 98.1781 111.903 98.3219C111.469 98.5392 107.821 97.1468 109.129 97.191C109.949 97.219 111.091 97.2961 112.17 97.5478ZM112.17 97.5478C113.416 97.8379 114.58 98.3612 115.068 99.3091C115.52 100.188 115.407 101.526 114.368 101.919C112.618 102.58 110.929 101.377 109.322 101.949C108.037 102.407 108.868 103.984 108.027 103.983" stroke="#F87239" stroke-linecap="round"/>
</svg>
