<svg width="110" height="76" viewBox="0 0 110 76" fill="none" xmlns="http://www.w3.org/2000/svg">
<path d="M54.7705 2.24162C45.3083 4.02529 31.6826 9.71151 22.8566 16.0518C-8.55152 38.4516 -6.80492 51.261 28.3767 52.4233C62.4426 53.5732 37.5269 57.5146 36.3662 70.2946C35.2055 83.0746 50.5629 68.6866 60.738 73.7786C70.0219 78.4246 85.1098 76.0997 82.928 63.4382C80.7463 50.7767 66.8206 76.7985 68.714 60.8532C70.514 45.5936 74.3287 42.2022 84.4958 46.521C94.2329 50.9209 107.927 46.7807 109.641 39.3316C111.273 31.4523 103.237 20.7191 86.8795 9.55038C72.5666 -0.222274 70.6842 -0.758207 54.7705 2.24162Z" fill="#F7F7F7"/>
</svg>
