<svg width="80" height="93" viewBox="0 0 80 93" fill="none" xmlns="http://www.w3.org/2000/svg">
<path d="M31.3209 46.4121C43.5443 70.2743 57.1522 65.4804 60.7095 58.1968C62.3356 55.3508 60.7095 51.1765 55.7293 45.6741C47.7 36.7564 44.651 32.8668 44.651 31.5386C44.651 28.9771 49.8344 26.89 55.9326 26.9849C61.6242 27.0797 67.0109 29.072 67.0109 31.1591C67.0109 31.7283 64.5717 33.1514 61.5226 34.3847C55.5261 36.8513 54.0015 39.223 55.9326 42.7331C60.4045 50.8919 65.9945 49.9432 73.8205 39.6025C81.6465 29.2617 80.2925 52.6895 79.0294 61.3183C77.1063 74.4552 67.0109 87.9966 55.9326 86.2904C51.0185 85.5336 48.9143 95.3346 44.3777 91.6393C39.8411 87.944 44.3777 71.1066 30.7653 55.0135C8.81865 28.9315 0.484562 17.5554 0.484562 13.6709C0.484562 6.17925 14.6526 0.0749083 31.3209 0.352373C46.8779 0.629838 61.6017 6.4566 61.6017 12.5609C61.6017 14.2257 54.9344 18.3878 46.6002 21.9949C30.2097 29.2091 26.0426 36.1458 31.3209 46.4121Z" fill="#211F1D"/>
</svg>
