<svg width="80" height="94" viewBox="0 0 80 94" fill="none" xmlns="http://www.w3.org/2000/svg">
<path d="M31.3209 47.0253C43.5443 70.8875 57.1522 66.0936 60.7095 58.8101C62.3356 55.9641 60.7095 51.7898 55.7293 46.2874C47.7 37.3697 44.651 33.48 44.651 32.1519C44.651 29.5904 49.8344 27.5033 55.9326 27.5982C61.6242 27.693 67.0109 29.6852 67.0109 31.7724C67.0109 32.3416 64.5717 33.7647 61.5226 34.998C55.5261 37.4646 54.0015 39.8363 55.9326 43.3464C60.4045 51.5052 65.9945 50.5565 73.8205 40.2157C81.6465 29.875 80.2925 53.3028 79.0294 61.9316C77.1063 75.0685 67.0109 88.6099 55.9326 86.9037C51.0185 86.1469 48.9143 95.9479 44.3777 92.2526C39.8411 88.5573 44.3777 71.7199 30.7653 55.6268C8.81865 29.5448 0.484562 18.1687 0.484562 14.2842C0.484562 6.79254 14.6526 0.688197 31.3209 0.965662C46.8779 1.24313 61.6017 7.06989 61.6017 13.1742C61.6017 14.839 54.9344 19.0011 46.6002 22.6082C30.2097 29.8223 26.0426 36.759 31.3209 47.0253Z" fill="#F28E56"/>
</svg>
