<svg width="86" height="116" viewBox="0 0 86 116" fill="none" xmlns="http://www.w3.org/2000/svg">
<path d="M62.7206 41.7567C69.3984 55.5595 48.7359 105.878 44.0228 104.983C36.8998 91.1798 16.8666 88.9535 23.5443 75.1507C32.8932 55.1143 55.8203 70.0301 45.1359 52.22C34.4514 35.3004 22.4313 29.9574 9.52096 37.0815C-2.05386 43.315 -2.05386 43.7603 9.52096 57.1178C24.2121 74.0374 21.0959 109.658 8.18552 114.11C1.55471 116.397 35.6756 116.645 34.0062 110.812C32.3368 104.979 75.7423 120.822 69.0645 112.473C62.3868 104.125 62.0528 43.9829 76.7439 27.0633C88.3188 13.7057 88.3188 9.92107 76.7439 3.68754C63.8336 -3.4365 51.8135 1.90651 41.1291 18.8261C30.4446 36.6362 53.3717 21.7204 62.7206 41.7567Z" fill="#F28E56"/>
</svg>
