<svg width="80" height="93" viewBox="0 0 80 93" fill="none" xmlns="http://www.w3.org/2000/svg">
<path d="M31.3209 46.7187C43.5443 70.5809 57.1522 65.787 60.7095 58.5035C62.3356 55.6574 60.7095 51.4831 55.7293 45.9807C47.7 37.063 44.651 33.1734 44.651 31.8452C44.651 29.2838 49.8344 27.1966 55.9326 27.2915C61.6242 27.3864 67.0109 29.3786 67.0109 31.4657C67.0109 32.0349 64.5717 33.458 61.5226 34.6913C55.5261 37.1579 54.0015 39.5296 55.9326 43.0398C60.4045 51.1985 65.9945 50.2498 73.8205 39.9091C81.6465 29.5684 80.2925 52.9962 79.0294 61.625C77.1063 74.7618 67.0109 88.3032 55.9326 86.5971C51.0185 85.8403 48.9143 95.6412 44.3777 91.9459C39.8411 88.2506 44.3777 71.4132 30.7653 55.3201C8.81865 29.2382 0.484562 17.8621 0.484562 13.9775C0.484562 6.48589 14.6526 0.381549 31.3209 0.659014C46.8779 0.936479 61.6017 6.76325 61.6017 12.8675C61.6017 14.5323 54.9344 18.6945 46.6002 22.3015C30.2097 29.5157 26.0426 36.4524 31.3209 46.7187Z" fill="#F7F7F7"/>
</svg>
