<svg width="14" height="72" viewBox="0 0 14 72" fill="none" xmlns="http://www.w3.org/2000/svg">
<path d="M2.00566 11.0563C3.59548 11.0563 5.07147 10.1421 6.62634 10.1421C7.83129 10.1421 8.9764 9.22783 10.1725 9.22783C11.3002 9.22783 12.1428 7.61206 12.644 6.33288C12.9879 5.45505 11.4464 2.87621 10.9844 2.28666C10.2535 1.35391 8.42917 1 7.486 1C7.0294 1 6.16785 1.44583 5.76668 1.76184C5.14992 2.24769 4.53501 2.03405 3.93991 2.45596C3.3931 2.84362 2.96645 3.39209 2.4355 3.81034C1.84747 4.27355 1.71831 5.04373 1.25346 5.57103C0.5336 6.38762 1.57584 9.47145 1.57584 10.4468" stroke="#F87239" stroke-linecap="round"/>
<path d="M4.36972 11.0563C4.00897 13.6778 4.77551 16.4664 4.35776 19.1318C4.14926 20.4623 4.08889 21.8853 3.95182 23.2457C3.8106 24.6474 3.55 25.8024 3.51005 27.275C3.46429 28.9622 2.65039 30.3574 2.65039 32.1508C2.65039 34.119 2.8653 36.1083 2.8653 38.0254C2.8653 41.3784 4.51179 44.3408 5.00252 47.4721C5.45239 50.3425 5.43437 53.5973 6.04128 56.3939C6.32725 57.7117 6.51886 59.1771 6.51886 60.5589C6.51886 61.6751 6.13683 63.3269 6.35172 64.3173C6.76516 66.2223 6.50029 69.4227 7.70092 70.7842C8.47152 71.6584 9.03507 70.6051 9.7426 70.4799C10.3783 70.367 11.247 70.2486 11.247 69.1082C11.247 66.7001 10.1417 64.9068 9.95753 62.5565C9.77645 60.2456 9.5277 57.7381 9.5277 55.3953C9.5277 50.3514 8.21477 45.0659 6.47111 40.6156C4.63276 35.9237 5.76061 28.6173 6.53082 23.7028C6.70905 22.5655 6.8786 21.3524 7.27109 20.3507C7.70052 19.2546 7.74895 18.1785 8.07104 17.151C8.37934 16.1674 8.48867 14.7148 8.65609 13.6465C8.74886 13.0547 8.4813 10.4668 8.88294 10.7515" stroke="#F87239" stroke-linecap="round"/>
</svg>
