<svg width="203" height="155" viewBox="0 0 203 155" fill="none" xmlns="http://www.w3.org/2000/svg">
<path d="M68.2786 154C65.0792 150.024 62.4118 146.355 58.1659 143.64C56.9516 142.863 55.2944 142.427 54.2332 141.401C53.6415 140.829 52.9766 140.702 52.2173 140.391C51.5597 140.121 51.1459 139.374 50.5126 139.064C48.0697 137.868 45.9294 135.63 43.4739 134.733C42.3243 134.313 41.163 133.657 40.3427 132.709C39.6009 131.852 38.2658 130.367 40.5604 131.205C42.3552 131.862 44.4824 131.881 46.3866 131.849C47.1259 131.837 48.524 131.636 49.1022 131.161C49.7994 130.588 50.7216 130.931 51.488 130.626C53.1145 129.978 55.0378 130.217 56.7844 130.099C58.4787 129.984 60.5526 129.649 62.2714 130.013C66.2882 130.863 70.5091 130.355 74.55 130.338C78.7499 130.321 81.9135 131.024 85.8709 132.638C87.7042 133.386 89.499 134.316 91.4148 135.016C93.1282 135.642 95.0171 136.235 96.2535 137.664C97.1209 138.666 98.9273 139.521 100.161 139.972C101.407 140.427 103.325 140.428 104.222 141.378C105.184 142.396 105.705 143.575 106.016 141.232C106.172 140.054 106.177 137.107 105.237 136.198C103.743 134.753 103.022 132.511 101.25 131.223C99.2578 129.775 98.0424 127.637 95.7655 126.385C93.1809 124.963 91.0213 123.849 88.1032 123.33C85.2451 122.823 82.193 122.631 79.2961 122.496C76.5177 122.367 73.8962 121.414 71.1553 121.123C69.4681 120.945 67.7561 121.183 66.0516 121.017C64.4363 120.86 63.2418 120.894 61.6613 121.152C58.2887 121.702 54.9425 121.568 51.5319 121.847C49.9136 121.98 48.2264 121.579 46.7205 122.278C45.5435 122.824 44.5904 123.633 43.3345 124.05C41.5365 124.647 40.3916 127.119 39.3004 128.556C38.1546 130.065 38.0336 130.372 39.4264 131.846M105.212 142.521C100.848 141.807 95.4737 141.619 91.1596 142.662C87.017 143.664 82.5991 144.138 78.6583 145.832C76.3064 146.844 73.3544 147.308 71.5195 149.204C70.7391 150.01 70.1537 150.799 69.7511 151.899C69.3699 152.941 67.9977 154.145 67.8014 152.418M104.264 135.491C105.902 135.751 107.51 135.975 109.113 136.188C109.857 136.287 110.236 135.914 111.041 136.209C111.551 136.395 112.196 136.77 112.738 136.809C113.218 136.844 113.822 136.39 114.331 136.355C115.004 136.31 115.581 136.503 116.24 136.428C117.526 136.282 118.649 135.113 119.993 134.829C120.498 134.722 121.148 134.047 121.536 133.712C122.162 133.171 122.98 133.242 123.685 132.914C125.192 132.215 126.032 130.794 127.531 130.099C130.136 128.89 131.509 126.729 131.713 123.907C131.939 120.788 129.011 118.593 126.187 117.471C124.088 116.637 122.097 115.263 119.743 115.311C117.393 115.359 115.32 115.839 113.025 116.354C108.633 117.339 104.5 118.956 100.709 121.371C98.6443 122.686 96.7228 124.896 94.3131 125.17M122.517 115.425C124.861 113.917 126.782 111.783 129.166 110.292C129.922 109.819 130.558 109.374 131.214 108.754C132.001 108.012 133.095 107.902 133.872 107.263C135.206 106.166 138.098 105.879 139.754 105.348C141.528 104.779 143.648 103.676 145.536 103.708C147.886 103.749 150.39 103.614 152.754 103.434C154.232 103.322 157.523 104.086 158.66 105.143C160.453 106.81 162.956 107.882 164.639 109.537C165.323 110.209 166.313 110.472 167.002 111.202C167.743 111.986 168.293 112.901 168.918 113.661C170.084 115.077 170.701 117.447 170.041 119.251C169.196 121.561 165.675 122.838 163.654 123.776C160.769 125.115 158.041 126.791 155.505 128.732C154.47 129.525 153.29 130.364 152.284 131.229C151.44 131.956 149.281 133.637 148.152 133.863C145.588 134.377 142.839 136.089 140.173 135.95C137.545 135.813 134.972 136.307 132.389 136.545C130.301 136.737 128.778 136.71 126.787 135.983C126.125 135.741 124.993 135.555 124.483 135.063C123.729 134.333 123.189 134.668 122.285 134.337M123.724 135.215C123.703 137.949 122.004 137.911 120.02 139.138C119.297 139.585 118.365 140.434 117.526 140.611C115.706 140.995 113.912 142.746 112.077 142.998C110.394 143.228 108.075 144.623 106.424 144.019C105.596 143.717 104.606 144.058 103.868 143.789L101.229 142.824M55.2343 120.386C57.5888 117.717 57.5323 115.177 57.0132 111.89C56.6079 109.323 53.1707 108.65 51.0574 108.286C49.6513 108.044 48.491 108.739 47.1261 108.823C45.8955 108.899 44.7296 109.406 43.6614 109.902C41.996 110.675 38.966 112.21 37.0254 111.953C35.189 111.709 33.0454 112.628 31.3705 112.016C29.6963 111.404 27.2666 109.035 26.441 107.478C24.4531 103.73 29.3908 99.0673 32.6121 97.773C34.216 97.1284 37.0898 97.067 38.6407 97.4356C39.4667 97.632 40.4396 97.0843 41.1546 97.2989C42.1509 97.5981 43.1266 98.0197 44.1041 98.3768C45.7428 98.9759 47.0485 101.212 48.728 101.826C50.7614 102.569 51.8961 104.615 53.715 105.779C55.3356 106.815 57.1461 108.068 58.9691 108.735C60.9613 109.463 62.2188 111.089 63.9481 111.961C65.5548 112.773 66.8781 114.591 67.9829 115.899C68.5976 116.626 68.7873 117.345 69.2609 118.125C69.527 118.563 70.1842 120.315 69.386 119.226M44.2592 98.4337C41.6998 96.1781 39.1082 94.3872 36.7267 92.0847C36.3445 91.715 35.4276 91.4106 34.5768 91.213M34.5768 91.213C34.522 91.2003 34.4676 91.188 34.4135 91.1762M34.5768 91.213C35.8154 91.4681 37.1403 91.2074 38.5363 90.987C39.7535 90.7952 40.4505 90.1902 41.7745 90.3138C43.0681 90.4348 44.2922 90.0444 45.5783 89.9646C48.0374 89.8125 49.9851 88.9743 52.4216 88.5766C54.2655 88.2758 56.1527 87.1663 57.9582 87.18C59.2637 87.1897 60.9379 87.0038 62.2016 86.6982C67.6142 85.3891 72.9324 82.8884 78.6492 84.2859C80.396 84.7129 82.246 85.1169 84.0577 85.1094C85.3165 85.1042 86.494 84.7677 87.7638 85.1349C89.5558 85.6533 91.4603 85.2761 93.2938 85.573C94.6268 85.7888 95.9057 86.1814 97.213 86.4581C99.4266 86.9267 101.673 86.7005 103.87 87.5035C106.647 88.5184 109.708 88.6905 112.524 89.6109C114.333 90.2022 117.852 91.0866 119.528 89.7082C121.015 88.485 120.746 87.7515 120.999 85.8483C121.095 85.124 120.342 83.2637 120.024 82.5801C119.653 81.7809 118.732 81.165 118.456 80.3458C118.237 79.6958 116.662 78.4472 116.078 77.972C115.174 77.2349 114.266 76.5026 113.365 75.7684C108.59 71.8788 102.651 70.7768 96.9398 69.1403C94.4676 68.4316 91.8647 68.82 89.3402 68.7472C86.8798 68.6763 84.3056 68.5608 81.8639 68.7117C80.4988 68.7963 79.0616 68.4805 77.7074 68.7954C76.4649 69.0841 75.3498 69.5627 74.025 69.5602C72.1167 69.5568 69.6292 70.9642 67.7943 70.4492C65.3769 69.7708 62.8712 70.9257 60.5441 71.2393C58.1586 71.5605 55.6693 72.2949 53.3736 73.094C49.6634 74.3857 45.2387 74.9638 41.8971 76.9909C39.289 78.5729 35.8209 79.4612 33.6264 81.5317C32.4744 82.6185 31.1771 84.1645 30.6128 85.7069C29.9271 87.5808 31.2222 88.0055 31.7076 89.449C31.8264 89.8027 33.0011 90.5805 33.5413 91.0177M34.5768 91.213C34.5222 91.2017 34.4676 91.1894 34.4135 91.1762M34.4135 91.1762C34.0971 91.1069 33.7957 91.0534 33.5413 91.0177M34.4135 91.1762C33.8498 91.038 33.3045 90.7865 32.779 90.3684M33.5413 91.0177C32.8978 90.9273 32.5545 90.9509 33.0304 91.1246C33.9926 91.4763 33.9385 91.3392 33.5413 91.0177ZM119.824 89.1132C116.2 93.2211 110.679 94.8487 106.181 98.0226C102.772 100.428 100.944 104.417 97.8317 107.108C94.6839 109.829 92.1489 113.116 90.0306 116.726C89.5765 117.499 87.4428 119.585 86.5699 119.878C85.2274 120.329 85.241 122.585 85.3629 123.658M47.4657 121.417C46.7694 118.98 45.3522 116.865 43.6789 114.932C43.0813 114.241 40.2933 111.981 40.2256 111.383M42.2319 110.709C44.2123 112.322 45.8336 113.911 47.3627 115.926C48.1948 117.023 49.5447 118.233 49.5023 119.699M46.1614 108.627C47.5688 110.566 48.8863 112.631 49.2771 115.023C49.4614 116.151 49.581 117.095 50.0701 118.147M48.4782 108.067C50.3179 110.549 52.2833 114.983 51.1149 118.177M52.7414 108.921C54.4179 111.919 54.5376 115.849 53.9091 119.198M96.549 138.3C93.2853 138.915 90.2715 139.846 87.1068 140.824L87.0991 140.826C83.7897 141.849 80.8434 141.416 77.787 143.403M81.7604 132.543C80.6198 134.871 79.6282 136.898 78.0211 138.916L77.9879 138.957C76.914 140.306 75.8801 141.604 75.0072 143.091C73.7006 145.318 72.1148 147.363 71.2234 149.799M72.8937 131.765C71.5279 135.498 69.3987 140.114 69.0619 144.162C68.919 145.881 69.1133 147.87 68.5127 149.512M66.4272 131.161C66.3678 135.344 65.6574 140.062 66.5732 144.23C66.9083 145.755 67.7454 147.621 67.5812 149.172M61.3094 134.567C62.8203 137.87 63.9823 141.293 65.4586 144.604C65.8963 145.586 66.4006 146.595 66.3694 147.674C64.6688 145.873 62.985 144.318 60.8565 143.02C56.3401 140.265 52.0642 137.204 47.7255 134.176M57.0462 133.712C60.6677 138.027 64.1247 142.289 66.4829 147.363M51.5412 132.404C55.2394 135.923 58.6049 139.742 62.2664 143.281C63.2261 144.209 64.1665 145.151 64.7336 146.372M101.667 87.7538L101.654 87.7879C100.208 91.741 98.7844 95.6317 97.6741 99.6821C97.1418 101.624 96.9366 103.569 96.2407 105.471M95.564 89.0411C94.9377 92.8427 94.5169 96.7139 93.1871 100.348C92.5724 102.029 91.8973 103.701 91.4082 105.424C90.7933 107.592 90.4598 109.858 90.2981 112.094M90.226 89.2009C88.5583 95.8484 85.8625 102.454 85.1723 109.321C84.9803 111.231 84.9831 115.076 84.9831 115.076M82.2071 88.0296C82.1296 95.9082 81.4194 103.761 82.2247 111.606C82.3684 113.008 81.7579 117.157 82.2422 115.834M72.9465 86.404C73.8184 93.9104 74.5962 101.277 76.7825 108.522C77.4615 110.772 78.3821 112.965 78.9355 115.25C79.1353 116.075 78.7927 115.158 78.7135 114.896M67.4882 90.741C68.977 96.7128 71.5678 102.19 73.9438 107.836C74.6308 109.469 75.4212 111.053 76.1223 112.678C76.2684 113.017 76.9683 114.258 76.5404 114.101M61.2789 88.4718C62.3885 90.9127 74.6408 117.559 75.4051 117.204M54.7221 91.0007C59.2034 97.341 63.6081 103.764 68.2757 109.967C69.909 112.138 71.6954 114.166 73.2318 116.41M49.8313 93.7863C52.8156 98.1463 57.9391 101.44 61.7889 105.036C64.8339 107.88 68.3862 110.419 70.5814 114.034M87.0863 60.2627C87.3129 59.8707 87.4239 59.5004 87.4364 59.1509M87.4364 59.1509C87.5638 55.5935 77.4654 54.2225 74.7418 54.7738C73.1576 55.0946 71.2429 56.1209 69.7236 56.7314C68.8988 57.0629 68.1342 56.9246 67.3194 57.1033C66.5041 57.2823 65.7944 57.7906 64.9174 57.789C61.6597 57.7834 58.589 57.7365 55.3429 57.9837L55.2812 57.9884C53.8968 58.0937 52.5915 58.1931 51.2576 58.6209C50.0299 59.0147 48.5852 58.6007 47.3797 59.1189C45.3484 59.9924 43.7988 61.3688 42.2173 62.8607C41.632 63.4129 40.4376 64.376 39.6878 64.7507C38.3111 65.4382 37.9749 66.1467 36.9016 67.0743C35.6714 68.1381 34.9262 71.7572 35.4835 73.1422C36.075 74.6126 35.7463 76.639 37.3871 77.2388C37.7922 77.3868 37.5424 76.3864 37.6908 75.9815C37.8436 75.5631 37.9499 74.9695 38.2124 74.6087C38.9806 73.5533 40.1152 72.2801 41.3698 71.6976C43.9876 70.4822 47.0408 71.5592 49.5624 70.4701C51.811 69.4991 54.5205 69.0228 56.7837 68.2625C57.8731 67.8967 59.9843 67.9669 61.1804 68.1106C62.7382 68.2975 63.7179 67.8303 65.1711 67.7318C66.2661 67.6577 67.4857 66.7862 68.5061 66.3124C69.6538 65.7797 70.9188 65.5833 72.1123 65.1677C74.5081 64.3337 76.4158 66.5914 78.8871 65.3571C79.8596 64.8714 80.89 64.7653 81.8794 64.3399C82.5054 64.0707 83.2506 64.183 83.8291 63.8213C84.3707 63.4823 84.5816 62.8948 85.0347 62.5031C86.0019 61.6668 86.8402 60.4123 87.4364 59.1509ZM87.4364 59.1509C87.6048 58.7949 87.7537 58.4384 87.8811 58.0905M81.6278 64.6C81.3821 65.3234 81.2272 67.9169 80.3791 68.0133M77.9556 65.0167C77.7447 66.2022 77.7433 67.5208 77.3277 68.6569M72.701 65.9105C72.6003 66.5821 72.7222 69.1796 72.1867 69.2403M67.9538 67.3415C67.969 68.0522 67.9443 68.7286 67.8935 69.4302M65.4097 68.5228C65.4249 69.2335 65.4001 69.9099 65.3494 70.6115M60.6925 68.9095C60.705 69.4861 61.0253 70.8048 60.3219 70.8848M57.2473 68.7056L57.7246 70.2873M54.8169 69.5764C55.1258 70.2689 55.3199 70.8741 55.4912 71.5817M51.6522 70.5304C52.2642 71.3909 52.7548 72.5586 53.4548 73.2998M45.8299 72.9756L47.1552 74.1633M42.4981 72.4618C43.2578 73.0963 44.6061 73.9905 44.7246 75.0345M41.62 73.8998C42.2094 74.5448 42.6173 75.1127 43.0288 75.8219M40.0076 75.421L40.9089 76.8059M36.0086 69.0348C34.2313 67.4685 33.7147 68.2718 31.5873 68.8261C29.8507 69.2785 28.1037 69.4534 26.3314 69.5632C25.0204 69.6444 23.6221 69.0771 22.3947 69.6878C21.3146 70.225 20.5503 71.0592 19.4115 71.5878C17.8321 72.321 16.1465 74.259 15.5771 75.8151L15.5573 75.8694C14.9966 77.4011 13.9302 80.314 15.9491 81.0518C16.7129 81.331 17.3847 80.6819 18.1588 80.7844C19.3528 80.9429 20.21 80.4609 21.3337 80.2838C23.1603 79.9955 24.8562 79.2891 26.702 79.0794C28.5234 78.8728 30.7604 78.2046 32.4756 77.5155C33.2356 77.2099 33.9478 76.7395 34.7945 76.6822C35.673 76.6226 36.5786 77.0967 36.9562 76.0649M21.5559 80.6382C22.985 81.1605 26.2472 81.7641 27.4297 82.8629C28.345 83.7137 31.7035 85.402 30.5293 84.973M33.6778 77.329C34.6653 78.1048 35.3232 78.6436 36.0179 79.5915M31.588 77.269C32.3632 78.2967 33.2069 79.2707 34.0115 80.2653M29.7786 78.3665C30.5393 79.3002 31.3816 80.1519 31.8917 81.2493M27.121 79.8581C28.3689 80.5755 29.5714 81.4571 30.9299 81.9537M35.9947 76.7688C37.085 77.462 37.6928 78.3867 38.6453 79.1447M70.9956 56.1407C69.0864 52.0326 66.803 47.6837 63.702 44.3288C61.1504 41.5682 58.9193 38.711 55.3265 37.3981C51.3904 35.9596 47.3001 36.1903 43.2164 35.8648C39.2617 35.5494 35.115 35.7563 31.1849 36.0407C27.4112 36.3138 23.616 36.7083 19.8635 37.3753C16.4097 37.9896 12.2996 38.9384 9.33854 40.9164C5.35653 43.5763 2.63019 47.9136 1.35722 52.149C0.69958 54.3371 0.755772 55.8799 3.21299 56.697C4.49825 57.1242 6.03441 56.9503 7.36743 56.8864C9.03144 56.8064 10.9188 57.3573 12.5289 57.2093C15.9429 56.8951 19.4848 55.7001 22.7666 54.775C24.9674 54.1545 27.234 53.4683 29.4756 53.0054C31.4699 52.5937 33.8794 52.8947 35.7752 52.1417C38.0156 51.2516 40.499 51.7041 42.8152 51.3921C44.7794 51.1277 46.5968 50.3129 48.6352 50.2358C52.4791 50.0907 56.6565 49.1413 60.3865 50.5045C63.2127 51.5374 68.2902 53.2821 68.6788 56.7011M2.90271 56.5834C4.75734 57.313 6.20411 58.4936 8.10879 59.1896C9.56374 59.7213 11.1907 60.0281 12.7389 60.0024C16.2275 59.9444 20.0348 60.1383 23.4356 60.5892C28.4813 61.2583 34.2765 61.6471 38.5293 65.0306M13.1247 57.5051C18.3956 58.4413 23.4806 59.5192 28.8516 59.735C33.4171 59.9182 36.8086 61.9392 40.8764 63.4259M22.7859 56.1111C26.277 56.0361 30.4005 57.1352 33.6678 58.3292C35.6839 59.0661 39.1655 59.6777 40.6259 61.224M29.146 53.1585C31.4749 55.2108 34.7274 55.902 37.6118 56.956C38.8884 57.4225 44.9489 58.6748 45.1464 60.4132M38.4364 53.7398C40.1061 54.0054 41.8663 54.0452 43.3643 54.9152C45.6402 56.2373 48.8208 56.9853 50.6279 58.899M42.2826 50.9238C44.9394 51.2052 46.302 52.4855 48.5049 53.745C50.0892 54.6511 51.8126 55.3452 53.3156 56.3631M49.5135 50.4006C51.9971 51.7122 54.2091 53.3517 56.4386 55.0423C56.9452 55.4266 59.6483 57.2804 58.9338 57.3614M55.98 51.0049C58.6176 51.589 61.2298 54.3764 61.8717 57.0278M60.47 51.2387C62.9752 52.3184 65.1174 54.1663 65.4306 56.9212M46.2628 36.1965C42.2267 31.3149 35.2413 28.8763 29.1535 27.9109C24.5236 27.1768 19.1617 26.2541 14.7022 28.1799C12.2389 29.2437 9.33307 31.3538 9.53849 34.3838C9.62152 35.6083 9.37243 37.1302 10.6101 37.9219C11.6449 38.5837 12.8442 38.4062 13.9773 38.8202M100.202 22.4897C100.564 20.2181 101.935 19.4251 104.038 18.7909C105.531 18.3412 106.771 17.4078 108.117 16.7831C109.463 16.1582 110.402 15.7077 111.582 14.6879C112.702 13.7192 113.951 13.7704 114.511 12.2406C115.518 9.48902 110.501 6.90526 108.464 6.16087C104.268 4.62737 100.632 2.99385 96.0863 2.419C93.7292 2.12092 91.4303 1.96841 89.0549 1.86226C87.1318 1.77632 85.2262 1.42416 83.3006 1.34231C81.7354 1.27576 79.9806 1.37204 78.4371 1.16738C72.8937 0.432383 67.2441 2.37745 61.7382 2.02196C59.1922 1.85759 56.8135 2.54371 54.3044 2.72532C51.7935 2.90705 49.261 3.5107 46.86 4.20649C41.6111 5.72741 36.3127 7.16618 30.9927 8.45295C26.7188 9.4867 24.7718 12.7278 21.6585 15.4194C21.0678 15.9302 20.0964 18.4261 20.1533 19.2666C20.273 21.0295 20.2172 21.7268 22.1392 21.3213C23.1349 21.1112 24.4338 20.0556 25.4074 19.6037C27.1153 18.8108 28.8596 18.2006 30.6685 17.6764C33.4913 16.8585 36.6005 17.1053 39.4637 16.298C45.552 14.5817 51.7467 13.7641 57.9816 12.6099C61.6565 11.9296 65.4631 12.4546 69.1824 12.0324C70.7591 11.8535 72.3223 12.1561 73.9067 12.0001C75.2506 11.8678 76.5768 11.507 77.9167 11.3549C79.297 11.1983 80.6953 11.5861 82.0497 11.2823C84.024 10.8394 86.4059 10.9378 88.4075 11.2216C91.3204 11.6346 94.162 11.145 97.0426 11.5632C100.968 12.1331 104.751 10.979 108.642 11.8741C109.568 12.087 111.527 12.7971 112.352 12.1551C112.867 11.7546 115.517 11.2012 114.034 10.659M23.386 20.7997C25.8075 22.9337 30.0543 23.5886 33.1382 24.7156C36.852 26.0729 40.7776 26.7289 44.2176 28.7453C46.5033 30.0851 48.4346 31.9365 50.6991 33.2638C52.6338 34.3979 54.2949 35.6601 55.7505 37.2012M99.1108 16.814C99.5826 16.4958 100.062 16.1647 100.548 15.8387M100.548 15.8387C101.314 15.3242 102.095 14.8222 102.887 14.4026C103.339 14.163 103.444 13.5367 102.795 13.9587C101.974 14.4926 101.231 15.1343 100.548 15.8387ZM100.548 15.8387C99.632 16.7821 98.8228 17.8379 98.0747 18.8978C97.1227 20.246 96.1293 22.0768 95.5619 23.6277C95.3117 24.3116 94.9275 26.6127 94.1527 25.5555M93.7794 13.1068C92.3156 15.9657 91.1571 18.9712 89.625 21.7902C88.8934 23.1362 88.8957 24.5315 88.3905 25.9124M86.6621 13.3198C85.5597 17.9889 85.4767 23.2942 83.8402 27.7672M79.3477 13.1093C79.9547 17.4508 79.1778 21.0901 78.8332 25.312C78.7438 26.4076 78.6535 27.5133 78.2752 28.5477M75.4786 13.1023C72.2199 15.6385 72.5302 22.6201 72.492 26.61C72.4797 27.8879 72.596 29.1664 72.6546 30.4414C72.7274 32.027 72.9481 32.4185 72.2559 30.5692M68.0205 14.2463C68.1192 17.1398 68.7186 19.9725 68.7361 22.8726C68.7475 24.7336 68.3608 26.5943 68.2964 28.4577C68.2154 30.7952 70.0825 37.6309 69.8184 35.3071M32.57 17.8241C38.0536 21.3563 44.5167 24.4701 49.0649 29.2857C49.9029 30.1729 51.1063 31.6562 51.3809 32.79M129.587 109.567C131.125 105.363 131.718 100.856 133.273 96.6078C134.582 93.0292 135.715 89.3528 137.947 86.238C139.614 83.9115 140.776 80.9215 142.847 78.8826C144.546 77.2103 146.406 75.6723 147.93 73.8609C150.873 70.3646 154.889 67.4542 158.322 64.4861C160.061 62.9819 162.152 61.477 164.258 60.4994C164.948 60.1792 165.883 59.707 166.621 59.7602C167.174 59.8002 168.948 58.6146 167.945 59.5604M88.034 67.2928C95.216 66.8606 102.451 66.9286 109.672 66.836C115.914 66.756 122.317 65.7106 128.488 64.6836C131.558 64.1728 134.504 63.2809 137.631 63.53C139.776 63.7012 141.581 62.8746 143.62 62.5529C145.169 62.3084 146.114 60.6976 147.55 60.4712C149.233 60.2056 150.747 59.3642 152.525 59.3776L152.549 59.3778C154.262 59.3905 155.757 59.4019 157.421 59.0365C159.391 58.6043 161.892 59.486 163.888 59.6409C166.406 59.8366 168.745 58.3909 171.284 59.0411C172.373 59.3201 173.418 59.828 174.481 60.1899C175.839 60.6524 177.311 60.6003 178.675 61.0191C181.887 62.0052 185.679 61.1914 188.927 60.8963C191.283 60.6824 193.891 60.5332 196.203 60.0374C197.392 59.7825 201.2 59.835 201.753 58.5482C202.679 56.3956 200.763 53.0902 199.885 51.2011C198.454 48.1207 196.965 45.8871 194.355 43.7079C191.243 41.1083 187.585 39.7676 183.69 38.5985C179.61 37.3735 174.949 37.1946 170.7 37.1732C166.973 37.1546 163.167 36.8967 159.52 37.8557C156.353 38.6885 153.477 40.4481 150.327 41.3363C147.388 42.1648 144.135 43.2807 141.385 44.5571C138.359 45.9622 135.127 46.9905 131.845 47.598C128.536 48.2107 125.406 49.5433 122.053 50.0973C115.863 51.1207 109.654 52.4962 103.395 53.2067C98.3811 53.7757 92.6994 56.8742 89.0606 60.1047C86.7531 62.1529 85.5893 64.3544 84.5322 67.2441C83.9671 68.7884 84.3254 69.0432 85.713 68.3989C87.1803 67.7177 89.3607 68.039 90.8281 68.3141M144.496 64.0066C142.612 70.4422 138.971 76.2907 136.113 82.3236C133.909 86.9767 130.624 90.8743 127.978 95.2591L127.881 95.4205C125.878 98.7411 124.019 101.822 121.635 104.902C119.515 107.64 118.23 110.24 114.588 111.121M133.366 65.5674C134.321 70.777 131.696 74.9438 129.967 79.6672C129.115 81.9971 128.586 84.4046 127.736 86.7277C126.849 89.1532 125.383 91.0985 124.113 93.3186C121.76 97.429 119.566 101.553 117.873 105.989C116.698 109.071 114.145 112.244 110.772 112.892M123.932 66.3409C126.581 70.6872 126.628 74.3652 124.913 79.0513C124.043 81.4299 123.497 83.8831 122.625 86.2671C121.029 90.6303 119.131 94.5047 117.045 98.6315C115.019 102.643 111.898 105.468 109.205 108.997C107.504 111.227 107.364 115.763 104.693 117.003M109.044 100.3C106.433 106.808 101.019 111.651 98.5901 118.29M119.214 66.7276C120.591 70.2796 120.024 73.7377 118.548 77.1549C118.23 77.8897 117.837 78.8885 116.99 78.579M111.476 66.7139C112.295 68.9571 113.504 71.9186 113.242 74.3947M107.774 68.1749C108.182 69.0898 108.638 69.9115 108.531 70.9144M185.69 38.958C186.728 37.2412 188.107 35.8323 189.841 34.8271C191.082 34.1082 190.562 32.6679 189.745 31.7235C186.617 28.1096 182.511 25.8354 178.063 24.2098C175.839 23.3967 173.373 23.1201 171.047 22.7011C168.624 22.2644 165.248 20.965 162.805 21.4475C160.54 21.8949 153.86 21.0958 152.758 24.1081M118.962 50.1014C120.328 46.6326 122.274 43.6224 126.007 42.3374C128.961 41.3202 131.945 40.7907 135.006 40.1345C138.289 39.4304 141.807 39.4782 145.162 39.0971C146.806 38.9107 148.522 38.7397 150.152 38.7124C151.532 38.6897 152.561 37.687 153.861 37.449C154.828 37.2719 155.14 35.8754 155.415 35.1245C155.705 34.3312 155.339 33.9261 154.771 33.6462M154.771 33.6462C154.389 33.4575 153.916 33.3259 153.49 33.1704C151.502 32.4435 149.751 32.5269 147.687 32.7302C144.737 33.0205 141.707 32.6315 138.75 32.7863C136.444 32.9071 133.925 33.051 131.689 33.6455C129.875 34.1282 127.981 35.0993 126.134 35.3089C121.799 35.8011 117.363 37.2189 113.059 38.0158C110.815 38.4312 108.502 39.3765 106.39 40.2102C104.615 40.9105 102.488 41.0405 100.631 41.4671C95.468 42.6525 90.3775 43.3885 85.3095 44.9163C80.2972 46.4273 75.8712 49.2222 70.4634 49.4187C68.5528 49.488 66.1087 48.8034 66.0673 46.5221C66.0232 44.0885 69.1048 40.8746 70.6151 39.116C76.9792 31.7055 87.9623 28.8856 96.69 25.4082C106.253 21.5977 117.214 20.3862 127.46 20.1392C131.93 20.0314 136.743 20.7863 141.056 21.9418C144.313 22.8145 147.982 23.8278 150.658 25.9986C152.703 27.6567 156.309 31.3897 154.771 33.6462ZM154.771 33.6462C154.399 34.1926 153.725 34.6525 152.654 34.9753M153.418 33.8477C152.522 38.7283 145.262 36.2597 142.395 38.9652M139.554 32.2984C139.322 35.1027 136.816 36.2094 134.831 37.9403C133.711 38.9164 132.654 40.0763 131.461 40.9498M128.31 34.1696C125.971 37.6454 122.855 41.3843 121.399 45.3635M119.664 36.6382C118.855 39.7776 117.457 42.7821 116.787 45.9449C116.504 47.2815 116.712 48.3269 116.675 49.6174M112.6 38.6297C112.067 40.5595 108.938 48.5361 111.421 50.5113M105.225 40.5079C105.275 43.2943 105.268 46.0938 105.449 48.876C105.49 49.5064 105.548 49.7874 105.885 50.2474M98.8954 42.4158C99.0144 45.6595 99.2246 49.1354 99.1318 52.3522M88.5529 45.6716C89.3504 48.9046 90.2094 52.1235 90.9926 55.3579M83.6086 46.679C85.6928 49.3723 87.5108 52.0674 89.0538 55.099C89.3818 55.7435 89.711 56.2853 89.6905 56.9928M71.2597 50.6089C77.7026 51.6865 82.8932 53.4549 87.5706 57.9771M142.566 22.1421C145.51 20.3682 148.189 18.4562 150.967 16.496C152.746 15.2411 155.584 16.2758 156.527 13.7005C157.416 11.2693 151.993 9.57471 150.55 9.40551C146.619 8.94443 142.031 9.46512 138.166 10.3321C131.385 11.8531 124.891 13.8615 118.669 16.7503C117.068 17.4936 114.911 17.5763 113.545 18.728C112.664 19.4714 111.858 22.3563 110.765 22.4804M155.626 15.3062C152.148 16.8566 148.622 15.9112 144.96 16.5088C142.776 16.8651 140.365 17.3615 138.137 17.3575C136.149 17.354 127.894 17.9908 127.15 20.0257M145.003 17.4043C144.048 18.8351 143.071 21.0557 141.832 22.2255M141.612 18.979L141.044 20.5305M137.545 18.5482L137.288 20.2132M68.4868 85.1258C68.2397 84.5735 67.2254 79.952 66.7061 82.4034C66.5487 83.1457 66.8726 86.2012 65.9427 86.3067M177.516 61.2994C176.681 59.5019 175.713 58.2074 174.287 56.8164C173.733 56.2755 173.161 55.8108 173.669 56.9033C174.252 58.1585 175.81 59.3721 175.964 60.7322M139.923 63.0385C138.852 61.3283 137.84 59.5326 136.939 57.7265C136.799 57.4471 136.007 55.7974 136.21 56.9912C136.533 58.8849 137.929 60.7924 137.212 62.7516M154.528 60.6374C153.297 62.6963 152.073 64.678 150.536 66.5266C148.864 68.536 147.863 70.9946 146.429 73.1557C143.348 77.799 140.695 82.7392 137.532 87.3177C134.888 91.1457 132.224 95.2177 129.868 99.2331C128.754 101.132 128.069 103.135 127.314 105.199C127 106.057 126.492 106.914 126.71 107.812M60.8196 13.7253C64.1492 18.3133 65.6351 26.4474 65.8453 32.057C65.9333 34.4097 66.4297 37.8353 65.6019 40.0982M52.6805 16.7311C56.9723 21.0913 59.8697 25.949 61.5892 31.7717C61.8085 32.5147 62.7912 36.8483 61.823 36.9581M43.0492 17.0807C48.243 20.6995 51.5528 24.6158 54.9163 29.8605C56.4473 32.2477 58.2634 35.0022 59.0821 37.7152M78.5118 85.6237C78.6767 92.2984 78.2299 99.0128 78.5495 105.67C78.6981 108.764 78.9244 112.147 78.6 115.206M94.1179 44.8913C95.5656 47.8294 96.0569 51.6963 95.7098 54.9712M88.4237 133.571C83.9317 137.352 79.4069 140.53 75.7504 145.122M75.5441 134.141C72.649 139.923 69.9445 145.598 67.7179 151.684" stroke="#F87239" stroke-linecap="round"/>
</svg>
