<svg width="327" height="356" viewBox="0 0 327 356" fill="none" xmlns="http://www.w3.org/2000/svg">
<path d="M1 35.8193C3.4321 24.9234 21.2487 20.4863 31.3084 19.0586C40.9856 17.6852 49.9834 16.0744 59.7714 16.6996C63.2878 16.9242 66.807 17.058 70.318 17.3166C75.6134 17.7067 80.6841 16.0734 85.956 15.5979C96.5156 14.6454 106.925 10.7534 117.473 9.01138C140.996 5.12614 164.409 1.68787 188.384 1.5599C200.215 1.49675 212.457 0.258383 224.394 1.68033C237.09 3.19252 251.481 3.84364 263.435 8.59034C269.781 11.1105 276.977 11.3172 283.499 13.4987C289.562 15.5267 296.398 16.3458 302.16 18.8207C309.608 22.02 315.004 24.7393 318.977 31.939C320.435 34.5782 323.27 37.3253 325.327 39.5445C327.99 42.4183 322.026 39.0695 320.014 39.0919C317.021 39.1252 314.342 35.7434 311.349 35.7767C307.782 35.8164 304.438 34.6618 300.723 34.8714C293.198 35.2963 286.462 37.2473 279.805 40.7762C276.099 42.741 282.772 41.4681 284.564 41.4481C288.539 41.4039 293.212 41.5603 297.054 42.29C303.59 43.5314 309.27 45.657 315.548 48.3531C317.45 49.1702 322.882 52.9639 318.442 52.3912C317.062 52.2131 313.304 54.106 311.961 54.6382C309.073 55.7816 307.29 58.7801 304.507 60.0756C301.718 61.3736 298.303 63.5358 295.922 65.535C294.245 66.9419 292.686 66.6743 290.763 67.4356C288.25 68.4311 286.378 70.3713 284.001 71.3917C279.689 73.2431 275.829 77.4873 271.952 80.1402C267.963 82.8698 264.491 85.9955 260.439 88.7125C255.806 91.8183 249.762 92.2793 244.97 94.8736C236.082 99.6854 224.163 102.591 214.32 104.171C204.381 105.765 194.201 108.459 183.979 107.806C171.911 107.035 158.851 108.332 146.736 105.937C134.79 103.574 122.002 103.342 110.686 98.482C105.204 96.1274 99.2463 95.3975 93.6738 93.004C87.4841 90.345 80.563 89.2637 74.1154 87.398C69.086 85.9426 64.2644 84.9454 59.4011 82.8566C55.5003 81.181 52.1323 78.8197 48.1215 77.097L37.4542 72.5152C32.5812 70.4221 38.6164 68.2611 41.0574 67.2534C48.6342 64.1254 56.4582 61.0963 64.4221 58.9949C66.4095 58.4706 68.6984 58.1631 70.5881 57.4764C72.5189 56.7747 74.0496 57.1337 71.6428 56.1C63.143 52.4491 53.5869 54.4523 44.6306 55.9315C39.874 56.7171 34.0542 59.0214 29.619 60.9175C26.8579 62.098 24.2332 62.3235 26.1558 58.312C28.456 53.5129 34.9981 53.0411 39.1733 51.0974C40.355 50.5474 36.0044 49.9349 35.7256 49.8707C33.5354 49.3662 30.7566 50.3514 28.571 50.6089C25.299 50.9945 11.7601 53.8543 10.2441 50.0548C8.31911 45.2303 1.20512 39.6654 1.66757 34.2766M322.597 39.4896C322.448 43.7508 322.762 49.2973 321.202 53.3224C319.801 56.9341 317.662 59.896 316.015 63.1886C314.558 66.0994 310.752 69.5674 308.406 71.8119C305.478 74.6136 302.412 76.7875 299.079 78.9854C284.832 88.3803 271.328 98.8882 255.366 105.741C238.8 112.854 223.194 120.521 205.032 122.337C196.486 123.191 187.995 124.664 179.391 125.247C170.416 125.856 161.952 125.249 153.021 124.186C146.076 123.358 137.468 123.705 131.23 121.026C128.441 119.828 124.641 120.752 121.712 119.682C118.661 118.567 113.007 117.596 109.797 117.511C101.903 117.303 93.7688 114.998 86.5242 111.886C78.8789 108.602 67.8035 107.275 61.317 101.77C54.5157 95.9983 45.0999 93.7083 37.9005 88.4598C34.5138 85.9906 31.7866 84.7927 28.9851 81.4798C25.9945 77.9431 22.6262 74.7439 19.5598 71.435C16.9725 68.6432 14.6237 65.8567 12.2717 62.8165C10.4725 60.4909 10.0012 57.2812 8.2289 55.1852C4.96135 51.3212 0.744445 42.777 2.9898 37.5883M154.91 125.709C154.105 136.674 156.764 149.165 158.933 159.909C160.74 168.863 158.95 178.345 159.907 187.362C160.739 195.198 158.961 203.835 158.101 211.69C157.698 215.38 157.139 219.047 156.78 222.759C156.388 226.807 157.023 232.04 155.847 235.876C153.481 243.597 154.271 252.432 153.759 260.387C153.505 264.326 153.654 269.123 153.996 273.041C154.321 276.751 155.417 281.099 155.146 284.765C154.768 289.851 155.304 295.943 153.537 300.742C152.63 303.204 151.071 305.55 150.409 308.088C149.755 310.59 149.563 314.495 147.463 316.428C145.113 318.588 137.358 335.768 139.381 336.637C139.91 336.864 140.406 336.861 140.877 336.686M140.877 336.686C141.228 336.557 141.566 336.334 141.893 336.042M140.877 336.686C141.065 334.713 141.455 331.945 141.62 333.584C141.703 334.408 141.789 335.229 141.893 336.042M140.877 336.686C140.812 337.383 140.771 337.981 140.773 338.251C140.813 341.755 141.866 343.484 143.862 346.438C145.287 348.547 147.611 352.84 150.769 351.691L151.017 351.602C154.045 350.5 155.977 349.797 158.823 350.66M141.893 336.042C144.438 333.778 146.437 327.366 149.824 328.417C155.037 330.037 154.034 336.047 154.282 340.394C154.751 348.66 158.642 336.964 161.91 336.556C165.436 336.116 168.345 341.071 169.386 343.68C171.096 347.967 170.747 347.47 172.856 343.087C173.813 341.099 177.042 347.956 178.194 348.785C180.284 350.289 180.025 344.774 182.483 345.24C184.388 345.602 185.449 346.425 186.513 346.492M141.893 336.042C142.32 339.396 143.034 342.632 144.965 345.539C146.652 348.079 150.29 345.997 152.944 347.138C154.997 348.019 156.828 349.536 158.823 350.66M158.823 350.66C159.843 351.233 160.906 351.704 162.062 351.935M158.823 350.66C159.253 350.79 159.703 350.955 160.181 351.16C160.786 351.421 161.415 351.68 162.062 351.935M186.513 346.492C186.852 346.514 187.191 346.458 187.559 346.287M186.513 346.492C186.861 346.407 187.209 346.34 187.559 346.287M186.513 346.492C185.351 346.779 184.201 347.272 183.067 348.133C179.97 350.485 174.602 350.564 170.947 350.093C169.547 349.912 168.051 348.967 166.594 349.545C165.145 350.118 163.887 352.282 162.136 351.949C162.111 351.944 162.087 351.94 162.062 351.935M187.559 346.287C188.087 346.04 188.672 345.551 189.397 344.704C192.031 341.623 192.719 343.732 193.638 345.981M187.559 346.287C189.568 345.983 191.604 346.153 193.638 345.981M162.062 351.935C166.277 353.594 171.267 355.046 175.506 354.999C178.077 354.97 180.16 352.961 182.613 353.427C185.477 353.971 186.845 354.541 189.134 352.62C191.242 350.852 193.429 351.345 195.806 350.404C198.322 349.408 201.037 345.86 202.045 343.53C204.688 337.422 200.701 333.731 198.535 328.302C195.943 321.806 192.849 315.66 190.274 309.203C184.244 294.092 184.405 278.344 183.498 262.388C182.967 253.041 183.716 242.783 185.363 233.562C186.19 228.92 185.834 222.71 185.673 217.993C185.521 213.573 186.222 209.4 185.332 204.99C184.556 201.15 185.629 196.268 185.279 192.263C184.951 188.511 186.051 184.807 185.839 181.07C185.369 172.815 185.811 165.521 186.419 157.333C186.696 153.593 188.344 149.576 187.968 145.854C187.728 143.473 187.243 140.985 187.16 138.646C186.994 133.983 187.6 129.418 187.349 125.007M193.638 345.981C194.239 347.45 194.938 348.98 196.343 349.161C196.385 349.167 200.827 343.609 197.269 345.137C196.063 345.655 194.851 345.879 193.638 345.981ZM151.041 60.486C149.972 62.0771 148.51 63.2513 149.975 64.7901M151.18 62.9255C151.538 64.2884 152.09 65.4527 153.461 64.302C154.141 63.7311 154.566 62.8618 154.474 61.9597C154.28 60.0305 150.969 59.2201 151.134 62.112M165.648 58.0285C165.545 58.2126 165.453 58.3858 165.372 58.5484M165.372 58.5484C163.109 63.082 169.045 59.4873 166.824 58.5335C166.375 58.3411 165.861 58.3737 165.372 58.5484ZM165.372 58.5484C163.832 59.0989 162.544 61.0604 164.39 61.8538M178.66 59.2535C178.611 59.2826 178.56 59.3158 178.509 59.3526M178.509 59.3526C177.926 59.7666 177.225 60.6311 176.905 61.2472M178.509 59.3526C178.985 59.2733 179.049 59.5656 178.922 59.9598M178.509 59.3526C178.415 59.3681 178.306 59.3978 178.179 59.4438C177.519 59.6837 176.39 60.7186 176.905 61.2472M176.905 61.2472C176.565 61.9031 176.66 62.2778 177.796 61.5281M176.905 61.2472C177.016 61.3609 177.202 61.4512 177.486 61.5051C177.595 61.5258 177.698 61.5327 177.796 61.5281M178.922 59.9598C178.744 60.5097 178.195 61.2581 177.876 61.4741C177.849 61.4927 177.822 61.5107 177.796 61.5281M178.922 59.9598C179.298 59.9582 178.894 61.4761 177.796 61.5281M178.922 59.9598C178.867 59.9601 178.795 59.9927 178.707 60.067M167.111 69.3714C167.403 69.6575 167.785 69.9795 168.204 70.2359M168.204 70.2359C169.184 70.8371 170.356 71.0768 170.977 69.6429C171.283 68.9352 171.531 67.8156 170.228 68.1526C169.268 68.4008 168.365 69.511 168.204 70.2359ZM168.204 70.2359C168.086 70.7682 168.366 71.0928 169.318 70.7159M159.184 71.1253C158.755 70.9536 158.399 70.861 158.106 70.83M158.106 70.83C157.299 70.744 156.984 71.1299 156.979 71.615M158.106 70.83C159.329 70.1467 160.575 69.9761 159.534 72.1575C158.513 74.2943 156.966 72.7046 156.979 71.615M158.106 70.83C157.7 71.0575 157.296 71.3418 156.979 71.615M156.979 71.615C156.306 72.1963 156.029 72.7278 156.972 72.556M162.248 52.9965C163.215 52.99 164.712 53.0754 165.377 52.1578C165.757 51.6337 165.45 51.2587 164.866 51.3433C163.53 51.5372 162.015 51.872 161.096 52.8983M180.266 50.0213C180.096 50.0691 179.866 50.1167 179.623 50.1799M179.623 50.1799C179.058 50.327 178.423 50.5588 178.305 51.075C178.237 51.3742 178.503 51.7814 178.806 51.5546C179.055 51.3684 180.01 50.5743 179.623 50.1799ZM179.623 50.1799C179.613 50.1697 179.603 50.1598 179.59 50.1501C178.094 48.9313 175.736 50.2844 177.428 51.977M192.141 65.8374C192.691 62.925 190.208 62.9555 190.345 64.6692C190.417 65.5504 191.154 65.4067 191.641 65.1972M191.641 65.1972C192.089 65.0049 192.325 64.7569 191.641 65.1972ZM191.641 65.1972C191.632 65.2028 191.623 65.2085 191.615 65.2142M181.323 71.5084C182.403 71.9461 183.677 72.7201 184.491 71.5019C184.679 71.2192 184.795 70.3603 184.493 70.1143C183.882 69.6165 182.245 71.08 182.811 71.7508M148.135 49.7141C148.285 49.8051 148.487 49.9218 148.72 50.039M148.72 50.039C149.773 50.5707 151.427 51.112 151.407 49.3117C151.402 48.8112 149.031 49.91 148.807 50.0026C148.777 50.0148 148.748 50.027 148.72 50.039ZM148.72 50.039C146.23 51.0827 147.656 51.2102 149.524 51.1047M187.515 50.7554C188.408 50.7049 189.453 50.7684 190.436 50.6442M190.436 50.6442C191.25 50.5413 192.022 50.3096 192.63 49.7774C193.382 49.1181 192.463 49.0246 191.929 49.3001C191.568 49.486 190.868 50.0873 190.436 50.6442ZM190.436 50.6442C189.982 51.2304 189.827 51.7674 190.683 51.7191M168.944 43.9674C168.719 43.8307 168.511 43.7088 168.32 43.6007M168.32 43.6007C164.183 41.2596 167.894 45.3486 169.811 45.1336C170.554 45.0502 169.934 43.0138 168.32 43.6007ZM168.32 43.6007C168.154 43.6609 167.978 43.7488 167.792 43.8692M186.149 38.2624C185.994 38.343 185.446 38.6466 184.886 38.9281M184.886 38.9281C183.853 39.4466 182.78 39.8902 184.046 38.7258C184.535 38.2762 184.813 38.5097 184.886 38.9281ZM184.886 38.9281C184.906 39.0453 184.911 39.1771 184.899 39.3125M131.408 55.2271C131.912 54.9332 132.474 54.5064 132.909 54.1513M132.909 54.1513C133.697 53.5066 134.068 53.0982 132.909 54.1513ZM132.909 54.1513C132.793 54.2564 132.662 54.3762 132.515 54.5117C131.365 55.5689 130.564 56.0552 131.982 56.6638M143.582 67.5985C143.865 66.9457 144.993 65.3518 144.451 64.6205C143.99 63.999 143.669 64.0841 143.21 64.5726C142.837 64.9696 141.575 66.4864 142.818 65.6829M139.031 39.4544C142.052 40.02 141.461 37.3235 139.988 37.7046C137.846 38.2584 138.965 38.9289 140.329 39.218M108.146 40.8702C108.633 42.7217 109.542 43.1679 110.379 41.2339C110.824 40.2063 109.478 40.5549 109.154 41.303M85.472 42.6402C84.2059 41.8278 83.4544 41.3294 82.2549 42.2504C81.4461 42.8715 82.4057 43.5702 82.9237 43.9266M101.769 58.3693C102.09 57.9201 102.821 56.4752 103.572 56.1837M103.572 56.1837C103.708 56.131 103.845 56.116 103.98 56.1515M103.572 56.1837C103.577 56.106 103.635 56.0611 103.778 56.0796C103.797 56.082 103.896 56.1195 103.98 56.1515M103.572 56.1837C103.557 56.4018 103.947 56.8785 103.981 56.9386M103.98 56.1515C104.009 56.1591 104.037 56.1689 104.066 56.1812C104.146 56.2154 104.073 56.1869 103.98 56.1515ZM167.925 26.0696C170.212 24.6363 167.649 24.673 167.753 24.6284C169.144 24.0279 169.744 23.4736 169.848 25.3082M209.553 32.0454C208.376 32.3099 207.151 31.8074 208.088 32.2098C208.857 32.5401 209.484 32.9047 210.32 32.5734C210.416 32.5356 210.503 32.4994 210.582 32.4649M210.582 32.4649C209.395 31.7474 212.592 31.5837 210.582 32.4649ZM210.582 32.4649C210.664 32.5148 210.768 32.5674 210.897 32.6225M239.322 36.8944C238.532 36.984 232.781 38.6526 235.429 37.6037C235.994 37.3802 237.019 36.6954 236.246 37.5576M258.432 38.7539C258.168 38.7421 254.186 38.8697 254.257 38.3276C254.3 37.9955 254.563 37.3325 254.904 37.2391C256.073 36.9198 257.386 37.114 258.53 37.6058M232.45 60.135C232.59 59.3656 232.986 58.0625 231.844 58.7727C231.636 58.9018 231.133 59.1115 230.747 59.3385M230.747 59.3385C230.517 59.474 230.329 59.6156 230.271 59.7501C230.124 60.0885 230.371 59.7603 230.747 59.3385ZM230.747 59.3385C231.129 58.91 231.646 58.3848 232.021 58.3637M223.591 48.3926C221.373 47.505 222.113 48.0833 223.361 45.9571C224.085 44.7235 222.735 45.3675 222.299 45.8538M208.404 75.2029C208.444 75.0177 208.985 72.9399 208.792 73.3856M168.275 86.9351C163.86 87.2084 167.04 86.9929 168.981 86.2242C169.753 85.9183 169.248 86.1184 168.901 86.4101M124.69 75.3582C123.075 76.4515 124.172 77.8836 125.156 76.8373C125.48 76.492 125.772 74.94 125.361 75.6468C125.353 75.6614 125.344 75.6759 125.336 75.6902M125.336 75.6902C124.443 77.233 124.814 76.8096 125.336 75.6902ZM125.336 75.6902C125.392 75.5715 125.449 75.445 125.506 75.3121M101.066 71.9571C99.8697 71.4431 99.0012 70.8337 97.7535 71.3279M175.141 109.727C174.028 114.17 175.126 118.964 173.287 123.216M179.948 107.822C179.328 111.089 179.204 114.868 177.941 117.984C177.492 119.093 176.731 119.86 176.27 120.925M185.322 110.131C185.454 113.374 184.636 116.445 182.805 119.169C182.363 119.826 179.262 123.246 181.551 121.607M191.664 109.283C190.705 113.321 188.958 116.458 187.366 120.135M197.525 108.626C196.5 112.256 195.303 116.33 192.487 118.94C192.073 119.323 189.603 121.411 190.153 120.141M204.393 108.402C203.052 111.6 202.355 115.002 200.003 117.627C199.124 118.609 198.005 119.36 197.211 120.396M213.284 106.267C210.901 109.817 208.803 114.885 204.983 117.165C204.132 117.672 203.159 118.242 202.164 118.157M219 105.945C217.7 110.027 216.959 114.19 212.911 116.336C212.329 116.644 210.019 118.001 209.948 116.739M229.819 100.274C228.701 104.196 226.376 107.283 223.788 110.427C222.562 111.915 221.544 112.922 219.752 113.411M239.09 99.0979C236.289 104.7 233.976 111.649 227.292 113.476M251.2 95.9655C247.478 101.052 244.887 106.372 239.355 109.529M259.714 90.099C255.807 97.1424 252.365 103.341 244.215 105.664M270.44 82.801C268.794 88.578 267.917 94.5533 263.489 98.8634C261.907 100.403 259.844 101.971 257.813 102.774M283.333 73.259C279.515 81.9426 276.648 89.869 268.158 94.5188M290.016 69.7797C287.531 75.7961 285.217 81.7388 281.669 87.2266M299.729 64.8249C296.989 70.8962 294.551 77.777 288.359 80.9734M311.844 58.9179C310.284 61.8193 308.763 64.7331 307.263 67.6643M169.814 108.232C169.592 111.824 169.939 115.698 170.198 119.31C170.295 120.66 170.195 125.56 169.593 121.63M166.975 110.187C166.944 113.191 167.565 116.117 167.485 119.135M161.89 107.208C161.899 111.508 162.505 115.51 164.741 119.236C165.351 120.253 166.077 121.187 166.517 122.291M156.992 107.486C157.32 111.539 158.447 113.281 161.007 116.309C162.182 117.699 163.103 119.222 163.976 120.803M150.13 104.935C151.632 110.527 153.85 115.424 156.487 120.519C157.095 121.693 157.167 122.714 156.29 121.074M142.108 105.062C144.079 109.22 146.208 114.24 150.039 117.11C150.89 117.748 151.662 118.228 152.404 119.008M132.025 103.509C135.855 109.604 140.83 114.174 145.39 119.567M124.387 104.593C126.101 107.983 127.591 111.008 130.476 113.535C132.1 114.958 133.798 116.165 135.599 117.344M114.645 100.408C116.59 106.233 119.539 112.054 124.623 115.805C125.762 116.645 127.129 117.119 128.104 118.094M107.783 97.8582C108.773 104.146 113.022 110.426 119.133 113.05M96.8841 96.3513C99.1522 100.866 101.387 105.471 105.449 108.673C107.102 109.974 108.987 111.051 110.731 112.219M91.3649 94.3772C93.4171 101.682 98.2979 108.435 104.388 113.067M82.7765 90.2919C84.9381 97.6804 89.539 103.108 95.5627 107.689M72.7926 87.591C75.5813 92.8925 78.3459 97.3476 82.7527 101.393C84.1176 102.646 85.3003 104.096 86.5863 105.421M66.601 85.3286C67.8219 92.7385 74.4572 98.5192 80.0589 103.014M55.8539 80.7125C59.8548 89.5716 65.066 96.7822 72.5199 102.95M42.3256 73.3142C47.3328 82.773 54.0959 90.0689 62.64 96.3257M33.8764 71.6696C38.1753 79.2108 42.7775 85.6109 49.2511 91.3688M26.4919 65.7196C25.1667 68.6946 25.1054 70.3442 26.8653 73.2434C28.9756 76.72 31.7055 79.5315 34.3322 82.5794" stroke="#F87239" stroke-linecap="round"/>
</svg>
