<svg width="120" height="81" viewBox="0 0 120 81" fill="none" xmlns="http://www.w3.org/2000/svg">
<path d="M57.2425 62.8759C52.6661 70.3275 58.8737 71.0769 51.522 74.9131C44.1702 78.7493 69.1908 82.3799 77.8368 78.0828C82.9254 75.5537 96.1427 66.315 86.4177 66.315C76.6926 66.315 71.8301 61.1563 77.8368 57.4304C80.125 55.9974 87.8478 54.851 94.9986 54.851C112.733 54.851 122.172 47.6859 119.311 36.2218C116.165 23.8979 97.8589 7.27501 83.2713 3.26258C54.9543 -4.47569 14.338 6.12861 3.75484 24.1846C-4.82608 38.2281 2.89675 43.3869 37.7925 47.686C45.2293 48.5458 53.2381 51.1252 56.0984 53.1314C60.3889 56.284 60.6749 57.4304 57.2425 62.8759Z" fill="#F28E56"/>
</svg>
