<svg width="205" height="204" viewBox="0 0 205 204" fill="none" xmlns="http://www.w3.org/2000/svg">
<path d="M62.8616 26.3297C62.8616 18.267 57.6701 8.18845 51.1243 3.70912C38.4843 -5.24954 15.0098 2.81322 5.07827 19.3867C-2.37036 31.4809 -1.6932 39.5437 7.56116 53.8776C22.6841 77.618 25.167 84.561 23.8127 100.463C22.9098 112.109 20.6527 119.052 11.8497 135.401C2.82111 152.647 1.01534 157.798 1.01534 168.101C1.01534 184.45 6.43252 194.081 18.3955 199.68C41.6442 209.982 60.6044 201.248 60.6044 179.971C60.6044 166.309 56.7672 152.647 44.8043 123.307C36.4528 102.926 35.0985 97.1031 34.1956 78.5139C33.5185 64.852 33.97 54.7735 35.7757 50.5181C38.2586 44.471 38.7099 44.247 40.2899 48.2784C41.1928 50.7421 44.1272 61.7164 46.8358 72.6908C54.9615 108.077 68.9559 131.37 86.5618 139.209C98.7504 144.808 105.07 144.584 118.613 137.865C138.025 128.234 150.214 106.286 159.468 64.628C165.111 38.8718 170.528 41.7834 170.979 70.675C171.205 88.3684 168.497 99.1189 156.534 128.906C139.379 172.132 138.251 192.961 153.148 200.576C165.788 207.071 184.522 203.487 195.131 192.513C201.225 186.242 205 184.45 205 168.325C205 152.199 201 149.959 193.551 137.641C182.265 119.5 179.557 109.869 180.685 91.9519C181.362 78.066 182.491 75.3784 192.197 61.0445C205.965 41.3354 207.32 29.9132 197.388 17.1471C188.811 5.94878 178.88 0.125595 167.82 0.125595C157.211 0.125595 149.988 4.38095 145.248 13.5636C140.282 23.1942 141.185 31.481 148.634 42.6793C152.471 48.5025 155.405 55.6693 155.405 59.7007C155.405 73.8106 130.802 111.885 123.353 109.421C116.808 107.182 118.613 82.5453 126.062 74.0345C131.931 67.3156 131.931 57.0131 126.062 53.8776C119.516 50.2941 113.422 52.9817 108.005 61.4924C102.588 70.4511 102.362 78.066 107.102 88.1445C110.488 95.0875 110.488 96.2073 106.876 103.15L102.813 110.765L98.5247 105.39C93.7847 99.5668 94.0104 93.9676 98.9761 81.8734C104.393 68.6594 89.7217 48.0545 78.8874 53.6537C71.4387 57.6851 70.7616 64.404 77.5331 73.8106C83.8531 83.2172 86.7875 95.3114 84.5303 104.046C82.2732 112.781 77.5331 111.213 67.1502 97.999C47.9643 74.0345 44.8043 58.8049 56.0901 42.4553C59.7016 37.0801 62.8616 29.6892 62.8616 26.3297Z" fill="#F45734"/>
</svg>
