<svg width="285" height="265" viewBox="0 0 285 265" fill="none" xmlns="http://www.w3.org/2000/svg">
<path d="M240.554 1.61231C257.666 5.57493 267.69 14.1688 275.917 32.4628C296.972 80.4021 279.412 143.187 241.275 154.71C214.313 162.945 182.961 150.364 185.796 132.378C186.496 128.371 193.575 114.959 201.476 102.725C217.865 77.8455 223.472 61.0738 219.281 50.3121C215.279 40.8232 206.721 42.0951 177.535 57.1663C143.197 74.6296 130.882 76.7849 91.1561 73.2554C34.2854 67.7198 6.59469 75.4128 7.67228 95.745C8.35746 111.256 25.3837 123.364 64.9906 136.994C100.463 148.962 106.291 153.301 108.656 169.213C110.264 180.033 116.773 184.596 119.901 177.3C121.107 174.519 121.098 165.738 119.916 157.781C116.984 138.05 123.348 126.37 136.5 127.669C150.65 129.144 172.061 146.78 178.911 162.351C192.151 192.585 187.139 239.519 168.919 254.262C154.806 266.117 147.823 258.373 137.299 220.253C135.118 212.12 130.941 203.633 128.25 200.78C124.053 196.525 122.738 196.395 117.283 201.109C109.799 207.426 107.044 223.773 109.882 242.868C112.53 260.69 107.534 266.311 90.6588 263.94C72.7381 261.074 48.1568 243.909 35.3984 225.638C14.2195 194.306 -0.760563 139.284 0.921197 96.0976C2.09174 58.1918 15.8507 33.0527 42.4205 19.9966C58.4163 12.0899 100.366 8.78343 117.08 14.4315C142.92 22.6267 134.569 42.7337 106.855 39.3708C93.9728 37.7071 80.2292 43.3275 81.2224 50.0106C82.2628 57.0121 99.5918 66.7973 108.467 65.4784C119.878 63.7827 143.17 48.2863 165.118 28.1104C188.192 6.79144 217.453 -3.41191 240.554 1.61231Z" fill="#F45734"/>
</svg>
