<svg width="536" height="586" viewBox="0 0 536 586" fill="none" xmlns="http://www.w3.org/2000/svg">
<path d="M295.834 64.6155C177.352 -9.47899 139.477 -16.051 94.5857 29.0369C38.9425 83.9552 51.3752 122.245 132.429 147.564C185.181 163.637 228.074 163.726 297.893 147.087C373.809 129.538 406.433 132.654 430.313 160.76C451.733 185.742 446.258 232.684 420.027 249.061C408.217 256.805 384.965 246.308 351.672 218.608C318.55 190.383 277.821 173.017 262.695 180.258C249.312 187.489 257.386 196.508 292.189 214.259C327.516 232.181 332.425 236.685 329 247.169C324.205 261.846 300.268 253.446 270.826 228.164C206.155 172.229 190.421 165.349 177.121 186.53C171.419 195.109 172.368 208.182 180.738 237.602C191.961 277.817 191.852 288.804 178.49 299.522C172.071 304.967 168.927 303.939 156.307 292.855C79.1978 227.055 47.7625 218.526 19.7411 256.362C-33.1884 327.831 27.1848 482.144 119.426 512.278C169.739 528.715 223.675 509.207 281.233 453.754C299.613 436.553 317.307 421.449 321.137 420.38C341.675 414.327 381.247 442.338 385.05 466.205C388.117 483.451 377.344 489.793 350.294 485.597C326.035 481.733 295.751 490.984 291.641 503.564C286.333 519.814 298.392 553.921 314.691 567.947C370.25 616.265 452.196 557.176 436.915 479.668C425.588 422.015 369.66 399.684 275.079 415.775C222.996 424.286 214.278 424.339 182.832 414.066C155.055 404.991 142.456 397.395 122.639 378.158C96.6837 352.855 80.7847 318.074 85.3669 296.946C88.7504 279.487 107.96 284.603 161.683 317.236C224.678 355.22 230.23 350.653 205.406 281.049C186.441 229.023 184.895 203.572 200.436 207.489C225.582 213.964 244.128 224.664 287.742 258.056C313.313 277.432 340.81 298.018 348.692 304.074C374.435 322.926 422.195 320.545 469.307 297.067C519.725 272.349 538.759 247.82 534.904 215.233C530.716 185.439 509.872 169.347 436.639 139.622C393.118 121.923 351.663 99.678 295.834 64.6155Z" fill="#F45734"/>
</svg>
