<svg width="69" height="43" viewBox="0 0 69 43" fill="none" xmlns="http://www.w3.org/2000/svg">
<path d="M66.9321 33.1419C66.0323 33.1419 65.3022 32.4229 65.2285 31.5261C64.6681 24.6982 61.5797 17.8935 56.3329 13.0547C51.4357 8.53854 45.1806 5.7307 38.4167 4.95257C37.3902 4.83447 36.5842 3.98615 36.5842 2.95287V2.90444C36.5842 1.82568 35.7097 0.951172 34.6309 0.951172H34.4456C33.3668 0.951172 32.4923 1.82568 32.4923 2.90444V2.95296C32.4923 3.98626 31.6863 4.83459 30.6598 4.95267C23.896 5.73071 17.6408 8.53856 12.7436 13.0549C7.50173 17.8892 4.34817 24.6858 3.77384 31.5073C3.69746 32.4145 2.95885 33.142 2.04842 33.142C0.857299 33.142 0.0463026 34.3496 0.496951 35.4522L3.04815 41.6941C3.34831 42.4285 4.06286 42.9084 4.85623 42.9084H63.9636C64.7442 42.9084 65.4499 42.4435 65.7582 41.7262L68.4541 35.4525C68.9238 34.3592 68.122 33.142 66.9321 33.1419ZM34.5391 7.74947C48.319 7.74947 60.2679 18.6497 61.7481 31.1401C61.8775 32.2321 60.9865 33.1419 59.8869 33.1419H9.01226C7.91266 33.1419 7.02151 32.232 7.15231 31.1403C8.64876 18.6498 20.7591 7.74947 34.5391 7.74947ZM64.0341 38.8324C63.7635 39.581 63.0528 40.0797 62.2568 40.0797H6.67337C5.87736 40.0797 5.16669 39.581 4.89608 38.8324C4.45076 37.6004 5.36341 36.3001 6.67337 36.3001H62.2568C63.5668 36.3001 64.4794 37.6004 64.0341 38.8324Z" fill="#F28E56"/>
</svg>
