<svg width="28" height="28" viewBox="0 0 28 28" fill="none" xmlns="http://www.w3.org/2000/svg">
<path d="M23.3333 23.3333L18.6083 18.6083M18.6083 18.6083C19.3667 17.85 19.9683 16.9496 20.3787 15.9587C20.7892 14.9679 21.0004 13.9059 21.0004 12.8333C21.0004 11.7608 20.7892 10.6988 20.3787 9.70794C19.9683 8.71706 19.3667 7.81673 18.6083 7.05834C17.8499 6.29996 16.9496 5.69838 15.9587 5.28794C14.9679 4.87751 13.9058 4.66626 12.8333 4.66626C11.7608 4.66626 10.6988 4.87751 9.70793 5.28794C8.71705 5.69838 7.81672 6.29996 7.05833 7.05834C5.52671 8.58997 4.66625 10.6673 4.66625 12.8333C4.66625 14.9994 5.52671 17.0767 7.05833 18.6083C8.58996 20.14 10.6673 21.0004 12.8333 21.0004C14.9994 21.0004 17.0767 20.14 18.6083 18.6083Z" stroke="#F7F7F7" stroke-width="2" stroke-linecap="round" stroke-linejoin="round"/>
</svg>
