<svg width="38" height="38" viewBox="0 0 38 38" fill="none" xmlns="http://www.w3.org/2000/svg">
<path d="M35.6666 35.6661L27.2291 27.2286M27.2291 27.2286C28.5834 25.8744 29.6576 24.2666 30.3905 22.4972C31.1234 20.7278 31.5007 18.8313 31.5007 16.9161C31.5007 15.0009 31.1234 13.1044 30.3905 11.335C29.6576 9.5656 28.5834 7.95786 27.2291 6.60361C25.8748 5.24935 24.2671 4.1751 22.4977 3.44218C20.7283 2.70926 18.8318 2.33203 16.9166 2.33203C15.0014 2.33203 13.1049 2.70926 11.3355 3.44218C9.56609 4.1751 7.95835 5.24935 6.6041 6.60361C3.86905 9.33865 2.33252 13.0482 2.33252 16.9161C2.33252 20.784 3.86905 24.4936 6.6041 27.2286C9.33914 29.9637 13.0487 31.5002 16.9166 31.5002C20.7845 31.5002 24.4941 29.9637 27.2291 27.2286Z" stroke="#979B99" stroke-width="4" stroke-linecap="round" stroke-linejoin="round"/>
</svg>
