<svg width="758" height="204" viewBox="0 0 758 204" fill="none" xmlns="http://www.w3.org/2000/svg">
<path d="M132.163 26.3297C132.163 18.267 121.248 8.18845 107.486 3.70912C80.9108 -5.24954 31.5571 2.81322 10.6768 19.3867C-4.98353 31.4809 -3.55984 39.5437 15.8969 53.8776C47.692 77.618 52.912 84.561 50.0647 100.463C48.1665 112.109 43.421 119.052 24.9134 135.401C5.93121 152.647 2.13469 157.798 2.13469 168.101C2.13469 184.45 13.524 194.081 38.6753 199.68C87.5544 209.982 127.417 201.248 127.417 179.971C127.417 166.309 119.35 152.647 94.1983 123.307C76.6398 102.926 73.7925 97.1031 71.8943 78.5139C70.4706 64.852 71.4198 54.7735 75.2162 50.5181C80.4363 44.471 81.3852 44.247 84.7071 48.2784C86.6053 50.7421 92.7747 61.7164 98.4693 72.6908C115.553 108.077 144.976 131.37 181.991 139.209C207.617 144.808 220.904 144.584 249.377 137.865C290.189 128.234 315.815 106.286 335.272 64.628C347.136 38.8718 358.525 41.7834 359.474 70.675C359.948 88.3684 354.254 99.1189 329.103 128.906C293.036 172.132 290.664 192.961 321.984 200.576C348.559 207.071 387.947 203.487 410.251 192.513C423.064 186.242 431 184.45 431 168.325C431 152.199 422.59 149.959 406.929 137.641C383.202 119.5 377.507 109.869 379.88 91.9519C381.303 78.066 383.676 75.3784 404.082 61.0445C433.03 41.3354 435.877 29.9132 414.997 17.1471C396.964 5.94878 376.083 0.125595 352.83 0.125595C330.526 0.125595 315.34 4.38095 305.375 13.5636C294.935 23.1942 296.833 31.481 312.493 42.6793C320.56 48.5025 326.73 55.6693 326.73 59.7007C326.73 73.8106 275.003 111.885 259.343 109.421C245.581 107.182 249.377 82.5453 265.038 74.0345C277.376 67.3156 277.376 57.0131 265.038 53.8776C251.276 50.2941 238.463 52.9817 227.073 61.4924C215.684 70.4511 215.21 78.066 225.175 88.1445C232.293 95.0875 232.294 96.2073 224.701 103.15L216.159 110.765L207.142 105.39C197.177 99.5668 197.651 93.9676 208.091 81.8734C219.481 68.6594 188.634 48.0545 165.856 53.6537C150.196 57.6851 148.772 64.404 163.009 73.8106C176.296 83.2172 182.465 95.3114 177.72 104.046C172.974 112.781 163.009 111.213 141.179 97.999C100.842 74.0345 94.1984 58.8049 117.926 42.4553C125.519 37.0801 132.163 29.6892 132.163 26.3297Z" fill="#F45734"/>
<path d="M497.197 26.3297C497.197 18.267 494.538 8.18845 491.186 3.70912C484.711 -5.24954 472.688 2.81322 467.601 19.3867C463.786 31.4809 464.133 39.5437 468.873 53.8776C476.619 77.618 477.89 84.561 477.197 100.463C476.734 112.109 475.578 119.052 471.069 135.401C466.445 152.647 465.52 157.798 465.52 168.101C465.52 184.45 468.295 194.081 474.422 199.68C486.33 209.982 496.041 201.248 496.041 179.971C496.041 166.309 494.076 152.647 487.949 123.307C483.671 102.926 482.977 97.1031 482.515 78.5139C482.168 64.852 482.399 54.7735 483.324 50.5181C484.596 44.471 484.827 44.247 485.636 48.2784C486.099 50.7421 487.602 61.7164 488.989 72.6908C493.151 108.077 500.319 131.37 509.337 139.209C515.579 144.808 518.817 144.584 525.753 137.865C535.696 128.234 541.939 106.286 546.679 64.628C549.569 38.8718 552.344 41.7834 552.575 70.675C552.69 88.3684 551.303 99.1189 545.176 128.906C536.389 172.132 535.811 192.961 543.442 200.576C549.916 207.071 559.511 203.487 564.945 192.513C568.067 186.242 570 184.45 570 168.325C570 152.199 567.951 149.959 564.136 137.641C558.355 119.5 556.968 109.869 557.546 91.9519C557.893 78.066 558.471 75.3784 563.442 61.0445C570.495 41.3354 571.188 29.9132 566.101 17.1471C561.708 5.94878 556.621 0.125595 550.956 0.125595C545.523 0.125595 541.823 4.38095 539.395 13.5636C536.852 23.1942 537.314 31.481 541.129 42.6793C543.095 48.5025 544.598 55.6693 544.598 59.7007C544.598 73.8106 531.996 111.885 528.181 109.421C524.828 107.182 525.753 82.5453 529.568 74.0345C532.574 67.3156 532.574 57.0131 529.568 53.8776C526.216 50.2941 523.094 52.9817 520.319 61.4924C517.545 70.4511 517.429 78.066 519.857 88.1445C521.591 95.0875 521.591 96.2073 519.741 103.15L517.66 110.765L515.464 105.39C513.036 99.5668 513.152 93.9676 515.695 81.8734C518.47 68.6594 510.955 48.0545 505.406 53.6537C501.591 57.6851 501.244 64.404 504.712 73.8106C507.949 83.2172 509.452 95.3114 508.296 104.046C507.14 112.781 504.712 111.213 499.394 97.999C489.567 74.0345 487.949 58.8049 493.729 42.4553C495.579 37.0801 497.197 29.6892 497.197 26.3297Z" fill="#F45734"/>
<path d="M643.596 84.6822C643.596 79.2675 639.417 72.4991 634.149 69.4909C623.975 63.4746 605.081 68.8893 597.087 80.0195C591.092 88.1416 591.637 93.5563 599.086 103.182C611.258 119.126 613.256 123.789 612.166 134.468C611.44 142.289 609.623 146.952 602.538 157.931C595.271 169.513 593.817 172.972 593.817 179.891C593.817 190.871 598.177 197.339 607.806 201.099C626.519 208.018 641.779 202.152 641.779 187.863C641.779 178.688 638.691 169.513 629.062 149.809C622.34 136.122 621.25 132.211 620.523 119.727C619.978 110.553 620.342 103.784 621.795 100.926C623.793 96.8653 624.157 96.7149 625.428 99.4223C626.155 101.077 628.517 108.447 630.697 115.817C637.237 139.581 648.501 155.224 662.672 160.488C672.482 164.249 677.569 164.098 688.469 159.586C704.093 153.118 713.904 87.3782 721.352 59.4021C725.894 42.1051 730.254 44.0604 730.618 63.4631C730.799 75.3454 728.619 133.565 718.991 153.57C705.183 182.598 704.275 196.586 716.265 201.7C726.439 206.062 741.518 203.656 750.057 196.286C754.962 192.074 758 190.871 758 180.041C758 169.212 754.78 167.708 748.785 159.435C739.701 147.252 737.521 89.7847 738.43 77.752C738.975 68.4267 739.883 66.6217 747.695 56.9956C758.777 43.7596 759.867 36.0888 751.873 27.5155C744.97 19.995 736.976 16.0844 728.074 16.0844C719.536 16.0844 713.722 18.9421 709.907 25.1089C705.91 31.5765 706.637 37.1417 712.632 44.6621C715.72 48.5727 718.082 53.3858 718.082 56.0931C718.082 65.5689 698.28 91.1385 692.284 89.484C687.016 87.9799 688.469 71.4348 694.465 65.7193C699.188 61.207 699.188 54.2882 694.465 52.1825C689.196 49.776 684.291 51.5808 679.931 57.2964C675.57 63.3127 675.389 68.4267 679.204 75.1951C681.929 79.8578 681.929 80.6098 679.022 85.2725L675.752 141.386L672.3 137.777C668.485 133.866 668.667 130.106 672.664 121.984C677.024 113.109 665.215 99.2719 656.495 103.032C650.499 105.739 649.954 110.252 655.405 116.569C660.492 122.886 662.853 131.008 661.037 136.874C659.22 142.74 655.405 141.687 647.048 132.813C631.605 116.719 629.062 106.492 638.146 95.5117C641.052 91.9018 643.596 86.9384 643.596 84.6822Z" fill="#F45734"/>
</svg>
