<svg width="758" height="204" viewBox="0 0 758 204" fill="none" xmlns="http://www.w3.org/2000/svg">
<path d="M62.8616 26.3297C62.8616 18.267 57.6701 8.18845 51.1243 3.70912C38.4843 -5.24954 15.0098 2.81322 5.07827 19.3867C-2.37036 31.4809 -1.6932 39.5437 7.56116 53.8776C22.6841 77.618 25.167 84.561 23.8127 100.463C22.9098 112.109 20.6527 119.052 11.8497 135.401C2.82111 152.647 1.01534 157.798 1.01534 168.101C1.01534 184.45 6.43252 194.081 18.3955 199.68C41.6442 209.982 60.6044 201.248 60.6044 179.971C60.6044 166.309 56.7672 152.647 44.8043 123.307C36.4528 102.926 35.0985 97.1031 34.1956 78.5139C33.5185 64.852 33.97 54.7735 35.7757 50.5181C38.2586 44.471 38.7099 44.247 40.2899 48.2784C41.1928 50.7421 44.1272 61.7164 46.8358 72.6908C54.9615 108.077 68.9559 131.37 86.5618 139.209C98.7504 144.808 105.07 144.584 118.613 137.865C138.025 128.234 150.214 106.286 159.468 64.628C165.111 38.8718 170.528 41.7834 170.979 70.675C171.205 88.3684 168.497 99.1189 156.534 128.906C139.379 172.132 138.251 192.961 153.148 200.576C165.788 207.071 184.522 203.487 195.131 192.513C201.225 186.242 205 184.45 205 168.325C205 152.199 201 149.959 193.551 137.641C182.265 119.5 179.557 109.869 180.685 91.9519C181.362 78.066 182.491 75.3784 192.197 61.0445C205.965 41.3354 207.32 29.9132 197.388 17.1471C188.811 5.94878 178.88 0.125595 167.82 0.125595C157.211 0.125595 149.988 4.38095 145.248 13.5636C140.282 23.1942 141.185 31.481 148.634 42.6793C152.471 48.5025 155.405 55.6693 155.405 59.7007C155.405 73.8106 130.802 111.885 123.353 109.421C116.808 107.182 118.613 82.5453 126.062 74.0345C131.931 67.3156 131.931 57.0131 126.062 53.8776C119.516 50.2941 113.422 52.9817 108.005 61.4924C102.588 70.4511 102.362 78.066 107.102 88.1445C110.488 95.0875 110.488 96.2073 106.876 103.15L102.813 110.765L98.5247 105.39C93.7847 99.5668 94.0104 93.9676 98.9761 81.8734C104.393 68.6594 89.7217 48.0545 78.8874 53.6537C71.4387 57.6851 70.7616 64.404 77.5331 73.8106C83.8531 83.2172 86.7875 95.3114 84.5303 104.046C82.2732 112.781 77.5331 111.213 67.1502 97.999C47.9643 74.0345 44.8043 58.8049 56.0901 42.4553C59.7016 37.0801 62.8616 29.6892 62.8616 26.3297Z" fill="#D7F842"/>
<path d="M339.862 26.3297C339.862 18.267 334.67 8.18845 328.124 3.70912C315.484 -5.24954 292.01 2.81322 282.078 19.3867C274.63 31.4809 275.307 39.5437 284.561 53.8776C299.684 77.618 302.167 84.561 300.813 100.463C299.91 112.109 297.653 119.052 288.85 135.401C279.821 152.647 278.015 157.798 278.015 168.101C278.015 184.45 283.433 194.081 295.395 199.68C318.644 209.982 337.604 201.248 337.604 179.971C337.604 166.309 333.767 152.647 321.804 123.307C313.453 102.926 312.099 97.1031 311.196 78.5139C310.519 64.852 310.97 54.7735 312.776 50.5181C315.259 44.471 315.71 44.247 317.29 48.2784C318.193 50.7421 321.127 61.7164 323.836 72.6908C331.962 108.077 345.956 131.37 363.562 139.209C375.75 144.808 382.07 144.584 395.613 137.865C415.025 128.234 427.214 106.286 436.468 64.628C442.111 38.8718 447.528 41.7834 447.979 70.675C448.205 88.3684 445.497 99.1189 433.534 128.906C416.379 172.132 415.251 192.961 430.148 200.576C442.788 207.071 461.522 203.487 472.131 192.513C478.225 186.242 482 184.45 482 168.325C482 152.199 478 149.959 470.551 137.641C459.265 119.5 456.557 109.869 457.685 91.9519C458.362 78.066 459.491 75.3784 469.197 61.0445C482.965 41.3354 484.32 29.9132 474.388 17.1471C465.811 5.94878 455.88 0.125595 444.82 0.125595C434.211 0.125595 426.988 4.38095 422.248 13.5636C417.282 23.1942 418.185 31.481 425.634 42.6793C429.471 48.5025 432.405 55.6693 432.405 59.7007C432.405 73.8106 407.802 111.885 400.353 109.421C393.808 107.182 395.613 82.5453 403.062 74.0345C408.931 67.3156 408.931 57.0131 403.062 53.8776C396.516 50.2941 390.422 52.9817 385.005 61.4924C379.588 70.4511 379.362 78.066 384.102 88.1445C387.488 95.0875 387.488 96.2073 383.876 103.15L379.813 110.765L375.525 105.39C370.785 99.5668 371.01 93.9676 375.976 81.8734C381.393 68.6594 366.722 48.0545 355.887 53.6537C348.439 57.6851 347.762 64.404 354.533 73.8106C360.853 83.2172 363.787 95.3114 361.53 104.046C359.273 112.781 354.533 111.213 344.15 97.999C324.964 74.0345 321.804 58.8049 333.09 42.4553C336.702 37.0801 339.862 29.6892 339.862 26.3297Z" fill="#B881FF"/>
<path d="M615.862 26.3297C615.862 18.267 610.67 8.18845 604.124 3.70912C591.484 -5.24954 568.01 2.81322 558.078 19.3867C550.63 31.4809 551.307 39.5437 560.561 53.8776C575.684 77.618 578.167 84.561 576.813 100.463C575.91 112.109 573.653 119.052 564.85 135.401C555.821 152.647 554.015 157.798 554.015 168.101C554.015 184.45 559.433 194.081 571.395 199.68C594.644 209.982 613.604 201.248 613.604 179.971C613.604 166.309 609.767 152.647 597.804 123.307C589.453 102.926 588.099 97.1031 587.196 78.5139C586.519 64.852 586.97 54.7735 588.776 50.5181C591.259 44.471 591.71 44.247 593.29 48.2784C594.193 50.7421 597.127 61.7164 599.836 72.6908C607.962 108.077 621.956 131.37 639.562 139.209C651.75 144.808 658.07 144.584 671.613 137.865C691.025 128.234 703.214 106.286 712.468 64.628C718.111 38.8718 723.528 41.7834 723.979 70.675C724.205 88.3684 721.497 99.1189 709.534 128.906C692.379 172.132 691.251 192.961 706.148 200.576C718.788 207.071 737.522 203.487 748.131 192.513C754.225 186.242 758 184.45 758 168.325C758 152.199 754 149.959 746.551 137.641C735.265 119.5 732.557 109.869 733.685 91.9519C734.362 78.066 735.491 75.3784 745.197 61.0445C758.965 41.3354 760.32 29.9132 750.388 17.1471C741.811 5.94878 731.88 0.125595 720.82 0.125595C710.211 0.125595 702.988 4.38095 698.248 13.5636C693.282 23.1942 694.185 31.481 701.634 42.6793C705.471 48.5025 708.405 55.6693 708.405 59.7007C708.405 73.8106 683.802 111.885 676.353 109.421C669.808 107.182 671.613 82.5453 679.062 74.0345C684.931 67.3156 684.931 57.0131 679.062 53.8776C672.516 50.2941 666.422 52.9817 661.005 61.4924C655.588 70.4511 655.362 78.066 660.102 88.1445C663.488 95.0875 663.488 96.2073 659.876 103.15L655.813 110.765L651.525 105.39C646.785 99.5668 647.01 93.9676 651.976 81.8734C657.393 68.6594 642.722 48.0545 631.887 53.6537C624.439 57.6851 623.762 64.404 630.533 73.8106C636.853 83.2172 639.787 95.3114 637.53 104.046C635.273 112.781 630.533 111.213 620.15 97.999C600.964 74.0345 597.804 58.8049 609.09 42.4553C612.702 37.0801 615.862 29.6892 615.862 26.3297Z" fill="#93FF81"/>
</svg>
