<svg width="758" height="589" viewBox="0 0 758 589" fill="none" xmlns="http://www.w3.org/2000/svg">
<rect width="758" height="589" rx="6.6306" fill="#F45734"/>
<path fill-rule="evenodd" clip-rule="evenodd" d="M219.263 75.0218C216.076 64.9475 209.6 58.5739 199.423 55.5928C189.348 52.6116 178.863 53.7424 162.723 59.602C156.453 61.9663 153.574 63.7139 149.462 67.8258C141.444 75.8442 139.696 81.4981 138.874 102.058L138.257 118.814L134.968 121.384C129.725 125.496 130.958 131.664 137.64 135.159C139.902 136.29 140.416 136.187 142.061 134.131C143.5 132.281 143.911 130.328 143.808 125.702C143.397 116.141 146.481 115.319 154.088 123.029C159.125 128.066 161.078 133.823 159.125 138.038C157.583 141.224 148.126 146.467 143.705 146.467C142.163 146.467 140.827 146.776 140.827 147.187C140.827 147.701 150.079 148.009 161.387 148.009C172.695 148.009 181.947 147.701 181.947 147.187C181.947 146.776 181.535 146.467 181.021 146.467C179.48 146.467 164.574 132.075 163.957 129.916C162.929 126.833 165.19 124.879 169.816 124.879C173.62 124.879 174.751 125.599 184.003 134.645C189.554 140.094 195.722 145.131 197.778 145.953C199.731 146.776 204.049 147.495 207.338 147.495C215.151 147.495 219.366 144.925 222.244 138.552C226.562 128.786 222.244 110.796 213.609 102.058C205.488 94.0396 195.002 92.4976 184.414 98.0488C174.34 103.189 169.816 108.226 171.05 113.057C172.284 117.786 180.302 120.253 184.825 117.067C187.703 115.113 187.703 114.394 184.414 109.459C181.33 104.834 181.536 102.264 185.031 100.516C192.741 96.6096 198.395 100.516 202.918 112.543C206.31 121.795 206.413 127.244 203.329 129.403C198.909 132.486 193.871 131.458 181.433 124.982C174.751 121.59 167.76 118.711 164.882 118.197C155.939 116.861 151.313 108.946 152.546 97.0208C153.985 82.8345 160.667 72.9658 172.489 67.5175C187.395 60.6299 203.843 60.8355 211.758 68.0314C219.468 74.919 219.366 82.9373 211.656 86.9465C206.413 89.6192 200.553 89.4137 192.946 86.3297C177.321 80.1617 166.63 79.2365 161.798 83.8625C159.845 85.7129 159.331 87.1521 159.331 91.4696C159.331 101.236 165.807 105.553 171.256 99.3852C171.958 98.6035 172.6 97.8861 173.189 97.2277L173.189 97.2276C177.349 92.575 178.873 90.8699 180.755 90.2547C181.843 89.8988 183.05 89.9076 184.956 89.9216H184.956C185.359 89.9245 185.793 89.9277 186.264 89.9277C190.787 89.9277 195.311 90.8528 201.479 93.0116C204.901 94.2496 208.427 95.4875 210.704 96.287C211.641 96.6161 212.367 96.8709 212.786 97.0208C217.001 98.3572 219.777 96.7124 221.01 91.9836C222.244 87.5633 221.73 83.1429 219.263 75.0218ZM124.276 71.9378C121.295 66.1811 117.492 62.3775 111.632 59.3963C99.7074 53.3312 74.8301 55.1816 58.0738 63.5083C47.6911 68.5455 42.14 75.1246 42.14 82.2177C42.14 92.806 52.6255 99.0768 59.3074 92.3948C61.6718 90.0305 61.8774 89.3109 61.1578 84.4793C60.7466 81.4981 60.3354 76.8721 60.2326 74.1994C60.1298 69.6762 60.541 68.8539 63.9334 65.7699C65.9893 63.8167 69.9985 61.5551 73.0825 60.7327C80.0728 58.5739 91.8947 58.6767 97.9599 60.7327C111.221 65.2559 113.997 84.5821 103.717 101.338C94.2591 116.655 65.6809 131.047 59.1018 123.851C56.5318 121.076 56.429 114.908 58.8962 111.207C62.6998 105.348 68.7649 104.217 89.2219 105.245C96.6235 105.656 99.7074 104.114 103.203 98.2544C107.417 91.0584 106.184 74.405 101.044 68.237C96.3151 62.5831 88.3995 65.1531 88.3995 72.4518C88.3995 76.1526 91.6891 81.0869 96.0067 83.6569C101.969 87.3577 100.633 91.4696 92.4087 94.9648C87.8855 96.918 85.11 97.3292 72.5685 97.432C59.6158 97.6376 57.5598 97.946 53.4479 100.105C42.8595 105.656 38.542 112.338 38.542 123.851C38.542 135.159 42.3456 141.43 52.1115 146.364C57.8682 149.243 67.4285 149.346 72.9797 146.467C77.6056 144.103 80.2784 140.813 86.3436 130.019C93.5395 117.067 96.4179 115.319 101.147 120.459C105.259 124.879 110.193 134.851 109.782 137.935C109.371 141.738 105.053 144 95.0815 145.85L86.8576 147.29L108.343 147.392L129.93 147.495L125.613 144.308C120.678 140.71 114.613 132.178 111.221 124.16C108.959 118.917 108.24 111.104 109.782 108.843C111.118 106.787 115.333 105.142 117.8 105.759C120.884 106.581 121.809 109.973 120.267 115.627C118.622 121.59 119.548 124.879 122.837 124.879C126.23 124.879 128.08 121.693 129.622 113.16C131.678 100.824 129.211 81.7037 124.276 71.9378ZM244.757 73.4798C249.897 64.5363 251.233 59.0879 248.972 56.8264C248.458 56.3124 245.888 55.5928 243.421 55.2844C237.767 54.6676 229.543 58.6767 226.767 63.3027C224.197 67.6203 225.122 71.1154 230.776 79.0309C236.122 86.5353 236.636 89.9277 232.729 93.2172C226.973 98.2544 225.842 101.544 226.356 111.824C226.664 119.842 227.178 122.104 229.748 126.73C233.655 133.823 239.103 138.654 248.149 142.972C258.532 147.804 270.457 149.962 282.69 149.243C302.222 147.906 313.53 142.355 313.53 134.028C313.53 130.122 311.576 129.3 300.577 128.477C295.54 128.066 290.4 127.141 289.166 126.319C288.035 125.599 285.568 122.001 283.821 118.3C280.531 111.413 277.241 107.404 274.569 107.404C272.41 107.404 264.186 116.347 264.186 118.609C264.186 120.973 266.139 121.795 271.69 121.795C281.353 121.795 288.549 126.319 291.017 133.926C292.661 139.066 290.605 140.813 282.895 140.71C276.83 140.608 265.831 137.935 260.896 135.468C253.392 131.767 249.074 122.207 250.411 111.721C251.953 98.3572 260.074 78.9281 268.298 68.4426C274.569 60.5271 280.634 57.032 287.933 57.032C299.035 57.032 302.222 60.7327 297.904 68.5454C296.568 71.1154 293.895 73.7882 291.531 75.1246C281.867 80.5729 274.26 89.4137 275.802 93.4228C277.139 96.7124 287.933 94.7592 292.25 90.5444C294.615 88.1801 294.409 84.8905 291.942 82.2177C289.063 79.2366 290.194 76.8722 295.128 75.433C302.633 73.1714 304.586 78.7225 299.138 87.1521C297.493 89.8248 296.054 92.7032 296.054 93.5256C296.054 95.7872 300.268 98.1516 304.483 98.1516C311.782 98.1516 314.146 92.9088 313.324 79.1338C312.707 69.9846 309.52 63.0971 303.969 58.6768C300.268 55.6956 299.343 55.49 289.886 55.1816C282.176 54.8732 277.755 55.2844 271.485 56.9292C256.784 60.6299 250.925 65.5643 245.682 78.517C244.037 82.5261 242.187 85.4045 241.262 85.6101C238.281 86.2269 239.309 82.9373 244.757 73.4798ZM414.17 81.0869C407.077 66.6951 397.105 59.6019 379.938 56.518C369.555 54.7704 338.715 54.462 335.94 56.1068C334.912 56.6207 334.089 57.6487 334.089 58.3683C334.089 59.0879 336.659 64.0223 339.743 69.3678C347.453 82.6289 347.145 86.9465 338.407 87.2549L334.603 87.3577L334.089 81.7037C333.473 74.8162 332.753 73.6854 328.333 71.835C321.342 68.8538 317.025 73.5826 315.894 85.3017C315.277 92.6004 316.716 102.058 319.697 109.048C322.781 116.039 329.669 122.001 339.126 125.907C349.406 130.019 350.332 131.767 345.808 137.215C342.827 140.71 335.22 144.925 329.258 146.364C326.688 147.084 335.94 147.29 356.705 147.187C385.078 146.981 388.47 146.776 392.685 144.925C405.432 139.477 413.245 131.973 417.357 121.076C421.88 108.843 420.749 94.5536 414.17 81.0869ZM625.216 79.8534C625.216 67.1063 617.918 59.8075 602.292 57.1348C595.919 56.1068 585.022 55.9012 578.237 56.7236C571.864 57.4432 561.686 59.1907 558.191 60.1159C549.659 62.3775 547.603 68.6483 553.154 75.0218C554.902 76.975 556.135 79.2366 555.827 80.059C555.107 81.9093 551.921 82.6289 549.145 81.601C546.678 80.6758 545.753 78.8254 543.388 70.293C541.641 64.1251 538.351 59.088 535.987 59.088C534.856 59.088 534.548 61.4523 534.548 71.4238C534.548 79.9562 534.136 84.7877 533.108 86.6381C530.847 91.0585 530.333 98.1516 531.772 105.039C533.828 114.497 536.706 117.992 546.575 122.823C555.519 127.244 559.219 131.047 559.219 135.57C559.219 139.991 550.584 143.897 545.958 141.43C544.005 140.402 543.902 139.58 544.416 134.851C545.136 128.58 543.697 126.421 539.276 127.552C536.09 128.272 529.716 135.159 528.791 138.757C527.968 141.944 530.538 146.159 533.828 146.981C535.062 147.29 547.295 147.392 560.967 147.29L585.844 146.981L577.723 140.402C565.901 130.944 558.191 120.253 558.191 113.469C558.191 109.459 563.948 103.292 567.752 103.292C569.191 103.292 572.789 104.936 575.77 106.992C582.966 111.927 590.984 115.627 594.171 115.627C597.872 115.627 604.965 112.132 606.918 109.357C607.843 108.02 608.563 105.039 608.563 102.675C608.563 98.974 607.843 97.6376 603.937 93.2172C598.386 87.0493 592.115 83.7597 585.844 83.7597C575.462 83.7597 575.05 89.4137 584.919 96.0956C591.395 100.516 593.554 103.189 592.526 105.759C591.704 107.815 587.797 108.843 584.405 108.02C583.069 107.712 580.19 105.245 578.032 102.572C571.35 94.2452 566.724 89.9277 564.462 89.9277C561.584 89.9277 559.425 94.348 558.191 103.086C556.855 112.338 556.341 113.571 553.565 113.571C547.295 113.571 547.911 108.123 555.93 92.4976C562.201 80.4701 574.536 67.5175 582.349 64.8447C595.816 60.2187 609.797 62.0691 617.095 69.4706C620.796 73.1714 621.002 73.6854 619.768 75.6386C618.946 76.7694 615.553 79.2365 612.161 80.9841C606.61 83.9653 605.993 84.5821 605.685 87.8717C605.376 92.3948 608.563 97.8432 612.264 98.7684C618.432 100.31 625.216 90.3389 625.216 79.8534ZM654 72.5546C660.374 65.7699 661.402 61.8635 657.598 58.2656C652.766 53.6396 647.935 55.9011 638.066 67.209C630.048 76.3582 626.861 82.6289 627.272 88.0773C627.478 91.6752 628.095 92.7032 630.356 93.834C634.16 95.5816 638.169 93.5256 642.589 87.3577C646.085 82.4233 649.58 79.6478 652.252 79.6478C653.075 79.6478 653.794 80.2646 653.794 80.8813C653.794 81.6009 650.094 89.1053 645.468 97.6376C630.562 125.599 628.403 131.561 631.179 138.14C634.777 146.981 655.439 151.196 672.298 146.57C674.096 146.071 676.669 145.377 679.395 144.643C682.28 143.866 685.336 143.043 687.821 142.355L696.764 139.888L700.465 142.664C708.689 148.934 714.24 149.448 717.941 144.206C719.894 141.43 720.1 133.309 718.147 130.842C716.605 128.786 712.39 127.038 710.54 127.655C709.82 127.963 708.072 130.328 706.736 133.103C705.4 135.776 703.446 138.243 702.521 138.654C700.26 139.477 696.97 136.496 696.97 133.72C697.073 130.533 698.923 128.58 704.886 125.599C710.848 122.515 714.446 118.506 714.446 115.011C714.446 111.515 708.072 104.936 701.802 101.852C689.877 95.89 676.307 100.413 669.214 112.852C660.888 127.347 669.626 133.617 686.793 125.393C695.017 121.487 697.998 121.487 697.998 125.291C697.998 128.272 693.578 132.486 687.204 135.365C683.092 137.215 680.214 137.729 673.223 137.729C665.102 137.729 664.177 137.524 660.579 134.748C654.822 130.43 653.486 126.319 654 114.599C654.308 106.992 655.131 103.292 657.392 97.6376C666.439 75.1246 687.204 57.3404 693.475 66.7979C695.839 70.3958 694.708 74.919 690.288 79.7505C688.335 82.0121 686.69 84.3765 686.69 85.0961C686.69 88.5913 695.531 92.3948 702.11 91.778C705.4 91.4696 705.708 91.1613 705.605 88.3857C705.502 86.6381 703.755 81.4981 701.596 76.7694C699.437 72.1434 697.998 68.0315 698.306 67.7231C699.746 66.1811 702.316 68.6482 704.783 73.9938C706.325 77.1805 708.381 80.1618 709.409 80.6758C711.876 82.1149 715.988 80.3673 718.147 77.0778C720.717 73.0686 718.558 68.9566 711.156 64.1251C694.297 53.3312 680.831 54.7704 662.841 69.265C658.42 72.7602 654.103 75.5358 653.178 75.3302C651.841 75.1246 652.047 74.6106 654 72.5546ZM512.24 68.751C507.511 63.9195 501.755 60.8355 492.914 58.5739C483.868 56.2095 461.252 56.5179 451.28 59.1907C442.645 61.4523 434.524 66.3867 431.029 71.7322C426.197 78.7225 426.095 88.4885 430.618 100.002C433.907 108.329 433.599 110.076 427.122 116.244C422.394 120.87 421.469 122.309 421.469 125.291C421.469 132.898 428.767 136.804 434.627 132.281C436.991 130.533 437.402 129.505 437.402 124.777C437.402 119.739 437.711 119.123 440.898 116.964C445.01 114.188 448.608 114.599 452.103 118.403C459.401 126.319 449.019 144 435.758 146.056C426.917 147.495 432.879 148.009 454.57 147.701L477.494 147.392L473.382 144.103C465.364 137.935 459.401 131.047 459.71 128.683C459.915 126.833 460.841 126.319 463.925 126.113C469.373 125.702 471.84 127.552 479.55 138.038C486.643 147.701 490.755 151.093 496.717 152.121C507.306 154.074 524.268 143.178 526.94 132.692C528.277 127.244 526.426 120.87 522.006 116.039C517.277 111.001 512.754 109.459 507.717 111.515C502.269 113.777 501.446 117.683 504.839 125.393C506.175 128.477 506.689 131.15 506.278 132.795C505.661 135.262 505.353 135.365 500.213 134.851C493.531 134.131 489.83 132.384 473.69 121.59C455.906 109.871 453.645 107.815 450.458 101.852C447.991 97.1236 447.682 95.5816 447.682 85.8157C447.682 76.7694 448.094 74.3022 449.944 70.9098C452.617 65.8727 454.878 63.7139 459.813 61.6579C473.69 55.9011 498.157 67.9286 506.895 84.9933C509.465 90.0304 509.362 92.4976 506.586 94.4508C502.885 97.1236 496.717 96.404 487.774 92.3948C468.653 83.8625 461.355 82.2177 455.495 85.3017C452.205 86.9465 451.28 88.694 451.28 93.32C451.383 99.6936 455.803 102.469 463.513 101.03C466.083 100.619 469.887 98.8711 472.148 97.3292C473.517 96.3517 474.968 95.3329 476.03 94.5871L476.031 94.5865C476.644 94.156 477.128 93.8165 477.391 93.6284C479.756 91.9836 484.073 93.9368 489.83 99.1796C499.904 108.329 504.839 109.254 513.063 103.806C524.062 96.6096 523.651 80.4701 512.24 68.751ZM298.932 195.605C299.343 189.334 299.138 188.512 296.773 186.148C292.147 181.522 281.353 183.269 275.083 189.643C270.662 193.96 270.868 199.1 275.699 208.661C282.587 222.127 282.587 225.725 276.213 234.155C266.756 246.593 269.634 268.284 281.662 274.658C291.942 280.106 304.278 275.172 304.278 265.611C304.278 260.677 300.063 254.303 294.512 250.808C288.447 246.902 287.316 244.332 289.372 239.398C290.914 235.594 293.587 233.846 297.801 233.846C302.222 233.846 306.539 239.089 311.371 250.089C313.632 255.331 316.922 261.397 318.669 263.555C322.473 268.49 331.005 274.246 336.865 275.994C340.566 277.125 341.594 277.125 343.855 275.583C346.014 274.144 346.425 273.116 346.425 269.004C346.322 260.266 340.052 250.705 332.856 248.341C331.005 247.724 325.557 246.799 320.725 246.285C313.735 245.565 311.679 244.846 310.24 243.098C308.081 240.426 307.978 238.986 309.52 235.491C310.857 232.613 316.922 229.118 328.538 224.697C333.164 222.847 338.818 220.071 340.977 218.529C349.715 212.156 350.846 198.072 343.341 190.465C339.846 186.97 336.043 186.764 331.211 189.643C326.893 192.316 324.221 196.633 321.651 205.577C321.166 207.25 320.569 209.244 319.979 211.211C319.193 213.836 318.42 216.414 317.95 218.118C316.202 224.183 313.324 227.678 310.446 227.678C307.67 227.678 307.773 225.006 310.96 218.221C314.044 211.642 314.146 209.586 311.576 208.147C308.287 206.399 305.614 206.913 303.352 209.791C300.885 212.978 300.474 219.66 302.633 223.464C303.455 224.903 303.866 226.65 303.558 227.37C302.736 229.323 298.11 229.015 294.306 226.65C289.783 223.978 289.886 220.791 294.717 210.614C297.698 204.343 298.624 200.848 298.932 195.605ZM469.784 195.502C469.784 191.802 467.42 187.176 464.439 185.12C458.682 181.008 447.991 184.708 443.468 192.316C440.075 197.867 440.384 201.567 444.598 208.147C451.486 219.043 452.617 222.23 452 229.529C451.589 234.874 450.561 238.061 446.552 245.565C442.44 253.481 441.617 255.845 441.617 260.574C441.617 268.078 444.084 272.499 449.533 275.069C460.121 279.798 468.756 275.788 468.756 266.023C468.756 259.752 467.009 253.481 461.56 240.014C457.757 230.66 457.14 227.987 456.729 219.455C456.42 213.184 456.626 208.558 457.448 206.605C458.579 203.829 458.785 203.726 459.504 205.577C459.915 206.707 461.252 211.745 462.485 216.782C466.186 233.024 472.56 243.715 480.578 247.313C486.129 249.883 489.008 249.78 495.175 246.696C504.016 242.276 509.567 232.202 513.782 213.081C516.352 201.259 518.819 202.595 519.025 215.857C519.128 223.978 517.894 228.912 512.446 242.584C504.633 262.425 504.119 271.985 510.904 275.48C516.66 278.461 525.193 276.816 530.024 271.779C532.8 268.901 533.006 268.078 533.006 260.677C533.006 253.275 532.697 252.247 529.305 246.593C524.165 238.267 522.931 233.846 523.445 225.622C523.754 219.249 524.268 218.015 528.688 211.436C534.959 202.39 535.576 197.147 531.052 191.288C527.146 186.148 522.623 183.475 517.586 183.475C512.754 183.475 509.465 185.428 507.306 189.643C505.044 194.063 505.455 197.867 508.848 203.007C510.595 205.679 511.932 208.969 511.932 210.819C511.932 217.296 500.727 234.772 497.334 233.641C494.353 232.613 495.176 221.305 498.568 217.399C501.241 214.315 501.241 209.586 498.568 208.147C495.587 206.502 492.811 207.735 490.344 211.642C487.877 215.754 487.774 219.249 489.933 223.875C491.475 227.062 491.475 227.576 489.83 230.762L487.98 234.258L486.026 231.79C483.868 229.118 483.97 226.548 486.232 220.996C488.699 214.931 482.017 205.474 477.083 208.044C473.69 209.894 473.382 212.978 476.466 217.296C479.344 221.613 480.681 227.164 479.653 231.174C478.625 235.183 476.466 234.463 471.737 228.398C462.999 217.399 461.56 210.408 466.7 202.904C468.345 200.437 469.784 197.044 469.784 195.502ZM714.549 191.802C712.287 189.54 708.175 186.867 704.783 185.634C692.755 181.213 689.569 184.092 695.839 193.96C701.904 203.521 700.876 205.268 692.241 199.717C689.466 197.97 684.223 195.091 680.522 193.344C674.457 190.465 672.915 190.157 664.074 190.157C655.85 190.157 653.486 190.568 649.271 192.624C642.281 196.119 636.73 201.979 632.926 209.997C629.945 216.165 629.637 217.913 629.637 226.136C629.637 238.678 632.515 244.64 643.926 255.948C652.664 264.583 659.654 269.209 670.448 273.732C675.896 275.994 678.466 276.405 687.204 276.508C696.456 276.508 697.998 276.2 702.83 273.732C711.876 268.901 718.147 259.341 720.717 246.285C723.081 234.258 718.763 225.417 706.53 216.782C696.764 209.791 696.353 209.072 701.082 206.605C705.605 204.24 707.25 204.651 707.97 208.249C708.586 211.745 712.287 214.726 714.651 213.801C717.119 212.773 718.558 208.558 718.558 201.979C718.558 196.222 718.352 195.605 714.549 191.802ZM67.2229 193.652C65.5781 190.671 62.9054 187.381 61.1578 186.353C54.6814 182.447 43.5791 185.12 39.7756 191.699C36.0748 197.867 37.9252 201.979 49.3359 212.875C57.0458 220.174 61.1578 227.987 60.3354 233.949C59.6158 239.5 55.8122 244.126 47.3827 249.677C40.4952 254.303 37 258.827 37 263.35C37.1028 267.256 41.0092 273.835 44.4015 275.583C52.6255 280.003 70.7181 276.611 76.5776 269.62C80.3812 265.2 79.97 261.191 74.9329 253.481C68.0453 242.893 65.3725 236.211 65.2697 229.426C65.2697 222.847 66.2977 221.51 71.2321 221.51C75.1385 221.51 78.942 225.622 84.4932 236.005C90.1471 246.593 93.3339 249.677 97.5487 248.752C101.558 247.93 102.38 245.051 100.221 239.089C98.2682 233.435 98.2682 232.304 100.324 230.351C102.791 227.781 106.184 228.398 109.782 231.893C116.155 238.061 115.538 241.659 106.801 250.089C99.7074 256.771 96.6235 261.294 96.6235 264.789C96.6235 267.873 105.67 276.611 109.885 277.536C114.613 278.564 118.314 276.2 121.192 270.443C126.23 260.266 125.304 251.528 116.978 233.538C113.483 225.931 111.529 220.174 111.221 216.576C110.81 211.539 111.015 210.717 115.127 204.96C120.473 197.25 121.706 191.185 118.314 188.204C115.744 185.942 106.492 184.708 105.361 186.456C105.053 187.176 106.081 190.362 107.829 193.755C111.324 200.334 111.118 202.698 107.109 203.726C102.894 204.754 101.352 202.904 100.119 195.502C98.5766 185.942 96.7263 184.194 89.2219 184.708C74.8301 185.736 74.4189 195.502 87.8855 212.259C94.7731 220.791 95.8011 222.847 95.8011 228.09C95.9039 233.641 94.1563 236.93 90.9695 236.93C88.5023 236.93 85.7268 234.36 79.97 226.65C78.1196 224.183 75.0357 221.202 73.1853 220.174C70.2041 218.427 69.1761 218.324 65.9893 219.249C63.7278 219.969 61.8774 220.071 61.2606 219.455C60.3354 218.529 60.8494 217.604 66.0921 210.819C70.5125 205.371 70.8209 200.334 67.2229 193.652ZM184.208 200.334C181.227 194.577 175.059 189.232 168.172 186.662C161.49 184.194 157.069 183.989 152.649 185.942C146.687 188.512 144.117 195.811 147.715 199.512C149.257 200.951 150.901 201.156 160.873 200.539C167.041 200.231 173.826 199.614 175.779 199.306C181.433 198.381 184.208 201.156 184.825 208.455C185.647 219.249 182.975 225.622 177.424 225.622C173.928 225.622 164.162 230.865 165.293 231.996C165.91 232.613 169.097 233.23 172.489 233.538C178.349 234.052 178.966 233.949 181.741 231.071C187.395 225.417 188.731 209.175 184.208 200.334ZM264.803 195.4C262.747 190.157 259.56 187.381 253.392 185.634C237.253 181.213 218.235 189.746 216.384 202.39C215.048 211.333 220.496 220.688 226.048 218.94C227.281 218.529 231.187 215.651 234.683 212.567C241.776 206.193 246.813 203.623 250.411 204.446C253.598 205.268 253.598 208.044 250.205 218.015C246.299 229.734 246.196 233.744 249.177 246.182C253.598 263.967 252.467 273.116 245.991 273.732C241.056 274.246 236.43 269.415 230.262 257.49C224.814 246.799 223.169 245.154 218.029 245.154C214.534 245.154 212.786 243.304 214.945 241.968C215.768 241.454 218.543 241.042 221.113 241.042C227.487 241.042 230.879 238.472 229.851 234.36C228.72 229.94 222.141 223.978 216.898 222.538C206.721 219.763 192.124 223.566 188.32 230.043C185.236 235.08 188.012 236.93 200.553 238.472C203.226 238.781 206.104 239.706 207.132 240.426C208.674 241.556 208.777 241.967 207.544 243.921C205.899 246.593 200.862 248.238 194.694 248.238C188.937 248.238 187.395 250.089 188.937 255.331C190.685 260.883 197.264 267.873 203.637 271.06C214.534 276.302 232.627 278.461 246.196 275.891C258.121 273.732 265.42 268.181 268.298 259.135C270.046 253.687 269.12 240.22 266.55 235.183C262.747 227.37 256.784 230.968 259.149 239.603C260.28 243.612 259.149 248.238 256.99 248.238C254.728 248.238 250.822 243.201 250.822 240.323C250.822 236.622 254.626 228.501 259.971 220.585C265.625 212.259 267.476 202.493 264.803 195.4ZM383.536 189.951C382.919 188.82 380.863 187.073 378.91 186.148C376.957 185.222 374.798 184.503 373.975 184.503C368.938 184.606 358.247 194.474 357.63 199.717C357.014 204.137 357.63 207.427 359.686 210.1C362.667 214.006 367.088 212.361 372.331 205.474C374.592 202.39 377.162 199.923 377.882 199.923C380.657 199.923 379.321 203.726 374.695 209.072C368.424 216.473 364.21 222.641 361.537 228.501C359.686 232.613 359.378 235.183 359.378 246.696C359.378 262.836 361.228 270.443 366.471 275.686C371.2 280.414 376.134 280.312 387.545 275.377C399.572 270.134 406.871 269.62 414.889 273.424C422.188 276.919 426.917 277.536 432.571 276.097C435.758 275.172 437.3 274.041 438.533 271.676C442.028 264.892 437.505 249.163 431.748 248.341C429.692 248.135 428.048 249.266 423.833 253.892C417.871 260.677 415.917 261.088 407.796 257.49C399.367 253.789 393.199 256.976 385.9 268.901C381.788 275.788 379.013 276.816 377.162 272.088C374.181 264.686 378.704 232.613 385.078 216.062C388.162 207.941 395.049 199.923 398.75 199.923C402.245 199.923 406.563 202.595 407.899 205.474C409.544 209.175 414.889 211.745 418.076 210.305C423.319 207.941 424.655 198.895 420.852 191.39C415.506 181.213 409.749 182.036 392.788 195.091C385.181 201.053 382.816 201.979 380.555 199.717C378.807 197.97 379.013 197.25 381.994 194.474C384.152 192.418 384.461 191.596 383.536 189.951ZM625.114 225.622C631.384 200.334 630.356 193.241 619.768 187.895C606.815 181.213 600.75 185.634 600.956 201.465C601.161 211.745 603.628 219.352 610.619 230.762C618.123 243.201 619.46 249.163 615.862 255.023C612.675 260.266 604.04 262.013 599.619 258.313C597.563 256.668 598.077 251.939 601.059 244.435C604.143 236.93 604.862 228.706 602.703 226.445C600.647 224.492 599.517 226.445 598.386 233.641C597.255 240.94 596.741 242.07 594.685 242.07C591.807 242.07 591.909 237.342 594.685 230.66C600.853 215.959 601.161 212.773 596.638 211.642C594.788 211.128 592.526 212.053 587.797 215.24C581.321 219.557 579.368 220.174 576.695 218.427C575.359 217.604 575.359 216.987 576.592 214.109C583.788 196.633 583.48 190.568 575.153 187.792C559.425 182.55 535.576 202.184 535.576 220.277C535.576 230.146 542.155 238.575 555.313 245.565C559.425 247.827 563.126 250.089 563.537 250.705C565.798 253.995 563.126 262.63 559.117 264.686C556.238 266.228 554.491 264.686 553.668 259.649C552.949 255.126 549.556 250.294 547.089 250.294C543.902 250.294 538.557 254.406 537.015 258.107C531.669 270.751 546.883 281.854 559.733 274.658C569.294 269.312 570.013 258.107 561.686 242.276C557.163 233.538 556.649 231.996 556.649 225.828C556.649 220.38 557.266 217.707 559.528 213.081C562.509 207.016 567.752 202.184 571.761 201.773C575.05 201.362 575.256 205.063 572.583 216.473C569.499 229.837 570.63 230.557 581.527 222.127C589.648 215.754 594.068 214.006 594.274 216.987C594.582 221.819 593.76 225.725 590.367 235.388C589.391 238.215 588.389 241.143 587.554 243.584C586.718 246.027 586.05 247.981 585.741 248.855C583.891 254.509 587.078 262.836 593.965 269.826C601.264 277.33 606.712 279.284 612.264 276.714C617.301 274.246 618.946 269.62 619.974 254.92C620.59 246.182 622.132 237.547 625.114 225.622ZM144.939 208.352C148.64 203.212 148.743 202.493 145.761 200.539C134.762 193.755 122.529 204.549 126.332 217.707C127.052 220.071 129.93 225.828 132.706 230.351C140.107 242.584 141.033 245.463 141.855 257.285C142.575 267.564 142.677 267.976 146.07 271.471C153.985 279.695 168.788 279.386 173.209 270.854C177.012 263.453 173.517 252.35 163.443 240.631C160.564 237.342 158.406 234.052 158.611 233.435C158.817 232.818 162.004 230.762 165.704 228.912C173.723 224.903 176.498 220.791 175.265 214.52C173.723 206.091 169.2 201.979 161.695 201.979C153.677 202.081 143.911 208.763 143.911 214.212C143.911 217.501 144.528 218.427 148.743 221.408C150.593 222.641 153.369 225.828 154.911 228.398C157.172 232.304 157.686 234.463 157.686 239.912C157.686 243.612 157.069 248.649 156.453 251.014C154.911 256.257 150.593 261.602 147.92 261.602C146.892 261.602 145.967 261.499 145.967 261.294C145.895 261.222 145.774 259.804 145.603 257.803L145.603 257.803L145.603 257.803C145.528 256.931 145.444 255.949 145.35 254.92C144.425 244.332 141.752 237.958 134.042 227.473C128.902 220.38 128.388 216.782 131.884 212.67C134.248 209.997 134.351 209.997 137.435 211.642C139.182 212.464 140.827 213.801 141.135 214.52C141.547 215.445 141.752 215.343 141.752 214.212C141.855 213.287 143.294 210.614 144.939 208.352ZM165.499 361.934C165.396 337.262 149.051 316.291 126.538 311.974C98.4738 306.628 74.7273 320.814 72.2601 344.15C71.4377 351.963 74.2133 357.514 84.1848 367.896C88.7079 372.625 92.7171 377.765 93.1283 379.307C94.3619 384.344 89.9415 394.727 84.1848 400.072C82.8484 401.306 80.0728 403.054 78.1196 403.876C74.7273 405.315 76.372 405.418 100.119 405.521H125.716L119.034 400.484C103.408 388.662 93.4367 373.962 92.7171 361.626C92.3059 355.869 92.6143 354.224 95.4927 348.467C97.3431 344.869 100.633 339.524 102.894 336.645C107.623 330.58 109.268 330.889 110.399 337.776C111.427 343.944 112.763 345.897 115.95 345.897C121.398 345.897 123.66 342.197 122.837 334.384C121.809 325.029 126.846 318.758 134.042 320.609C145.35 323.384 157.481 348.879 151.724 357.719C149.359 361.317 147.303 361.009 139.799 355.663C130.65 349.187 126.744 348.159 121.604 350.626C114.099 354.327 107.212 369.13 109.885 375.915C110.81 378.279 111.529 378.793 114.613 378.793C118.725 378.793 122.632 377.046 129.519 372.214C136.51 367.177 143.397 363.373 145.247 363.373C147.612 363.373 147.509 367.588 144.939 372.625C143.808 374.887 142.883 378.073 142.883 379.821C142.883 384.036 146.07 387.017 150.696 387.017C158.817 387.017 165.499 375.606 165.499 361.934ZM258.429 335.206C260.382 327.188 248.458 316.086 234.58 313.104C224.711 311.048 207.749 312.59 196.339 316.6C176.91 323.487 167.452 339.421 167.144 365.943C167.041 377.148 167.144 377.457 170.947 385.269C177.424 398.325 189.348 408.605 198.086 408.605C199.834 408.605 204.254 407.268 207.852 405.521C215.973 401.614 219.571 401.512 221.216 405.007C222.861 408.605 221.113 410.147 211.553 413.95C203.226 417.343 197.367 421.249 197.367 423.613C197.367 427.725 217.824 430.604 229.543 428.239C241.056 425.772 256.168 416.315 254.626 412.408C254.214 411.175 251.336 410.764 241.879 410.558C232.215 410.25 229.029 409.736 226.767 408.296C224.197 406.549 224.094 406.24 225.431 404.184C226.253 402.951 229.851 400.278 233.449 398.222C247.327 390.307 252.775 383.111 252.878 372.831C252.878 363.065 248.355 357.205 234.374 348.879C224.917 343.225 221.01 339.421 221.01 335.617C221.01 331.608 223.786 330.169 228.206 331.711C230.057 332.328 235.094 334.898 239.411 337.262C243.729 339.729 248.458 341.785 249.897 341.785C253.289 341.785 257.607 338.496 258.429 335.206ZM513.268 318.142C511.418 316.497 507.511 314.441 504.633 313.618C497.745 311.562 489.933 311.665 479.036 314.03C464.336 317.114 452.617 322.151 447.271 327.394C444.598 330.169 444.084 331.403 444.084 335.72C444.084 341.169 446.963 348.159 449.738 349.804C452.822 351.448 457.345 349.804 463.308 344.767C472.971 336.645 477.186 333.561 478.625 333.561C481.4 333.561 483.662 338.804 483.559 344.972C483.456 350.729 481.298 356.177 479.036 356.177C478.419 356.177 476.877 353.71 475.541 350.626C472.868 344.561 470.298 343.019 466.495 344.972C457.654 349.495 458.682 355.149 469.887 363.065C476.672 367.999 482.12 374.784 482.12 378.382C482.12 381.055 479.447 382.905 475.541 382.905C471.84 382.905 469.784 385.475 469.784 390.204C469.784 402.026 479.961 409.633 489.213 404.801C494.456 402.026 496.615 398.53 497.231 391.437C497.951 383.625 496.409 377.251 490.755 363.682C484.896 349.804 484.484 347.131 487.26 343.533C490.755 339.113 493.531 339.832 499.699 346.925C505.661 353.813 506.997 354.121 513.577 350.935C518.202 348.776 522.212 342.608 522.212 337.879C522.212 334.795 519.539 328.422 518.202 328.422C517.688 328.422 515.118 330.066 512.548 332.02C509.979 333.973 506.792 335.823 505.353 336.234C502.783 336.851 498.568 335.206 498.568 333.561C498.568 332.945 502.063 330.786 506.381 328.627C516.558 323.693 517.586 322.048 513.268 318.142ZM687.718 325.029C687.718 320.095 685.457 314.544 682.784 313.104C679.7 311.46 677.541 311.768 671.579 314.441C660.785 319.478 657.906 328.01 657.906 355.663C657.906 371.597 657.598 374.784 655.953 378.485C653.692 383.316 650.711 385.578 648.86 383.727C647.215 382.083 647.318 371.083 649.168 359.261C651.122 346.411 651.122 342.197 649.066 341.374C644.131 339.421 638.169 342.505 638.169 346.925C638.169 348.365 638.477 351.963 638.889 354.841C639.505 359.261 639.403 360.392 638.066 360.906C633.749 362.551 628.095 353.916 628.095 345.692C628.095 343.019 629.328 336.029 630.767 329.964C633.235 319.786 633.235 318.861 631.693 316.497C629.74 313.413 626.45 313.31 618.123 316.086C609.899 318.964 607.329 321.74 606.712 328.73C605.684 341.58 617.815 365.429 640.636 394.933C645.159 400.792 648.86 405.521 649.066 405.521C649.169 405.521 649.374 403.773 649.477 401.614C649.991 392.26 652.766 385.989 658.42 381.055C663.766 376.326 664.691 376.737 664.177 384.036C664.074 385.475 664.486 387.942 665 389.381C666.439 393.185 671.27 393.185 674.252 389.484C677.747 385.064 677.13 379.204 672.401 370.261C665.822 357.822 666.13 355.972 675.793 346C684.12 337.571 687.615 331.197 687.718 325.029ZM345.294 329.347C339.846 324.001 328.949 318.039 320.725 315.777C305.306 311.46 289.577 313.516 277.447 321.328C271.176 325.235 262.438 334.589 260.485 339.318C258.121 344.869 259.868 348.262 270.354 358.747C280.839 369.233 284.026 374.99 284.026 383.933C284.026 387.017 283.512 390.718 282.69 392.157C279.811 397.811 273.952 402.54 267.27 404.596C265.831 405.007 275.802 405.418 289.269 405.418L313.941 405.521L309.315 402.642C302.941 398.531 296.054 391.335 292.661 385.167C286.802 374.373 284.026 354.841 286.905 344.458C290.4 331.814 310.548 324.104 319.492 332.122L322.267 334.589L319.8 336.645C318.053 338.187 315.894 338.701 311.371 338.701C306.436 338.701 305.203 339.113 303.866 340.963C301.296 344.561 301.81 348.776 305.203 352.168C310.24 357.102 314.455 355.972 327.407 346.103C335.529 340.038 336.865 339.318 340.463 339.627C342.519 339.729 346.425 345.795 346.425 348.776C346.425 353.813 337.79 357.205 318.361 359.672C303.969 361.523 297.493 363.99 296.465 367.999C294.717 374.887 308.595 383.213 324.837 385.167C330.183 385.783 335.015 386.606 335.529 387.12C336.043 387.531 334.501 390.101 332.239 392.877C327.51 398.633 326.174 401.923 327.921 403.979C329.361 405.726 334.809 406.035 338.51 404.596C342.108 403.259 348.276 397.605 350.126 394.007C352.593 389.279 350.743 387.634 339.538 383.83C330.697 380.952 328.847 379.821 324.015 374.99C319.595 370.672 318.567 368.924 318.875 366.663C319.184 364.196 319.595 363.887 322.987 363.99C325.66 364.093 328.641 365.326 332.445 367.999C345.603 377.046 354.649 369.952 354.649 350.626C354.649 341.785 352.182 336.029 345.294 329.347ZM437.608 327.496C434.524 322.87 424.039 317.114 413.759 314.544C406.152 312.59 392.89 312.693 385.489 314.646C370.172 318.758 359.686 330.991 359.686 344.561C359.686 353.813 363.695 357.411 381.891 364.504C398.75 371.083 404.301 375.195 405.535 382.288C406.46 386.914 403.787 392.877 400.292 394.213C396.283 395.755 388.676 394.316 385.797 391.54C383.022 388.765 382.919 387.428 385.078 379.615C387.339 371.7 386.208 369.027 380.143 367.485C371.919 365.224 360.406 369.027 357.219 375.092C348.79 390.821 385.078 410.764 411.805 405.212C430.207 401.306 443.159 389.073 441.72 376.943C441.309 373.345 440.486 371.494 438.019 369.336C433.907 365.635 430.412 365.635 427.842 369.233C426.814 370.878 425.683 372.934 425.272 373.859C424.964 374.784 423.525 377.457 421.983 379.718C419.104 384.447 415.403 385.269 412.011 382.288C410.263 380.643 410.366 380.335 414.375 376.017C417.562 372.522 418.385 370.98 417.768 369.233C416.637 365.224 415.609 365.018 409.338 367.794C401.937 371.083 401.423 371.186 396.283 368.41C380.966 360.289 379.321 345.486 392.376 333.561C401.423 325.132 418.282 319.684 427.225 322.151C436.066 324.515 440.795 332.945 437.402 340.141C433.702 347.851 422.497 350.215 416.431 344.458C413.964 342.094 409.235 339.729 406.974 339.729C406.46 339.729 404.815 340.86 403.479 342.299C398.442 347.234 400.806 356.074 408.105 359.775C412.217 361.934 422.085 361.728 427.122 359.364C439.253 353.916 444.496 337.879 437.608 327.496ZM556.135 330.889C556.135 325.749 553.463 319.786 549.762 316.497C546.472 313.516 543.799 313.002 539.071 314.646C530.744 317.422 525.09 328.216 524.884 341.683C524.782 350.523 527.043 354.738 533.52 357.205C538.968 359.364 543.799 363.476 543.799 365.943C543.799 368.308 536.398 375.401 529.922 379.307C523.651 383.111 523.137 385.269 526.838 392.671C531.669 402.642 540.715 407.268 553.154 406.24C564.976 405.212 584.097 397.4 592.526 389.895C601.367 382.185 606.404 367.28 605.068 353.196C603.834 340.243 598.591 324.412 593.863 319.375C586.461 311.357 575.359 312.076 570.424 320.814C567.34 326.057 567.135 328.113 569.396 330.375C571.864 332.842 576.387 332.431 585.125 328.833C593.04 325.543 594.788 325.646 597.255 329.655C602.806 338.804 597.461 345.692 578.648 353.607C559.836 361.42 557.575 363.373 560.659 369.336C563.537 374.99 571.761 378.382 574.948 375.298C575.77 374.373 577.312 371.186 578.134 368.205C580.19 361.317 583.377 357.514 588.414 355.766C595.096 353.504 601.367 356.486 603.012 362.859C603.937 366.663 601.47 373.55 597.563 377.868C590.573 385.681 577.929 390.101 563.023 390.101C553.463 390.101 548.939 388.97 548.939 386.606C548.939 385.681 550.687 381.98 552.743 378.176C559.836 365.326 557.472 358.439 540.921 343.533C528.996 332.739 527.352 329.141 531.464 322.459C533.52 319.067 536.604 318.142 538.454 320.403C539.071 321.123 540.51 324.721 541.743 328.422C545.65 340.038 547.911 341.888 553.463 337.571C555.621 335.823 556.135 334.589 556.135 330.889ZM224.608 462.163C229.337 451.575 230.262 445.407 227.692 442.528C225.225 439.856 219.16 439.958 211.964 442.631C206.002 444.996 202.507 449.108 202.507 453.836C202.609 457.64 206.516 466.583 212.581 476.658C215.562 481.489 219.16 488.171 220.599 491.358C223.169 496.909 223.272 497.732 222.552 508.217C222.141 515.413 222.244 521.375 222.964 524.973C224.197 530.73 227.076 535.048 229.748 535.048C232.935 535.048 239.72 527.235 245.374 517.161C251.747 505.75 255.448 501.124 258.121 501.124C260.177 501.124 261.41 504.414 263.569 515.619C267.167 534.842 273.13 539.879 283.821 533.197C295.642 525.693 299.035 514.077 292.97 502.255C291.017 498.348 289.063 496.19 280.839 489.096C274.055 483.237 274.877 476.041 283.101 467.2C288.344 461.649 293.998 450.855 293.998 446.538C293.998 441.603 291.942 440.164 285.465 440.678C277.036 441.398 270.354 445.098 267.476 450.752C264.494 456.612 265.008 460.93 269.84 470.901C272.513 476.144 273.438 479.536 273.438 483.237C273.438 488.994 270.457 494.956 267.476 494.956C263.775 494.956 259.56 487.863 258.224 479.331L258.171 479.006C257.816 476.837 257.593 475.472 257.222 475.431C256.592 475.361 255.538 479.108 252.693 489.219L252.467 490.022C245.888 513.665 240.028 524.768 234.066 524.768C232.524 524.768 230.776 523.843 229.851 522.506C226.87 518.291 227.795 514.179 233.655 505.75C243.421 491.358 244.963 488.685 245.374 484.265C246.299 476.658 240.851 469.051 235.916 470.901C232.215 472.34 230.262 479.845 232.215 485.087C234.58 491.255 226.459 490.844 222.244 484.573C218.852 479.742 219.571 473.265 224.608 462.163ZM382.097 468.639C382.816 457.846 380.76 447.668 377.059 443.042C374.798 440.164 370.994 439.753 366.882 442.014C363.593 443.865 360.817 449.416 355.06 466.481C348.481 485.601 345.397 490.844 340.668 490.844C335.94 490.844 336.865 488.48 345.5 478.919C350.332 473.574 352.902 468.639 352.079 466.275C350.948 462.78 343.033 460.724 340.463 463.294C338.715 465.042 338.921 471.415 340.771 473.779C342.724 476.349 342.724 478.919 340.874 480.461C339.743 481.489 338.715 481.078 335.837 478.508C331.622 474.807 330.491 471.929 328.538 459.902C326.482 447.463 325.66 445.818 320.109 443.454C313.632 440.575 309.109 441.5 304.175 446.64C299.446 451.575 296.156 461.032 295.334 471.518C294.82 478.919 294.923 479.433 297.39 482.003C300.885 485.499 305.408 485.499 317.025 482.106C330.697 478.097 335.117 478.817 335.117 484.779C335.117 489.61 331.725 491.872 318.053 496.395C308.492 499.582 301.81 503.488 300.268 506.983C298.315 511.095 298.932 521.273 301.194 525.899C305.717 534.739 316.1 536.59 324.94 530.113C335.22 522.506 343.341 509.245 345.911 495.573C346.734 491.05 347.967 486.835 348.584 486.321C349.509 485.499 349.612 485.704 348.995 487.246C348.481 488.377 347.967 491.152 347.762 493.414C347.35 496.806 347.864 498.246 350.434 501.638L350.518 501.747C359.173 513.049 359.277 513.185 359.789 523.637L360.303 533.506L363.593 533.814C370.377 534.431 384.564 523.945 387.134 516.338C388.573 512.329 387.236 507.806 384.255 506.161C382.508 505.236 381.685 505.75 378.396 509.245C374.078 513.871 372.228 514.385 369.761 511.609C367.396 509.039 367.602 505.647 370.275 501.33C372.433 497.834 372.433 497.732 370.48 496.292C367.499 494.031 365.546 495.059 364.826 499.376C364.107 504.002 363.593 504.619 361.023 503.797C358.556 502.974 356.705 498.246 356.705 492.797C356.705 487.143 355.883 485.704 352.49 485.704C348.481 485.704 348.687 484.573 353.621 480.153C358.864 475.424 362.976 475.219 368.835 479.433C371.097 481.078 373.256 482.929 373.667 483.545C373.975 484.162 375.209 484.676 376.237 484.676C379.527 484.676 381.48 479.228 382.097 468.639ZM426.608 480.873C426.608 464.939 423.011 451.575 417.357 446.126C413.656 442.529 406.152 441.603 401.423 444.07C397.105 446.229 391.862 452.5 390.732 456.612C389.087 462.369 390.937 465.555 398.133 469.667C405.843 473.985 408.31 476.555 411.086 482.826C422.805 510.376 420.543 527.543 404.301 533.506C400.806 534.739 402.965 534.945 426.095 534.945C443.056 535.048 451.28 534.636 450.252 534.02C449.43 533.506 447.991 532.992 447.168 532.992C446.346 532.992 442.748 531.655 439.253 530.01C431.132 526.104 424.244 519.319 422.908 513.871C420.955 506.367 422.394 504.002 439.15 487.246C447.682 478.714 456.317 469.359 458.271 466.378C462.588 459.799 464.747 452.397 463.411 448.491C462.074 444.893 456.112 442.528 447.785 442.528C438.019 442.528 437.608 443.556 441.617 458.154C442.645 461.957 443.159 465.35 442.748 465.761C441.72 466.789 438.43 463.602 434.73 457.846C428.664 448.285 426.917 453.22 430.72 468.742C433.085 478.303 433.393 487.554 431.44 490.33C430.104 492.078 429.898 492.078 428.356 489.713C427.123 488.068 426.608 485.19 426.608 480.873ZM548.528 460.724C547.603 455.79 542.566 449.108 536.912 445.612C533.211 443.248 530.847 442.528 526.838 442.528C521.081 442.528 517.072 444.687 504.736 454.042C500.007 457.743 497.437 458.976 494.867 458.976C492.914 458.976 491.372 458.668 491.372 458.257C491.372 457.846 492.4 455.481 493.633 453.014C493.633 453.014 495.47 450.461 494.841 448.569C494.384 447.193 493.017 445.921 493.017 445.921C490.755 443.968 489.008 443.556 483.868 443.556C476.055 443.556 471.223 444.893 468.036 447.874C465.158 450.547 464.953 453.425 467.625 454.864C470.709 456.509 472.868 456.098 479.447 452.808C486.232 449.313 488.494 449.005 490.344 451.266C492.605 454.042 489.213 457.229 477.802 463.088C473.382 465.35 469.065 468.331 468.139 469.667C465.981 473.06 466.7 476.555 469.887 478.405C472.251 479.742 473.382 479.742 479.653 478.2C483.559 477.172 494.353 473.163 503.708 469.051C521.8 461.238 529.819 459.285 531.052 462.471C532.8 467.097 517.483 476.144 499.699 481.078C476.466 487.554 467.934 496.292 466.906 515.105C466.597 521.273 466.906 524.151 468.036 526.413C473.485 536.898 484.484 538.132 501.138 530.01C517.38 522.095 522.417 521.992 536.809 528.88C547.295 533.917 550.687 533.917 553.565 528.469C556.135 523.74 555.21 517.058 550.584 507.806C544.416 495.264 537.734 491.358 530.23 495.676C528.585 496.704 523.034 502.974 517.997 509.553C502.577 529.497 493.634 534.842 489.316 526.721C488.288 524.871 489.11 523.74 495.895 517.263C501.96 511.301 503.708 509.039 504.325 505.853C505.147 501.124 504.016 498.657 500.727 498.246C497.129 497.732 493.633 501.741 489.213 511.404C482.737 525.179 478.111 528.469 476.055 520.861C473.588 512.226 475.335 504.002 480.784 497.937C487.26 490.741 494.764 488.068 518.511 484.162C526.632 482.929 534.856 481.078 536.809 480.153C545.033 476.247 549.967 468.125 548.528 460.724ZM649.425 220.244C649.425 210.272 652.817 204.104 660.219 200.712C665.256 198.347 673.172 198.245 677.181 200.301C683.965 203.796 686.433 216.851 682.629 228.57L680.882 234.019L683.863 236.383C687.152 239.056 694.965 241.523 696.713 240.392C697.329 239.981 697.638 238.542 697.329 237C696.507 233.196 697.946 231.449 701.441 231.86C703.806 232.066 704.936 233.094 706.787 237C711.207 245.841 710.796 259.719 705.862 264.653C702.572 267.942 691.984 267.017 689.208 263.111C688.797 262.494 688.694 258.588 689.105 254.373L689.722 246.766L685.302 247.383C682.629 247.691 679.956 248.925 678.312 250.569L675.742 253.242L681.087 258.691C686.947 264.55 687.666 267.017 684.171 268.045C673.583 270.821 664.434 263.933 656.107 246.56C651.173 236.28 649.425 229.496 649.425 220.244ZM362.549 61.2753C359.671 62.0977 356.278 63.9481 354.325 65.9012C351.344 68.8824 351.138 69.602 351.138 76.0783C351.138 82.1435 351.652 83.9939 355.661 91.9094C360.596 101.984 360.699 105.479 356.073 109.18C350.419 113.6 343.531 110.413 340.447 101.881C338.288 96.0214 335.513 95.5074 331.709 100.031C328.42 103.834 328.728 106.404 332.737 112.572C337.26 119.46 348.98 126.655 355.764 126.553C359.876 126.553 361.213 125.833 369.231 119.665C375.502 114.936 378.791 114.217 380.436 117.301C383.726 123.572 377.352 133.235 371.184 131.281C366.455 129.842 365.222 139.608 369.539 143.926C373.137 147.626 377.866 146.393 384.856 140.019C391.127 134.365 396.267 124.908 397.912 116.376C401.099 99.3109 394.725 74.742 384.651 65.6956C378.38 60.0417 372.007 58.8081 362.549 61.2753ZM197.126 335.998C195.584 333.942 197.435 329.213 201.136 325.512C204.836 321.812 208.126 321.195 211.724 323.765C214.911 325.924 214.602 329.419 210.593 334.661C204.014 343.399 202.266 346.895 202.266 352.034C202.266 358.1 206.275 364.268 212.649 368.071C216.761 370.436 222.621 371.361 235.265 371.464C238.349 371.464 240.508 373.931 241.33 378.248C242.666 385.444 237.012 392.64 227.452 395.93C222.415 397.677 212.855 397.472 210.079 395.621C208.023 394.079 207.92 393.462 208.434 386.575C209.257 377.734 207.92 375.678 203.294 377.734C199.902 379.276 199.902 380.715 203.397 384.827C205.453 387.397 205.864 388.528 205.042 389.865C200.827 396.546 185.716 390.79 179.445 380.201C177.183 376.295 176.669 373.828 176.155 366.426C175.333 352.137 178.52 348.437 192.5 346.997C203.089 345.969 203.603 344.633 197.126 335.998Z" fill="white"/>
</svg>
