<svg width="53" height="53" viewBox="0 0 53 53" fill="none" xmlns="http://www.w3.org/2000/svg">
<path fill-rule="evenodd" clip-rule="evenodd" d="M38.3925 15.0311C38.1793 15.0718 12.1377 25.8191 11.8524 25.9841C11.4497 26.2171 11.2695 26.3743 11.1238 26.6196C10.9837 26.8554 10.9622 27.0813 11.0608 27.2824C11.1511 27.4667 11.3899 27.6947 11.6241 27.8202C11.7771 27.9022 18.2519 30.0936 18.5698 30.1709C18.6048 30.1794 22.077 27.8695 26.2859 25.0377C30.4949 22.2059 34.0255 19.842 34.1318 19.7845C34.4169 19.6303 34.7174 19.6033 34.8519 19.7197C34.9333 19.7902 34.9524 19.8414 34.9312 19.9321C34.9124 20.012 32.8659 22.0184 28.7583 25.9843C25.3786 29.2474 22.5593 31.9691 22.4931 32.0325L22.3728 32.1479L22.1455 35.6642C22.0205 37.5982 21.9186 39.232 21.919 39.2949C21.9196 39.4044 21.9293 39.408 22.1519 39.3798C22.6161 39.321 22.7294 39.2244 24.6502 37.2497L26.4631 35.3859L26.6645 35.5408C26.7753 35.626 28.2962 36.823 30.0442 38.2009C33.2822 40.7533 33.4483 40.8707 33.9689 40.9762C34.5897 41.1021 35.1325 40.7221 35.3966 39.9769C35.4493 39.8283 36.4992 34.6476 37.7298 28.4641C39.4759 19.6907 39.9726 17.12 39.9914 16.7598C40.0116 16.3722 39.9998 16.2431 39.9174 15.9532C39.7143 15.2387 39.1363 14.8892 38.3925 15.0311Z" fill="#211F1D"/>
</svg>
