<svg width="49" height="43" viewBox="0 0 49 43" fill="none" xmlns="http://www.w3.org/2000/svg">
<path d="M4.39781 18.6248C18.8608 11.9575 37.5758 3.82877 40.1601 2.70346C46.9363 -0.241004 49.0158 0.322736 47.9792 6.84478C47.2343 11.5325 45.0866 27.0505 43.3734 36.71C42.3574 42.4385 40.0773 43.1172 36.4936 40.6389C34.7701 39.4463 26.0695 33.4165 24.1804 32.0006C22.4569 30.7105 20.0795 29.1581 23.0611 26.1009C24.1225 25.0124 31.0767 18.0524 36.4957 12.6361C37.2054 11.925 36.3136 10.7563 35.4942 11.3265C28.1903 16.4024 18.0642 23.4469 16.7751 24.3641C14.8281 25.7496 12.9577 26.3849 9.60158 25.3745C7.06487 24.6113 4.58816 23.7006 3.62397 23.3537C-0.0900596 22.0181 0.791376 20.2878 4.39781 18.6248Z" fill="#211F1D" stroke="#211F1D" stroke-width="0.573774"/>
</svg>
