<svg width="23" height="23" viewBox="0 0 23 23" fill="none" xmlns="http://www.w3.org/2000/svg">
<path fill-rule="evenodd" clip-rule="evenodd" d="M11.5 0.5C5.14913 0.5 0 5.42525 0 11.5C0 17.5747 5.14913 22.5 11.5 22.5C17.8509 22.5 23 17.5747 23 11.5C23 5.42525 17.8509 0.5 11.5 0.5ZM16.8302 7.98092C16.6577 9.71983 15.9083 13.9411 15.5279 15.889C15.3669 16.714 15.0487 16.9899 14.742 17.0165C14.0741 17.0752 13.5671 16.5939 12.9202 16.1887C11.9082 15.5544 11.3361 15.1593 10.3538 14.5397C9.21821 13.8237 9.95421 13.4305 10.6011 12.7879C10.7707 12.6192 13.7128 10.059 13.7703 9.82708C13.777 9.79775 13.7847 9.68958 13.7166 9.63275C13.6486 9.57592 13.5499 9.59517 13.479 9.61075C13.3774 9.63275 11.7607 10.6548 8.62788 12.677C8.16883 12.9786 7.75292 13.1252 7.38013 13.1179C6.96996 13.1097 6.18029 12.8961 5.59283 12.7127C4.87313 12.4891 4.30004 12.3699 4.34987 11.9904C4.37575 11.7924 4.66038 11.5898 5.20471 11.3827C8.55696 9.98567 10.7927 9.06442 11.9111 8.61892C15.1052 7.34842 15.7684 7.1275 16.2016 7.12017C16.744 7.11283 16.8743 7.54092 16.8302 7.98092Z" fill="black"/>
</svg>
