<svg width="24" height="24" viewBox="0 0 24 24" fill="none" xmlns="http://www.w3.org/2000/svg">
<path d="M11.4946 2.71235C11.7012 2.2938 12.298 2.2938 12.5046 2.71235L15.1786 8.13047C15.2606 8.29668 15.4192 8.41188 15.6026 8.43853L21.5818 9.30736C22.0437 9.37448 22.2282 9.9421 21.8939 10.2679L17.5673 14.4853C17.4346 14.6147 17.374 14.8011 17.4053 14.9838L18.4267 20.9389C18.5056 21.3989 18.0228 21.7497 17.6096 21.5325L12.2616 18.7209C12.0976 18.6346 11.9016 18.6346 11.7375 18.7209L6.38953 21.5325C5.9764 21.7497 5.49355 21.3989 5.57245 20.9389L6.59383 14.9838C6.62516 14.8011 6.5646 14.6147 6.43187 14.4853L2.10525 10.2679C1.77102 9.9421 1.95545 9.37448 2.41734 9.30736L8.3966 8.43853C8.58001 8.41188 8.73857 8.29668 8.8206 8.13047L11.4946 2.71235Z" fill="#F45734"/>
</svg>
