<svg width="49" height="57" viewBox="0 0 49 57" fill="none" xmlns="http://www.w3.org/2000/svg">
<path d="M19.0023 28.5018C26.5348 43.2649 34.9204 40.299 37.1125 35.7928C38.1146 34.032 37.1125 31.4495 34.0436 28.0452C29.0957 22.528 27.2168 20.1216 27.2168 19.2999C27.2168 17.7152 30.411 16.4239 34.1689 16.4826C37.6762 16.5413 40.9957 17.7738 40.9957 19.0651C40.9957 19.4173 39.4926 20.2977 37.6136 21.0607C33.9184 22.5867 32.9789 24.0541 34.1689 26.2257C36.9246 31.2734 40.3694 30.6865 45.192 24.2888C50.0146 17.8912 49.1802 32.3855 48.4019 37.724C47.2168 45.8515 40.9957 54.2293 34.1689 53.1737C31.1407 52.7055 29.844 58.7692 27.0484 56.4829C24.2528 54.1967 27.0484 43.7798 18.66 33.8233C5.13574 17.687 1.78862e-06 10.6488 1.68357e-06 8.24551C1.48097e-06 3.61059 8.73078 -0.166037 19.0023 0.00562799C28.5891 0.177289 37.6624 3.78219 37.6624 7.55878C37.6624 8.58876 33.5538 11.1638 28.418 13.3954C18.3176 17.8587 15.7497 22.1503 19.0023 28.5018Z" fill="white"/>
</svg>
