<svg width="55" height="75" viewBox="0 0 55 75" fill="none" xmlns="http://www.w3.org/2000/svg">
<path d="M40.2368 26.8318C44.5789 35.8333 31.1435 68.6485 28.0789 68.0647C23.4473 59.0631 10.4211 57.6113 14.7632 48.6097C20.8421 35.543 35.75 45.2703 28.8027 33.6555C21.8553 22.6213 14.0395 19.1369 5.64474 23.7828C-1.88158 27.848 -1.88158 28.1384 5.64474 36.8496C15.1974 47.8837 13.1711 71.1136 4.7764 74.0173C0.46483 75.5087 22.6513 75.6703 21.5658 71.8664C20.4803 68.0625 48.704 78.3943 44.3619 72.9499C40.0198 67.5054 39.8026 28.2836 49.3553 17.2494C56.8816 8.53827 56.8816 6.0701 49.3553 2.00488C40.9605 -2.64108 33.1447 0.843384 26.1973 11.8775C19.25 23.4924 34.1579 13.765 40.2368 26.8318Z" fill="white"/>
</svg>
