<svg width="37" height="47" viewBox="0 0 37 47" fill="none" xmlns="http://www.w3.org/2000/svg">
<g clip-path="url(#clip0_591_2739)">
<path d="M4.53667 2.94141H32.463C33.4678 2.94141 34.2824 3.75598 34.2824 4.76079V43.0977C34.2824 44.1025 33.4678 44.917 32.463 44.917H17.8422H4.53667C3.53185 44.917 2.71729 44.1025 2.71729 43.0977V4.76079C2.71729 3.75597 3.53185 2.94141 4.53667 2.94141Z" stroke="#F28E56" stroke-width="3.63876"/>
<path d="M8.72656 21.4366H9.98974V26.5483H8.72656V21.4366ZM11.7076 21.4366H13.1369L11.0869 23.8318L13.2451 26.5483H11.7654L9.63604 23.8683L11.7076 21.4366ZM14.4536 23.9925C14.4536 24.304 14.5233 24.5742 14.6629 24.8031C14.8024 25.027 14.9852 25.1974 15.2114 25.3142C15.4424 25.431 15.6951 25.4895 15.9693 25.4895C16.21 25.4895 16.4217 25.4578 16.6045 25.3946C16.7874 25.3313 16.951 25.2485 17.0953 25.1463C17.2397 25.044 17.3672 24.9345 17.4779 24.8177V26.1467C17.2758 26.3074 17.0544 26.4339 16.8139 26.5265C16.5732 26.6189 16.2677 26.6652 15.8971 26.6652C15.4929 26.6652 15.12 26.6019 14.7784 26.4753C14.4367 26.3488 14.1431 26.1662 13.8977 25.9277C13.6523 25.6891 13.4623 25.4068 13.3275 25.0805C13.1928 24.7544 13.1254 24.3917 13.1254 23.9925C13.1254 23.5932 13.1928 23.2306 13.3275 22.9044C13.4623 22.5783 13.6523 22.2958 13.8977 22.0573C14.1431 21.8188 14.4367 21.6362 14.7784 21.5096C15.12 21.383 15.4929 21.3197 15.8971 21.3197C16.2677 21.3197 16.5732 21.366 16.8139 21.4585C17.0544 21.551 17.2758 21.6775 17.4779 21.8383V23.1672C17.3672 23.0504 17.2397 22.9409 17.0953 22.8386C16.951 22.7316 16.7874 22.6488 16.6045 22.5904C16.4217 22.5271 16.21 22.4954 15.9693 22.4954C15.6951 22.4954 15.4424 22.5539 15.2114 22.6707C14.9852 22.7875 14.8024 22.958 14.6629 23.1818C14.5233 23.4058 14.4536 23.676 14.4536 23.9925ZM19.1636 25.5625L19.2501 24.6205H21.7549L21.8342 25.5625H19.1636ZM20.4844 23.3134L19.7771 24.9637L19.8348 25.2338L19.2068 26.5483H17.8282L20.4844 21.1152L23.1479 26.5483H21.7621L21.1557 25.285L21.1991 24.971L20.4844 23.3134ZM23.6774 21.4366H24.8972V25.4895H26.9255V26.5483H23.6774V21.4366Z" fill="#F28E56"/>
</g>
<defs>
<clipPath id="clip0_591_2739">
<rect width="35.5651" height="45.9756" fill="white" transform="translate(0.717285 0.941406)"/>
</clipPath>
</defs>
</svg>
