<svg width="1133" height="1095" viewBox="0 0 1133 1095" fill="none" xmlns="http://www.w3.org/2000/svg">
<path d="M1132.54 380.168C1136.47 264.224 1091.51 173.381 994.437 102.862C898.457 32.7457 782.659 3.24109 588.95 0.123241C513.358 -0.187202 476.172 6.47086 416.983 32.5707C301.564 83.4653 261.737 134.671 175.769 342.565L106.274 512.209L61.6247 525.699C-2.14356 545.098 -16.8658 601.782 22.3563 658.002C31.8319 671.584 46.6939 680.092 62.561 684.757C67.6355 686.249 72.9662 686.647 78.2015 685.925L79.5199 685.744C85.9143 684.862 92.1815 682.852 97.3168 678.942C114.562 665.812 125.277 646.438 139.462 604.701C170.994 504.918 206.892 508.567 258.864 617.566C293.534 689.042 292.692 755.814 256.083 791.435C227.709 818.112 107.404 834.862 60.3772 817.528C43.9726 811.482 28.5969 809.408 27.0526 813.631C25.1221 818.909 122.391 858.355 242.692 902.696C362.992 947.037 462.578 980.149 464.508 974.871C466.053 970.649 462.837 965.869 457.368 963.854C440.964 957.807 336.439 751.574 337.985 726.988C338.632 691.289 370.028 680.101 419.241 698.241C459.706 713.155 469.033 724.979 533.485 854.15C572.078 931.865 618.778 1007.77 637.562 1024.28C655.253 1040.39 698.483 1064.7 733.479 1077.6C816.596 1108.24 871.088 1098.38 925.647 1044.22C1008.26 960.865 1029.89 759.206 970.845 635.619C914.563 521.438 808.803 464.488 675.309 479.97C548.827 493.246 481.789 527.234 476.766 581.684C472.129 635.079 548.167 691.855 608.256 676.868C646.214 668.099 648.916 660.709 632.452 597.142C617.017 537.547 628.857 511.963 672.604 507.723C769.299 497.843 814.778 560.126 817.725 701.368C819.066 809.674 799.697 866.024 758.78 876.098C700.171 890.433 650.443 860.125 542.437 744.847C484.091 683.811 420.534 626.843 391.843 610.278C301.715 561.486 282.231 462.065 340.141 344.453C408.733 204.424 516.885 129.289 663.116 119.699C847.562 107.423 1021.77 174.03 1078.96 278.961C1135.11 379.918 1103.9 461.852 1006.82 472.788C941.007 479.675 879.442 454.587 810.096 393.09C667.028 268.483 556.764 217.06 487.989 245.616C460.26 256.958 449.387 269.721 433.171 314.056C396.492 414.337 449.175 484.068 530.304 442.096C665.861 373.468 650.035 376.02 725.496 403.834C773.616 421.571 818.261 448.807 875.772 495.161C920.609 532.052 967.634 569.749 981.014 580.671C1020.83 610.92 1056.54 604.915 1087.42 561.194C1117.15 520.641 1128.28 473.235 1132.54 380.168Z" fill="white"/>
</svg>
