<svg width="50" height="50" viewBox="0 0 50 50" fill="none" xmlns="http://www.w3.org/2000/svg">
<path d="M41.6667 41.6667L33.2292 33.2292M33.2292 33.2292C34.5834 31.875 35.6577 30.2672 36.3906 28.4978C37.1235 26.7284 37.5007 24.8319 37.5007 22.9167C37.5007 21.0015 37.1235 19.1051 36.3906 17.3356C35.6577 15.5662 34.5834 13.9585 33.2292 12.6042C31.8749 11.25 30.2672 10.1757 28.4978 9.44279C26.7283 8.70987 24.8319 8.33264 22.9167 8.33264C21.0015 8.33264 19.105 8.70987 17.3356 9.44279C15.5662 10.1757 13.9584 11.25 12.6042 12.6042C9.86913 15.3393 8.3326 19.0488 8.3326 22.9167C8.3326 26.7847 9.86913 30.4942 12.6042 33.2292C15.3392 35.9643 19.0487 37.5008 22.9167 37.5008C26.7846 37.5008 30.4941 35.9643 33.2292 33.2292Z" stroke="#F7F7F7" stroke-width="4" stroke-linecap="round" stroke-linejoin="round"/>
</svg>
