<svg width="249" height="249" viewBox="0 0 249 249" fill="none" xmlns="http://www.w3.org/2000/svg">
<path d="M76.7281 32.1378C76.7281 22.2964 70.3914 9.99472 62.4018 4.52731C46.9734 -6.40753 18.3207 3.43379 6.19848 23.6632C-2.89323 38.4253 -2.06669 48.2666 9.22906 65.7623C27.688 94.7397 30.7185 103.214 29.0655 122.624C27.9634 136.839 25.2084 145.313 14.4637 165.269C3.44341 186.319 1.23932 192.606 1.23932 205.182C1.23932 225.138 7.85145 236.893 22.4533 243.727C50.8304 256.302 73.973 245.641 73.973 219.67C73.973 202.995 69.2894 186.319 54.6876 150.507C44.4939 125.631 42.8408 118.523 41.7388 95.8332C40.9123 79.1575 41.4633 66.8558 43.6674 61.6618C46.6979 54.2808 47.2489 54.0074 49.1774 58.9281C50.2794 61.9352 53.8611 75.3303 57.1672 88.7255C67.0854 131.918 84.1668 160.349 105.656 169.917C120.534 176.751 128.248 176.478 144.778 168.276C168.472 156.521 183.349 129.731 194.645 78.8842C201.532 47.4465 208.145 51.0003 208.696 86.2652C208.971 107.861 205.665 120.983 191.063 157.342C170.125 210.102 168.747 235.526 186.931 244.82C202.359 252.748 225.226 248.374 238.175 234.979C245.613 227.325 249 225.138 249 205.455C249 185.772 245.338 183.039 236.246 168.003C222.471 145.86 219.165 134.105 220.542 112.235C221.369 95.2864 222.746 92.0059 234.593 74.5102C251.399 50.4535 253.052 36.5117 240.93 20.9296C230.46 7.261 218.338 0.153305 204.839 0.153305C191.89 0.153305 183.073 5.34734 177.288 16.5556C171.227 28.3105 172.329 38.4253 181.42 52.0939C186.104 59.2015 189.686 67.9493 189.686 72.87C189.686 90.0924 159.655 136.566 150.564 133.558C142.574 130.825 144.778 100.754 153.87 90.3657C161.033 82.1646 161.033 69.5895 153.87 65.7623C145.88 61.3884 138.441 64.6688 131.829 75.0569C125.217 85.9918 124.942 95.2865 130.727 107.588C134.86 116.063 134.86 117.43 130.452 125.904L125.493 135.199L120.258 128.638C114.472 121.53 114.748 114.696 120.809 99.9337C127.421 83.8049 109.513 58.6548 96.289 65.489C87.1973 70.4097 86.3708 78.6108 94.636 90.0924C102.35 101.574 105.932 116.336 103.177 126.997C100.422 137.659 94.636 135.745 81.9627 119.616C58.5447 90.3657 54.6876 71.7765 68.4629 51.8204C72.871 45.2595 76.7281 36.2383 76.7281 32.1378Z" fill="#F28E56"/>
</svg>
