<svg width="982" height="791" viewBox="0 0 982 791" fill="none" xmlns="http://www.w3.org/2000/svg">
<path d="M230.003 53.0686C280.172 21.7474 337.08 5.7363 420.787 0.71053C506.516 -4.82905 711.572 30.4896 798.204 66.1168C873.304 96.5502 939.752 147.366 963.549 194.708C997.041 256.995 983.426 334.349 925.17 418.794C882.872 479.839 883.071 494.103 932.734 552.28C968.813 595.726 975.077 608.449 970.635 632.017C959.302 692.155 887.157 712.426 840.649 668.149C821.767 650.896 819.562 642.171 826.606 604.788C834.111 564.966 832.227 559.641 806.484 537.942C773.253 510.021 739.944 508.041 702.516 533.029C624.398 584.994 692.407 739.871 809.851 775.405C888.045 799.636 833.097 795.031 636.449 761.058L428.59 725.29L470.858 705.263C552.911 668.159 617.354 622.378 618.074 603.237C618.962 588.31 611.32 582.902 583.602 576.793C534.704 565.621 509.527 576.662 423.844 648.347C344.99 714.427 302.57 735.267 246.857 734.726C147.729 734.773 9.82572 623.967 1.15876 537.187C-2.86845 492.172 23.4415 444.475 70.8085 412.706C121.284 379.759 164.685 374.145 207.396 397.722C253.537 423.523 255.191 455.6 212.877 511.62C196.139 534.057 187.486 554.44 188.772 568.041C190.701 588.442 193.351 589.703 240.825 593.113C302.617 597.138 338.851 588.703 501.595 526.836C680.664 460.046 704.278 447.08 742.12 404.578C771.585 370.781 776.684 359.039 791.234 281.834C804.711 210.317 804.65 190.215 792.889 160.706C776.105 116.998 758.77 96.644 716.993 73.2163C599.457 7.52918 359.208 67.0427 254.382 189.245C223.523 225.33 220.782 244.984 243.095 264.46C272.743 290.971 329.864 294.249 417.109 275.557C603.575 235.903 672.351 233.512 721.003 266.412C748.446 284.197 754.25 299.358 747.358 335.929C736.929 386.166 692.625 401.682 624.707 379.095C601.965 372.108 570.005 352.762 551.75 337.284C534.43 321.955 515.395 305.514 509.622 300.405C490.586 283.964 448.441 293.128 388.318 326.205C283.14 383.888 236.922 384.028 170.306 328.999C81.0708 256.119 108.852 129.125 230.003 53.0686Z" fill="#F45734"/>
</svg>
