<svg width="56" height="38" viewBox="0 0 56 38" fill="none" xmlns="http://www.w3.org/2000/svg">
<path d="M26.6208 29.7845C24.4721 33.3542 27.3867 33.7131 23.9349 35.5509C20.4832 37.3886 32.2307 39.1278 36.29 37.0693C38.6792 35.8578 44.8849 31.432 40.3189 31.432C35.7528 31.432 33.4698 28.9607 36.29 27.1759C37.3644 26.4894 40.9903 25.9402 44.3477 25.9402C52.6739 25.9402 57.1057 22.5078 55.7627 17.016C54.2855 11.1124 45.6906 3.14928 38.8416 1.22715C25.5465 -2.47982 6.47667 2.6001 1.50778 11.2497C-2.52106 17.9771 1.10489 20.4485 17.4888 22.5079C20.9805 22.9198 24.7407 24.1554 26.0836 25.1165C28.0981 26.6267 28.2324 27.1759 26.6208 29.7845Z" fill="black"/>
</svg>
