<svg width="51" height="70" viewBox="0 0 51 70" fill="none" xmlns="http://www.w3.org/2000/svg">
<path d="M37.3105 25.043C41.3368 33.4444 28.8785 64.0719 26.0368 63.527C21.7421 55.1256 9.66318 53.7705 13.6895 45.3691C19.3263 33.1734 33.15 42.2523 26.7079 31.4118C20.2658 21.1132 13.0184 17.8611 5.23421 22.1973C-1.74474 25.9915 -1.74474 26.2625 5.23421 34.3929C14.0921 44.6915 12.2132 66.3727 4.42902 69.0828C0.431025 70.4748 21.004 70.6256 19.9974 67.0753C18.9908 63.525 45.1619 73.1681 41.1356 68.0865C37.1092 63.005 36.9079 26.398 45.7658 16.0995C52.7447 7.96906 52.7447 5.66543 45.7658 1.87122C37.9816 -2.465 30.7342 0.787155 24.2921 11.0857C17.85 21.9263 31.6737 12.8474 37.3105 25.043Z" fill="black"/>
</svg>
