<svg width="71" height="83" viewBox="0 0 71 83" fill="none" xmlns="http://www.w3.org/2000/svg">
<path d="M27.534 41.1356C38.4484 62.4424 50.599 58.1619 53.7753 51.6584C55.2273 49.1171 53.7753 45.3898 49.3285 40.4767C42.1591 32.514 39.4366 29.0409 39.4366 27.855C39.4366 25.5678 44.0649 23.7042 49.51 23.789C54.5921 23.8737 59.402 25.6525 59.402 27.5161C59.402 28.0244 57.2239 29.2951 54.5014 30.3963C49.147 32.5987 47.7857 34.7165 49.51 37.8507C53.5031 45.1357 58.4944 44.2886 65.4823 35.0553C72.4702 25.822 71.2612 46.7409 70.1333 54.4456C68.4162 66.1756 59.402 78.2668 49.51 76.7434C45.1222 76.0676 43.2433 84.819 39.1926 81.5194C35.1418 78.2198 39.1926 63.1856 27.0379 48.8159C7.4416 25.5271 1.99641e-05 15.3693 1.98124e-05 11.9008C1.952e-05 5.21144 12.6507 -0.239171 27.534 0.00857734C41.425 0.256334 54.572 5.45909 54.572 10.9097C54.572 12.3962 48.6187 16.1126 41.1771 19.3334C26.5419 25.7749 22.821 31.9688 27.534 41.1356Z" fill="#F45734"/>
</svg>
