<svg width="952" height="498" viewBox="0 0 952 498" fill="none" xmlns="http://www.w3.org/2000/svg">
<path d="M99.5473 211.86C92.9157 225.567 110.435 320.537 115.116 319.648C122.189 305.941 142.084 303.73 135.453 290.022C126.168 270.125 103.4 284.937 114.01 267.25C124.621 250.448 136.558 245.142 149.379 252.217C160.874 258.407 160.874 258.849 149.379 272.114C134.789 288.917 137.884 324.291 150.705 328.713C157.29 330.984 123.405 331.23 125.063 325.437C126.721 319.645 83.6156 334.378 90.2472 326.087C96.8788 317.796 97.2104 214.07 82.6209 197.268C71.1262 184.003 71.1262 180.244 82.6209 174.054C95.442 166.979 110.379 172.285 120.989 189.088C131.6 206.774 108.832 191.962 99.5473 211.86Z" fill="#F7F7F7"/>
<path d="M221.589 426H172.052V364.521H11.9419V326.042L169.398 116.395H221.589V323.388H267.145V364.521H221.589V426ZM172.052 323.388V179.643L64.5748 323.388H172.052ZM459.491 430.423C443.568 430.423 428.825 428.064 415.261 423.346C401.698 418.628 389.608 411.847 378.993 403.001C368.378 393.86 359.385 382.95 352.013 370.271C344.642 357.297 339.04 342.554 335.206 326.042C331.373 309.235 329.456 290.953 329.456 271.197C329.456 251.442 331.373 233.308 335.206 216.795C339.04 200.283 344.642 185.54 352.013 172.566C359.385 159.592 368.378 148.682 378.993 139.836C389.608 130.696 401.698 123.766 415.261 119.049C428.825 114.331 443.568 111.972 459.491 111.972C476.003 111.972 491.041 114.331 504.605 119.049C518.168 123.766 530.258 130.696 540.873 139.836C551.488 148.682 560.481 159.592 567.852 172.566C575.224 185.54 580.826 200.283 584.66 216.795C588.493 233.308 590.409 251.442 590.409 271.197C590.409 290.953 588.493 309.235 584.66 326.042C580.826 342.554 575.224 357.297 567.852 370.271C560.481 382.95 551.488 393.86 540.873 403.001C530.258 411.847 518.168 418.628 504.605 423.346C491.041 428.064 476.003 430.423 459.491 430.423ZM459.491 387.963C469.221 387.963 478.067 386.341 486.028 383.098C494.284 379.854 501.508 374.989 507.701 368.502C514.188 361.72 519.495 353.611 523.623 344.176C527.751 334.74 530.847 323.978 532.911 311.888C535.27 299.504 536.45 285.941 536.45 271.197C536.45 256.454 535.27 243.038 532.911 230.949C530.847 218.565 527.751 207.655 523.623 198.219C519.495 188.783 514.188 180.822 507.701 174.335C501.508 167.848 494.284 162.983 486.028 159.74C478.067 156.496 469.221 154.874 459.491 154.874C450.055 154.874 441.357 156.496 433.395 159.74C425.434 162.983 418.21 167.848 411.723 174.335C405.531 180.822 400.223 188.783 395.8 198.219C391.672 207.655 388.429 218.565 386.07 230.949C384.006 243.038 382.974 256.454 382.974 271.197C382.974 285.941 384.006 299.504 386.07 311.888C388.429 323.978 391.672 334.74 395.8 344.176C400.223 353.611 405.531 361.72 411.723 368.502C418.21 374.989 425.434 379.854 433.395 383.098C441.357 386.341 450.055 387.963 459.491 387.963ZM795.72 430.423C779.797 430.423 765.054 428.064 751.49 423.346C737.927 418.628 725.837 411.847 715.222 403.001C704.607 393.86 695.614 382.95 688.242 370.271C680.871 357.297 675.269 342.554 671.435 326.042C667.602 309.235 665.686 290.953 665.686 271.197C665.686 251.442 667.602 233.308 671.435 216.795C675.269 200.283 680.871 185.54 688.242 172.566C695.614 159.592 704.607 148.682 715.222 139.836C725.837 130.696 737.927 123.766 751.49 119.049C765.054 114.331 779.797 111.972 795.72 111.972C812.232 111.972 827.27 114.331 840.834 119.049C854.397 123.766 866.487 130.696 877.102 139.836C887.717 148.682 896.71 159.592 904.082 172.566C911.453 185.54 917.055 200.283 920.889 216.795C924.722 233.308 926.638 251.442 926.638 271.197C926.638 290.953 924.722 309.235 920.889 326.042C917.055 342.554 911.453 357.297 904.082 370.271C896.71 382.95 887.717 393.86 877.102 403.001C866.487 411.847 854.397 418.628 840.834 423.346C827.27 428.064 812.232 430.423 795.72 430.423ZM795.72 387.963C805.45 387.963 814.296 386.341 822.257 383.098C830.513 379.854 837.738 374.989 843.93 368.502C850.417 361.72 855.724 353.611 859.852 344.176C863.98 334.74 867.076 323.978 869.14 311.888C871.499 299.504 872.679 285.941 872.679 271.197C872.679 256.454 871.499 243.038 869.14 230.949C867.076 218.565 863.98 207.655 859.852 198.219C855.724 188.783 850.417 180.822 843.93 174.335C837.738 167.848 830.513 162.983 822.257 159.74C814.296 156.496 805.45 154.874 795.72 154.874C786.284 154.874 777.586 156.496 769.624 159.74C761.663 162.983 754.439 167.848 747.952 174.335C741.76 180.822 736.452 188.783 732.03 198.219C727.901 207.655 724.658 218.565 722.299 230.949C720.235 243.038 719.203 256.454 719.203 271.197C719.203 285.941 720.235 299.504 722.299 311.888C724.658 323.978 727.901 334.74 732.03 344.176C736.452 353.611 741.76 361.72 747.952 368.502C754.439 374.989 761.663 379.854 769.624 383.098C777.586 386.341 786.284 387.963 795.72 387.963Z" fill="#F28E56"/>
<path d="M120.99 189.087C131.601 206.774 106.832 191.962 97.5478 211.859L82.6215 197.268C71.1267 184.002 71.1267 180.244 82.6215 174.054C95.4425 166.979 110.379 172.285 120.99 189.087Z" fill="#F7F7F7"/>
<path d="M860.143 79.5444C864.279 88.8723 867.638 98.751 867.24 101.367C866.842 103.983 860.475 107.665 855.093 109.609C849.572 111.604 845.232 116.86 840.14 110.956C835.049 105.052 836.619 98.1529 843.589 93.4137C851.677 88.1752 847.89 81.2566 837.182 77.1749C821.344 61.026 813.412 81.2411 824.183 101.169C827.393 107.456 831.641 107.018 829.762 115.846C827.884 124.674 862.837 127.589 867.221 138.408C881.237 173 901.911 136.181 901.684 126.783C901.458 117.386 908.225 115.733 914.948 108.057C937.011 83.977 930.942 55.1396 907.18 70.0933C890.196 72.1945 885.521 77.8201 893.581 88.7482C900.432 98.4889 899.52 109.056 890.571 115.391C881.622 121.725 886.928 112.618 885.018 110.42C874.794 98.6533 885.819 99.3076 881.238 93.7931C876.656 88.2786 876.847 74.7241 886.284 67.4604C897.227 59.422 889.211 56.4018 870.732 51.9614C841.758 38.7245 846.235 49.9949 860.143 79.5444Z" fill="#F7F7F7"/>
</svg>
