<svg width="90" height="68" viewBox="0 0 90 68" fill="none" xmlns="http://www.w3.org/2000/svg">
<path d="M33.461 26.4284C38.0376 33.5601 42.0421 41.2405 42.0421 43.4348C42.0421 45.6292 37.258 49.4411 33.0672 51.7063C28.7685 54.0298 25.8512 58.8806 20.9171 54.6747C15.983 50.4689 16.4121 44.6173 21.5607 39.8628C27.5675 34.5598 23.5805 29.3598 14.2478 27.3484C-0.823939 16.0834 -4.82612 33.6454 6.54381 48.6402C9.97624 53.3946 13.4212 52.5062 12.9796 59.9778C12.5381 67.4493 39.3716 57.073 45.445 64.0507C51.8105 71.3639 74.9675 67.6541 73.6038 59.9778C72.24 52.3015 77.6083 50.1031 82.1848 42.9714C97.3447 20.4793 88.7325 -2.40637 71.0294 12.8158C57.2997 16.6559 54.1533 21.8508 62.1623 29.8054C69.0272 36.937 69.5993 45.7144 63.0205 52.0232C56.4416 58.332 59.6718 50.2041 57.8229 48.6402C47.9254 40.2682 57.0908 39.43 52.6254 35.4802C48.1599 31.5304 46.6187 20.394 53.4835 13.2624C61.4925 5.30785 54.5101 3.83112 38.7293 2.49452C13.2003 -4.74544 18.3011 3.9363 33.461 26.4284Z" fill="#F7F7F7"/>
</svg>
