<svg width="104" height="104" viewBox="0 0 104 104" fill="none" xmlns="http://www.w3.org/2000/svg">
<path d="M32.0471 13.423C32.0471 9.31255 29.4004 4.1745 26.0634 1.89091C19.6194 -2.67625 7.65204 1.43419 2.58892 9.88344C-1.20842 16.0491 -0.863198 20.1595 3.85471 27.467C11.5645 39.57 12.8302 43.1095 12.1398 51.2162C11.6795 57.1535 10.5288 60.6931 6.04105 69.0282C1.43821 77.82 0.517626 80.4461 0.517626 85.6983C0.517626 94.0334 3.27932 98.9431 9.37808 101.798C21.2304 107.05 30.8963 102.597 30.8963 91.7498C30.8963 84.7849 28.9402 77.82 22.8414 62.8625C18.5838 52.4722 17.8934 49.5036 17.4331 40.0267C17.0879 33.0618 17.318 27.9237 18.2386 25.7543C19.5044 22.6715 19.7345 22.5573 20.54 24.6125C21.0002 25.8685 22.4962 31.4633 23.877 37.058C28.0196 55.0983 35.154 66.973 44.1295 70.9692C50.3434 73.8237 53.5653 73.7095 60.4696 70.2841C70.3656 65.3744 76.5795 54.1849 81.2974 32.9476C84.1742 19.817 86.9359 21.3013 87.166 36.0304C87.2811 45.0506 85.9002 50.5312 79.8015 65.717C71.0561 87.7535 70.4807 98.3722 78.0754 102.254C84.5194 105.565 94.0703 103.739 99.4786 98.1439C102.585 94.9469 104 94.0334 104 85.8125C104 77.5916 102.47 76.4498 98.6731 70.17C92.9195 60.9215 91.5387 56.0118 92.1141 46.8774C92.4593 39.7983 93.0346 38.4282 97.9827 31.1207C105.002 21.073 105.692 15.2499 100.629 8.74165C96.2566 3.03271 91.1935 0.0640259 85.5551 0.0640259C80.1467 0.0640259 76.4644 2.23342 74.0479 6.91476C71.5164 11.8245 71.9766 16.0491 75.774 21.7581C77.7302 24.7267 79.2261 28.3804 79.2261 30.4357C79.2261 37.6289 66.6834 57.0394 62.886 55.7834C59.549 54.6416 60.4696 42.0819 64.2669 37.7431C67.2588 34.3177 67.2588 29.0655 64.2669 27.467C60.9299 25.6401 57.8229 27.0103 55.0612 31.3491C52.2995 35.9162 52.1845 39.7984 54.601 44.9364C56.327 48.476 56.327 49.0469 54.4859 52.5864L52.4146 56.4685L50.2283 53.7282C47.8118 50.7595 47.9269 47.9051 50.4584 41.7394C53.2201 35.0028 45.7405 24.4984 40.2171 27.3528C36.4197 29.4081 36.0745 32.8334 39.5267 37.629C42.7486 42.4245 44.2446 48.5901 43.0939 53.0431C41.9432 57.4961 39.5267 56.6968 34.2334 49.9603C24.4524 37.7431 22.8414 29.9789 28.595 21.6439C30.4361 18.9036 32.0471 15.1357 32.0471 13.423Z" fill="white"/>
</svg>
