<svg width="560" height="97" viewBox="0 0 560 97" fill="none" xmlns="http://www.w3.org/2000/svg">
<path d="M44.8081 24.9446C37.7146 26.2817 27.4999 30.5445 20.8834 35.2976C-2.66221 52.0899 -1.35285 61.6927 25.0216 62.5641C50.5596 63.4261 31.8812 66.3808 31.011 75.9615C30.1409 85.5422 41.6538 74.7561 49.2817 78.5734C56.2416 82.0563 67.5524 80.3135 65.9168 70.8216C64.2812 61.3297 53.8417 80.8373 55.2611 68.8837C56.6105 57.4441 59.4702 54.9017 67.0921 58.1393C74.3917 61.4378 84.6579 58.334 85.9424 52.7496C87.1662 46.8429 81.1418 38.7965 68.8791 30.4237C58.1492 23.0975 56.738 22.6957 44.8081 24.9446Z" fill="#F45734"/>
<path d="M138.121 68.6707C134.69 74.257 139.343 74.8188 133.832 77.6947C128.321 80.5705 147.078 83.2922 153.559 80.0709C157.374 78.1749 167.283 71.249 159.992 71.249C152.702 71.249 149.056 67.3816 153.559 64.5885C155.275 63.5142 161.064 62.6548 166.425 62.6548C179.719 62.6548 186.796 57.2834 184.651 48.6891C182.293 39.4503 168.569 26.9887 157.633 23.9808C136.405 18.1796 105.957 26.1293 98.0227 39.6652C91.5899 50.1932 97.3794 54.0606 123.54 57.2834C129.115 57.928 135.119 59.8617 137.263 61.3657C140.479 63.7291 140.694 64.5885 138.121 68.6707Z" fill="#F45734"/>
<path d="M258.425 31.0982C263.431 41.4457 247.941 79.1675 244.408 78.4964C239.068 68.1489 224.05 66.48 229.056 56.1325C236.064 41.1119 253.252 52.2938 245.242 38.9422C237.233 26.2581 228.222 22.2527 218.543 27.5933C209.866 32.2664 209.866 32.6002 218.543 42.6139C229.557 55.2979 227.22 82.0012 217.542 85.3391C212.571 87.0535 238.15 87.2393 236.899 82.8666C235.647 78.4939 268.187 90.3706 263.181 84.1121C258.175 77.8535 257.924 32.7671 268.938 20.083C277.615 10.0693 277.615 7.23212 268.938 2.55906C259.259 -2.78159 250.248 1.22388 242.239 13.9079C234.229 27.2595 251.416 16.0776 258.425 31.0982Z" fill="#F45734"/>
<path d="M523.507 56.0385C532.67 73.9272 542.872 70.3334 545.539 64.8732C546.758 62.7396 545.539 59.6103 541.805 55.4853C535.786 48.8 533.5 45.8841 533.5 44.8884C533.5 42.9682 537.386 41.4035 541.957 41.4746C546.224 41.5458 550.263 43.0393 550.263 44.6039C550.263 45.0306 548.434 46.0974 546.148 47.022C541.653 48.8711 540.51 50.6491 541.957 53.2806C545.31 59.3969 549.501 58.6857 555.367 50.9336C561.234 43.1815 560.219 60.7445 559.272 67.2133C557.831 77.0615 550.263 87.213 541.957 85.934C538.274 85.3666 536.696 92.714 533.295 89.9438C529.894 87.1736 533.295 74.5512 523.09 62.4867C506.638 42.934 500.39 34.4057 500.39 31.4936C500.39 25.8774 511.011 21.3012 523.507 21.5092C535.17 21.7172 546.207 26.0853 546.207 30.6615C546.207 31.9095 541.209 35.0297 534.961 37.7338C522.674 43.142 519.55 48.3422 523.507 56.0385Z" fill="#F45734"/>
<path d="M332.863 49.2335C337.008 55.6373 340.635 62.5339 340.635 64.5043C340.635 66.4747 336.302 69.8977 332.506 71.9316C328.613 74.018 325.971 78.3737 321.502 74.5971C317.033 70.8205 317.421 65.5661 322.085 61.2968C327.525 56.535 323.914 51.8657 315.461 50.0595C301.81 39.9442 298.186 55.714 308.484 69.1784C311.592 73.4477 314.713 72.6499 314.313 79.359C313.913 86.068 338.216 76.7506 343.717 83.0163C349.483 89.5831 370.457 86.2519 369.221 79.359C367.986 72.4661 372.848 70.492 376.994 64.0882C390.724 43.8915 382.924 23.3414 366.89 37.0101C354.454 40.4583 351.605 45.123 358.859 52.2658C365.076 58.6696 365.594 66.5512 359.636 72.2162C353.677 77.8811 356.603 70.5828 354.928 69.1784C345.964 61.6608 354.265 60.9082 350.221 57.3615C346.176 53.8148 344.78 43.8149 350.998 37.4111C358.252 30.2683 351.928 28.9423 337.635 27.7421C314.513 21.241 319.132 29.0368 332.863 49.2335Z" fill="#F45734"/>
<path d="M451.839 36.1366C458.834 42.2499 445.545 50.6697 439.248 50.6697C432.951 50.6697 432.266 62.0484 434.151 69.6142C436.037 77.18 446.676 75.7099 449.379 75.6113C452.082 75.5126 454.806 76.6104 455.912 72.0234C456.907 67.9017 455.912 61.7027 452.592 61.7027C449.271 61.7027 441.14 56.6288 445.213 53.7854C460.339 43.228 454.282 36.1366 468.757 50.4216C475.62 59.4093 468.915 61.7027 463.414 61.7027C457.913 61.7027 460.484 63.2888 460.126 65.143C459.019 70.8767 461.896 73.9254 462.339 76.6104C463.154 81.5434 474.731 71.6914 475.62 76.6104C476.51 81.5294 473.522 78.0339 473.522 82.2458C473.522 88.5586 452.945 82.4474 439.944 84.3507C431.674 85.5615 427.259 89.5425 418.959 88.5606C409.858 87.4842 397.973 78.034 397.973 78.034C399.659 69.0047 421.612 87.0889 423.157 78.034C423.997 73.1054 429.452 67.5093 427.354 56.9845C426.675 53.5811 431.55 50.6697 421.119 50.6697C410.687 50.6697 397.974 46.4598 410.986 29.9621C442.044 -1.95405 423.191 11.0998 451.839 36.1366Z" fill="#F45734"/>
</svg>
