<svg width="110" height="76" viewBox="0 0 110 76" fill="none" xmlns="http://www.w3.org/2000/svg">
<path d="M54.7705 1.93497C45.3083 3.71865 31.6826 9.40487 22.8566 15.7451C-8.55152 38.1449 -6.80492 50.9544 28.3767 52.1167C62.4426 53.2666 37.5269 57.208 36.3662 69.9879C35.2055 82.7679 50.5629 68.38 60.738 73.472C70.0219 78.118 85.1098 75.7931 82.928 63.1316C80.7463 50.4701 66.8206 76.4919 68.714 60.5466C70.514 45.2869 74.3287 41.8956 84.4958 46.2144C94.2329 50.6143 107.927 46.4741 109.641 39.0249C111.273 31.1457 103.237 20.4125 86.8795 9.24374C72.5666 -0.528915 70.6842 -1.06485 54.7705 1.93497Z" fill="#211F1D"/>
</svg>
