<svg width="38" height="45" viewBox="0 0 38 45" fill="none" xmlns="http://www.w3.org/2000/svg">
<path d="M14.7365 22.5014C20.578 34.1565 27.0812 31.815 28.7812 28.2575C29.5583 26.8674 28.7812 24.8285 26.4012 22.141C22.564 17.7853 21.1069 15.8855 21.1069 15.2368C21.1069 13.9857 23.584 12.9662 26.4983 13.0126C29.2183 13.0589 31.7926 14.032 31.7926 15.0514C31.7926 15.3294 30.6269 16.0245 29.1697 16.6269C26.304 17.8316 25.5754 18.9901 26.4983 20.7045C28.6354 24.6895 31.3069 24.2261 35.0469 19.1754C38.7868 14.1247 38.1398 25.5675 37.5361 29.7821C36.6171 36.1986 31.7926 42.8126 26.4983 41.9792C24.1499 41.6096 23.1443 46.3967 20.9763 44.5918C18.8083 42.7869 20.9763 34.563 14.471 26.7026C3.98282 13.9634 2.21516e-06 8.40695 2.13223e-06 6.50961C1.97228e-06 2.85047 6.77081 -0.131079 14.7365 0.00444514C22.1711 0.13997 29.2076 2.98594 29.2076 5.96746C29.2076 6.7806 26.0213 8.81352 22.0384 10.5753C14.2055 14.0989 12.214 17.487 14.7365 22.5014Z" fill="black"/>
</svg>
