<svg width="86" height="115" viewBox="0 0 86 115" fill="none" xmlns="http://www.w3.org/2000/svg">
<path d="M62.7206 41.1434C69.3984 54.9462 48.7359 105.265 44.0228 104.369C36.8998 90.5665 16.8666 88.3402 23.5443 74.5374C32.8932 54.501 55.8203 69.4168 45.1359 51.6067C34.4514 34.6872 22.4313 29.3442 9.52096 36.4682C-2.05386 42.7017 -2.05386 43.147 9.52096 56.5046C24.2121 73.4241 21.0959 109.044 8.18552 113.497C1.55471 115.784 35.6756 116.032 34.0062 110.199C32.3368 104.366 75.7423 120.209 69.0645 111.86C62.3868 103.512 62.0528 43.3696 76.7439 26.45C88.3188 13.0924 88.3188 9.30779 76.7439 3.07426C63.8336 -4.04978 51.8135 1.29323 41.1291 18.2128C30.4446 36.0229 53.3717 21.1071 62.7206 41.1434Z" fill="#211F1D"/>
</svg>
