<svg width="607" height="627" viewBox="0 0 607 627" fill="none" xmlns="http://www.w3.org/2000/svg">
<path d="M308.933 1.67837C274.203 -3.519 202.838 21.1027 147.272 58.2793C105.913 85.5719 50.2473 148.027 28.0597 190.927C-17.5287 280.001 -4.61365 380.925 58.958 438.478C102.302 477.719 136.134 474.229 246.404 419.218C348.608 368.276 391.375 359.755 429.829 384.071C455.419 399.364 472.035 437.153 463.497 459.167C453.747 484.457 414.795 513.93 389.605 515.619C364.85 516.827 358.154 511.64 330.692 468.407C303.184 424.258 285.875 418.21 252.971 440.035C207.556 468.904 176.627 538.883 191.549 579.511C229.543 685.643 476.618 600.518 563.777 451.974C623.386 349.348 620.917 236.886 557.995 192.168C539.397 178.831 527.247 174.829 506.687 177.211C471.939 180.745 457.14 197.091 463.115 224.371C466.468 236.155 471.313 250.163 473.906 256.01C476.935 261.377 483.363 279.444 487.429 296.248C497.396 329.766 485.58 350.561 457.25 353.782C442.145 354.979 441.135 353.19 437.883 316.128C435.001 286.4 431.259 276.014 420.461 271.486C396.89 259.77 391.575 263.706 378.027 304.805C362.101 353.373 360.406 356.212 325.64 368.479C222.741 405.668 146.426 350.575 145.837 238.941C144.647 160.88 190.504 58.926 239.929 27.5634C288.438 -3.75444 347.951 9.88311 367.3 56.2691C387.751 106.277 351.386 168.709 298.736 172.658C277.213 174.168 246.114 186.255 236.539 196.832C234.363 199.236 232.696 211.725 233.78 224.079C235.57 268.565 286.999 295.004 335.239 276.566C362.763 266.491 403.584 219.465 413.834 185.879C439.669 106.04 386.737 13.5038 308.933 1.67837Z" fill="#F45734"/>
</svg>
