<svg width="110" height="83" viewBox="0 0 110 83" fill="none" xmlns="http://www.w3.org/2000/svg">
<path d="M41.0161 32.6413C46.5454 41.1835 51.3835 50.383 51.3835 53.0114C51.3835 55.6398 45.6034 60.2058 40.5402 62.919C35.3467 65.702 31.8221 71.5123 25.8608 66.4745C19.8996 61.4368 20.418 54.4278 26.6384 48.7329C33.8956 42.381 29.0787 36.1525 17.8032 33.7431C-0.406106 20.25 -5.24143 41.2857 8.49541 59.2464C12.6424 64.9413 16.8045 63.8771 16.271 72.8265C15.7375 81.7759 48.157 69.3471 55.4949 77.7051C63.1854 86.4648 91.1632 82.0212 89.5155 72.8265C87.8678 63.6318 94.3536 60.9986 99.8829 52.4564C118.199 25.5154 107.794 -1.89697 86.4052 16.3361C69.8173 20.9358 66.0159 27.1582 75.6922 36.6861C83.9862 45.2284 84.6774 55.7419 76.729 63.2985C68.7807 70.8552 72.6833 61.1197 70.4495 59.2464C58.4916 49.2184 69.565 48.2145 64.17 43.4834C58.7749 38.7524 56.9128 25.4133 65.2068 16.871C74.883 7.3431 66.447 5.57429 47.381 3.9733C16.5376 -4.69868 22.7003 5.70026 41.0161 32.6413Z" fill="#F7F7F7"/>
</svg>
