<svg width="105" height="105" viewBox="0 0 105 105" fill="none" xmlns="http://www.w3.org/2000/svg">
<path d="M72.7207 34.171C82.0514 42.3256 64.3252 53.5571 55.9256 53.5571C47.5259 53.5571 46.6115 68.7355 49.1269 78.8277C51.6423 88.92 65.8346 86.9589 69.4397 86.8273C73.0448 86.6958 76.6783 88.1601 78.1546 82.0414C79.4811 76.5434 78.1546 68.2744 73.725 68.2744C69.2954 68.2744 58.4488 61.506 63.883 57.7131C84.0596 43.6303 75.9799 34.171 95.2891 53.2261C104.443 65.215 95.4997 68.2744 88.1616 68.2744C80.8235 68.2744 84.2528 70.3901 83.7754 72.8634C82.2991 80.5118 86.1366 84.5785 86.7279 88.1601C87.8143 94.7403 103.257 81.5985 104.444 88.1601C105.63 94.7218 101.644 90.0589 101.644 95.6773C101.644 104.098 74.1964 95.9463 56.8545 98.4852C45.8227 100.1 39.9328 105.411 28.8608 104.101C16.7219 102.665 0.867188 90.0591 0.867188 90.0591C3.11672 78.0147 32.4006 102.138 34.4607 90.0591C35.582 83.4847 42.8588 76.0199 40.0594 61.9806C39.1541 57.4407 45.657 53.5571 31.7421 53.5571C17.8272 53.5571 0.868321 47.9414 18.2264 25.9346C59.6551 -16.6393 34.5067 0.77359 72.7207 34.171Z" fill="#F7F7F7"/>
</svg>
