<svg width="840" height="549" viewBox="0 0 840 549" fill="none" xmlns="http://www.w3.org/2000/svg">
<path d="M85 175H23C21.3431 175 20 173.657 20 172V149" stroke="white" stroke-opacity="0.7" stroke-width="2"/>
<path d="M1.34107 141L7.92325 133.98C8.22816 133.649 8.48667 133.324 8.69879 133.006C8.92416 132.675 9.08987 132.343 9.19593 132.012C9.31525 131.667 9.3749 131.309 9.3749 130.938C9.3749 130.633 9.31525 130.335 9.19593 130.043C9.07662 129.751 8.89765 129.486 8.65902 129.248C8.43365 129.009 8.15525 128.817 7.82382 128.671C7.49239 128.525 7.11456 128.452 6.69033 128.452C6.09376 128.452 5.57673 128.591 5.13925 128.87C4.71502 129.135 4.39022 129.526 4.16485 130.043C3.93947 130.547 3.82679 131.15 3.82679 131.853H2.1365C2.1365 130.858 2.31547 129.99 2.67342 129.248C3.03136 128.492 3.54839 127.909 4.2245 127.498C4.91387 127.073 5.73582 126.861 6.69033 126.861C7.45925 126.861 8.1221 126.994 8.6789 127.259C9.2357 127.511 9.69307 127.842 10.051 128.253C10.409 128.651 10.6741 129.082 10.8464 129.546C11.0188 130.01 11.105 130.454 11.105 130.878C11.105 131.594 10.9326 132.303 10.5879 133.006C10.2432 133.709 9.79913 134.338 9.25559 134.895L4.82107 139.409H11.1646V141H1.34107ZM14.7507 134.04C14.7507 134.849 14.8303 135.598 14.9894 136.287C15.1484 136.963 15.3804 137.553 15.6854 138.057C15.9903 138.547 16.3548 138.932 16.7791 139.21C17.2166 139.475 17.7004 139.608 18.2307 139.608C18.7743 139.608 19.2582 139.475 19.6824 139.21C20.1066 138.932 20.4712 138.547 20.7761 138.057C21.081 137.553 21.313 136.963 21.4721 136.287C21.6312 135.598 21.7107 134.849 21.7107 134.04C21.7107 133.231 21.6312 132.489 21.4721 131.813C21.313 131.123 21.081 130.533 20.7761 130.043C20.4712 129.539 20.1066 129.155 19.6824 128.89C19.2582 128.611 18.7743 128.472 18.2307 128.472C17.7004 128.472 17.2166 128.611 16.7791 128.89C16.3548 129.155 15.9903 129.539 15.6854 130.043C15.3804 130.533 15.1484 131.123 14.9894 131.813C14.8303 132.489 14.7507 133.231 14.7507 134.04ZM13.0604 134.04C13.0604 132.648 13.2792 131.415 13.7167 130.341C14.1542 129.267 14.7574 128.426 15.5263 127.816C16.3084 127.193 17.2099 126.881 18.2307 126.881C19.2515 126.881 20.1464 127.193 20.9153 127.816C21.6975 128.426 22.3073 129.267 22.7448 130.341C23.1823 131.415 23.401 132.648 23.401 134.04C23.401 135.432 23.1823 136.665 22.7448 137.739C22.3073 138.813 21.6975 139.661 20.9153 140.284C20.1464 140.894 19.2515 141.199 18.2307 141.199C17.2099 141.199 16.3084 140.894 15.5263 140.284C14.7574 139.661 14.1542 138.813 13.7167 137.739C13.2792 136.665 13.0604 135.432 13.0604 134.04ZM36.5139 131.853H38.3036L35.1816 136.287L38.5025 141H36.7128L34.3265 137.54L31.9402 141H30.1505L33.4714 136.287L30.3494 131.853H32.1391L34.3265 135.034L36.5139 131.853Z" fill="white" fill-opacity="0.7"/>
<path d="M20 522V545C20 546.657 21.3431 548 23 548H224C225.657 548 227 546.657 227 545V518" stroke="white" stroke-opacity="0.7" stroke-width="2"/>
<path d="M7.03109 507.139V506.046C7.48183 506.046 7.87954 505.986 8.22423 505.867C8.56892 505.734 8.86057 505.562 9.0992 505.35C9.33783 505.124 9.5168 504.866 9.63611 504.574C9.76869 504.283 9.83497 503.971 9.83497 503.64C9.83497 503.202 9.75543 502.818 9.59634 502.486C9.43726 502.141 9.19863 501.876 8.88046 501.691C8.57554 501.505 8.19109 501.412 7.72709 501.412C7.07749 501.412 6.52731 501.618 6.07657 502.029C5.62583 502.427 5.40046 502.93 5.40046 503.54H3.78971C3.78971 502.811 3.95543 502.175 4.28686 501.631C4.63154 501.088 5.09554 500.663 5.67886 500.358C6.27543 500.04 6.95154 499.881 7.7072 499.881C8.50263 499.881 9.18537 500.053 9.75543 500.398C10.3387 500.743 10.7829 501.194 11.0878 501.75C11.4059 502.307 11.565 502.917 11.565 503.58C11.565 504.229 11.3728 504.826 10.9883 505.37C10.6039 505.913 10.0736 506.344 9.39749 506.662C8.72137 506.98 7.93257 507.139 7.03109 507.139ZM7.62766 514.199C6.95154 514.199 6.34171 514.099 5.79817 513.901C5.25463 513.702 4.79063 513.43 4.40617 513.085C4.02171 512.727 3.72343 512.316 3.51131 511.852C3.2992 511.375 3.19314 510.865 3.19314 510.321H4.90331C4.90331 510.759 5.016 511.15 5.24137 511.494C5.48 511.839 5.8048 512.111 6.21577 512.31C6.62674 512.509 7.09737 512.608 7.62766 512.608C8.15794 512.608 8.61532 512.509 8.99977 512.31C9.39749 512.098 9.7024 511.806 9.91452 511.435C10.1266 511.064 10.2327 510.626 10.2327 510.122C10.2327 509.698 10.1465 509.327 9.97417 509.009C9.81509 508.677 9.58972 508.405 9.29806 508.193C9.0064 507.968 8.66834 507.802 8.28389 507.696C7.89943 507.59 7.48183 507.537 7.03109 507.537V506.443C7.7072 506.443 8.33692 506.516 8.92023 506.662C9.5168 506.808 10.0405 507.04 10.4912 507.358C10.9552 507.663 11.3131 508.061 11.565 508.551C11.8302 509.042 11.9627 509.632 11.9627 510.321C11.9627 511.103 11.7705 511.786 11.3861 512.369C11.0149 512.953 10.5045 513.403 9.85486 513.722C9.20526 514.04 8.46286 514.199 7.62766 514.199ZM13.2533 511.216L20.969 500.08H21.665V514H19.9747V510.5V510.281V503.838L16.0373 509.725H20.6707H21.0087H23.8524V511.216H13.2533ZM36.7744 504.853H38.5641L35.442 509.287L38.7629 514H36.9732L34.5869 510.54L32.2007 514H30.4109L33.7319 509.287L30.6098 504.853H32.3995L34.5869 508.034L36.7744 504.853Z" fill="white" fill-opacity="0.7"/>
<path d="M82 8.8828C82 3.97696 85.977 0 90.8828 0H831.117C836.023 0 840 3.97697 840 8.88281V521.125C840 526.031 836.023 530.008 831.117 530.008H90.8828C85.977 530.008 82 526.031 82 521.125V8.8828Z" fill="white"/>
<path d="M839.459 168.773L82.5407 168.773C82.2421 168.773 82 168.531 82 168.233L82 8.23732C82 3.68797 85.688 0 90.2373 0L831.763 0C836.312 0 840 3.68799 840 8.23734V168.233C840 168.531 839.758 168.773 839.459 168.773Z" fill="#FDDDD6"/>
<path d="M839.459 349.391L82.5407 349.391C82.2421 349.391 82 349.149 82 348.85L82 181.158C82 180.859 82.2421 180.617 82.5407 180.617L839.459 180.617C839.758 180.617 840 180.859 840 181.158V348.85C840 349.149 839.758 349.391 839.459 349.391Z" fill="#FDDDD6"/>
<path d="M831.763 530.008H90.2373C85.688 530.008 82 526.32 82 521.77L82 361.775C82 361.476 82.2421 361.234 82.5407 361.234L839.459 361.234C839.758 361.234 840 361.476 840 361.775V521.77C840 526.32 836.312 530.008 831.763 530.008Z" fill="#FDDDD6"/>
<path d="M119.308 529.467V0.540693C119.308 0.242077 119.55 0 119.848 0H216.478C216.776 0 217.019 0.242094 217.019 0.54071V529.467C217.019 529.766 216.776 530.008 216.478 530.008H119.848C119.55 530.008 119.308 529.766 119.308 529.467Z" fill="#F45734" fill-opacity="0.2"/>
<path d="M237.153 529.467V0.540693C237.153 0.242077 237.395 0 237.694 0H334.324C334.622 0 334.864 0.242094 334.864 0.54071V529.467C334.864 529.766 334.622 530.008 334.324 530.008H237.694C237.395 530.008 237.153 529.766 237.153 529.467Z" fill="#F45734" fill-opacity="0.2"/>
<path d="M335 0V530M355 530V0" stroke="#F45734"/>
<path d="M453 0V530M473 530V0" stroke="#F45734"/>
<path d="M571 0V530M591 530V0" stroke="#F45734"/>
<path d="M688 0V530M708 530V0" stroke="#F45734"/>
<path d="M217 0V530M237 530V0" stroke="#F45734"/>
<path d="M840 169L80 169M80 181L840 181" stroke="#F45734"/>
<path d="M840 349L80 349M80 361L840 361" stroke="#F45734"/>
<path d="M354.998 529.467V0.540693C354.998 0.242077 355.24 0 355.539 0H452.168C452.467 0 452.709 0.242094 452.709 0.54071V529.467C452.709 529.766 452.467 530.008 452.168 530.008H355.539C355.24 530.008 354.998 529.766 354.998 529.467Z" fill="#F45734" fill-opacity="0.2"/>
<path d="M472.844 529.467V0.540693C472.844 0.242077 473.086 0 473.384 0H570.014C570.313 0 570.555 0.242094 570.555 0.54071V529.467C570.555 529.766 570.313 530.008 570.014 530.008H473.384C473.086 530.008 472.844 529.766 472.844 529.467Z" fill="#F45734" fill-opacity="0.2"/>
<path d="M590.689 529.467V0.540693C590.689 0.242077 590.932 0 591.23 0H687.86C688.158 0 688.4 0.242094 688.4 0.54071V529.467C688.4 529.766 688.158 530.008 687.86 530.008H591.23C590.932 530.008 590.689 529.766 590.689 529.467Z" fill="#F45734" fill-opacity="0.2"/>
<path d="M708.534 529.467V0.540693C708.534 0.242077 708.776 0 709.075 0H805.704C806.003 0 806.245 0.242094 806.245 0.54071V529.467C806.245 529.766 806.003 530.008 805.704 530.008H709.075C708.776 530.008 708.534 529.766 708.534 529.467Z" fill="#F45734" fill-opacity="0.2"/>
</svg>
