<svg width="86" height="116" viewBox="0 0 86 116" fill="none" xmlns="http://www.w3.org/2000/svg">
<path d="M62.7206 41.4501C69.3984 55.2529 48.7359 105.571 44.0228 104.676C36.8998 90.8731 16.8666 88.6468 23.5443 74.844C32.8932 54.8077 55.8203 69.7235 45.1359 51.9134C34.4514 34.9938 22.4313 29.6508 9.52096 36.7748C-2.05386 43.0084 -2.05386 43.4536 9.52096 56.8112C24.2121 73.7308 21.0959 109.351 8.18552 113.804C1.55471 116.09 35.6756 116.338 34.0062 110.505C32.3368 104.673 75.7423 120.515 69.0645 112.167C62.3868 103.818 62.0528 43.6762 76.7439 26.7567C88.3188 13.3991 88.3188 9.61443 76.7439 3.3809C63.8336 -3.74314 51.8135 1.59987 41.1291 18.5195C30.4446 36.3296 53.3717 21.4137 62.7206 41.4501Z" fill="#F7F7F7"/>
</svg>
