<svg width="110" height="83" viewBox="0 0 110 83" fill="none" xmlns="http://www.w3.org/2000/svg">
<path d="M41.0161 32.3346C46.5454 40.8769 51.3835 50.0764 51.3835 52.7048C51.3835 55.3332 45.6034 59.8991 40.5402 62.6123C35.3467 65.3954 31.8221 71.2056 25.8608 66.1679C19.8996 61.1301 20.418 54.1211 26.6384 48.4263C33.8956 42.0743 29.0787 35.8458 17.8032 33.4365C-0.406106 19.9433 -5.24143 40.9791 8.49541 58.9398C12.6424 64.6346 16.8045 63.5705 16.271 72.5199C15.7375 81.4693 48.157 69.0405 55.4949 77.3985C63.1854 86.1582 91.1632 81.7146 89.5155 72.5199C87.8678 63.3252 94.3536 60.692 99.8829 52.1497C118.199 25.2087 107.794 -2.20361 86.4052 16.0294C69.8173 20.6291 66.0159 26.8516 75.6922 36.3795C83.9862 44.9217 84.6774 55.4353 76.729 62.9919C68.7807 70.5485 72.6833 60.813 70.4495 58.9398C58.4916 48.9118 69.565 47.9079 64.17 43.1768C58.7749 38.4457 56.9128 25.1066 65.2068 16.5644C74.883 7.03646 66.447 5.26765 47.381 3.66666C16.5376 -5.00533 22.7003 5.39362 41.0161 32.3346Z" fill="#211F1D"/>
</svg>
