<svg width="42" height="43" viewBox="0 0 42 43" fill="none" xmlns="http://www.w3.org/2000/svg">
<path fill-rule="evenodd" clip-rule="evenodd" d="M28.2828 1.68323C27.6695 2.44678 24.421 13.6764 23.7071 17.4994L23.2958 19.7016L29.9835 17.2945C33.6617 15.9711 37.5976 14.5594 38.7305 14.1583C40.0587 13.6881 40.855 12.9948 40.9733 12.2066C41.3746 9.52368 37.188 4.32696 32.8531 2.12648C30.173 0.766262 29.102 0.662035 28.2828 1.68323ZM35.6385 7.16744C37.3393 8.85908 38.7299 10.59 38.7293 11.0139C38.7287 11.463 36.1552 12.6868 32.55 13.9527C29.152 15.1455 26.3719 16.0256 26.3719 15.9079C26.3719 15.4646 29.4527 4.15481 29.6734 3.78768C30.2237 2.87188 32.7731 4.31642 35.6385 7.16744ZM12.5926 7.48832C8.36893 8.98907 4.54777 12.5656 2.50624 16.9291C0.508858 21.1977 0.496499 27.5497 2.478 31.6924C4.28529 35.4698 7.65978 38.8372 11.365 40.5599C15.5004 42.4823 21.954 42.4799 26.0776 40.5535C34.1231 36.7955 38.5434 28.0017 36.3453 20.1279C35.5673 17.3401 34.887 17.3296 27.3412 19.988C24.1515 21.1116 21.3343 22.0309 21.08 22.0309C20.8264 22.0309 21.4479 18.8801 22.4613 15.0296C23.9184 9.4944 24.1526 7.87771 23.5812 7.30915C22.3018 6.03617 16.4073 6.1322 12.5926 7.48832ZM21.5203 9.88086C21.3655 10.6058 20.3933 14.324 19.3598 18.1447C18.3264 21.9648 17.6167 25.2262 17.7827 25.3914C18.0351 25.642 25.2308 23.2588 31.8697 20.7257C33.9936 19.9154 34.5992 20.7322 34.5762 24.3731C34.5315 31.3698 29.8464 37.3869 22.8703 39.4076C15.667 41.4945 7.74806 37.7446 4.65252 30.7819C2.85758 26.7446 2.57451 23.7969 3.63323 20.1724C5.66416 13.2214 11.6987 8.65414 18.9373 8.58915C21.6032 8.56514 21.7815 8.65414 21.5203 9.88086Z" fill="#8B8B8B" stroke="#8B8B8B"/>
</svg>
