<svg width="38" height="44" viewBox="0 0 38 44" fill="none" xmlns="http://www.w3.org/2000/svg">
<path fill-rule="evenodd" clip-rule="evenodd" d="M13.212 1.92982C13.212 3.81642 13.3414 3.85965 19.0217 3.85965C24.702 3.85965 24.8314 3.81642 24.8314 1.92982C24.8314 0.0432281 24.702 0 19.0217 0C13.3414 0 13.212 0.0432281 13.212 1.92982ZM31.545 4.48877C30.3514 5.80337 30.4319 6.04421 32.8371 8.36772C35.2857 10.7329 35.4585 10.7823 36.663 9.45537C37.8366 8.16316 37.7885 7.89298 35.9697 5.57719C33.707 2.69558 33.2709 2.58905 31.545 4.48877ZM11.8835 6.98442C-0.702598 11.9533 -4.05905 28.3499 5.54243 37.9596C9.07085 41.4905 14.6706 44 19.0217 44C23.3728 44 28.9725 41.4905 32.5009 37.9596C36.3872 34.0699 38 30.1817 38 24.7018C38 11.0965 24.5603 1.97923 11.8835 6.98442ZM26.3667 11.6793C27.8509 12.5809 29.5256 13.8824 30.0888 14.5717C32.1159 17.0512 34.0928 22.0525 34.0928 24.7018C34.0928 30.0767 29.5636 36.6736 24.5874 38.5471C21.7894 39.6008 16.2539 39.6008 13.456 38.5471C8.47361 36.6713 3.96762 30.0999 3.93353 24.6601C3.90642 20.3365 7.38294 14.2259 11.1492 11.9757C15.4414 9.41214 22.4114 9.27628 26.3667 11.6793ZM17.0851 20.8421V28.5614H19.0217H20.9582V20.8421V13.1228H19.0217H17.0851V20.8421Z" fill="#8B8B8B"/>
</svg>
