<svg width="47" height="47" viewBox="0 0 47 47" fill="none" xmlns="http://www.w3.org/2000/svg">
<path fill-rule="evenodd" clip-rule="evenodd" d="M9.89658 1.5326C5.89808 3.07557 2.62719 6.52467 1.48196 10.405C1.06641 11.8134 0.925312 16.3164 1.03654 24.5914C1.21883 38.0778 1.37073 38.7768 4.89086 42.3028C8.48977 45.9087 8.95218 46 23.6001 46C38.2481 46 38.7105 45.9087 42.3094 42.3028C45.9089 38.6974 46 38.2341 46 23.5597C46 8.88528 45.9089 8.42203 42.3094 4.81663C38.7538 1.25403 38.1647 1.13126 24.1151 1.01673C15.3179 0.945029 11.014 1.10134 9.89658 1.5326ZM35.7265 3.50116C39.1122 4.35492 42.4443 7.51462 43.416 10.7919C44.3944 14.093 44.5221 32.1303 43.5927 35.8265C42.7621 39.1317 39.1441 42.7562 35.8449 43.5883C32.662 44.3915 14.5382 44.3915 11.3554 43.5883C8.05619 42.7562 4.43823 39.1317 3.60763 35.8265C2.80587 32.638 2.80587 14.4814 3.60763 11.2928C4.38261 8.20795 8.08915 4.34306 11.014 3.56874C13.8039 2.83053 32.8608 2.77791 35.7265 3.50116ZM7.46555 17.1975C7.27657 17.3863 7.12209 20.4041 7.12209 23.9038C7.12209 29.9219 7.1777 30.266 8.15197 30.266C8.97845 30.266 9.18185 29.9219 9.18185 28.5234C9.18185 27.5654 9.50368 26.5136 9.8971 26.1865C10.4718 25.7088 10.9023 26.0519 12.0856 27.9281C13.1319 29.5871 13.9002 30.2644 14.7365 30.265C15.8632 30.266 15.8246 30.1334 13.8462 27.2146L11.7777 24.1638L13.5696 22.5878C15.5913 20.8096 15.7391 20.4645 14.4795 20.4645C13.9945 20.4645 12.6041 21.4415 11.3899 22.6353L9.18185 24.806V20.8297C9.18185 17.8599 9.0078 16.8534 8.49543 16.8534C8.11747 16.8534 7.65402 17.0082 7.46555 17.1975ZM37.5035 23.5597C37.5035 29.9219 37.5565 30.266 38.5334 30.266C39.5102 30.266 39.5633 29.9219 39.5633 23.5597C39.5633 17.1975 39.5102 16.8534 38.5334 16.8534C37.5565 16.8534 37.5035 17.1975 37.5035 23.5597ZM17.7242 22.0518C15.9543 24.1586 15.9126 27.0723 17.6238 29.0651C19.2803 30.9944 22.699 31.1141 24.1702 29.2941C24.7062 28.6312 25.145 27.7656 25.145 27.3715C25.145 26.3196 23.7201 26.4981 23.1176 27.6258C22.3571 29.0491 21.0455 29.3663 19.6655 28.4605C18.7324 27.8476 18.4508 27.1961 18.4508 25.6479C18.4508 24.5043 18.8004 23.2832 19.2597 22.8225C20.3941 21.6866 22.4225 21.8037 23.0852 23.0438C23.7294 24.2499 25.145 24.4269 25.145 23.3018C25.145 21.8305 23.1836 20.4645 21.0713 20.4645C19.4544 20.4645 18.7942 20.7776 17.7242 22.0518ZM28.3494 21.2677C27.1234 22.1276 26.7794 24.0756 27.853 24.0756C28.2099 24.0756 28.7912 23.6113 29.145 23.0438C29.8824 21.8604 31.9499 21.6768 32.8124 22.7173C33.5864 23.652 32.7104 24.3459 30.1821 24.8024C27.8844 25.2172 26.6898 26.2948 26.6898 27.9523C26.6898 29.2224 28.3891 30.7844 29.7655 30.7788C30.1981 30.7767 31.1888 30.4424 31.9679 30.0354C32.747 29.6284 33.384 29.4891 33.384 29.7254C33.384 30.4383 35.0627 30.8541 35.6327 30.283C35.9989 29.9162 35.9716 29.5567 35.5467 29.1311C35.1986 28.7824 34.9288 27.1104 34.9288 25.2987C34.9288 23.0655 34.6822 21.8388 34.1198 21.2749C33.0812 20.2349 29.8273 20.2303 28.3494 21.2677ZM33.384 26.1731C33.384 27.7161 32.247 28.7184 30.4978 28.7184C28.9066 28.7184 28.6986 28.5729 28.8422 27.5608C28.9576 26.7509 29.4705 26.3046 30.5518 26.0746C32.9427 25.5649 33.384 25.5804 33.384 26.1731Z" fill="#8B8B8B" stroke="#8B8B8B"/>
</svg>
