<svg width="35" height="50" viewBox="0 0 35 50" fill="none" xmlns="http://www.w3.org/2000/svg">
<path d="M6.22252 10.5918C7.62119 12.0415 8.97567 13.5274 10.4933 14.831C11.3098 15.5322 12.2313 16.031 13.0966 16.6529C14.5773 17.7171 16.156 18.5844 17.6784 19.5686C18.2689 19.9503 19.0345 20.3168 19.7141 20.4845C20.4923 20.6767 21.2125 21.0829 21.9623 21.3741C23.3683 21.92 25.0595 21.9463 26.5495 21.9562C27.6824 21.9639 28.6302 21.6248 29.7323 21.3762C30.7829 21.1392 32.0802 20.9279 32.8891 20.072C33.7458 19.1655 33.7981 17.1082 33.5281 15.9884C33.2075 14.659 32.6151 13.5806 32.0363 12.3695C31.4384 11.1182 30.6724 9.75792 29.4397 9.09403C28.2791 8.46898 26.9843 8.05957 25.953 7.19373C25.4036 6.73243 24.7365 6.39394 24.2445 5.87901C23.5769 5.18022 22.7986 4.60349 22.0286 4.03738C21.5427 3.68017 21.1078 3.23264 20.6622 2.82522C20.0548 2.26977 18.9943 2.01302 18.2309 1.82866C17.4726 1.64551 16.7167 1.45176 15.9291 1.43447C14.9717 1.41343 14.1694 1.68474 13.2427 1.86193C12.4065 2.02181 11.6509 2.1296 10.8442 2.45283C10.4674 2.60381 10.1094 2.72518 9.71751 2.81839C9.22353 2.93588 8.88096 3.30276 8.4602 3.56734C7.17964 4.37258 5.9399 5.90467 5.71554 7.48633C5.62532 8.12224 5.64387 8.61141 5.96843 9.18113C6.27045 9.71119 6.03492 10.0408 6.60862 10.394M13.6031 17.4585C13.2389 19.2786 12.8872 21.1052 12.3346 22.8856C11.69 24.9622 10.6635 26.8846 10.2392 29.0143C10.0406 30.011 9.9866 31.0277 9.7891 32.0187C9.5992 32.9718 9.32944 33.8199 8.95909 34.7198C8.26444 36.4075 7.31211 38.1249 6.20926 39.5632C5.73941 40.1759 5.20966 40.7418 4.73733 41.3578C4.306 41.9202 3.59374 42.1903 3.08551 42.6721C2.09406 43.6119 1.83249 44.6346 1.45824 45.9359C1.11257 47.1375 1.92077 47.4538 2.90224 47.4604C3.77084 47.4663 4.46672 48.1283 5.14525 48.5782C5.55649 48.8509 6.0953 49.4686 6.59793 49.4903C7.18613 49.5155 7.71597 49.4769 8.27763 49.2788C9.42041 48.8757 10.1612 47.3947 10.6954 46.327L10.7038 46.31C11.0765 45.5649 11.5397 44.8295 11.8523 44.0566C12.2603 43.0477 12.4669 41.9802 12.8767 40.967C13.5562 39.2872 14.6861 37.9115 15.3695 36.2388C15.9646 34.782 16.6789 33.2035 16.7156 31.5919C16.7512 30.0305 17.3985 28.21 18.3052 26.9578C18.6967 26.4173 19.0541 25.6215 19.5333 25.1673C19.991 24.7334 20.262 24.1556 20.4813 23.5697C20.7884 22.7491 21.3449 21.8419 21.8197 21.1226M18.3002 12.2772C18.4824 12.8012 18.5097 13.3175 19.1359 13.2852C19.3603 13.2736 19.5196 12.6903 19.8196 12.5881M24.4301 11.2155C24.7161 11.52 25.1402 12.2616 25.6023 11.875C25.7333 11.7654 25.8126 11.5967 25.9495 11.5265M24.4912 16.9301C24.5744 17.1545 24.813 18.0401 25.2108 17.9151C25.4619 17.8362 25.6782 17.3577 25.8221 17.1395M16.1777 4.94461L16.1764 4.94633C16.0068 5.16665 15.4402 5.90308 16.0096 6.04062C16.3118 6.11359 16.6849 5.74999 17.0179 5.75223M11.0606 7.61712C9.68465 8.30511 11.0101 8.7195 11.7032 8.72413" stroke="#F87239" stroke-linecap="round"/>
</svg>
