<svg width="38" height="41" viewBox="0 0 38 41" fill="none" xmlns="http://www.w3.org/2000/svg">
<path d="M7.47123 23.5857C7.93043 23.0294 8.49168 21.9729 9.13851 21.5973C9.30427 21.501 9.48897 21.4363 9.6505 21.3323C9.89747 21.1734 10.2182 21.0377 10.4144 20.8378C10.8813 20.3623 11.511 20.0999 11.9489 19.5584C12.095 19.3778 12.309 19.2209 12.4825 19.0588C12.7027 18.8532 12.8354 18.5128 13.0411 18.2807C13.5527 17.7033 13.8942 16.9764 14.4317 16.429C15.0413 15.8081 15.3087 14.8271 15.8307 14.1468C16.1489 13.7321 16.3549 13.2281 16.7059 12.8403C17.0586 12.4504 17.4271 12.0756 17.7798 11.6857C18.3242 11.0841 19.0146 10.5782 19.6491 10.0755C20.163 9.6684 20.7309 9.23766 21.3127 8.94137C22.1909 8.49415 23.259 8.8783 23.8941 7.97279C24.6677 6.86977 24.2606 5.72081 24.2068 4.50534C24.1868 4.05034 24.507 3.26011 24.7608 2.89819C24.9746 2.5934 25.2203 1.86051 24.917 1.57811C24.5263 1.21433 23.9142 1.61368 23.4791 1.56765C22.6847 1.48382 23.2661 1.08248 23.0685 0.679664C22.9478 0.433004 21.852 0.692632 21.6207 0.716445C21.2901 0.750505 20.9743 0.617567 20.6433 0.665707C20.2513 0.722672 19.8303 0.73546 19.4324 0.704196L19.4296 0.704014C18.8763 0.660533 18.0181 0.593164 17.499 0.857498C16.8729 1.17636 16.4551 1.65742 15.7162 1.74851C15.1234 1.82169 14.6306 1.34587 14.0548 1.35824C13.6541 1.36686 13.2881 1.25265 12.8769 1.31244C12.4539 1.37395 12.0251 1.47049 11.6145 1.59245C9.57406 2.19848 7.65207 3.6461 6.4958 5.46929C5.79306 6.57736 5.46309 7.4833 5.24049 8.77964C5.05241 9.87486 5.02104 10.8373 4.41435 11.8081C4.14245 12.2432 3.82703 12.5845 3.47627 12.9526C3.16884 13.2752 2.91497 13.6459 2.61611 13.9772C2.43298 14.1801 2.16741 14.2948 1.998 14.4987C1.55233 15.0351 1.4049 15.7473 1.07291 16.3454C0.799437 16.8381 0.66946 17.3186 0.615096 17.8782C0.384398 20.2533 2.22674 21.2849 3.80394 22.491C4.35822 22.9149 4.77467 24.4328 5.66199 24.1863C5.97071 24.1006 6.39526 23.9479 6.6826 23.8016C6.93411 23.6735 7.02647 23.3564 7.29244 23.221M12.9627 10.7631C11.8557 10.9335 11.1114 11.6392 10.3711 12.4711C10.0327 12.8514 8.86213 15.1793 8.93548 15.1686M13.2311 10.8543C12.835 11.5457 12.3933 12.1983 12.1436 12.961L11.7389 14.1967M12.1282 9.97295C12.8101 10.0852 13.7108 10.4602 14.396 10.181C15.4056 9.76972 16.1826 8.77771 16.8635 7.95812C17.4572 7.24361 17.9376 6.54407 18.034 5.59823C18.0666 5.27795 17.9868 4.22498 17.736 4.99041M15.5875 9.12275C16.0846 8.27412 17.1848 8.03193 18.0795 7.81991C18.6077 7.69478 19.1182 7.43739 19.6435 7.36101M23.8481 6.96665C23.7822 7.68067 23.9774 8.33037 23.8571 9.04664C23.7833 9.48619 23.5777 9.97111 23.4226 10.3903C23.2661 10.8134 22.9146 11.2129 22.6403 11.5651C22.5846 11.6366 22.3547 11.8766 22.2807 11.9044C22.1971 11.9358 22.1128 12.2653 22.1464 12.1627M22.5652 8.45552C22.4119 9.53298 22.3019 10.6922 21.7986 11.69C21.4521 12.3771 21.1601 13.1653 20.327 13.1652M20.8653 9.39709C20.4731 10.5947 20.5542 11.8648 20.1632 13.0587C20.0068 13.5363 19.6172 13.937 19.4255 14.4007C19.3637 14.55 18.8444 15.0517 18.8058 14.7753M18.8371 10.7338C18.7091 11.656 19.0516 12.5865 19.0414 13.516C19.0354 14.0682 18.4253 15.6334 18.5969 15.1096M16.8085 12.9821C17.0953 13.4131 17.8622 15.6727 18.6861 15.4439M15.6151 14.8052C15.8487 15.4758 16.4885 15.5367 17.1422 15.6057C17.6285 15.6571 18.0615 15.4342 18.5371 15.5959M14.5708 16.4763C15.3149 17.4657 17.1346 16.6055 17.9107 15.9907M13.2581 18.0563C13.6266 18.5461 14.016 18.3931 14.5155 18.1797C14.9309 18.0023 15.4031 17.9313 15.8326 17.7664C16.3859 17.5539 17.0932 16.9693 17.2843 16.3857M12.3034 19.4538C12.8587 19.5452 13.4243 19.6108 13.9799 19.4609C14.5679 19.3023 14.8258 18.8288 15.226 18.4212C15.5744 18.0664 16.0607 17.7263 16.449 17.4186M9.64877 21.1855C11.3696 21.5163 12.5457 20.1944 13.8539 19.2719M7.65041 22.7348C9.70233 23.7643 11.0969 21.0496 12.333 19.9704M15.6137 18.4517C16.5243 19.7005 17.7409 20.7196 18.6042 22.0009C19.3653 23.1306 20.3488 24.0553 21.1873 25.1077C22.6328 26.9218 24.5846 28.5147 25.3697 30.7842C25.5283 31.2427 25.7469 31.7033 25.8778 32.167C26.0227 32.6804 26.0103 32.5321 25.823 32.1315C25.7071 31.8833 25.6016 31.5481 25.27 31.6115C24.8193 31.6976 24.306 31.6375 23.8718 31.8003C23.343 31.9986 22.8495 32.5253 22.6586 33.0594C22.4369 33.6803 22.9462 33.1337 23.1424 32.965C23.3005 32.8293 23.9855 32.4259 24.153 32.7458C24.4767 33.3637 24.039 34.4526 23.9103 35.0721C23.8653 35.288 23.4341 36.4056 23.8832 36.453C24.0429 36.4699 24.1676 36.2779 24.2743 36.1863C24.4934 35.9983 24.7659 35.8976 25.0365 35.8151C26.7142 35.3037 26.1995 38.0747 26.329 39.0009C26.4058 39.55 26.633 38.9124 26.7383 38.7461C27.1131 38.1551 27.7119 38.7729 28.08 39.1009C28.1807 39.1906 29.2732 40.4604 29.3352 40.3943C29.5703 40.1432 28.8963 39.4678 29.1037 39.2462C29.2283 39.1133 29.5561 39.2988 29.6951 39.346C29.9358 39.4278 30.0619 38.6812 30.1212 38.5003C30.3604 37.7701 31.0377 39.0407 31.246 38.4042C31.3294 38.1493 31.8214 38.4587 32.0064 38.5108C32.2133 38.569 32.5471 38.264 32.2882 38.1056C31.9413 37.8934 31.4417 37.819 31.0624 37.6833C30.0536 37.3225 29.1351 36.6124 28.2501 36.0182M26.761 31.4598C26.4077 32.1133 26.2046 31.9872 25.631 32.0631M25.631 32.0631C25.5795 32.0701 25.525 32.0785 25.4669 32.0892C24.8199 32.2099 24.4475 32.9521 24.0783 33.4295C23.7242 33.8869 23.2158 34.3272 23.1914 34.9571C23.1712 35.4745 23.3203 36.5394 23.9561 36.6691C24.1499 36.7087 26.5473 34.5194 26.3353 35.4742C26.1617 36.2567 25.9989 37.0523 25.9054 37.8495C25.8378 38.4258 25.7017 38.8747 26.3722 39.0213C26.9235 39.1418 27.4663 38.7143 27.6993 38.2398C27.7773 38.0811 28.1499 36.6043 28.3394 36.6564C28.6789 36.7496 28.9357 37.502 29.1739 37.7505C29.5429 38.1354 29.5584 37.5488 29.7374 37.3117C30.2361 36.6506 31.5418 38.2824 31.9241 37.2446C32.0633 36.8664 32.0971 36.9207 32.4641 37.0454C32.9003 37.1937 33.0607 36.7764 33.1868 36.4244C33.4746 35.6203 34.4328 36.8399 34.8519 35.8761C35.0799 35.3513 35.0354 34.6259 34.8409 34.1051C34.724 33.7923 34.6366 33.307 34.5044 32.9044M25.631 32.0631C25.7556 32.0951 25.8768 32.1363 25.9457 32.1957C26.4056 32.5925 26.5855 33.3302 27.0551 33.6647C27.144 33.728 27.3467 33.7364 27.4327 33.658C27.4671 33.6265 27.6107 33.437 27.6581 33.5094C27.8672 33.8293 28.0413 34.2002 28.3767 34.4178C29.6484 35.243 29.2119 32.6456 29.9809 32.8582C30.398 32.9735 31.0354 33.3413 31.4717 33.1624C31.9013 32.9864 31.6315 32.7619 31.3725 32.5715C31.0729 32.3513 30.732 32.0928 31.0399 31.7493C31.2863 31.4745 32.4195 32.0663 32.6946 32.1598C32.9474 32.2457 34.0704 32.9023 34.5044 32.9044M25.631 32.0631C25.4276 32.0112 25.2157 31.9845 25.2102 31.9457M34.5044 32.9044C34.4382 32.7032 34.361 32.5228 34.2634 32.3948C34.1415 32.2351 34.7873 32.7309 34.6393 32.8659C34.6096 32.8928 34.5633 32.9047 34.5044 32.9044ZM19.3128 14.7451C20.0147 15.3558 20.7175 16.0717 21.2668 16.8219C21.8453 17.6122 22.6211 18.2023 23.2671 18.9258C23.9065 19.6419 24.6816 20.3687 25.4233 20.9758C26.2932 21.6879 26.8403 22.6135 27.6057 23.4173C28.942 24.8205 29.9777 26.442 30.9419 28.1196C31.2639 28.6799 31.4265 29.2685 31.7083 29.8434C31.8527 30.138 32.1419 30.6299 32.2016 30.9341C32.3311 31.5956 32.1875 30.9112 32.334 30.9003C32.5912 30.8812 32.7778 30.7556 33.0464 30.7822C33.4001 30.8174 33.7708 31.006 34.1066 31.1201C34.7206 31.3288 35.5104 31.3475 36.0776 31.6945C36.1923 31.7646 36.4243 32.0631 36.475 32.2944M36.475 32.2944C36.4993 32.4057 36.4817 32.5015 36.3887 32.5487C36.2488 32.6201 35.0725 32.1626 35.4943 32.1772C35.7586 32.1864 36.1268 32.2117 36.475 32.2944ZM36.475 32.2944C36.8767 32.3897 37.2518 32.5617 37.4091 32.8731C37.555 33.1619 37.5185 33.6017 37.1835 33.7307C36.6193 33.948 36.0747 33.5526 35.5567 33.7405C35.1423 33.8909 35.4103 34.409 35.1389 34.4089" stroke="#F87239" stroke-linecap="round"/>
</svg>
