<svg width="63" height="80" viewBox="0 0 63 80" fill="none" xmlns="http://www.w3.org/2000/svg">
<path d="M38.6509 19.6719C38.6248 17.3656 38.1732 14.5034 39.2019 12.275C39.5731 11.4707 40.0704 10.7535 40.5679 10.0214C41.2838 8.96836 42.2947 7.79411 43.4721 7.20049C44.7137 6.57446 46.0773 5.78484 47.5355 6.05849C49.1642 6.36414 50.828 5.86714 52.468 6.08428C53.1662 6.17672 53.8272 6.26977 54.5181 6.432C55.2725 6.60912 55.6422 6.89496 56.2914 7.22816C57.3888 7.79166 58.1096 8.83408 58.7468 9.85865C59.2054 10.596 60.0716 11.6172 60.1302 12.4976C60.2086 13.672 59.9266 15.0101 59.3815 16.0568C58.7019 17.3611 57.4009 18.0103 56.1226 18.6115C54.9561 19.1601 53.8753 19.9311 52.6442 20.3621C52.0923 20.5554 51.5335 20.7459 50.9771 20.9363M50.9771 20.9363C50.5472 21.0835 50.1185 21.2306 49.6951 21.3788C48.7242 21.7187 47.5476 21.8503 46.523 21.9634C44.8458 22.1485 43.0935 22.2343 41.4487 21.848C40.2282 21.5615 38.5333 20.7005 38.886 19.2206M50.9771 20.9363C50.9783 20.9313 50.9791 20.9262 50.9803 20.9211M50.9771 20.9363C50.8292 21.6421 50.7933 22.506 50.9222 23.1865C51.0704 23.9687 51.0397 24.6832 50.2503 25.0545M12.6841 11.4223C12.0918 10.8278 12.1491 10.4561 12.3308 9.69337C12.4846 9.04817 12.5537 8.25213 12.877 7.66926C13.6307 6.31016 14.8702 5.54484 16.0627 4.61902C18.4725 2.74798 21.4307 1.62476 24.4288 1.20959C26.389 0.938148 28.3674 0.79797 30.2214 1.6413C31.8136 2.36551 32.6167 3.8995 33.6791 5.21047C34.5734 6.31393 35.2649 7.59418 36.0131 8.79714C36.4548 9.50723 36.3595 11.0901 36.1665 11.8999C35.7199 13.7742 34.2572 15.3699 32.309 15.7772C29.9826 16.2635 27.1102 15.8225 24.8364 15.2886C22.2824 14.6889 19.7042 14.2101 17.1377 13.6075L15.5742 13.2403C15.1721 13.1459 14.4605 13.1155 14.1244 12.8718C13.8144 12.647 13.4573 12.6922 13.1215 12.5308C12.7731 12.3633 12.635 11.675 12.4426 11.3655M26.4306 34.0214C24.8722 32.09 28.4975 30.9241 29.7223 30.1098C30.4483 29.6271 30.9249 29.1827 31.4939 28.5633C32.0547 27.9529 32.7797 27.7036 33.5564 27.4017C34.5923 26.999 37.5707 26.9828 38.0062 28.3832C38.393 29.6267 39.4553 30.782 40.3927 31.6306C41.6543 32.7725 39.7013 33.9177 38.7448 34.3677M38.7448 34.3677C38.7103 34.3839 38.6771 34.3992 38.6454 34.4136C37.871 34.765 36.9785 34.685 36.1412 34.7822C35.4563 34.8618 34.613 35.0565 33.9383 34.898C33.7518 34.8542 33.5854 34.7841 33.4215 34.7141M38.7448 34.3677C38.7863 34.1226 38.8355 33.884 38.8901 33.655M38.7448 34.3677C38.5048 35.7849 38.5231 37.4175 39.2584 38.6511C39.8302 39.6105 40.1168 41.065 40.1465 42.1796C40.2057 44.3975 40.7711 46.386 41.2782 48.5225C41.8135 50.7781 42.0996 53.0862 42.2543 55.3988C42.3117 56.2603 42.8749 57.2429 42.4947 58.1068C42.3097 58.5267 41.8777 59.4692 41.3828 59.837M33.4215 34.7141C33.2725 34.6505 33.1254 34.587 32.967 34.5433C32.5556 34.43 32.0959 34.5489 31.6751 34.4932C31.0242 34.407 30.3162 34.6663 29.6855 34.8138C29.0995 34.9509 28.5635 34.8049 28.0645 34.6582C27.7701 34.5718 27.561 34.3036 27.2761 34.2199C26.9676 34.1293 26.6967 34.2105 26.402 34.1413M33.4215 34.7141C33.4221 34.6928 33.4227 34.6715 33.4233 34.6502M33.4215 34.7141C33.4008 35.5044 33.4493 36.2899 33.7581 37.0219C34.1015 37.8361 34.6381 38.642 34.8852 39.4881C35.1249 40.309 35.673 41.0369 35.9441 41.8539C36.2104 42.6569 36.4217 43.4393 36.6172 44.2627C36.874 45.3448 36.9871 46.9924 36.7263 48.0865C36.532 48.9019 36.6896 49.846 36.495 50.663C36.2994 51.4836 36.5014 52.6779 36.6534 53.5069C36.8704 54.6897 36.7004 56.1263 37.0912 57.2601C37.5149 58.4894 37.6692 59.7452 37.917 61.0201C38.0266 61.5841 37.9508 62.2165 37.8174 62.7764L37.7837 62.9176M41.3828 59.837C41.0923 58.9711 40.7367 58.1413 40.3683 57.425C40.1165 56.9357 39.919 55.9803 39.8511 55.4325C39.752 54.6327 39.891 53.9393 39.9774 53.148C40.1908 51.1932 39.7514 49.3876 39.4816 47.4677C39.3482 46.5191 38.9277 45.634 38.7438 44.7063C38.564 43.7995 38.3652 42.9135 38.0074 42.0573C37.0291 39.7162 35.7235 37.3722 36.7068 34.7884M41.3828 59.837C41.824 61.1545 42.1149 62.557 42.0721 63.7755C42.0289 65.0024 42.2131 66.2757 41.9254 67.4834C41.7085 68.3938 41.266 69.1478 40.761 69.9319C40.4725 70.3791 40.006 70.9001 39.5763 71.2153C39.2766 71.4351 38.9371 71.6228 38.8086 71.9986C38.5881 72.6431 38.0461 73.2864 37.7189 73.8952C37.4294 74.4335 37.0218 75.0672 36.626 75.5376C36.3671 75.8452 36.2119 76.1837 36.008 76.525C35.8643 76.7657 35.6227 76.819 35.4613 77.0649C35.2991 77.3119 35.1333 77.2197 34.8829 77.1547M41.3828 59.837C41.2689 59.9216 41.1517 59.9762 41.0333 59.9866M37.7837 62.9176C37.6468 62.1784 37.3814 61.412 37.0557 60.8886C36.7957 60.4703 36.3193 60.2517 36.1003 59.8129C35.7642 59.1399 35.8118 58.4625 35.6241 57.7667C35.4295 57.0452 35.3501 56.29 35.1376 55.5564C34.924 54.8192 34.6155 54.1274 34.4457 53.3754C34.0422 51.5886 34.2279 49.7313 33.664 47.9726C33.0296 45.9941 31.7141 44.3257 31.3595 42.2405C31.2017 41.3125 31.1115 40.3973 31.058 39.4617C30.9792 38.0838 29.9127 36.5678 30.4803 35.2254M37.7837 62.9176C37.8578 63.3175 37.8942 63.7093 37.8822 64.0506C37.8357 65.3733 38.2042 66.5056 37.8856 67.8427C37.7351 68.4744 36.8883 70.057 36.1953 70.1188M37.7837 62.9176L37.646 63.4959M45.1412 30.4383C45.1359 30.4324 45.1311 30.4265 45.1258 30.4207M45.1258 30.4207C44.6899 29.9165 44.5258 29.7035 44.7084 29.0425C44.8139 28.6613 45.1626 27.9318 45.4891 27.6712C45.5723 27.6047 45.6563 27.5453 45.7416 27.4916M45.1258 30.4207C45.14 30.3865 45.1545 30.3525 45.1699 30.3186M45.1258 30.4207C45.1181 30.44 45.1101 30.4593 45.1024 30.4787M45.7416 27.4916C46.4705 27.0316 47.2628 26.9963 48.0345 26.623C48.8066 26.2495 49.422 25.6761 50.1525 25.2283C51.0107 24.7024 52.1367 24.4558 53.1092 24.2695C55.2086 23.8675 57.4615 25.1942 58.7629 26.7999C59.4373 27.632 60.0522 28.3275 60.5278 29.2963C60.8991 30.0525 60.912 30.8817 61.2551 31.6265C61.6033 32.3833 62.7003 34.4222 61.327 34.7735C60.3561 35.0218 59.489 34.9548 58.4825 34.9355C57.8329 34.923 57.1141 34.6424 56.483 34.4942C56.0943 34.4028 55.7044 34.3457 55.3153 34.2873M45.7416 27.4916C45.8996 27.2134 46.249 27.0479 46.3965 26.7449C46.5529 26.4245 46.6676 26.1734 46.7529 25.8157C47.0038 24.7618 46.9387 22.9895 46.5084 22.0234M45.7416 27.4916C45.7133 27.5411 45.6911 27.5941 45.6773 27.6522M45.1024 30.4787C45.9238 31.1726 46.8046 32.095 47.902 32.3527C48.1472 32.4102 48.3909 32.4707 48.6337 32.5335M45.1024 30.4787C45.0753 30.4555 45.0478 30.4326 45.0204 30.4099M45.1024 30.4787C44.6066 31.7364 44.7602 33.1686 44.5525 34.4854C44.3909 35.5086 44.0721 36.5065 44.1468 37.5554C44.2159 38.5287 43.9788 39.4753 44.1553 40.4624C44.3157 41.3586 44.3351 42.8293 44.1436 43.7233C43.7788 45.4258 43.7206 47.1047 43.3153 48.8044C43.1727 49.4036 42.9214 49.9234 42.7788 50.521C42.6575 51.03 41.7093 52.0447 42.706 51.8967M55.3153 34.2873C54.9577 34.2336 54.6009 34.1789 54.2466 34.0957C52.3484 33.6499 50.5222 33.0223 48.6337 32.5335M55.3153 34.2873C55.3319 34.2266 55.348 34.1658 55.3642 34.1048M55.3153 34.2873C54.9953 35.4705 54.6236 36.5874 54.4716 37.8202C54.323 39.0265 54.165 40.2067 53.8818 41.3955C53.5064 42.9713 53.2462 44.5972 52.8676 46.1867C52.525 47.6237 52.2389 48.9733 52.1646 50.4456C51.9654 54.3853 53.489 58.8448 50.8781 62.3264C49.8599 63.684 47.8705 64.732 47.2955 66.3876C46.7666 67.9101 46.1295 69.4406 45.3335 70.8439C44.9703 71.4844 44.584 72.1177 44.2377 72.767C43.7743 73.6353 43.5917 74.6288 43.1367 75.4835C42.4834 76.7111 41.4422 78.2103 40.0247 78.6707C39.2685 78.9166 38.5132 79.2463 38.1906 78.3387C37.9704 77.7186 38.1475 77.1222 38.0199 76.4978C37.9281 76.0486 38.0699 75.5312 37.6394 76.0426C37.2522 76.503 36.7746 76.8796 36.4473 77.3877C36.2153 77.7479 36.0748 78.3495 35.6098 78.4642C34.9968 78.6154 34.7934 78.3114 34.7845 77.865M48.6337 32.5335C48.6765 32.4579 48.7242 32.3818 48.7775 32.305M48.6337 32.5335C48.2276 33.2511 48.2636 33.9265 48.0632 34.7679C47.8907 35.4922 47.6765 36.2201 47.5424 36.9527C47.3274 38.1281 47.6636 39.4725 47.6785 40.6635C47.7012 42.4218 47.7008 44.43 47.3892 46.1594C47.0567 48.0067 47.7533 49.984 47.3084 51.8517C47.1149 52.6631 47.0551 53.4492 46.8624 54.2581C46.6709 55.0623 46.2486 55.763 46.062 56.5462C45.9101 57.1843 45.6571 57.873 45.5973 58.5259C45.5476 59.0706 45.5949 59.5763 45.4672 60.1133C45.1545 61.4256 44.4947 62.5871 44.1856 63.885C44.0567 64.4268 43.6757 64.6582 43.3404 65.0228C43.199 65.1772 42.1893 66.1586 42.5828 65.7945M34.7845 77.865C34.6852 78.5356 34.5077 79.0317 34.1997 78.9984C33.8732 78.9631 33.6845 78.5344 33.3479 78.4397C33.0029 78.3423 32.6984 78.2681 32.3833 78.0864C31.6771 77.6801 31.581 77.8738 31.4962 76.9919C31.4244 76.2447 31.7229 75.2079 31.3843 74.5181C31.284 74.3135 30.8734 74.632 30.6865 74.6212C30.2644 74.5979 29.9127 74.1527 29.7628 73.7994C29.3858 72.9114 29.1358 71.8935 29.1775 70.9329C29.2297 69.7293 28.9591 68.5005 29.6346 67.4388C29.7655 67.2331 29.9105 67.0362 30.0622 66.8433M34.7845 77.865C34.8106 77.6889 34.8313 77.5008 34.8475 77.3071M34.7845 77.865C34.7811 77.6941 34.8061 77.5024 34.8475 77.3071M6.51741 33.0171C7.27183 33.1943 7.96366 33.3228 8.71861 33.4144C9.3439 33.4903 9.99994 33.364 10.6177 33.4735C11.1765 33.5726 11.8316 33.7132 12.3993 33.7582C12.9541 33.8021 13.3675 33.3759 13.8596 33.25C14.8744 32.9904 16.1262 32.3355 16.9232 31.6341C17.5994 31.0391 18.7974 30.5616 19.0649 29.6048C19.1869 29.1687 19.3233 28.4847 19.5312 27.9483M19.5312 27.9483C19.6137 27.7353 19.7076 27.5455 19.8162 27.4038C19.9999 27.1642 20.0761 26.7023 20.2134 26.4209C20.3585 26.1235 20.4799 25.8924 20.5418 25.5484C20.6217 25.1044 19.3224 24.7221 19.0507 24.3121C18.5735 23.5916 17.8737 22.9052 17.2194 22.3627M19.5312 27.9483C19.5155 27.9114 19.5008 27.873 19.4873 27.8331M19.5312 27.9483C19.9189 28.8622 20.9384 28.9336 21.8792 29.1545C22.3315 29.2606 23.4548 29.7237 23.785 29.6019M20.5705 25.4284C21.1298 24.7415 21.7553 23.8507 21.2166 22.9846C20.9341 22.5305 20.5644 21.4401 20.6328 20.8851C20.8066 19.4733 19.0925 17.8646 17.8507 17.573C16.9498 17.3615 16.0113 17.1527 15.0914 17.0799C13.9796 16.9918 12.883 17.2928 11.7925 17.0368C9.79853 16.5686 7.80003 17.4089 6.66132 19.1519C6.08407 20.0355 5.4126 20.9121 4.6884 21.6921C4.00753 22.4253 3.1877 22.9369 2.62599 23.7751C2.40411 24.1063 1.8931 24.4207 1.73683 24.741C1.58068 25.0611 1.49153 25.4859 1.29178 25.776C0.806332 26.4812 1.07562 27.3025 1.06516 28.0651C1.05611 28.7253 1.36977 29.5781 1.87938 30.0006C2.02832 30.1242 2.21837 30.2238 2.40844 30.27M2.40844 30.27C2.75023 30.3532 3.0921 30.264 3.1952 29.8313C3.46338 28.706 3.59933 27.8232 4.08574 26.7486C4.47006 25.8994 5.3286 25.2808 5.74601 24.4796M2.40844 30.27C2.3497 30.2185 2.29193 30.1661 2.23542 30.1126M2.40844 30.27C2.89848 30.6996 3.45617 31.0676 3.91261 31.5193C4.19515 31.799 4.25285 32.1555 4.54642 32.4278C4.78848 32.6523 4.9981 32.7871 5.34153 32.8677C5.75123 32.9639 6.02496 32.775 6.42537 32.869M12.9127 34.0123C13.8876 35.6303 14.1737 37.3745 14.3508 39.2174C14.5199 40.9768 14.9309 42.8089 15.5219 44.4725C16.7259 47.8611 18.9728 50.677 21.1483 53.4813C21.6328 54.1057 22.2334 54.5906 22.7608 55.1894C23.2994 55.8011 23.7123 56.5434 24.228 57.1799C25.1117 58.2704 26.341 59.4776 27.6008 60.1242C28.9396 60.8116 29.3518 62.4427 29.6093 63.7683C29.7631 64.5592 29.8253 65.3473 30.0025 66.1326C30.0394 66.2958 30.0546 66.5669 30.0622 66.8433M30.0622 66.8433C30.0783 67.4248 30.0611 68.0276 30.1428 67.6847M30.0622 66.8433C30.4344 66.3696 30.8469 65.9208 31.1911 65.4271C32.053 64.1906 31.9714 63.2316 31.5492 61.783C31.2596 60.7895 30.951 59.8153 30.4187 58.9153C29.9962 58.201 29.88 57.6211 29.9233 56.8013C29.9804 55.7212 30.2532 54.6384 30.1293 53.5579C30.0297 52.6888 29.8844 51.786 29.541 50.9718C29.241 50.2607 29.2399 49.4377 28.887 48.7503C28.4209 47.8427 28.3833 46.6776 28.082 45.7058C27.8146 44.8427 27.522 44.0004 27.1781 43.165C26.734 42.0861 26.4919 40.8918 26.1429 39.778C25.8663 38.8947 25.5482 38.0267 25.2763 37.1407C24.8087 35.6179 24.6158 34.0446 24.3705 32.4967C24.1426 31.0583 24.1356 29.6055 23.9323 28.1806C23.7033 26.5758 23.4848 24.9524 23.3 23.3405C23.1093 21.676 22.7267 20.0969 22.0513 18.5597C21.5184 17.3466 21.1764 15.9276 21.4859 14.6286M16.1132 32.3583C16.3976 32.9973 16.7127 33.4031 17.1402 33.9359C17.5013 34.3859 17.6107 35.0223 17.9762 35.4827C18.8009 36.5215 18.8643 37.9471 18.9139 39.2198C19.0282 42.1523 20.5558 44.732 22.0228 47.1665C22.7751 48.415 23.2503 49.6535 24.2629 50.7312C25.1587 51.6849 25.9626 52.7389 26.6843 53.8318C27.1485 54.5349 27.8926 55.0138 28.4456 55.5396C28.8331 55.9081 29.3687 56.8603 29.9079 56.3613M34.8475 77.3071C34.8519 77.2546 34.8559 77.202 34.8597 77.1487M34.8475 77.3071C34.8583 77.2566 34.8701 77.2056 34.8829 77.1547M34.8597 77.1487C34.9362 76.0694 34.886 74.8726 34.8663 74.6252C34.8056 73.8611 34.6674 73.1573 34.4334 72.4273C34.2945 71.9942 33.8214 71.0906 34.0609 70.6305C34.3123 70.1481 35.0636 70.8599 35.4134 70.1886M34.8597 77.1487C34.8675 77.1507 34.8752 77.1527 34.8829 77.1547M34.8597 77.1487C34.8532 77.1471 34.8467 77.1455 34.8402 77.1439C34.5148 77.0677 34.744 76.363 34.7667 76.1139M34.8829 77.1547C35.0037 76.6726 35.2051 76.1966 35.3071 75.9876M26.8008 15.8766C25.8313 17.2702 26.646 19.5028 26.8976 21.0904C27.1356 22.5922 27.3866 24.1122 27.738 25.5924C27.9734 26.5846 28.2392 27.5707 28.4716 28.5501C28.5164 28.739 28.6519 29.2509 28.7497 29.3751C28.8552 29.5089 28.7345 30.1523 28.9089 30.0454M21.1718 15.9474C20.3704 16.2989 19.0943 16.6366 18.8742 17.5603M27.1918 15.8418C27.6904 16.6165 28.7132 16.798 29.4251 17.4424C29.9873 17.9514 30.4565 18.594 31.0036 19.1143C31.3951 19.4867 31.8254 19.992 31.9337 20.5636C32.0105 20.9687 32.3758 21.0671 32.4886 21.4466C32.5393 21.6173 32.7355 22.1618 32.813 22.2261M28.18 27.2155C28.252 26.0857 29.6295 25.1011 30.3946 24.3452C30.9973 23.7498 31.6587 23.3125 32.3012 22.7671C33.3151 21.9065 34.4498 21.6403 35.6858 21.4095C36.1989 21.3137 36.748 21.7477 37.2847 21.6583C37.7639 21.5785 38.2692 22.3311 38.5913 22.5982C39.0789 23.0025 39.5934 23.3946 40.1377 23.721C40.858 24.1528 41.8402 24.2435 42.4648 24.809C43.226 25.498 44.0272 26.3541 44.3359 27.3937C44.4248 27.6923 44.9396 28.0724 44.8592 28.4098C44.7323 28.9425 44.6741 29.2731 44.3048 29.6653C43.8321 30.1679 42.0099 30.5895 41.378 30.4411C40.9291 30.3357 40.464 30.0999 40.0777 30.0092C39.5807 29.8925 39.2361 29.5584 38.7458 29.4432M51.9246 33.5505C51.7335 34.3517 51.4405 35.103 51.2385 35.8934C50.9662 36.9598 50.9836 38.0005 50.8616 39.0826C50.6644 40.8268 50.5424 42.5618 50.1351 44.272C49.9606 45.0035 49.7888 45.808 49.746 46.558C49.7028 47.3193 49.4187 48.0151 49.3262 48.7663C49.1408 50.2719 49.2777 51.796 49.2571 53.308C49.2393 54.5874 49.2094 56.0333 48.9468 57.2866C48.7032 58.4485 47.9876 59.3112 47.5646 60.3808C47.3929 60.8148 46.847 61.1601 46.647 61.6141C46.5133 61.9177 46.2503 62.1716 46.0353 62.4271C45.6527 62.8819 45.066 63.1426 44.7529 63.6455" stroke="#F87239" stroke-linecap="round"/>
</svg>
