<svg width="183" height="233" viewBox="0 0 183 233" fill="none" xmlns="http://www.w3.org/2000/svg">
<path d="M112.718 56.2974C112.641 49.4673 111.301 40.9908 114.353 34.3914C115.455 32.0094 116.93 29.8853 118.406 27.7172C120.531 24.5986 123.53 21.121 127.024 19.363C130.708 17.509 134.754 15.1705 139.081 15.9809C143.913 16.8861 148.85 15.4142 153.717 16.0573C155.788 16.3311 157.75 16.6066 159.8 17.0871C162.038 17.6116 163.135 18.4581 165.062 19.4449C168.318 21.1138 170.456 24.2009 172.347 27.2352C173.708 29.4188 176.278 32.4434 176.452 35.0507C176.685 38.5287 175.848 42.4915 174.23 45.5911C172.214 49.4539 168.354 51.3766 164.56 53.1572C161.099 54.7818 157.892 57.0652 154.239 58.3417C152.602 58.914 150.944 59.4783 149.293 60.0423M149.293 60.0423C148.017 60.4782 146.745 60.9137 145.489 61.3527C142.608 62.3594 139.117 62.749 136.076 63.0839C131.1 63.6322 125.9 63.8863 121.02 62.7423C117.398 61.8938 112.369 59.3437 113.416 54.9611M149.293 60.0423C149.296 60.0273 149.299 60.0122 149.302 59.9972M149.293 60.0423C148.854 62.1325 148.747 64.6907 149.13 66.7062C149.57 69.0228 149.479 71.1388 147.136 72.2382M35.6693 31.8659C33.9118 30.1054 34.0818 29.0047 34.621 26.7457C35.0773 24.835 35.2823 22.4775 36.2415 20.7513C38.4779 16.7262 42.1559 14.4597 45.6943 11.7179C52.8447 6.17671 61.6222 2.85026 70.5182 1.62071C76.3345 0.816823 82.2049 0.40168 87.7062 2.89924C92.4304 5.04401 94.8134 9.58698 97.966 13.4695C100.62 16.7374 102.671 20.5289 104.891 24.0915C106.202 26.1945 105.919 30.8823 105.347 33.2805C104.021 38.8314 99.6813 43.557 93.9005 44.7631C86.9975 46.2034 78.4745 44.8974 71.7276 43.3162C64.1493 41.5401 56.4992 40.1223 48.8841 38.3375L44.2447 37.2502C43.0517 36.9706 40.9403 36.8805 39.9428 36.1586C39.023 35.4931 37.9636 35.6269 36.967 35.1488C35.9332 34.6529 35.5237 32.6144 34.9525 31.6978M76.4579 98.7941C71.8339 93.0742 82.5911 89.6212 86.2252 87.2097C88.3793 85.7803 89.7934 84.4642 91.4818 82.6298C93.1458 80.8221 95.2972 80.0837 97.6017 79.1896C100.675 77.9969 109.513 77.9491 110.805 82.0966C111.953 85.7791 115.105 89.2004 117.887 91.7136C121.63 95.0954 115.835 98.4869 112.997 99.8197M112.997 99.8197C112.894 99.8677 112.796 99.9131 112.702 99.9557C110.404 100.996 107.756 100.759 105.272 101.047C103.239 101.283 100.737 101.86 98.7348 101.39C98.1817 101.261 97.688 101.053 97.2015 100.846M112.997 99.8197C113.12 99.0939 113.266 98.3873 113.428 97.7091M112.997 99.8197C112.285 104.017 112.339 108.852 114.521 112.505C116.218 115.346 117.068 119.654 117.156 122.955C117.332 129.523 119.009 135.412 120.514 141.74C122.102 148.42 122.951 155.255 123.41 162.104C123.581 164.655 125.252 167.566 124.124 170.124C123.575 171.368 122.293 174.159 120.824 175.248M97.2015 100.846C96.7593 100.657 96.3229 100.469 95.8529 100.34C94.6322 100.004 93.2681 100.356 92.0196 100.191C90.0883 99.9361 87.9874 100.704 86.116 101.141C84.3772 101.547 82.7869 101.114 81.306 100.68C80.4325 100.424 79.8121 99.6299 78.9666 99.382C78.0513 99.1136 77.2475 99.3541 76.3731 99.1491M97.2015 100.846C97.2031 100.783 97.2049 100.719 97.2069 100.656M97.2015 100.846C97.14 103.186 97.2841 105.512 98.2001 107.68C99.2193 110.092 100.811 112.478 101.545 114.984C102.256 117.415 103.882 119.571 104.686 121.99C105.477 124.368 106.104 126.686 106.684 129.124C107.446 132.329 107.781 137.208 107.008 140.449C106.431 142.863 106.899 145.659 106.321 148.079C105.741 150.509 106.34 154.046 106.791 156.501C107.435 160.004 106.931 164.259 108.09 167.617C109.347 171.257 109.805 174.976 110.541 178.752C110.866 180.422 110.641 182.295 110.245 183.953L110.145 184.371M120.824 175.248C119.962 172.684 118.907 170.226 117.814 168.105C117.067 166.656 116.481 163.826 116.279 162.204C115.985 159.835 116.398 157.782 116.654 155.438C117.287 149.649 115.984 144.302 115.183 138.616C114.787 135.807 113.54 133.185 112.994 130.438C112.46 127.752 111.871 125.129 110.809 122.593C107.906 115.66 104.032 108.718 106.95 101.066M120.824 175.248C122.134 179.15 122.997 183.304 122.87 186.912C122.741 190.545 123.288 194.317 122.434 197.893C121.791 200.589 120.478 202.822 118.979 205.144C118.123 206.469 116.739 208.012 115.464 208.945C114.575 209.596 113.567 210.152 113.186 211.265C112.532 213.174 110.924 215.079 109.953 216.882C109.094 218.476 107.884 220.353 106.71 221.746C105.942 222.657 105.481 223.659 104.876 224.67C104.45 225.383 103.733 225.541 103.254 226.269C102.773 227.001 102.281 226.728 101.538 226.535M120.824 175.248C120.486 175.499 120.139 175.66 119.787 175.691M110.145 184.371C109.739 182.182 108.951 179.912 107.985 178.362C107.213 177.124 105.8 176.476 105.15 175.177C104.153 173.184 104.294 171.178 103.737 169.117C103.16 166.98 102.924 164.743 102.294 162.571C101.66 160.388 100.744 158.339 100.24 156.112C99.0433 150.82 99.5942 145.32 97.9212 140.111C96.0387 134.252 92.1354 129.311 91.0832 123.135C90.6149 120.387 90.3473 117.677 90.1886 114.906C89.9548 110.825 86.79 106.335 88.4744 102.36M110.145 184.371C110.365 185.556 110.473 186.716 110.437 187.727C110.299 191.644 111.393 194.997 110.447 198.957C110.001 200.828 107.488 205.515 105.432 205.698M110.145 184.371L109.736 186.084M131.976 88.1826C131.961 88.1651 131.946 88.1477 131.931 88.1305M131.931 88.1305C130.637 86.6374 130.15 86.0065 130.692 84.0489C131.005 82.9199 132.04 80.7595 133.008 79.9878C133.255 79.791 133.505 79.6148 133.758 79.4558M131.931 88.1305C131.973 88.0293 132.016 87.9284 132.061 87.8282M131.931 88.1305C131.908 88.1876 131.884 88.2448 131.861 88.3023M133.758 79.4558C135.921 78.0935 138.272 77.989 140.561 76.8836C142.852 75.7775 144.678 74.0792 146.846 72.7529C149.392 71.1955 152.734 70.4651 155.619 69.9136C161.849 68.7229 168.533 72.6519 172.395 77.4074C174.396 79.8717 176.221 81.9315 177.632 84.8007C178.733 87.04 178.772 89.4958 179.79 91.7015C180.823 93.9427 184.078 99.9812 180.003 101.021C177.122 101.757 174.549 101.559 171.563 101.501C169.635 101.464 167.502 100.633 165.63 100.194C164.476 99.9238 163.32 99.7545 162.165 99.5816M133.758 79.4558C134.227 78.6319 135.264 78.1418 135.701 77.2446C136.165 76.2957 136.506 75.552 136.759 74.4925C137.503 71.3716 137.31 66.1226 136.033 63.2615M133.758 79.4558C133.674 79.6025 133.608 79.7596 133.567 79.9316M131.861 88.3023C134.298 90.3574 136.912 93.089 140.168 93.8521C140.896 94.0226 141.619 94.2018 142.339 94.3878M131.861 88.3023C131.781 88.2337 131.699 88.1657 131.618 88.0986M131.861 88.3023C130.39 92.027 130.846 96.2687 130.23 100.168C129.75 103.199 128.804 106.154 129.026 109.26C129.231 112.143 128.527 114.946 129.051 117.869C129.527 120.524 129.585 124.879 129.016 127.527C127.934 132.569 127.761 137.541 126.559 142.575C126.135 144.349 125.39 145.889 124.966 147.658C124.607 149.166 121.793 152.171 124.751 151.732M162.165 99.5816C161.104 99.4226 160.045 99.2605 158.994 99.0141C153.362 97.694 147.943 95.8352 142.339 94.3878M162.165 99.5816C162.214 99.402 162.262 99.2219 162.31 99.0413M162.165 99.5816C161.216 103.086 160.113 106.393 159.662 110.044C159.221 113.617 158.752 117.112 157.911 120.633C156.798 125.3 156.026 130.115 154.902 134.822C153.886 139.078 153.037 143.075 152.816 147.435C152.225 159.103 156.746 172.309 148.999 182.621C145.978 186.641 140.075 189.745 138.369 194.648C136.799 199.157 134.909 203.689 132.547 207.845C131.469 209.742 130.323 211.618 129.296 213.541C127.92 216.112 127.379 219.054 126.029 221.586C124.09 225.221 121.001 229.661 116.794 231.025C114.551 231.753 112.31 232.729 111.353 230.041C110.699 228.205 111.225 226.439 110.846 224.59C110.573 223.259 110.994 221.727 109.717 223.241C108.568 224.605 107.151 225.72 106.18 227.225C105.491 228.292 105.074 230.074 103.695 230.413C101.876 230.861 101.272 229.961 101.246 228.639M142.339 94.3878C142.466 94.1639 142.608 93.9385 142.766 93.711M142.339 94.3878C141.134 96.5129 141.241 98.513 140.647 101.005C140.135 103.15 139.499 105.306 139.101 107.475C138.463 110.956 139.461 114.938 139.505 118.465C139.572 123.672 139.571 129.62 138.647 134.741C137.66 140.212 139.727 146.068 138.407 151.599C137.833 154.002 137.655 156.33 137.083 158.726C136.515 161.108 135.262 163.183 134.708 165.502C134.258 167.392 133.507 169.431 133.33 171.365C133.182 172.978 133.323 174.476 132.944 176.066C132.016 179.953 130.058 183.393 129.141 187.236C128.759 188.841 127.628 189.526 126.633 190.606C126.213 191.063 123.217 193.97 124.385 192.891M101.246 228.639C100.951 230.625 100.424 232.094 99.5106 231.995C98.5418 231.891 97.9819 230.621 96.9832 230.341C95.9596 230.052 95.0559 229.832 94.121 229.294C92.0256 228.091 91.7403 228.665 91.4888 226.053C91.2757 223.84 92.1615 220.77 91.1566 218.727C90.8592 218.121 89.6407 219.064 89.0861 219.032C87.8336 218.963 86.7901 217.645 86.3452 216.598C85.2267 213.968 84.4848 210.954 84.6085 208.109C84.7637 204.545 83.9607 200.905 85.9648 197.761C86.3534 197.152 86.7836 196.569 87.2338 195.997M101.246 228.639C101.323 228.117 101.385 227.56 101.433 226.986M101.246 228.639C101.236 228.133 101.31 227.565 101.433 226.986M17.3713 95.82C19.6099 96.3445 21.6627 96.7252 23.9028 96.9965C25.7581 97.2212 27.7047 96.8471 29.5378 97.1715C31.196 97.465 33.1396 97.8814 34.8242 98.0147C36.4703 98.1447 37.6971 96.8824 39.1573 96.5096C42.1684 95.7409 45.8827 93.8012 48.2476 91.7241C50.2539 89.9619 53.8087 88.5477 54.6025 85.7143C54.9643 84.4226 55.3693 82.3971 55.986 80.8085M55.986 80.8085C56.2309 80.1776 56.5093 79.6155 56.8317 79.1959C57.3767 78.4863 57.6029 77.1185 58.0103 76.2849C58.4408 75.4041 58.8009 74.7197 58.9846 73.7011C59.2217 72.3862 55.3664 71.2539 54.5604 70.0395C53.1442 67.9058 51.0679 65.8732 49.1265 64.2665M55.986 80.8085C55.9395 80.699 55.8959 80.5853 55.8557 80.4674M55.986 80.8085C57.1364 83.515 60.1615 83.7263 62.9531 84.3805C64.295 84.6949 67.6282 86.0663 68.6079 85.7057M59.0698 73.3456C60.7296 71.3114 62.5855 68.6734 60.987 66.1083C60.1488 64.7633 59.0519 61.5341 59.2547 59.8905C59.7705 55.7094 54.6843 50.9452 50.9998 50.0817C48.3264 49.4552 45.5417 48.837 42.8121 48.6212C39.5133 48.3603 36.2595 49.2519 33.0237 48.4935C27.1071 47.1069 21.1771 49.5955 17.7984 54.7575C16.0855 57.3743 14.0931 59.9705 11.9443 62.2804C9.92397 64.452 7.49137 65.9671 5.82466 68.4495C5.16629 69.4301 3.65001 70.3613 3.18632 71.31C2.72299 72.258 2.45849 73.5158 1.86578 74.3752C0.425346 76.4635 1.22437 78.8958 1.19334 81.1543C1.16648 83.1095 2.09718 85.6351 3.60931 86.8865C4.05125 87.2523 4.61517 87.5473 5.17916 87.6842M5.17916 87.6842C6.19332 87.9307 7.2077 87.6664 7.51363 86.385C8.30938 83.0522 8.71275 80.4379 10.156 77.2554C11.2964 74.7406 13.8439 72.9086 15.0824 70.5358M5.17916 87.6842C5.00485 87.5317 4.83344 87.3766 4.66576 87.2181M5.17916 87.6842C6.63319 88.9564 8.28797 90.0462 9.64235 91.3841C10.4807 92.2124 10.6519 93.2683 11.523 94.0747C12.2412 94.7395 12.8632 95.1387 13.8822 95.3775C15.0979 95.6624 15.9101 95.1028 17.0982 95.3813M36.3475 98.7671C39.2404 103.559 40.0891 108.725 40.6147 114.182C41.1164 119.393 42.336 124.819 44.0897 129.745C47.6622 139.781 54.3291 148.12 60.7843 156.425C62.2218 158.275 64.0039 159.711 65.5689 161.484C67.1671 163.295 68.3923 165.494 69.9225 167.379C72.5445 170.609 76.1921 174.184 79.9303 176.098C83.9028 178.134 85.1257 182.965 85.89 186.891C86.3462 189.233 86.5307 191.567 87.0567 193.893C87.1661 194.376 87.2112 195.179 87.2338 195.997M87.2338 195.997C87.2817 197.72 87.2306 199.505 87.473 198.489M87.2338 195.997C88.3381 194.595 89.562 193.265 90.5833 191.803C93.1408 188.141 92.8986 185.301 91.646 181.011C90.7867 178.069 89.871 175.184 88.2915 172.519C87.0379 170.403 86.693 168.686 86.8215 166.258C86.9909 163.059 87.8004 159.852 87.433 156.652C87.1374 154.078 86.7062 151.405 85.6872 148.993C84.7971 146.887 84.7938 144.45 83.7467 142.414C82.3638 139.726 82.252 136.276 81.3582 133.398C80.5645 130.842 79.6965 128.347 78.676 125.873C77.3581 122.678 76.6398 119.141 75.6044 115.842C74.7837 113.227 73.8398 110.656 73.0328 108.032C71.6456 103.522 71.0732 98.8629 70.3453 94.2788C69.6689 90.0189 69.6483 85.7164 69.045 81.4963C68.3655 76.7438 67.7171 71.9358 67.1689 67.1623C66.6029 62.2328 65.4676 57.5562 63.4638 53.0037C61.8825 49.411 60.8675 45.2087 61.786 41.3617M45.844 93.8689C46.6879 95.7611 47.623 96.9629 48.8915 98.5409C49.9629 99.8737 50.2876 101.758 51.3721 103.122C53.819 106.198 54.0071 110.42 54.1542 114.189C54.4934 122.874 59.0262 130.514 63.3792 137.724C65.6114 141.421 67.0215 145.089 70.0258 148.281C72.684 151.105 75.0694 154.227 77.2107 157.463C78.5881 159.546 80.796 160.964 82.4369 162.521C83.5869 163.613 85.1761 166.432 86.7759 164.955M101.433 226.986C101.446 226.831 101.458 226.675 101.469 226.517M101.433 226.986C101.465 226.837 101.5 226.686 101.538 226.535M101.469 226.517C101.696 223.321 101.547 219.777 101.489 219.044C101.308 216.781 100.898 214.697 100.204 212.535C99.7919 211.252 98.388 208.576 99.0987 207.214C99.8447 205.785 102.074 207.893 103.112 205.905M101.469 226.517C101.492 226.523 101.515 226.529 101.538 226.535M101.469 226.517C101.45 226.513 101.43 226.508 101.411 226.503C100.446 226.277 101.126 224.19 101.193 223.453M101.538 226.535C101.896 225.107 102.494 223.698 102.797 223.079M77.5564 45.0577C74.6799 49.1849 77.0971 55.7968 77.8437 60.4984C78.5499 64.9462 79.2948 69.4477 80.3372 73.8313C81.0359 76.7698 81.8244 79.6902 82.514 82.5905C82.6471 83.1502 83.0492 84.6661 83.3394 85.0338C83.6524 85.4303 83.2942 87.3356 83.8115 87.0192M60.854 45.2672C58.476 46.3082 54.6898 47.3084 54.0366 50.0439M78.7166 44.9546C80.196 47.2489 83.231 47.7865 85.3432 49.6948C87.0116 51.2022 88.4038 53.1054 90.0271 54.6463C91.1888 55.749 92.4655 57.2456 92.7869 58.9384C93.0147 60.1381 94.0988 60.4296 94.4334 61.5533C94.584 62.059 95.1659 63.6716 95.396 63.862M81.6489 78.6382C81.8625 75.2924 85.9497 72.3763 88.22 70.1376C90.0082 68.3743 91.9709 67.0792 93.8774 65.4642C96.8859 62.9154 100.253 62.1272 103.92 61.4436C105.443 61.1598 107.072 62.4451 108.664 62.1805C110.086 61.944 111.586 64.1727 112.541 64.9638C113.988 66.1612 115.515 67.3226 117.13 68.289C119.267 69.568 122.181 69.8365 124.035 71.5112C126.294 73.5517 128.671 76.0872 129.587 79.1659C129.851 80.0502 131.378 81.176 131.139 82.1753C130.763 83.7529 130.59 84.7318 129.495 85.8935C128.092 87.3818 122.685 88.6305 120.81 88.1909C119.478 87.8788 118.098 87.1806 116.952 86.9118C115.477 86.5662 114.455 85.5767 113 85.2357M152.104 97.3994C151.537 99.7724 150.668 101.997 150.068 104.338C149.26 107.496 149.312 110.578 148.95 113.783C148.365 118.949 148.003 124.087 146.794 129.152C146.276 131.318 145.767 133.701 145.64 135.922C145.512 138.176 144.669 140.237 144.394 142.462C143.844 146.921 144.25 151.434 144.189 155.912C144.136 159.701 144.048 163.983 143.268 167.695C142.546 171.136 140.422 173.691 139.167 176.859C138.658 178.144 137.038 179.167 136.444 180.511C136.048 181.41 135.267 182.162 134.629 182.919C133.494 184.266 131.753 185.038 130.824 186.527" stroke="#F87239" stroke-linecap="round"/>
</svg>
