<svg width="53" height="131" viewBox="0 0 53 131" fill="none" xmlns="http://www.w3.org/2000/svg">
<path d="M12.2432 30.0459C10.2117 30.1588 7.70998 29.7327 5.76884 29.0977C4.69369 28.746 2.81904 26.2804 2.86352 25.1059C3.04191 20.3954 6.47348 18.7599 9.4595 15.67C12.3251 12.7047 14.3486 9.3299 17.6059 6.85833C19.8665 5.14301 22.3471 3.41635 24.8845 2.12982C27.0286 1.04273 29.5909 0.628038 31.912 1.38731C36.388 2.85153 40.1919 6.59178 42.293 10.736C43.163 12.4519 43.9322 14.2138 45.1255 15.6657C46.3561 17.1631 47.7494 18.7161 48.6448 20.4822C49.6923 22.5482 50.5472 24.6671 51.4612 26.7324C52.3882 28.827 51.496 30.4675 50.14 32.1619C49.2847 33.2306 46.3859 34.5045 45.036 34.5735C44.2558 34.6133 40.5365 34.6214 40.8152 34.2455M7.8704 27.6793C6.95197 25.7498 8.25485 25.7215 9.8394 24.9181C11.4284 24.1125 12.2091 23.6846 13.9745 23.8793C16.0711 24.1105 18.4672 24.2443 20.5112 24.7959C22.8018 25.414 25.3871 25.0555 27.6888 25.7401C28.8232 26.0776 30.0377 26.1317 31.2064 26.072C32.1507 26.0238 33.3864 26.8343 34.2955 26.6016C36.1645 26.1232 38.408 26.2343 40.288 26.5993C42.1404 26.959 43.4908 26.748 45.0697 28.0336C46.4292 29.1405 46.2239 30.7978 44.5976 31.6224C44.0219 31.9142 43.6354 32.5116 42.9168 32.8271C42.1176 33.178 41.2152 32.9847 40.3886 33.4038M44.7259 29.4422C41.868 29.7208 39.8562 30.4738 38.9822 33.4121C38.4652 35.1501 38.581 37.1138 38.591 38.8989C38.6015 40.7674 38.6475 42.6237 38.6848 44.4925C38.7086 45.6834 39.1633 46.829 39.1342 48.0058C39.1006 49.3655 39.6872 50.5704 39.5783 51.9722C39.4629 53.4574 39.585 55.0456 39.6195 56.5348C39.6962 59.8482 40.0651 63.2145 40.2614 66.5317C40.3556 68.1239 40.0851 69.6905 40.21 71.2979C40.351 73.1127 40.5807 74.9647 40.5219 76.7808C40.4059 80.3647 40.1013 84.0451 40.1842 87.6271C40.2575 90.7963 40.4465 94.0088 40.4643 97.1807C40.4773 99.517 40.4176 102.313 41.2164 104.536C41.8375 106.265 42.2907 108.084 43.1284 109.737C43.7824 111.027 43.6276 111.853 42.3155 112.46C40.5134 113.294 38.4215 113.439 36.6223 114.289C34.1133 115.475 31.9673 117.459 29.6244 118.914C27.4866 120.243 25.0188 122.568 23.2954 124.395C22.0212 125.747 20.8933 125.864 19.3152 126.59C17.9794 127.204 16.1197 127.193 14.6636 127.46C13.2494 127.719 11.9649 128.554 10.6888 129.201C8.59786 130.261 7.35375 130.636 5.14745 130.247C3.48792 129.955 4.19734 127.293 4.13144 126.003C3.78843 119.286 3.17523 112.451 2.6505 105.698C2.32525 101.512 0.821598 97.3565 1.01754 93.1279C1.22691 88.6092 2.31999 84.7442 3.36049 80.4031C3.96198 77.8936 5.47912 75.4417 6.57766 73.1113C7.31956 71.5375 8.37456 70.0915 8.71527 68.3647C8.95579 67.1456 9.2451 65.8655 9.5853 64.6721C10.6339 60.9936 11.2382 57.2243 11.9444 53.4473C12.3359 51.3535 12.2943 49.2301 12.62 47.1307C12.9314 45.1245 12.6322 43.3131 12.7595 41.3406C12.9031 39.1153 12.8792 36.8201 13.1437 34.6037C13.3373 32.9808 13.8394 31.2617 13.4205 29.6253C13.0906 28.3363 12.7262 27.4322 11.5993 26.69C11.1037 26.3636 10.5312 26.8865 10.0526 26.7299C9.6681 26.6042 9.1077 26.0424 8.9882 26.4077M12.0692 24.1404C13.4415 25.0237 13.9193 25.703 14.6171 27.0794M17.1333 24.393C17.2058 25.4159 17.4121 26.4736 17.2913 27.486M21.7752 24.5078C21.1034 25.9031 20.698 26.5556 21.3722 27.8853M25.8595 25.61C25.4316 26.4183 24.2711 27.3448 24.7494 28.2882M30.0825 26.2891C29.5985 26.965 29.2771 27.5477 28.9685 28.2641M36.1303 26.3962C34.9399 26.7783 32.4788 27.2798 32.4881 28.948M42.7509 28.3277C40.3396 28.493 38.7767 28.6439 36.9954 30.1881M16.5297 16.943C18.6418 16.2603 20.3393 16.2185 22.5025 16.2064C24.4546 16.1955 26.3825 15.6419 28.3686 15.9548C31.3787 16.4289 34.6175 19.3827 37.6358 18.9343M27.4967 117.153C26.6199 113.179 26.4712 109.086 26.2101 105.034C26.067 102.814 26.3037 100.47 25.7037 98.3179M20.3947 104.535C20.8593 110.462 21.6528 116.302 22.2905 122.182C22.3294 122.541 22.9062 124.092 22.4682 123.228" stroke="#F87239" stroke-linecap="round"/>
</svg>
