<svg width="308" height="208" viewBox="0 0 308 208" fill="none" xmlns="http://www.w3.org/2000/svg">
<path d="M293.164 207.28C289.068 207.28 285.655 206.213 282.924 204.08C280.279 201.861 278.956 199.003 278.956 195.504C278.956 193.541 279.34 191.835 280.108 190.384C280.961 188.848 282.199 187.056 283.82 185.008C285.441 183.045 286.636 181.339 287.404 179.888C288.257 178.437 288.684 176.773 288.684 174.896C288.684 171.568 287.575 169.136 285.356 167.6C283.137 166.064 279.98 165.296 275.884 165.296C272.3 165.296 269.356 166.021 267.052 167.472C264.833 168.923 263.724 170.971 263.724 173.616C263.724 175.664 264.151 177.456 265.004 178.992C265.943 180.528 267.351 182.363 269.228 184.496C271.105 186.8 272.471 188.72 273.324 190.256C274.263 191.707 274.732 193.456 274.732 195.504C274.732 198.917 273.452 201.733 270.892 203.952C268.332 206.171 264.748 207.28 260.14 207.28C255.873 207.28 252.503 206.213 250.028 204.08C247.639 201.861 246.444 198.832 246.444 194.992C246.444 193.2 246.785 191.579 247.468 190.128C248.236 188.592 249.345 186.757 250.796 184.624C252.247 182.32 253.313 180.443 253.996 178.992C254.764 177.456 255.148 175.792 255.148 174C255.148 170.928 254.38 168.709 252.844 167.344C251.393 165.979 248.407 165.296 243.884 165.296C240.3 165.296 237.313 165.936 234.924 167.216C232.62 168.411 231.468 170.331 231.468 172.976C231.468 174.512 231.852 175.877 232.62 177.072C233.473 178.267 234.711 179.632 236.332 181.168C237.953 182.704 239.148 184.069 239.916 185.264C240.769 186.459 241.196 187.867 241.196 189.488C241.196 192.645 240.215 195.12 238.252 196.912C236.289 198.704 232.62 199.6 227.244 199.6C222.124 199.6 218.284 198.747 215.724 197.04C213.249 195.248 212.012 192.901 212.012 190C212.012 188.549 212.396 187.312 213.164 186.288C214.017 185.179 215.297 183.856 217.004 182.32C218.881 180.613 220.289 179.12 221.228 177.84C222.167 176.56 222.636 174.939 222.636 172.976C222.636 171.696 222.295 170.715 221.612 170.032C220.929 169.349 219.777 168.496 218.156 167.472C216.108 166.192 214.529 164.912 213.42 163.632C212.311 162.352 211.756 160.432 211.756 157.872C211.756 154.544 212.823 151.728 214.956 149.424C217.089 147.035 220.033 145.84 223.788 145.84C226.177 145.84 228.012 146.395 229.292 147.504C230.657 148.528 231.596 149.765 232.108 151.216C232.62 152.667 233.089 154.544 233.516 156.848C233.772 158.555 234.071 159.835 234.412 160.688C234.753 161.541 235.308 161.968 236.076 161.968C237.271 161.968 238.295 161.243 239.148 159.792C240.087 158.341 241.153 156.08 242.348 153.008C244.225 148.315 246.103 144.688 247.98 142.128C249.943 139.483 252.588 138.16 255.916 138.16C258.988 138.16 261.207 139.44 262.572 142C264.023 144.475 265.345 147.973 266.54 152.496C267.393 155.483 268.119 157.659 268.716 159.024C269.313 160.304 270.167 160.944 271.276 160.944C271.959 160.944 272.684 160.603 273.452 159.92C274.22 159.152 275.287 158 276.652 156.464C279.383 153.221 282.071 150.661 284.716 148.784C287.447 146.821 290.689 145.84 294.444 145.84C298.284 145.84 301.356 146.992 303.66 149.296C305.964 151.6 307.116 154.459 307.116 157.872C307.116 159.664 306.689 161.285 305.836 162.736C304.983 164.101 303.66 165.808 301.868 167.856C300.417 169.477 299.308 170.885 298.54 172.08C297.857 173.189 297.516 174.384 297.516 175.664C297.516 177.456 297.857 178.949 298.54 180.144C299.308 181.253 300.46 182.576 301.996 184.112C303.703 186.075 304.983 187.781 305.836 189.232C306.689 190.597 307.116 192.389 307.116 194.608C307.116 198.789 305.921 201.947 303.532 204.08C301.143 206.213 297.687 207.28 293.164 207.28Z" fill="white"/>
<path d="M179.905 207.28C175.382 207.28 171.628 206.64 168.641 205.36C165.654 204.08 162.412 202.203 158.913 199.728C155.926 197.68 153.409 196.187 151.361 195.248C149.313 194.309 146.881 193.84 144.065 193.84L142.785 191.92L144.065 190C147.478 190 150.294 188.933 152.513 186.8C154.732 184.581 155.841 180.997 155.841 176.048C155.841 171.781 154.774 168.581 152.641 166.448C150.508 164.229 147.649 163.12 144.065 163.12L142.785 161.2L144.065 159.28C147.82 159.28 151.02 159.024 153.665 158.512C156.396 158 159.382 157.232 162.625 156.208C165.526 155.355 168.086 154.715 170.305 154.288C172.609 153.776 175.212 153.52 178.113 153.52C185.878 153.52 192.278 155.611 197.313 159.792C202.348 163.973 204.865 170.117 204.865 178.224C204.865 183.173 203.969 187.867 202.177 192.304C200.47 196.741 197.74 200.368 193.985 203.184C190.23 205.915 185.537 207.28 179.905 207.28ZM181.185 190.64C185.452 190.64 188.95 189.659 191.681 187.696C194.412 185.733 195.777 183.088 195.777 179.76C195.777 176.347 194.412 173.701 191.681 171.824C188.95 169.947 185.452 169.008 181.185 169.008C175.809 169.008 171.713 169.776 168.897 171.312C166.166 172.763 164.801 175.408 164.801 179.248C164.801 182.747 166.294 185.52 169.281 187.568C172.353 189.616 176.321 190.64 181.185 190.64Z" fill="white"/>
<path d="M110.52 207.28C102.328 207.28 95.9707 204.379 91.448 198.576C87.0107 192.773 84.792 185.264 84.792 176.048C84.792 169.648 85.9867 164.187 88.376 159.664C90.7653 155.056 93.9227 151.6 97.848 149.296C101.859 146.992 106.211 145.84 110.904 145.84C115.683 145.84 119.523 146.523 122.424 147.888C125.325 149.253 128.269 151.173 131.256 153.648C133.731 155.611 135.821 157.061 137.528 158C139.32 158.853 141.496 159.28 144.056 159.28L145.336 161.2L144.056 163.12C140.899 163.12 138.253 164.272 136.12 166.576C133.987 168.795 132.92 171.952 132.92 176.048C132.92 180.4 133.944 183.813 135.992 186.288C138.125 188.763 140.813 190 144.056 190L145.336 191.92L144.056 193.84C141.24 193.84 138.808 194.352 136.76 195.376C134.797 196.315 132.451 197.808 129.72 199.856C126.477 202.245 123.491 204.08 120.76 205.36C118.115 206.64 114.701 207.28 110.52 207.28ZM109.368 190.512C114.147 190.512 117.773 189.104 120.248 186.288C122.723 183.472 123.96 180.016 123.96 175.92C123.96 171.397 122.723 168.069 120.248 165.936C117.859 163.717 114.275 162.608 109.496 162.608C104.888 162.608 101.133 163.76 98.232 166.064C95.416 168.283 94.008 171.568 94.008 175.92C94.008 180.101 95.3307 183.6 97.976 186.416C100.621 189.147 104.419 190.512 109.368 190.512Z" fill="white"/>
<path d="M41.216 207.28C33.024 207.28 25.856 206.64 19.712 205.36C13.568 204.08 8.74667 202.117 5.248 199.472C1.74933 196.741 0 193.285 0 189.104C0 185.52 1.06667 182.789 3.2 180.912C5.33333 179.035 7.76533 178.096 10.496 178.096C13.3973 178.096 15.744 178.48 17.536 179.248C19.4133 180.016 21.376 181.211 23.424 182.832C26.4107 184.965 29.3973 186.587 32.384 187.696C35.3707 188.805 39.68 189.36 45.312 189.36C52.992 189.36 58.7947 187.995 62.72 185.264C66.6453 182.448 68.608 178.821 68.608 174.384C68.608 171.056 67.2 168.496 64.384 166.704C61.568 164.827 57.4293 163.888 51.968 163.888C46.1653 163.888 41.5147 164.4 38.016 165.424C34.6027 166.363 31.104 167.771 27.52 169.648C24.7893 170.928 22.528 171.867 20.736 172.464C19.0293 173.061 16.896 173.36 14.336 173.36C11.52 173.36 9.38667 172.72 7.936 171.44C6.57067 170.075 5.888 167.984 5.888 165.168C5.888 163.205 6.31467 160.901 7.168 158.256C8.10667 155.611 9.38667 153.349 11.008 151.472C12.7147 149.509 14.72 148.528 17.024 148.528C18.7307 148.528 20.1387 148.827 21.248 149.424C22.4427 149.936 23.808 150.789 25.344 151.984C27.5627 153.776 29.8667 155.184 32.256 156.208C34.7307 157.147 38.272 157.616 42.88 157.616C49.024 157.616 54.016 156.336 57.856 153.776C61.7813 151.131 63.744 147.76 63.744 143.664C63.744 140.251 62.2507 137.605 59.264 135.728C56.2773 133.851 51.968 132.912 46.336 132.912C42.1547 132.912 38.656 133.467 35.84 134.576C33.1093 135.6 30.0373 137.136 26.624 139.184C24.064 140.72 21.9733 141.829 20.352 142.512C18.7307 143.195 16.8533 143.536 14.72 143.536C11.4773 143.536 8.91733 142.512 7.04 140.464C5.248 138.416 4.352 135.899 4.352 132.912C4.352 126.939 7.552 122.501 13.952 119.6C20.352 116.613 28.8427 115.12 39.424 115.12C50.5173 115.12 59.392 117.339 66.048 121.776C72.704 126.213 76.032 132.357 76.032 140.208C76.032 142.171 75.5627 144.048 74.624 145.84C73.7707 147.632 72.4907 149.381 70.784 151.088C69.504 152.112 68.5653 153.008 67.968 153.776C67.456 154.544 67.2 155.355 67.2 156.208C67.2 157.659 68.096 159.109 69.888 160.56C73.0453 163.035 75.264 165.637 76.544 168.368C77.9093 171.099 78.5493 174.597 78.464 178.864C78.3787 184.325 76.928 189.189 74.112 193.456C71.3813 197.723 67.2 201.093 61.568 203.568C56.0213 206.043 49.2373 207.28 41.216 207.28Z" fill="white"/>
<path d="M251.589 92.2801C246.725 92.2801 243.056 91.2988 240.581 89.3361C238.106 87.2881 236.869 84.5148 236.869 81.0161C236.869 79.3948 237.125 77.9868 237.637 76.7921C238.234 75.5975 239.088 74.2321 240.197 72.6961C242.245 69.6241 243.824 66.4668 244.933 63.2241C246.128 59.8961 246.725 55.0748 246.725 48.7601C246.725 43.4695 246.213 38.9895 245.189 35.3201C244.165 31.6508 242.714 27.7681 240.837 23.6721C239.642 21.0268 238.746 18.8508 238.149 17.1441C237.552 15.4375 237.253 13.6028 237.253 11.6401C237.253 8.14145 238.49 5.36812 240.965 3.32011C243.44 1.18678 246.981 0.120117 251.589 0.120117C256.112 0.120117 259.44 1.18678 261.573 3.32011C263.792 5.36812 264.901 8.09879 264.901 11.5121C264.901 13.3895 264.602 15.1388 264.005 16.7601C263.408 18.2961 262.512 20.2588 261.317 22.6481C259.61 26.1468 258.288 29.3041 257.349 32.1201C256.41 34.9361 255.941 38.3921 255.941 42.4881V43.5121C256.197 46.0721 257.008 47.3521 258.373 47.3521C259.738 47.3521 260.933 46.8828 261.957 45.9441C263.066 45.0055 264.389 43.5121 265.925 41.4641C267.717 39.2455 269.296 37.4535 270.661 36.0881C272.112 34.6375 273.946 33.4001 276.165 32.3761C278.469 31.3521 281.2 30.8401 284.357 30.8401C288.624 30.8401 291.824 31.9495 293.957 34.1681C296.176 36.3015 297.285 38.9895 297.285 42.2321C297.285 44.1948 296.901 45.9441 296.133 47.4801C295.365 48.9308 294.256 50.5948 292.805 52.4721C291.013 54.8615 289.69 56.9095 288.837 58.6161C288.069 60.3228 287.685 62.4561 287.685 65.0161C287.685 68.1735 288.197 70.7761 289.221 72.8241C290.245 74.7868 291.738 76.9201 293.701 79.2241C295.237 81.1015 296.346 82.6801 297.029 83.9601C297.712 85.1548 298.053 86.6055 298.053 88.3121C298.053 91.8961 296.901 94.7121 294.597 96.7601C292.378 98.8935 288.794 99.9601 283.845 99.9601C278.896 99.9601 275.226 98.9361 272.837 96.8881C270.448 94.9255 269.253 92.1948 269.253 88.6961C269.253 86.8188 269.552 85.1121 270.149 83.5761C270.832 82.0401 271.813 80.1201 273.093 77.8161C274.885 74.5735 276.25 71.6721 277.189 69.1121C278.128 66.4668 278.597 63.1815 278.597 59.2561C278.597 56.0988 277.701 53.7521 275.909 52.2161C274.117 50.6801 271.472 49.9121 267.973 49.9121C263.621 49.9121 260.464 50.7228 258.501 52.3441C256.538 53.9655 255.557 56.6961 255.557 60.5361C255.557 63.1815 256.026 65.3148 256.965 66.9361C257.989 68.4721 259.397 70.1788 261.189 72.0561C262.725 73.5068 263.877 74.8721 264.645 76.1521C265.498 77.4321 265.925 78.9681 265.925 80.7601C265.925 84.2588 264.73 87.0748 262.341 89.2081C259.952 91.2561 256.368 92.2801 251.589 92.2801Z" fill="white"/>
<path d="M210.681 92.2801C206.329 92.2801 202.574 91.8108 199.417 90.8721C196.345 89.9334 193.87 88.8668 191.993 87.6721C190.201 86.3921 188.281 84.8134 186.233 82.9361C184.612 81.4854 183.289 80.4614 182.265 79.8641C181.326 79.1814 180.26 78.8401 179.065 78.8401L177.785 76.9201L179.065 75.0001C180.26 75.0001 181.241 74.7868 182.009 74.3601C182.862 73.8481 183.716 73.1228 184.569 72.1841C185.678 71.1601 186.745 70.3921 187.769 69.8801C188.793 69.2828 190.116 68.9841 191.737 68.9841C193.017 68.9841 194.126 69.1974 195.065 69.6241C196.004 70.0508 197.241 70.7761 198.777 71.8001C200.398 72.9094 201.849 73.7628 203.129 74.3601C204.494 74.8721 206.073 75.1281 207.865 75.1281C210.766 75.1281 212.942 74.6588 214.393 73.7201C215.929 72.7814 216.697 71.4588 216.697 69.7521C216.697 67.8748 215.886 66.5521 214.265 65.7841C212.729 65.0161 209.7 64.2481 205.177 63.4801C200.228 62.6268 196.302 61.5601 193.401 60.2801C190.5 58.9148 188.409 57.5921 187.129 56.3121C185.849 54.9468 184.697 53.3681 183.673 51.5761C182.82 50.2961 182.094 49.4001 181.497 48.8881C180.985 48.3761 180.174 48.1201 179.065 48.1201L177.785 46.2001L179.065 44.2801C180.772 44.2801 182.265 43.8961 183.545 43.1281C184.91 42.3601 186.66 41.1228 188.793 39.4161C192.036 36.6854 195.193 34.5948 198.265 33.1441C201.422 31.6081 205.604 30.8401 210.809 30.8401C214.82 30.8401 218.446 31.5228 221.689 32.8881C224.932 34.1681 227.449 35.9601 229.241 38.2641C231.033 40.5681 231.929 43.0428 231.929 45.6881C231.929 48.4188 231.118 50.5094 229.497 51.9601C227.876 53.4108 225.785 54.1361 223.225 54.1361C221.604 54.1361 220.153 53.9654 218.873 53.6241C217.678 53.1974 216.313 52.5574 214.777 51.7041C212.985 50.6801 211.236 49.9121 209.529 49.4001C207.822 48.8881 205.689 48.6321 203.129 48.6321C200.313 48.6321 198.265 49.1014 196.985 50.0401C195.79 50.8934 195.193 52.0454 195.193 53.4961C195.193 56.2268 199.588 58.3601 208.377 59.8961C214.35 60.9201 219.044 62.0721 222.457 63.3521C225.956 64.6321 228.516 66.2961 230.137 68.3441C231.844 70.3921 232.697 73.0801 232.697 76.4081C232.697 80.8454 230.734 84.6001 226.809 87.6721C222.969 90.7441 217.593 92.2801 210.681 92.2801Z" fill="white"/>
<path d="M160.565 30.8402C163.125 30.8402 165.173 31.2242 166.709 31.9922C168.331 32.7602 169.483 33.6562 170.165 34.6802C170.933 35.7042 171.744 37.0695 172.597 38.7762C173.365 40.6535 174.176 42.0615 175.029 43.0002C175.968 43.8535 177.333 44.2802 179.125 44.2802L180.405 46.2002L179.125 48.1202C175.712 48.1202 173.024 49.3575 171.061 51.8322C169.099 54.3068 168.117 57.8908 168.117 62.5842C168.117 66.5948 169.227 69.6668 171.445 71.8002C173.664 73.9335 176.224 75.0002 179.125 75.0002L180.405 76.9202L179.125 78.8402C177.76 78.8402 176.608 79.3522 175.669 80.3762C174.816 81.3148 173.92 82.7655 172.981 84.7282C171.701 87.2882 170.464 89.2082 169.269 90.4882C168.075 91.6828 166.368 92.2802 164.149 92.2802C162.016 92.2802 160.608 91.6402 159.925 90.3602C159.243 88.9948 158.816 87.1602 158.645 84.8562C158.389 82.6375 157.963 80.9735 157.365 79.8642C156.853 78.7548 155.787 78.2002 154.165 78.2002C153.312 78.2002 152.459 78.5415 151.605 79.2242C150.837 79.9068 149.728 81.0588 148.277 82.6802C145.632 85.6668 143.072 88.0135 140.597 89.7202C138.123 91.4268 134.88 92.2802 130.869 92.2802C126.261 92.2802 122.72 90.9575 120.245 88.3122C117.856 85.6668 116.661 82.3388 116.661 78.3282C116.661 76.1095 117.173 74.2748 118.197 72.8242C119.221 71.3735 120.757 69.6668 122.805 67.7042C124.597 66.0828 125.92 64.6748 126.773 63.4802C127.712 62.2002 128.181 60.7068 128.181 59.0002C128.181 56.0135 127.499 53.5815 126.133 51.7042C124.853 49.8268 122.891 47.7362 120.245 45.4322C118.112 43.6402 116.491 42.0188 115.381 40.5682C114.357 39.1175 113.845 37.3682 113.845 35.3202C113.845 31.7362 115.04 28.8348 117.429 26.6162C119.819 24.3122 123.275 23.1602 127.797 23.1602C130.528 23.1602 132.832 23.7575 134.709 24.9522C136.587 26.0615 137.995 27.5975 138.933 29.5602C139.957 31.5228 140.469 33.6988 140.469 36.0882C140.469 37.9655 140.341 39.6295 140.085 41.0802C139.915 42.5308 139.573 44.2375 139.061 46.2002C138.464 48.8455 138.037 51.1068 137.781 52.9842C137.525 54.8615 137.397 57.2082 137.397 60.0242C137.397 64.5468 138.251 68.0455 139.957 70.5202C141.749 72.9095 144.437 74.1042 148.021 74.1042C151.264 74.1042 153.952 73.1655 156.085 71.2882C158.219 69.4108 159.285 67.0642 159.285 64.2482C159.285 62.2855 158.816 60.5788 157.877 59.1282C156.939 57.6775 155.573 56.0562 153.781 54.2642C151.733 52.2162 150.197 50.3815 149.173 48.7602C148.149 47.1388 147.637 45.1762 147.637 42.8722C147.637 39.3735 148.747 36.5148 150.965 34.2962C153.269 31.9922 156.469 30.8402 160.565 30.8402Z" fill="white"/>
<path d="M104.576 115.32C100.48 115.32 96.8533 114.296 93.696 112.248C90.624 110.285 88.2347 107.341 86.528 103.416C84.8213 99.4908 83.968 94.7975 83.968 89.3361C83.968 85.5815 84.224 82.1255 84.736 78.9681C85.248 75.8108 86.016 71.8428 87.04 67.0641C88.1493 62.2854 88.96 58.1041 89.472 54.5201C90.0693 50.8508 90.368 46.8401 90.368 42.4881C90.368 28.7495 85.76 21.8801 76.544 21.8801C71.424 21.8801 67.3707 24.3548 64.384 29.3041C61.4827 34.2535 60.032 40.7388 60.032 48.7601C60.032 52.8561 60.4587 56.3975 61.312 59.3841C62.2507 62.2855 63.5733 65.4428 65.28 68.8561C66.56 71.5015 67.456 73.6775 67.968 75.3841C68.5653 77.0908 68.864 78.9255 68.864 80.8881C68.864 84.3868 67.7547 87.1601 65.536 89.2081C63.4027 91.1708 59.8613 92.1521 54.912 92.1521C50.4747 92.1521 47.0187 91.1708 44.544 89.2081C42.0693 87.2455 40.832 84.5148 40.832 81.0161C40.832 78.8828 41.1733 76.9201 41.856 75.1281C42.5387 73.2508 43.5627 70.9041 44.928 68.0881C46.8907 64.1628 48.384 60.6641 49.408 57.5921C50.432 54.4348 50.944 50.6375 50.944 46.2001C50.944 38.0081 49.664 31.8215 47.104 27.6401C44.6293 23.4588 41.2587 21.3681 36.992 21.3681C34.2613 21.3681 32 21.7948 30.208 22.6481C28.416 23.4161 26.368 24.6535 24.064 26.3601C22.272 27.7255 20.6507 28.7921 19.2 29.5601C17.7493 30.2428 16.0427 30.5841 14.08 30.5841C9.472 30.5841 5.97333 29.4321 3.584 27.1281C1.19467 24.7388 0 21.2828 0 16.7601C0 11.5548 1.96267 7.50145 5.888 4.60012C9.89867 1.61345 14.72 0.120117 20.352 0.120117C27.3493 0.120117 32.896 1.05878 36.992 2.93612C41.1733 4.72812 44.16 6.81878 45.952 9.20811C47.744 11.5975 49.3653 14.4988 50.816 17.9121C51.6693 19.9601 52.3947 21.4535 52.992 22.3921C53.6747 23.2455 54.6133 23.6721 55.808 23.6721C56.9173 23.6721 57.856 23.2028 58.624 22.2641C59.392 21.2401 60.3307 19.5335 61.44 17.1441C63.0613 13.8161 64.6827 11.0428 66.304 8.82412C68.0107 6.52012 70.528 4.51479 73.856 2.80812C77.2693 1.01612 81.6213 0.120117 86.912 0.120117C94.592 0.120117 100.309 1.86945 104.064 5.36812C107.904 8.86679 109.824 13.1335 109.824 18.1681C109.824 20.5575 109.483 22.7761 108.8 24.8241C108.117 26.7868 106.965 29.5601 105.344 33.1441C103.211 37.5815 101.547 41.6775 100.352 45.4321C99.2427 49.1015 98.688 53.4535 98.688 58.4881C98.688 65.1441 99.2853 70.7335 100.48 75.2561C101.76 79.6935 103.211 83.1921 104.832 85.7521C106.539 88.2268 108.629 90.8295 111.104 93.5601C112.981 95.5228 114.304 97.1441 115.072 98.4241C115.925 99.7041 116.352 101.197 116.352 102.904C116.352 106.403 115.285 109.347 113.152 111.736C111.019 114.125 108.16 115.32 104.576 115.32ZM14.208 107.64C10.1973 107.64 6.95467 106.573 4.48 104.44C2.00533 102.307 0.768 99.3201 0.768 95.4801C0.768 93.6881 1.10933 91.7255 1.792 89.5921C2.47467 87.4588 3.584 84.3441 5.12 80.2481C7.50933 74.1041 9.38667 68.5575 10.752 63.6081C12.1173 58.5735 12.8 53.2401 12.8 47.6081C12.8 45.0481 13.2267 43.1708 14.08 41.9761C15.0187 40.6961 16.2133 40.0561 17.664 40.0561C20.9067 40.0561 23.3387 43.0001 24.96 48.8881C26.6667 54.6908 27.776 61.2615 28.288 68.6001C28.8 75.8535 29.056 82.8935 29.056 89.7201C29.056 95.7788 27.648 100.259 24.832 103.16C22.016 106.147 18.4747 107.64 14.208 107.64Z" fill="white"/>
</svg>
