<svg width="630" height="97" viewBox="0 0 630 97" fill="none" xmlns="http://www.w3.org/2000/svg">
<path d="M50.4094 24.6907C42.4292 26.0278 30.9376 30.2906 23.494 35.0437C-2.99474 51.836 -1.5217 61.4388 28.1496 62.3101C56.8798 63.1722 35.8666 66.1269 34.8877 75.7076C33.9088 85.2883 46.8608 74.5022 55.4422 78.3195C63.272 81.8024 75.9967 80.0595 74.1567 70.5677C72.3166 61.0758 60.5721 80.5834 62.169 68.6298C63.687 57.1901 66.9042 54.6478 75.4789 57.8854C83.6909 61.1838 95.2404 58.0801 96.6855 52.4957C98.0622 46.589 91.2848 38.5426 77.4892 30.1698C65.4181 22.8436 63.8305 22.4418 50.4094 24.6907Z" fill="#F28E56"/>
<path d="M155.385 68.4168C151.525 74.0031 156.761 74.5649 150.56 77.4407C144.36 80.3166 165.462 83.0383 172.754 79.817C177.045 77.921 188.192 70.9951 179.99 70.9951C171.789 70.9951 167.688 67.1277 172.754 64.3346C174.683 63.2603 181.197 62.4009 187.227 62.4009C202.184 62.4009 210.144 57.0295 207.732 48.4352C205.078 39.1964 189.64 26.7348 177.337 23.7268C153.455 17.9257 119.2 25.8754 110.275 39.4113C103.038 49.9393 109.551 53.8067 138.981 57.0295C145.253 57.6741 152.008 59.6078 154.42 61.1118C158.038 63.4752 158.28 64.3346 155.385 68.4168Z" fill="#F28E56"/>
<path d="M290.728 30.8443C296.359 41.1918 278.933 78.9136 274.958 78.2425C268.951 67.895 252.056 66.2261 257.687 55.8786C265.572 40.858 284.908 52.0399 275.897 38.6883C266.886 26.0042 256.749 21.9988 245.86 27.3394C236.099 32.0125 236.099 32.3463 245.86 42.36C258.251 55.044 255.622 81.7473 244.734 85.0852C239.142 86.7996 267.919 86.9854 266.511 82.6127C265.103 78.24 301.71 90.1167 296.078 83.8582C290.446 77.5996 290.164 32.5132 302.555 19.8291C312.316 9.81544 312.316 6.97821 302.555 2.30515C291.666 -3.03549 281.529 0.969978 272.518 13.654C263.507 27.0056 282.843 15.8237 290.728 30.8443Z" fill="#F28E56"/>
<path d="M588.945 55.7846C599.254 73.6733 610.731 70.0795 613.731 64.6193C615.102 62.4857 613.731 59.3564 609.531 55.2314C602.759 48.5461 600.188 45.6302 600.188 44.6345C600.188 42.7143 604.559 41.1496 609.702 41.2207C614.502 41.2919 619.045 42.7853 619.045 44.35C619.045 44.7767 616.988 45.8435 614.417 46.7681C609.359 48.6172 608.074 50.3952 609.702 53.0267C613.474 59.143 618.188 58.4318 624.788 50.6797C631.389 42.9276 630.247 60.4906 629.181 66.9593C627.56 76.8076 619.045 86.9591 609.702 85.68C605.558 85.1127 603.783 92.4601 599.957 89.6899C596.131 86.9196 599.957 74.2973 588.477 62.2328C569.968 42.6801 562.939 34.1518 562.939 31.2397C562.939 25.6235 574.888 21.0473 588.945 21.2553C602.066 21.4633 614.483 25.8314 614.483 30.4076C614.483 31.6556 608.86 34.7758 601.832 37.4799C588.008 42.8881 584.494 48.0883 588.945 55.7846Z" fill="#F28E56"/>
<path d="M374.472 48.9796C379.135 55.3834 383.215 62.28 383.215 64.2504C383.215 66.2208 378.341 69.6437 374.07 71.6777C369.69 73.7641 366.718 78.1198 361.69 74.3432C356.663 70.5666 357.1 65.3122 362.346 61.0429C368.467 56.2811 364.404 51.6118 354.895 49.8056C339.537 39.6903 335.459 55.4601 347.045 68.9245C350.542 73.1938 354.052 72.396 353.602 79.1051C353.153 85.8141 380.494 76.4967 386.683 82.7624C393.169 89.3292 416.764 85.998 415.375 79.1051C413.985 72.2122 419.455 70.2381 424.118 63.8343C439.566 43.6375 430.79 23.0875 412.752 36.7562C398.762 40.2044 395.556 44.8691 403.717 52.0119C410.712 58.4157 411.295 66.2973 404.591 71.9623C397.888 77.6272 401.179 70.3289 399.295 68.9245C389.21 61.4069 398.549 60.6543 393.999 57.1076C389.449 53.5609 387.879 43.561 394.874 37.1572C403.034 30.0144 395.92 28.6884 379.84 27.4882C353.827 20.9871 359.025 28.7829 374.472 48.9796Z" fill="#F28E56"/>
<path d="M508.318 35.8827C516.187 41.996 501.238 50.4158 494.154 50.4158C487.069 50.4158 486.298 61.7945 488.42 69.3603C490.541 76.9261 502.511 75.456 505.551 75.3574C508.591 75.2587 511.656 76.3565 512.901 71.7695C514.02 67.6478 512.901 61.4488 509.165 61.4488C505.429 61.4488 496.282 56.3749 500.865 53.5314C517.881 42.9741 511.067 35.8827 527.352 50.1676C535.072 59.1553 527.529 61.4488 521.34 61.4488C515.152 61.4488 518.044 63.0349 517.641 64.8891C516.396 70.6228 519.633 73.6715 520.131 76.3565C521.048 81.2894 534.072 71.4375 535.072 76.3565C536.073 81.2755 532.711 77.78 532.711 81.9919C532.711 88.3047 509.563 82.1935 494.937 84.0968C485.633 85.3076 480.666 89.2886 471.328 88.3067C461.09 87.2303 447.719 77.7801 447.719 77.7801C449.616 68.7508 474.313 86.835 476.051 77.7801C476.996 72.8515 483.133 67.2554 480.772 56.7306C480.009 53.3272 485.493 50.4158 473.758 50.4158C462.022 50.4158 447.72 46.2059 462.359 29.7082C497.299 -2.20795 476.089 10.8458 508.318 35.8827Z" fill="#F28E56"/>
</svg>
